<?xml version="1.0" encoding="UTF-8"?>
<svg width="560px" height="325px" viewBox="0 0 560 325" version="1.1" xmlns="http://www.w3.org/2000/svg" xmlns:xlink="http://www.w3.org/1999/xlink">
    <!-- Generator: Sketch 47.1 (45422) - http://www.bohemiancoding.com/sketch -->
    <title>Group 15 Copy</title>
    <desc>Created with Sketch.</desc>
    <defs></defs>
    <g id="Page-1" stroke="none" stroke-width="1" fill="none" fill-rule="evenodd">
        <g id="Group-15-Copy" transform="translate(-1.000000, -26.000000)">
            <rect id="Rectangle-9" x="2" y="0" width="255" height="56"></rect>
            <g id="Group-14" transform="translate(0.000000, 22.000000)">
                <path d="M1.134,14.706 C1.368,16.938 2.862,18.144 4.95,18.144 C6.156,18.144 7.11,17.748 7.83,16.974 C8.55,16.182 8.91,15.156 8.91,13.896 C8.91,12.636 8.568,11.61 7.884,10.836 C7.2,10.044 6.264,9.648 5.058,9.648 C4.212,9.648 3.528,9.936 2.988,10.494 L3.456,6.84 L8.154,6.84 L8.154,5.4 L2.142,5.4 L1.458,12.276 L2.412,12.492 C3.114,11.556 3.96,11.088 4.95,11.088 C6.462,11.088 7.362,12.186 7.362,13.896 C7.362,15.606 6.462,16.704 4.95,16.704 C3.672,16.704 2.826,15.912 2.664,14.418 L1.134,14.706 Z M11.124,14.544 C11.232,15.624 11.664,16.488 12.42,17.154 C13.176,17.82 14.076,18.144 15.138,18.144 C16.344,18.144 17.316,17.766 18.072,17.01 C18.828,16.236 19.206,15.246 19.206,14.04 C19.206,12.888 18.882,11.952 18.252,11.25 C17.622,10.53 16.83,10.17 15.858,10.17 C15.624,10.17 15.462,10.188 15.354,10.224 L18.558,5.886 L18.558,5.4 L11.718,5.4 L11.718,6.84 L16.272,6.84 L13.392,10.764 L14.022,11.61 C14.346,11.448 14.724,11.376 15.138,11.376 C16.65,11.376 17.658,12.366 17.658,14.04 C17.658,15.714 16.65,16.704 15.138,16.704 C13.698,16.704 12.87,15.912 12.636,14.346 L11.124,14.544 Z M22.032,10.188 C21.474,9.63 21.204,8.946 21.204,8.136 C21.204,7.326 21.474,6.66 22.032,6.102 C22.59,5.544 23.274,5.256 24.084,5.256 C24.894,5.256 25.578,5.544 26.136,6.102 C26.694,6.66 26.964,7.326 26.964,8.136 C26.964,8.946 26.694,9.63 26.136,10.188 C25.578,10.746 24.894,11.016 24.084,11.016 C23.274,11.016 22.59,10.746 22.032,10.188 Z M23.328,18.522 L22.428,17.802 L32.112,4.878 L33.012,5.58 L23.328,18.522 Z M22.932,6.984 C22.662,7.29 22.518,7.668 22.518,8.136 C22.518,8.604 22.662,9 22.932,9.306 C23.22,9.612 23.598,9.756 24.084,9.756 C24.57,9.756 24.948,9.612 25.218,9.306 C25.506,9 25.65,8.604 25.65,8.136 C25.65,7.668 25.506,7.29 25.218,6.984 C24.948,6.678 24.57,6.516 24.084,6.516 C23.598,6.516 23.22,6.678 22.932,6.984 Z M29.34,17.316 C28.782,16.758 28.512,16.074 28.512,15.264 C28.512,14.454 28.782,13.788 29.34,13.23 C29.898,12.672 30.582,12.384 31.392,12.384 C32.202,12.384 32.886,12.672 33.444,13.23 C34.002,13.788 34.272,14.454 34.272,15.264 C34.272,16.074 34.002,16.758 33.444,17.316 C32.886,17.874 32.202,18.144 31.392,18.144 C30.582,18.144 29.898,17.874 29.34,17.316 Z M30.24,14.112 C29.97,14.418 29.826,14.796 29.826,15.264 C29.826,15.732 29.97,16.128 30.24,16.434 C30.528,16.74 30.906,16.884 31.392,16.884 C31.878,16.884 32.256,16.74 32.526,16.434 C32.814,16.128 32.958,15.732 32.958,15.264 C32.958,14.796 32.814,14.418 32.526,14.112 C32.256,13.806 31.878,13.644 31.392,13.644 C30.906,13.644 30.528,13.806 30.24,14.112 Z M43.38,18 L47.556,11.304 L47.556,18 L49.068,18 L49.068,8.928 L47.484,8.928 L43.308,15.624 L43.308,8.928 L41.796,8.928 L41.796,18 L43.38,18 Z M53.892,18 L53.892,13.86 L57.78,13.86 L57.78,18 L59.292,18 L59.292,8.928 L57.78,8.928 L57.78,12.492 L53.892,12.492 L53.892,8.928 L52.38,8.928 L52.38,18 L53.892,18 Z M66.186,18 L62.604,18 L62.604,8.928 L66.114,8.928 C67.644,8.928 68.724,9.81 68.724,11.178 C68.724,11.988 68.382,12.618 67.716,13.032 C68.634,13.518 69.102,14.238 69.102,15.228 C69.102,16.038 68.832,16.704 68.292,17.226 C67.752,17.748 67.05,18 66.186,18 Z M64.116,13.86 L64.116,16.632 L66.042,16.632 C67.05,16.632 67.554,16.164 67.554,15.246 C67.554,14.328 67.05,13.86 66.042,13.86 L64.116,13.86 Z M64.116,10.296 L64.116,12.492 L66.042,12.492 C66.78,12.492 67.248,12.096 67.248,11.394 C67.248,10.692 66.78,10.296 66.042,10.296 L64.116,10.296 Z M75.168,8.784 C76.446,8.784 77.454,9.198 78.174,10.044 C78.912,10.872 79.272,11.88 79.272,13.086 L79.272,13.788 L72.612,13.788 C72.702,15.57 73.602,16.776 75.168,16.776 C76.446,16.776 77.166,16.218 77.688,15.048 L79.02,15.624 C78.174,17.406 77.04,18.144 75.168,18.144 C73.854,18.144 72.846,17.694 72.126,16.794 C71.424,15.876 71.064,14.778 71.064,13.464 C71.064,12.15 71.424,11.052 72.126,10.152 C72.846,9.234 73.854,8.784 75.168,8.784 Z M72.702,12.42 L77.688,12.42 C77.4,11.052 76.554,10.152 75.168,10.152 C73.818,10.152 72.99,11.034 72.702,12.42 Z M85.266,8.784 C83.952,8.784 82.926,9.234 82.206,10.152 C81.504,11.052 81.144,12.15 81.144,13.464 C81.144,14.778 81.504,15.876 82.206,16.794 C82.926,17.694 83.952,18.144 85.266,18.144 C87.066,18.144 88.326,17.316 89.064,15.642 L87.75,15.102 C87.264,16.218 86.436,16.776 85.266,16.776 C83.592,16.776 82.692,15.408 82.692,13.464 C82.692,11.52 83.592,10.152 85.266,10.152 C86.436,10.152 87.264,10.71 87.75,11.826 L89.064,11.286 C88.326,9.612 87.066,8.784 85.266,8.784 Z M92.97,10.296 L92.97,18 L94.482,18 L94.482,10.296 L96.912,10.296 L96.912,8.928 L90.54,8.928 L90.54,10.296 L92.97,10.296 Z M100.836,18 L105.012,11.304 L105.012,18 L106.524,18 L106.524,8.928 L104.94,8.928 L100.764,15.624 L100.764,8.928 L99.252,8.928 L99.252,18 L100.836,18 Z M115.812,18 L115.812,20.052 L117.018,20.052 L117.342,16.632 L116.73,16.632 L116.73,8.928 L115.218,8.928 L115.218,16.632 L111.348,16.632 L111.348,8.928 L109.836,8.928 L109.836,18 L115.812,18 Z M121.482,18 L125.658,11.304 L125.658,18 L127.17,18 L127.17,8.928 L125.586,8.928 L121.41,15.624 L121.41,8.928 L119.898,8.928 L119.898,18 L121.482,18 Z M132.066,18 L136.242,11.304 L136.242,18 L137.754,18 L137.754,8.928 L136.17,8.928 L131.994,15.624 L131.994,8.928 L130.482,8.928 L130.482,18 L132.066,18 Z M149.472,18 L145.89,18 L145.89,8.928 L149.4,8.928 C150.93,8.928 152.01,9.81 152.01,11.178 C152.01,11.988 151.668,12.618 151.002,13.032 C151.92,13.518 152.388,14.238 152.388,15.228 C152.388,16.038 152.118,16.704 151.578,17.226 C151.038,17.748 150.336,18 149.472,18 Z M147.402,13.86 L147.402,16.632 L149.328,16.632 C150.336,16.632 150.84,16.164 150.84,15.246 C150.84,14.328 150.336,13.86 149.328,13.86 L147.402,13.86 Z M147.402,10.296 L147.402,12.492 L149.328,12.492 C150.066,12.492 150.534,12.096 150.534,11.394 C150.534,10.692 150.066,10.296 149.328,10.296 L147.402,10.296 Z M161.37,21.672 L159.858,21.672 L159.858,8.928 L161.37,8.928 L161.37,10.044 C161.82,9.342 162.936,8.784 164.016,8.784 C166.608,8.784 168.048,10.656 168.048,13.464 C168.048,16.272 166.608,18.144 164.016,18.144 C163.476,18.144 162.936,18.018 162.414,17.748 C161.892,17.478 161.532,17.208 161.37,16.92 L161.37,21.672 Z M163.872,16.776 C165.456,16.776 166.5,15.426 166.5,13.464 C166.5,11.502 165.456,10.152 163.872,10.152 C162.234,10.152 161.244,11.502 161.244,13.464 C161.244,15.426 162.234,16.776 163.872,16.776 Z M170.028,15.39 C170.028,13.464 171.594,12.42 174.132,12.42 L175.608,12.42 L175.608,12.024 C175.608,10.782 174.942,10.152 173.628,10.152 C172.674,10.152 171.936,10.692 171.738,11.574 L170.406,11.268 C170.64,9.738 171.918,8.784 173.628,8.784 C175.734,8.784 177.12,9.9 177.12,12.204 L177.12,18 L175.932,18 L175.68,16.722 C175.014,17.676 174.078,18.144 172.836,18.144 C171.198,18.144 170.028,17.244 170.028,15.39 Z M171.576,15.39 C171.576,16.254 172.116,16.776 173.07,16.776 C173.754,16.776 174.348,16.56 174.852,16.11 C175.356,15.66 175.608,14.958 175.608,14.004 L175.608,13.788 L173.988,13.788 C172.458,13.788 171.576,14.364 171.576,15.39 Z M179.316,15.516 C179.478,17.1 180.72,18.144 182.376,18.144 C183.24,18.144 183.96,17.856 184.554,17.298 C185.148,16.722 185.436,16.02 185.436,15.174 C185.436,14.364 185.202,13.698 184.734,13.176 C184.284,12.654 183.708,12.384 183.042,12.384 C182.934,12.384 182.826,12.384 182.718,12.402 L184.968,9.432 L184.968,8.928 L179.784,8.928 L179.784,10.296 L182.682,10.296 L180.972,12.708 L181.728,13.644 C181.944,13.536 182.178,13.482 182.43,13.482 C183.366,13.482 183.996,14.166 183.996,15.174 C183.996,16.128 183.312,16.776 182.376,16.776 C181.512,16.776 180.918,16.218 180.792,15.336 L179.316,15.516 Z M189.504,21.672 L187.992,21.672 L187.992,8.928 L189.504,8.928 L189.504,10.044 C189.954,9.342 191.07,8.784 192.15,8.784 C194.742,8.784 196.182,10.656 196.182,13.464 C196.182,16.272 194.742,18.144 192.15,18.144 C191.61,18.144 191.07,18.018 190.548,17.748 C190.026,17.478 189.666,17.208 189.504,16.92 L189.504,21.672 Z M192.006,16.776 C193.59,16.776 194.634,15.426 194.634,13.464 C194.634,11.502 193.59,10.152 192.006,10.152 C190.368,10.152 189.378,11.502 189.378,13.464 C189.378,15.426 190.368,16.776 192.006,16.776 Z M198.162,15.39 C198.162,13.464 199.728,12.42 202.266,12.42 L203.742,12.42 L203.742,12.024 C203.742,10.782 203.076,10.152 201.762,10.152 C200.808,10.152 200.07,10.692 199.872,11.574 L198.54,11.268 C198.774,9.738 200.052,8.784 201.762,8.784 C203.868,8.784 205.254,9.9 205.254,12.204 L205.254,18 L204.066,18 L203.814,16.722 C203.148,17.676 202.212,18.144 200.97,18.144 C199.332,18.144 198.162,17.244 198.162,15.39 Z M199.71,15.39 C199.71,16.254 200.25,16.776 201.204,16.776 C201.888,16.776 202.482,16.56 202.986,16.11 C203.49,15.66 203.742,14.958 203.742,14.004 L203.742,13.788 L202.122,13.788 C200.592,13.788 199.71,14.364 199.71,15.39 Z M207.45,12.42 C207.45,7.74 208.98,5.4 212.022,5.4 L212.868,5.4 C213.66,5.4 214.02,5.184 214.182,4.554 L215.172,4.554 C215.172,6.03 214.434,6.768 212.958,6.768 L211.95,6.768 C210.276,6.768 209.178,8.064 209.088,10.026 C209.934,9.198 210.96,8.784 212.166,8.784 C213.336,8.784 214.29,9.252 215.028,10.17 C215.784,11.088 216.162,12.186 216.162,13.464 C216.162,14.76 215.766,15.858 214.974,16.776 C214.182,17.694 213.12,18.144 211.806,18.144 C209.052,18.144 207.45,16.11 207.45,12.42 Z M209.736,11.142 C209.25,11.79 208.998,12.564 208.998,13.464 C208.998,14.364 209.25,15.138 209.736,15.804 C210.24,16.452 210.924,16.776 211.806,16.776 C212.688,16.776 213.372,16.452 213.858,15.804 C214.362,15.138 214.614,14.364 214.614,13.464 C214.614,12.564 214.362,11.79 213.858,11.142 C213.372,10.476 212.688,10.152 211.806,10.152 C210.924,10.152 210.24,10.476 209.736,11.142 Z M219.294,16.776 C218.502,15.858 218.106,14.742 218.106,13.464 C218.106,12.186 218.502,11.088 219.294,10.17 C220.104,9.252 221.148,8.784 222.462,8.784 C223.776,8.784 224.82,9.252 225.612,10.17 C226.422,11.088 226.818,12.186 226.818,13.464 C226.818,14.742 226.422,15.858 225.612,16.776 C224.82,17.694 223.776,18.144 222.462,18.144 C221.148,18.144 220.104,17.694 219.294,16.776 Z M220.392,11.142 C219.906,11.79 219.654,12.564 219.654,13.464 C219.654,14.364 219.906,15.138 220.392,15.804 C220.896,16.452 221.58,16.776 222.462,16.776 C223.344,16.776 224.028,16.452 224.514,15.804 C225.018,15.138 225.27,14.364 225.27,13.464 C225.27,12.564 225.018,11.79 224.514,11.142 C224.028,10.476 223.344,10.152 222.462,10.152 C221.58,10.152 220.896,10.476 220.392,11.142 Z M230.904,10.296 L230.904,18 L232.416,18 L232.416,10.296 L234.846,10.296 L234.846,8.928 L228.474,8.928 L228.474,10.296 L230.904,10.296 Z M238.698,18 L238.698,13.446 L242.532,18 L244.458,18 L240.318,13.086 L244.17,8.928 L242.226,8.928 L238.698,12.726 L238.698,8.928 L237.186,8.928 L237.186,18 L238.698,18 Z M248.184,17.622 L246.744,21.672 L248.292,21.672 L252.792,8.928 L251.208,8.928 L248.958,15.48 L246.654,8.928 L244.998,8.928 L248.184,17.622 Z" id="53%-инвестиции-в-раз" fill="#FFFFFF"></path>
                <path d="M322.75,22.84 L318.124,34 L319.708,34 L324.604,22.066 L324.604,21.4 L317.422,21.4 L317.422,22.84 L322.75,22.84 Z M327.952,26.188 C327.394,25.63 327.124,24.946 327.124,24.136 C327.124,23.326 327.394,22.66 327.952,22.102 C328.51,21.544 329.194,21.256 330.004,21.256 C330.814,21.256 331.498,21.544 332.056,22.102 C332.614,22.66 332.884,23.326 332.884,24.136 C332.884,24.946 332.614,25.63 332.056,26.188 C331.498,26.746 330.814,27.016 330.004,27.016 C329.194,27.016 328.51,26.746 327.952,26.188 Z M329.248,34.522 L328.348,33.802 L338.032,20.878 L338.932,21.58 L329.248,34.522 Z M328.852,22.984 C328.582,23.29 328.438,23.668 328.438,24.136 C328.438,24.604 328.582,25 328.852,25.306 C329.14,25.612 329.518,25.756 330.004,25.756 C330.49,25.756 330.868,25.612 331.138,25.306 C331.426,25 331.57,24.604 331.57,24.136 C331.57,23.668 331.426,23.29 331.138,22.984 C330.868,22.678 330.49,22.516 330.004,22.516 C329.518,22.516 329.14,22.678 328.852,22.984 Z M335.26,33.316 C334.702,32.758 334.432,32.074 334.432,31.264 C334.432,30.454 334.702,29.788 335.26,29.23 C335.818,28.672 336.502,28.384 337.312,28.384 C338.122,28.384 338.806,28.672 339.364,29.23 C339.922,29.788 340.192,30.454 340.192,31.264 C340.192,32.074 339.922,32.758 339.364,33.316 C338.806,33.874 338.122,34.144 337.312,34.144 C336.502,34.144 335.818,33.874 335.26,33.316 Z M336.16,30.112 C335.89,30.418 335.746,30.796 335.746,31.264 C335.746,31.732 335.89,32.128 336.16,32.434 C336.448,32.74 336.826,32.884 337.312,32.884 C337.798,32.884 338.176,32.74 338.446,32.434 C338.734,32.128 338.878,31.732 338.878,31.264 C338.878,30.796 338.734,30.418 338.446,30.112 C338.176,29.806 337.798,29.644 337.312,29.644 C336.826,29.644 336.448,29.806 336.16,30.112 Z M353.44,28.96 L353.44,27.628 L347.338,27.628 L347.338,28.96 L353.44,28.96 Z M361.702,32.776 C360.91,31.858 360.514,30.742 360.514,29.464 C360.514,28.186 360.91,27.088 361.702,26.17 C362.512,25.252 363.556,24.784 364.87,24.784 C366.184,24.784 367.228,25.252 368.02,26.17 C368.83,27.088 369.226,28.186 369.226,29.464 C369.226,30.742 368.83,31.858 368.02,32.776 C367.228,33.694 366.184,34.144 364.87,34.144 C363.556,34.144 362.512,33.694 361.702,32.776 Z M362.8,27.142 C362.314,27.79 362.062,28.564 362.062,29.464 C362.062,30.364 362.314,31.138 362.8,31.804 C363.304,32.452 363.988,32.776 364.87,32.776 C365.752,32.776 366.436,32.452 366.922,31.804 C367.426,31.138 367.678,30.364 367.678,29.464 C367.678,28.564 367.426,27.79 366.922,27.142 C366.436,26.476 365.752,26.152 364.87,26.152 C363.988,26.152 363.304,26.476 362.8,27.142 Z M373.366,34 L373.366,26.296 L377.236,26.296 L377.236,34 L378.748,34 L378.748,24.928 L371.854,24.928 L371.854,34 L373.366,34 Z M385.48,24.784 C386.758,24.784 387.766,25.198 388.486,26.044 C389.224,26.872 389.584,27.88 389.584,29.086 L389.584,29.788 L382.924,29.788 C383.014,31.57 383.914,32.776 385.48,32.776 C386.758,32.776 387.478,32.218 388,31.048 L389.332,31.624 C388.486,33.406 387.352,34.144 385.48,34.144 C384.166,34.144 383.158,33.694 382.438,32.794 C381.736,31.876 381.376,30.778 381.376,29.464 C381.376,28.15 381.736,27.052 382.438,26.152 C383.158,25.234 384.166,24.784 385.48,24.784 Z M383.014,28.42 L388,28.42 C387.712,27.052 386.866,26.152 385.48,26.152 C384.13,26.152 383.302,27.034 383.014,28.42 Z M393.652,37.672 L392.14,37.672 L392.14,24.928 L393.652,24.928 L393.652,26.044 C394.102,25.342 395.218,24.784 396.298,24.784 C398.89,24.784 400.33,26.656 400.33,29.464 C400.33,32.272 398.89,34.144 396.298,34.144 C395.758,34.144 395.218,34.018 394.696,33.748 C394.174,33.478 393.814,33.208 393.652,32.92 L393.652,37.672 Z M396.154,32.776 C397.738,32.776 398.782,31.426 398.782,29.464 C398.782,27.502 397.738,26.152 396.154,26.152 C394.516,26.152 393.526,27.502 393.526,29.464 C393.526,31.426 394.516,32.776 396.154,32.776 Z M402.31,31.39 C402.31,29.464 403.876,28.42 406.414,28.42 L407.89,28.42 L407.89,28.024 C407.89,26.782 407.224,26.152 405.91,26.152 C404.956,26.152 404.218,26.692 404.02,27.574 L402.688,27.268 C402.922,25.738 404.2,24.784 405.91,24.784 C408.016,24.784 409.402,25.9 409.402,28.204 L409.402,34 L408.214,34 L407.962,32.722 C407.296,33.676 406.36,34.144 405.118,34.144 C403.48,34.144 402.31,33.244 402.31,31.39 Z M403.858,31.39 C403.858,32.254 404.398,32.776 405.352,32.776 C406.036,32.776 406.63,32.56 407.134,32.11 C407.638,31.66 407.89,30.958 407.89,30.004 L407.89,29.788 L406.27,29.788 C404.74,29.788 403.858,30.364 403.858,31.39 Z M418.258,34 L418.258,36.052 L419.464,36.052 L419.788,32.632 L419.176,32.632 L419.176,24.928 L417.664,24.928 L417.664,32.632 L413.794,32.632 L413.794,24.928 L412.282,24.928 L412.282,34 L418.258,34 Z M423.928,34 L428.104,27.304 L428.104,34 L429.616,34 L429.616,24.928 L428.032,24.928 L423.856,31.624 L423.856,24.928 L422.344,24.928 L422.344,34 L423.928,34 Z M433.432,32.776 C432.64,31.858 432.244,30.742 432.244,29.464 C432.244,28.186 432.64,27.088 433.432,26.17 C434.242,25.252 435.286,24.784 436.6,24.784 C437.914,24.784 438.958,25.252 439.75,26.17 C440.56,27.088 440.956,28.186 440.956,29.464 C440.956,30.742 440.56,31.858 439.75,32.776 C438.958,33.694 437.914,34.144 436.6,34.144 C435.286,34.144 434.242,33.694 433.432,32.776 Z M434.53,27.142 C434.044,27.79 433.792,28.564 433.792,29.464 C433.792,30.364 434.044,31.138 434.53,31.804 C435.034,32.452 435.718,32.776 436.6,32.776 C437.482,32.776 438.166,32.452 438.652,31.804 C439.156,31.138 439.408,30.364 439.408,29.464 C439.408,28.564 439.156,27.79 438.652,27.142 C438.166,26.476 437.482,26.152 436.6,26.152 C435.718,26.152 435.034,26.476 434.53,27.142 Z M445.096,34 L445.096,29.86 L448.984,29.86 L448.984,34 L450.496,34 L450.496,24.928 L448.984,24.928 L448.984,28.492 L445.096,28.492 L445.096,24.928 L443.584,24.928 L443.584,34 L445.096,34 Z M455.32,34 L455.32,29.86 L459.208,29.86 L459.208,34 L460.72,34 L460.72,24.928 L459.208,24.928 L459.208,28.492 L455.32,28.492 L455.32,24.928 L453.808,24.928 L453.808,34 L455.32,34 Z M467.578,34 L464.032,34 L464.032,24.928 L465.544,24.928 L465.544,28.384 L467.578,28.384 C469.504,28.384 470.602,29.464 470.602,31.192 C470.602,32.92 469.504,34 467.578,34 Z M465.544,29.752 L465.544,32.632 L467.2,32.632 C468.514,32.632 469.09,32.218 469.09,31.192 C469.09,30.184 468.514,29.752 467.2,29.752 L465.544,29.752 Z M473.77,34 L473.77,24.928 L472.258,24.928 L472.258,34 L473.77,34 Z M480.394,24.784 C481.672,24.784 482.68,25.198 483.4,26.044 C484.138,26.872 484.498,27.88 484.498,29.086 L484.498,29.788 L477.838,29.788 C477.928,31.57 478.828,32.776 480.394,32.776 C481.672,32.776 482.392,32.218 482.914,31.048 L484.246,31.624 C483.4,33.406 482.266,34.144 480.394,34.144 C479.08,34.144 478.072,33.694 477.352,32.794 C476.65,31.876 476.29,30.778 476.29,29.464 C476.29,28.15 476.65,27.052 477.352,26.152 C478.072,25.234 479.08,24.784 480.394,24.784 Z M477.928,28.42 L482.914,28.42 C482.626,27.052 481.78,26.152 480.394,26.152 C479.044,26.152 478.216,27.034 477.928,28.42 Z M493.39,37.672 L491.878,37.672 L491.878,24.928 L493.39,24.928 L493.39,26.044 C493.84,25.342 494.956,24.784 496.036,24.784 C498.628,24.784 500.068,26.656 500.068,29.464 C500.068,32.272 498.628,34.144 496.036,34.144 C495.496,34.144 494.956,34.018 494.434,33.748 C493.912,33.478 493.552,33.208 493.39,32.92 L493.39,37.672 Z M495.892,32.776 C497.476,32.776 498.52,31.426 498.52,29.464 C498.52,27.502 497.476,26.152 495.892,26.152 C494.254,26.152 493.264,27.502 493.264,29.464 C493.264,31.426 494.254,32.776 495.892,32.776 Z M502.048,31.39 C502.048,29.464 503.614,28.42 506.152,28.42 L507.628,28.42 L507.628,28.024 C507.628,26.782 506.962,26.152 505.648,26.152 C504.694,26.152 503.956,26.692 503.758,27.574 L502.426,27.268 C502.66,25.738 503.938,24.784 505.648,24.784 C507.754,24.784 509.14,25.9 509.14,28.204 L509.14,34 L507.952,34 L507.7,32.722 C507.034,33.676 506.098,34.144 504.856,34.144 C503.218,34.144 502.048,33.244 502.048,31.39 Z M503.596,31.39 C503.596,32.254 504.136,32.776 505.09,32.776 C505.774,32.776 506.368,32.56 506.872,32.11 C507.376,31.66 507.628,30.958 507.628,30.004 L507.628,29.788 L506.008,29.788 C504.478,29.788 503.596,30.364 503.596,31.39 Z M515.458,24.784 C514.144,24.784 513.118,25.234 512.398,26.152 C511.696,27.052 511.336,28.15 511.336,29.464 C511.336,30.778 511.696,31.876 512.398,32.794 C513.118,33.694 514.144,34.144 515.458,34.144 C517.258,34.144 518.518,33.316 519.256,31.642 L517.942,31.102 C517.456,32.218 516.628,32.776 515.458,32.776 C513.784,32.776 512.884,31.408 512.884,29.464 C512.884,27.52 513.784,26.152 515.458,26.152 C516.628,26.152 517.456,26.71 517.942,27.826 L519.256,27.286 C518.518,25.612 517.258,24.784 515.458,24.784 Z M522.136,34 L524.17,30.634 L526.204,34 L527.968,34 L525.034,29.212 L527.68,24.928 L525.916,24.928 L524.17,27.79 L522.424,24.928 L520.66,24.928 L523.306,29.212 L520.372,34 L522.136,34 Z M530.452,32.776 C529.66,31.858 529.264,30.742 529.264,29.464 C529.264,28.186 529.66,27.088 530.452,26.17 C531.262,25.252 532.306,24.784 533.62,24.784 C534.934,24.784 535.978,25.252 536.77,26.17 C537.58,27.088 537.976,28.186 537.976,29.464 C537.976,30.742 537.58,31.858 536.77,32.776 C535.978,33.694 534.934,34.144 533.62,34.144 C532.306,34.144 531.262,33.694 530.452,32.776 Z M531.55,27.142 C531.064,27.79 530.812,28.564 530.812,29.464 C530.812,30.364 531.064,31.138 531.55,31.804 C532.054,32.452 532.738,32.776 533.62,32.776 C534.502,32.776 535.186,32.452 535.672,31.804 C536.176,31.138 536.428,30.364 536.428,29.464 C536.428,28.564 536.176,27.79 535.672,27.142 C535.186,26.476 534.502,26.152 533.62,26.152 C532.738,26.152 532.054,26.476 531.55,27.142 Z M539.956,36.052 L539.722,32.632 L540.334,32.632 L541.594,24.928 L547.786,24.928 L547.786,32.632 L548.398,32.632 L548.2,36.052 L546.868,36.052 L546.868,34 L541.288,34 L541.288,36.052 L539.956,36.052 Z M542.71,26.296 L541.738,32.632 L546.274,32.632 L546.274,26.296 L542.71,26.296 Z M554.5,34 L550.954,34 L550.954,24.928 L552.466,24.928 L552.466,28.384 L554.5,28.384 C556.426,28.384 557.524,29.464 557.524,31.192 C557.524,32.92 556.426,34 554.5,34 Z M552.466,29.752 L552.466,32.632 L554.122,32.632 C555.436,32.632 556.012,32.218 556.012,31.192 C556.012,30.184 555.436,29.752 554.122,29.752 L552.466,29.752 Z M560.692,34 L560.692,24.928 L559.18,24.928 L559.18,34 L560.692,34 Z" id="7%---операционные-ра" fill="#FFFFFF"></path>
                <path d="M322.264,93.318 L316.792,93.318 L316.792,92.688 L322.12,83.4 L323.812,83.4 L323.812,91.878 L325.378,91.878 L325.378,93.318 L323.812,93.318 L323.812,96 L322.264,96 L322.264,93.318 Z M322.264,85.776 L318.844,91.878 L322.264,91.878 L322.264,85.776 Z M327.952,88.188 C327.394,87.63 327.124,86.946 327.124,86.136 C327.124,85.326 327.394,84.66 327.952,84.102 C328.51,83.544 329.194,83.256 330.004,83.256 C330.814,83.256 331.498,83.544 332.056,84.102 C332.614,84.66 332.884,85.326 332.884,86.136 C332.884,86.946 332.614,87.63 332.056,88.188 C331.498,88.746 330.814,89.016 330.004,89.016 C329.194,89.016 328.51,88.746 327.952,88.188 Z M329.248,96.522 L328.348,95.802 L338.032,82.878 L338.932,83.58 L329.248,96.522 Z M328.852,84.984 C328.582,85.29 328.438,85.668 328.438,86.136 C328.438,86.604 328.582,87 328.852,87.306 C329.14,87.612 329.518,87.756 330.004,87.756 C330.49,87.756 330.868,87.612 331.138,87.306 C331.426,87 331.57,86.604 331.57,86.136 C331.57,85.668 331.426,85.29 331.138,84.984 C330.868,84.678 330.49,84.516 330.004,84.516 C329.518,84.516 329.14,84.678 328.852,84.984 Z M335.26,95.316 C334.702,94.758 334.432,94.074 334.432,93.264 C334.432,92.454 334.702,91.788 335.26,91.23 C335.818,90.672 336.502,90.384 337.312,90.384 C338.122,90.384 338.806,90.672 339.364,91.23 C339.922,91.788 340.192,92.454 340.192,93.264 C340.192,94.074 339.922,94.758 339.364,95.316 C338.806,95.874 338.122,96.144 337.312,96.144 C336.502,96.144 335.818,95.874 335.26,95.316 Z M336.16,92.112 C335.89,92.418 335.746,92.796 335.746,93.264 C335.746,93.732 335.89,94.128 336.16,94.434 C336.448,94.74 336.826,94.884 337.312,94.884 C337.798,94.884 338.176,94.74 338.446,94.434 C338.734,94.128 338.878,93.732 338.878,93.264 C338.878,92.796 338.734,92.418 338.446,92.112 C338.176,91.806 337.798,91.644 337.312,91.644 C336.826,91.644 336.448,91.806 336.16,92.112 Z M353.44,90.96 L353.44,89.628 L347.338,89.628 L347.338,90.96 L353.44,90.96 Z M362.71,96 L361.198,96 L361.198,86.928 L362.71,86.928 L362.71,90.78 L364.384,90.78 C364.528,89.646 364.978,88.692 365.752,87.936 C366.526,87.162 367.516,86.784 368.704,86.784 C370.018,86.784 371.062,87.252 371.854,88.17 C372.664,89.088 373.06,90.186 373.06,91.464 C373.06,92.742 372.664,93.858 371.854,94.776 C371.062,95.694 370.018,96.144 368.704,96.144 C367.516,96.144 366.526,95.766 365.752,95.01 C364.978,94.236 364.528,93.282 364.384,92.148 L362.71,92.148 L362.71,96 Z M366.634,89.142 C366.148,89.79 365.896,90.564 365.896,91.464 C365.896,92.364 366.148,93.138 366.634,93.804 C367.138,94.452 367.822,94.776 368.704,94.776 C369.586,94.776 370.27,94.452 370.756,93.804 C371.26,93.138 371.512,92.364 371.512,91.464 C371.512,90.564 371.26,89.79 370.756,89.142 C370.27,88.476 369.586,88.152 368.704,88.152 C367.822,88.152 367.138,88.476 366.634,89.142 Z M377.2,99.672 L375.688,99.672 L375.688,86.928 L377.2,86.928 L377.2,88.044 C377.65,87.342 378.766,86.784 379.846,86.784 C382.438,86.784 383.878,88.656 383.878,91.464 C383.878,94.272 382.438,96.144 379.846,96.144 C379.306,96.144 378.766,96.018 378.244,95.748 C377.722,95.478 377.362,95.208 377.2,94.92 L377.2,99.672 Z M379.702,94.776 C381.286,94.776 382.33,93.426 382.33,91.464 C382.33,89.502 381.286,88.152 379.702,88.152 C378.064,88.152 377.074,89.502 377.074,91.464 C377.074,93.426 378.064,94.776 379.702,94.776 Z M388.09,96 L392.266,89.304 L392.266,96 L393.778,96 L393.778,86.928 L392.194,86.928 L388.018,93.624 L388.018,86.928 L386.506,86.928 L386.506,96 L388.09,96 Z M396.442,98.052 L396.208,94.632 L396.82,94.632 L398.08,86.928 L404.272,86.928 L404.272,94.632 L404.884,94.632 L404.686,98.052 L403.354,98.052 L403.354,96 L397.774,96 L397.774,98.052 L396.442,98.052 Z M399.196,88.296 L398.224,94.632 L402.76,94.632 L402.76,88.296 L399.196,88.296 Z M409.024,96 L413.2,89.304 L413.2,96 L414.712,96 L414.712,86.928 L413.128,86.928 L408.952,93.624 L408.952,86.928 L407.44,86.928 L407.44,96 L409.024,96 Z M417.916,91.626 C417.916,93.372 418.852,94.344 420.454,94.344 C421.66,94.344 422.65,93.876 423.46,92.94 L423.46,96 L424.972,96 L424.972,86.928 L423.46,86.928 L423.46,91.14 C422.686,92.382 421.84,93.012 420.904,93.012 C419.914,93.012 419.428,92.454 419.428,91.356 L419.428,86.928 L417.916,86.928 L417.916,91.626 Z M431.704,86.784 C432.982,86.784 433.99,87.198 434.71,88.044 C435.448,88.872 435.808,89.88 435.808,91.086 L435.808,91.788 L429.148,91.788 C429.238,93.57 430.138,94.776 431.704,94.776 C432.982,94.776 433.702,94.218 434.224,93.048 L435.556,93.624 C434.71,95.406 433.576,96.144 431.704,96.144 C430.39,96.144 429.382,95.694 428.662,94.794 C427.96,93.876 427.6,92.778 427.6,91.464 C427.6,90.15 427.96,89.052 428.662,88.152 C429.382,87.234 430.39,86.784 431.704,86.784 Z M429.238,90.42 L434.224,90.42 C433.936,89.052 433.09,88.152 431.704,88.152 C430.354,88.152 429.526,89.034 429.238,90.42 Z M441.802,86.784 C440.488,86.784 439.462,87.234 438.742,88.152 C438.04,89.052 437.68,90.15 437.68,91.464 C437.68,92.778 438.04,93.876 438.742,94.794 C439.462,95.694 440.488,96.144 441.802,96.144 C443.602,96.144 444.862,95.316 445.6,93.642 L444.286,93.102 C443.8,94.218 442.972,94.776 441.802,94.776 C440.128,94.776 439.228,93.408 439.228,91.464 C439.228,89.52 440.128,88.152 441.802,88.152 C442.972,88.152 443.8,88.71 444.286,89.826 L445.6,89.286 C444.862,87.612 443.602,86.784 441.802,86.784 Z M449.56,96 L449.56,91.446 L453.394,96 L455.32,96 L451.18,91.086 L455.032,86.928 L453.088,86.928 L449.56,90.726 L449.56,86.928 L448.048,86.928 L448.048,96 L449.56,96 Z M458.83,96 L463.006,89.304 L463.006,96 L464.518,96 L464.518,86.928 L462.934,86.928 L458.758,93.624 L458.758,86.928 L457.246,86.928 L457.246,96 L458.83,96 Z M471.25,86.784 C472.528,86.784 473.536,87.198 474.256,88.044 C474.994,88.872 475.354,89.88 475.354,91.086 L475.354,91.788 L468.694,91.788 C468.784,93.57 469.684,94.776 471.25,94.776 C472.528,94.776 473.248,94.218 473.77,93.048 L475.102,93.624 C474.256,95.406 473.122,96.144 471.25,96.144 C469.936,96.144 468.928,95.694 468.208,94.794 C467.506,93.876 467.146,92.778 467.146,91.464 C467.146,90.15 467.506,89.052 468.208,88.152 C468.928,87.234 469.936,86.784 471.25,86.784 Z M468.784,90.42 L473.77,90.42 C473.482,89.052 472.636,88.152 471.25,88.152 C469.9,88.152 469.072,89.034 468.784,90.42 Z M484.246,99.672 L482.734,99.672 L482.734,86.928 L484.246,86.928 L484.246,88.044 C484.696,87.342 485.812,86.784 486.892,86.784 C489.484,86.784 490.924,88.656 490.924,91.464 C490.924,94.272 489.484,96.144 486.892,96.144 C486.352,96.144 485.812,96.018 485.29,95.748 C484.768,95.478 484.408,95.208 484.246,94.92 L484.246,99.672 Z M486.748,94.776 C488.332,94.776 489.376,93.426 489.376,91.464 C489.376,89.502 488.332,88.152 486.748,88.152 C485.11,88.152 484.12,89.502 484.12,91.464 C484.12,93.426 485.11,94.776 486.748,94.776 Z M492.904,93.39 C492.904,91.464 494.47,90.42 497.008,90.42 L498.484,90.42 L498.484,90.024 C498.484,88.782 497.818,88.152 496.504,88.152 C495.55,88.152 494.812,88.692 494.614,89.574 L493.282,89.268 C493.516,87.738 494.794,86.784 496.504,86.784 C498.61,86.784 499.996,87.9 499.996,90.204 L499.996,96 L498.808,96 L498.556,94.722 C497.89,95.676 496.954,96.144 495.712,96.144 C494.074,96.144 492.904,95.244 492.904,93.39 Z M494.452,93.39 C494.452,94.254 494.992,94.776 495.946,94.776 C496.63,94.776 497.224,94.56 497.728,94.11 C498.232,93.66 498.484,92.958 498.484,92.004 L498.484,91.788 L496.864,91.788 C495.334,91.788 494.452,92.364 494.452,93.39 Z M506.314,86.784 C505,86.784 503.974,87.234 503.254,88.152 C502.552,89.052 502.192,90.15 502.192,91.464 C502.192,92.778 502.552,93.876 503.254,94.794 C503.974,95.694 505,96.144 506.314,96.144 C508.114,96.144 509.374,95.316 510.112,93.642 L508.798,93.102 C508.312,94.218 507.484,94.776 506.314,94.776 C504.64,94.776 503.74,93.408 503.74,91.464 C503.74,89.52 504.64,88.152 506.314,88.152 C507.484,88.152 508.312,88.71 508.798,89.826 L510.112,89.286 C509.374,87.612 508.114,86.784 506.314,86.784 Z M512.992,96 L515.026,92.634 L517.06,96 L518.824,96 L515.89,91.212 L518.536,86.928 L516.772,86.928 L515.026,89.79 L513.28,86.928 L511.516,86.928 L514.162,91.212 L511.228,96 L512.992,96 Z M521.308,94.776 C520.516,93.858 520.12,92.742 520.12,91.464 C520.12,90.186 520.516,89.088 521.308,88.17 C522.118,87.252 523.162,86.784 524.476,86.784 C525.79,86.784 526.834,87.252 527.626,88.17 C528.436,89.088 528.832,90.186 528.832,91.464 C528.832,92.742 528.436,93.858 527.626,94.776 C526.834,95.694 525.79,96.144 524.476,96.144 C523.162,96.144 522.118,95.694 521.308,94.776 Z M522.406,89.142 C521.92,89.79 521.668,90.564 521.668,91.464 C521.668,92.364 521.92,93.138 522.406,93.804 C522.91,94.452 523.594,94.776 524.476,94.776 C525.358,94.776 526.042,94.452 526.528,93.804 C527.032,93.138 527.284,92.364 527.284,91.464 C527.284,90.564 527.032,89.79 526.528,89.142 C526.042,88.476 525.358,88.152 524.476,88.152 C523.594,88.152 522.91,88.476 522.406,89.142 Z M530.812,98.052 L530.578,94.632 L531.19,94.632 L532.45,86.928 L538.642,86.928 L538.642,94.632 L539.254,94.632 L539.056,98.052 L537.724,98.052 L537.724,96 L532.144,96 L532.144,98.052 L530.812,98.052 Z M533.566,88.296 L532.594,94.632 L537.13,94.632 L537.13,88.296 L533.566,88.296 Z M545.356,96 L541.81,96 L541.81,86.928 L543.322,86.928 L543.322,90.384 L545.356,90.384 C547.282,90.384 548.38,91.464 548.38,93.192 C548.38,94.92 547.282,96 545.356,96 Z M543.322,91.752 L543.322,94.632 L544.978,94.632 C546.292,94.632 546.868,94.218 546.868,93.192 C546.868,92.184 546.292,91.752 544.978,91.752 L543.322,91.752 Z M551.548,96 L551.548,86.928 L550.036,86.928 L550.036,96 L551.548,96 Z" id="4%---юридические-рас" fill="#FFFFFF"></path>
                <path d="M317.044,156.544 C317.152,157.624 317.584,158.488 318.34,159.154 C319.096,159.82 319.996,160.144 321.058,160.144 C322.264,160.144 323.236,159.766 323.992,159.01 C324.748,158.236 325.126,157.246 325.126,156.04 C325.126,154.888 324.802,153.952 324.172,153.25 C323.542,152.53 322.75,152.17 321.778,152.17 C321.544,152.17 321.382,152.188 321.274,152.224 L324.478,147.886 L324.478,147.4 L317.638,147.4 L317.638,148.84 L322.192,148.84 L319.312,152.764 L319.942,153.61 C320.266,153.448 320.644,153.376 321.058,153.376 C322.57,153.376 323.578,154.366 323.578,156.04 C323.578,157.714 322.57,158.704 321.058,158.704 C319.618,158.704 318.79,157.912 318.556,156.346 L317.044,156.544 Z M327.826,158.434 C327.07,157.282 326.692,155.698 326.692,153.7 C326.692,151.702 327.07,150.118 327.826,148.984 C328.582,147.832 329.68,147.256 331.12,147.256 C332.56,147.256 333.658,147.832 334.414,148.984 C335.17,150.118 335.548,151.702 335.548,153.7 C335.548,155.698 335.17,157.282 334.414,158.434 C333.658,159.568 332.56,160.144 331.12,160.144 C329.68,160.144 328.582,159.568 327.826,158.434 Z M328.996,150.01 C328.51,150.892 328.276,152.116 328.276,153.7 C328.276,155.284 328.51,156.508 328.996,157.39 C329.482,158.272 330.184,158.704 331.12,158.704 C332.056,158.704 332.758,158.272 333.244,157.39 C333.73,156.508 333.964,155.284 333.964,153.7 C333.964,152.116 333.73,150.892 333.244,150.01 C332.758,149.128 332.056,148.696 331.12,148.696 C330.184,148.696 329.482,149.128 328.996,150.01 Z M338.032,152.188 C337.474,151.63 337.204,150.946 337.204,150.136 C337.204,149.326 337.474,148.66 338.032,148.102 C338.59,147.544 339.274,147.256 340.084,147.256 C340.894,147.256 341.578,147.544 342.136,148.102 C342.694,148.66 342.964,149.326 342.964,150.136 C342.964,150.946 342.694,151.63 342.136,152.188 C341.578,152.746 340.894,153.016 340.084,153.016 C339.274,153.016 338.59,152.746 338.032,152.188 Z M339.328,160.522 L338.428,159.802 L348.112,146.878 L349.012,147.58 L339.328,160.522 Z M338.932,148.984 C338.662,149.29 338.518,149.668 338.518,150.136 C338.518,150.604 338.662,151 338.932,151.306 C339.22,151.612 339.598,151.756 340.084,151.756 C340.57,151.756 340.948,151.612 341.218,151.306 C341.506,151 341.65,150.604 341.65,150.136 C341.65,149.668 341.506,149.29 341.218,148.984 C340.948,148.678 340.57,148.516 340.084,148.516 C339.598,148.516 339.22,148.678 338.932,148.984 Z M345.34,159.316 C344.782,158.758 344.512,158.074 344.512,157.264 C344.512,156.454 344.782,155.788 345.34,155.23 C345.898,154.672 346.582,154.384 347.392,154.384 C348.202,154.384 348.886,154.672 349.444,155.23 C350.002,155.788 350.272,156.454 350.272,157.264 C350.272,158.074 350.002,158.758 349.444,159.316 C348.886,159.874 348.202,160.144 347.392,160.144 C346.582,160.144 345.898,159.874 345.34,159.316 Z M346.24,156.112 C345.97,156.418 345.826,156.796 345.826,157.264 C345.826,157.732 345.97,158.128 346.24,158.434 C346.528,158.74 346.906,158.884 347.392,158.884 C347.878,158.884 348.256,158.74 348.526,158.434 C348.814,158.128 348.958,157.732 348.958,157.264 C348.958,156.796 348.814,156.418 348.526,156.112 C348.256,155.806 347.878,155.644 347.392,155.644 C346.906,155.644 346.528,155.806 346.24,156.112 Z M363.52,154.96 L363.52,153.628 L357.418,153.628 L357.418,154.96 L363.52,154.96 Z M370.342,156.742 C370.558,157.732 371.026,158.56 371.764,159.19 C372.502,159.82 373.384,160.144 374.41,160.144 C375.562,160.144 376.498,159.748 377.218,158.956 C377.866,158.254 378.19,157.39 378.19,156.382 C378.136,155.122 377.686,154.384 376.84,153.754 C376.246,153.304 375.904,153.124 375.184,152.764 L374.212,152.26 C374.014,152.152 373.78,151.99 373.492,151.792 C372.934,151.36 372.754,150.928 372.754,150.334 C372.754,149.488 373.402,148.768 374.266,148.768 C375.112,148.768 375.688,149.074 376.264,150.1 L377.542,149.272 C376.876,147.976 375.94,147.256 374.266,147.256 C373.42,147.256 372.7,147.562 372.088,148.174 C371.476,148.786 371.17,149.542 371.17,150.46 C371.17,151.396 371.458,152.098 372.106,152.674 C372.754,153.232 373.24,153.52 374.23,153.97 C375.742,154.69 376.606,155.32 376.606,156.418 C376.606,157.012 376.444,157.516 376.12,157.912 C375.706,158.398 375.148,158.632 374.41,158.632 C372.916,158.632 372.196,157.624 371.71,155.914 L370.342,156.742 Z M381.052,152.296 L381.052,157.156 C381.052,159.118 382.078,160.144 383.68,160.144 C384.274,160.144 384.76,160.036 385.156,159.802 L384.796,158.488 C384.508,158.686 384.166,158.776 383.77,158.776 C382.996,158.776 382.564,158.236 382.564,157.282 L382.564,152.296 L384.94,152.296 L384.94,150.928 L382.564,150.928 L382.564,147.256 L381.052,148.21 L381.052,150.928 L379.486,150.928 L379.486,152.296 L381.052,152.296 Z M388,158.776 C387.208,157.858 386.812,156.742 386.812,155.464 C386.812,154.186 387.208,153.088 388,152.17 C388.81,151.252 389.854,150.784 391.168,150.784 C392.482,150.784 393.526,151.252 394.318,152.17 C395.128,153.088 395.524,154.186 395.524,155.464 C395.524,156.742 395.128,157.858 394.318,158.776 C393.526,159.694 392.482,160.144 391.168,160.144 C389.854,160.144 388.81,159.694 388,158.776 Z M389.098,153.142 C388.612,153.79 388.36,154.564 388.36,155.464 C388.36,156.364 388.612,157.138 389.098,157.804 C389.602,158.452 390.286,158.776 391.168,158.776 C392.05,158.776 392.734,158.452 393.22,157.804 C393.724,157.138 393.976,156.364 393.976,155.464 C393.976,154.564 393.724,153.79 393.22,153.142 C392.734,152.476 392.05,152.152 391.168,152.152 C390.286,152.152 389.602,152.476 389.098,153.142 Z M399.664,160 L399.664,156.202 C399.664,154.996 399.916,154.006 400.42,153.268 C400.942,152.53 401.554,152.152 402.256,152.152 C403.3,152.152 403.822,152.764 403.822,154.006 L403.822,160 L405.334,160 L405.334,153.61 C405.334,151.81 404.326,150.784 402.67,150.784 C401.356,150.784 400.348,151.396 399.664,152.602 L399.664,150.928 L398.152,150.928 L398.152,160 L399.664,160 Z M411.958,150.784 C413.236,150.784 414.244,151.198 414.964,152.044 C415.702,152.872 416.062,153.88 416.062,155.086 L416.062,155.788 L409.402,155.788 C409.492,157.57 410.392,158.776 411.958,158.776 C413.236,158.776 413.956,158.218 414.478,157.048 L415.81,157.624 C414.964,159.406 413.83,160.144 411.958,160.144 C410.644,160.144 409.636,159.694 408.916,158.794 C408.214,157.876 407.854,156.778 407.854,155.464 C407.854,154.15 408.214,153.052 408.916,152.152 C409.636,151.234 410.644,150.784 411.958,150.784 Z M409.492,154.42 L414.478,154.42 C414.19,153.052 413.344,152.152 411.958,152.152 C410.608,152.152 409.78,153.034 409.492,154.42 Z M420.292,160 L420.292,150.82 L423.46,158.848 L424.576,158.848 L427.744,150.82 L427.744,160 L429.328,160 L429.328,147.4 L427.384,147.4 L424.018,156.274 L420.652,147.4 L418.708,147.4 L418.708,160 L420.292,160 Z M432.082,157.39 C432.082,155.464 433.648,154.42 436.186,154.42 L437.662,154.42 L437.662,154.024 C437.662,152.782 436.996,152.152 435.682,152.152 C434.728,152.152 433.99,152.692 433.792,153.574 L432.46,153.268 C432.694,151.738 433.972,150.784 435.682,150.784 C437.788,150.784 439.174,151.9 439.174,154.204 L439.174,160 L437.986,160 L437.734,158.722 C437.068,159.676 436.132,160.144 434.89,160.144 C433.252,160.144 432.082,159.244 432.082,157.39 Z M433.63,157.39 C433.63,158.254 434.17,158.776 435.124,158.776 C435.808,158.776 436.402,158.56 436.906,158.11 C437.41,157.66 437.662,156.958 437.662,156.004 L437.662,155.788 L436.042,155.788 C434.512,155.788 433.63,156.364 433.63,157.39 Z M443.566,160 L443.566,156.562 C443.566,155.176 443.818,154.096 444.322,153.322 C444.826,152.548 445.42,152.152 446.104,152.152 C446.482,152.152 446.824,152.242 447.166,152.404 L447.472,151.054 C447.13,150.874 446.716,150.784 446.23,150.784 C445.222,150.784 444.088,151.468 443.566,152.476 L443.566,150.928 L442.054,150.928 L442.054,160 L443.566,160 Z M451,160 L451,155.446 L454.834,160 L456.76,160 L452.62,155.086 L456.472,150.928 L454.528,150.928 L451,154.726 L451,147.256 L449.488,147.256 L449.488,160 L451,160 Z M462.106,150.784 C463.384,150.784 464.392,151.198 465.112,152.044 C465.85,152.872 466.21,153.88 466.21,155.086 L466.21,155.788 L459.55,155.788 C459.64,157.57 460.54,158.776 462.106,158.776 C463.384,158.776 464.104,158.218 464.626,157.048 L465.958,157.624 C465.112,159.406 463.978,160.144 462.106,160.144 C460.792,160.144 459.784,159.694 459.064,158.794 C458.362,157.876 458.002,156.778 458.002,155.464 C458.002,154.15 458.362,153.052 459.064,152.152 C459.784,151.234 460.792,150.784 462.106,150.784 Z M459.64,154.42 L464.626,154.42 C464.338,153.052 463.492,152.152 462.106,152.152 C460.756,152.152 459.928,153.034 459.64,154.42 Z M469.126,152.296 L469.126,157.156 C469.126,159.118 470.152,160.144 471.754,160.144 C472.348,160.144 472.834,160.036 473.23,159.802 L472.87,158.488 C472.582,158.686 472.24,158.776 471.844,158.776 C471.07,158.776 470.638,158.236 470.638,157.282 L470.638,152.296 L473.014,152.296 L473.014,150.928 L470.638,150.928 L470.638,147.256 L469.126,148.21 L469.126,150.928 L467.56,150.928 L467.56,152.296 L469.126,152.296 Z" id="30%---StoneMarket" fill="#FFFFFF"></path>
                <path d="M317.062,220.04 C317.062,219.23 317.278,218.456 317.71,217.718 L321.436,211.256 L323.164,211.256 L320.428,216.062 C320.608,215.972 320.806,215.936 321.04,215.936 C322.192,215.936 323.146,216.332 323.884,217.124 C324.64,217.898 325.018,218.87 325.018,220.04 C325.018,221.21 324.64,222.182 323.884,222.974 C323.146,223.748 322.192,224.144 321.04,224.144 C319.888,224.144 318.934,223.748 318.178,222.974 C317.44,222.182 317.062,221.21 317.062,220.04 Z M318.646,220.04 C318.646,221.57 319.654,222.704 321.04,222.704 C322.426,222.704 323.434,221.57 323.434,220.04 C323.434,218.438 322.462,217.376 321.04,217.376 C319.618,217.376 318.646,218.438 318.646,220.04 Z M327.952,216.188 C327.394,215.63 327.124,214.946 327.124,214.136 C327.124,213.326 327.394,212.66 327.952,212.102 C328.51,211.544 329.194,211.256 330.004,211.256 C330.814,211.256 331.498,211.544 332.056,212.102 C332.614,212.66 332.884,213.326 332.884,214.136 C332.884,214.946 332.614,215.63 332.056,216.188 C331.498,216.746 330.814,217.016 330.004,217.016 C329.194,217.016 328.51,216.746 327.952,216.188 Z M329.248,224.522 L328.348,223.802 L338.032,210.878 L338.932,211.58 L329.248,224.522 Z M328.852,212.984 C328.582,213.29 328.438,213.668 328.438,214.136 C328.438,214.604 328.582,215 328.852,215.306 C329.14,215.612 329.518,215.756 330.004,215.756 C330.49,215.756 330.868,215.612 331.138,215.306 C331.426,215 331.57,214.604 331.57,214.136 C331.57,213.668 331.426,213.29 331.138,212.984 C330.868,212.678 330.49,212.516 330.004,212.516 C329.518,212.516 329.14,212.678 328.852,212.984 Z M335.26,223.316 C334.702,222.758 334.432,222.074 334.432,221.264 C334.432,220.454 334.702,219.788 335.26,219.23 C335.818,218.672 336.502,218.384 337.312,218.384 C338.122,218.384 338.806,218.672 339.364,219.23 C339.922,219.788 340.192,220.454 340.192,221.264 C340.192,222.074 339.922,222.758 339.364,223.316 C338.806,223.874 338.122,224.144 337.312,224.144 C336.502,224.144 335.818,223.874 335.26,223.316 Z M336.16,220.112 C335.89,220.418 335.746,220.796 335.746,221.264 C335.746,221.732 335.89,222.128 336.16,222.434 C336.448,222.74 336.826,222.884 337.312,222.884 C337.798,222.884 338.176,222.74 338.446,222.434 C338.734,222.128 338.878,221.732 338.878,221.264 C338.878,220.796 338.734,220.418 338.446,220.112 C338.176,219.806 337.798,219.644 337.312,219.644 C336.826,219.644 336.448,219.806 336.16,220.112 Z M353.44,218.96 L353.44,217.628 L347.338,217.628 L347.338,218.96 L353.44,218.96 Z M362.71,227.672 L361.198,227.672 L361.198,214.928 L362.71,214.928 L362.71,216.044 C363.16,215.342 364.276,214.784 365.356,214.784 C367.948,214.784 369.388,216.656 369.388,219.464 C369.388,222.272 367.948,224.144 365.356,224.144 C364.816,224.144 364.276,224.018 363.754,223.748 C363.232,223.478 362.872,223.208 362.71,222.92 L362.71,227.672 Z M365.212,222.776 C366.796,222.776 367.84,221.426 367.84,219.464 C367.84,217.502 366.796,216.152 365.212,216.152 C363.574,216.152 362.584,217.502 362.584,219.464 C362.584,221.426 363.574,222.776 365.212,222.776 Z M375.436,214.784 C376.714,214.784 377.722,215.198 378.442,216.044 C379.18,216.872 379.54,217.88 379.54,219.086 L379.54,219.788 L372.88,219.788 C372.97,221.57 373.87,222.776 375.436,222.776 C376.714,222.776 377.434,222.218 377.956,221.048 L379.288,221.624 C378.442,223.406 377.308,224.144 375.436,224.144 C374.122,224.144 373.114,223.694 372.394,222.794 C371.692,221.876 371.332,220.778 371.332,219.464 C371.332,218.15 371.692,217.052 372.394,216.152 C373.114,215.234 374.122,214.784 375.436,214.784 Z M372.97,218.42 L377.956,218.42 C377.668,217.052 376.822,216.152 375.436,216.152 C374.086,216.152 373.258,217.034 372.97,218.42 Z M381.412,221.516 C381.574,223.1 382.816,224.144 384.472,224.144 C385.336,224.144 386.056,223.856 386.65,223.298 C387.244,222.722 387.532,222.02 387.532,221.174 C387.532,220.364 387.298,219.698 386.83,219.176 C386.38,218.654 385.804,218.384 385.138,218.384 C385.03,218.384 384.922,218.384 384.814,218.402 L387.064,215.432 L387.064,214.928 L381.88,214.928 L381.88,216.296 L384.778,216.296 L383.068,218.708 L383.824,219.644 C384.04,219.536 384.274,219.482 384.526,219.482 C385.462,219.482 386.092,220.166 386.092,221.174 C386.092,222.128 385.408,222.776 384.472,222.776 C383.608,222.776 383.014,222.218 382.888,221.336 L381.412,221.516 Z M393.508,214.784 C394.786,214.784 395.794,215.198 396.514,216.044 C397.252,216.872 397.612,217.88 397.612,219.086 L397.612,219.788 L390.952,219.788 C391.042,221.57 391.942,222.776 393.508,222.776 C394.786,222.776 395.506,222.218 396.028,221.048 L397.36,221.624 C396.514,223.406 395.38,224.144 393.508,224.144 C392.194,224.144 391.186,223.694 390.466,222.794 C389.764,221.876 389.404,220.778 389.404,219.464 C389.404,218.15 389.764,217.052 390.466,216.152 C391.186,215.234 392.194,214.784 393.508,214.784 Z M391.042,218.42 L396.028,218.42 C395.74,217.052 394.894,216.152 393.508,216.152 C392.158,216.152 391.33,217.034 391.042,218.42 Z M401.68,227.672 L400.168,227.672 L400.168,214.928 L401.68,214.928 L401.68,216.044 C402.13,215.342 403.246,214.784 404.326,214.784 C406.918,214.784 408.358,216.656 408.358,219.464 C408.358,222.272 406.918,224.144 404.326,224.144 C403.786,224.144 403.246,224.018 402.724,223.748 C402.202,223.478 401.842,223.208 401.68,222.92 L401.68,227.672 Z M404.182,222.776 C405.766,222.776 406.81,221.426 406.81,219.464 C406.81,217.502 405.766,216.152 404.182,216.152 C402.544,216.152 401.554,217.502 401.554,219.464 C401.554,221.426 402.544,222.776 404.182,222.776 Z M414.568,224 L410.986,224 L410.986,214.928 L414.496,214.928 C416.026,214.928 417.106,215.81 417.106,217.178 C417.106,217.988 416.764,218.618 416.098,219.032 C417.016,219.518 417.484,220.238 417.484,221.228 C417.484,222.038 417.214,222.704 416.674,223.226 C416.134,223.748 415.432,224 414.568,224 Z M412.498,219.86 L412.498,222.632 L414.424,222.632 C415.432,222.632 415.936,222.164 415.936,221.246 C415.936,220.328 415.432,219.86 414.424,219.86 L412.498,219.86 Z M412.498,216.296 L412.498,218.492 L414.424,218.492 C415.162,218.492 415.63,218.096 415.63,217.394 C415.63,216.692 415.162,216.296 414.424,216.296 L412.498,216.296 Z" id="6%---резерв" fill="#FFFFFF"></path>
                <circle id="Oval-2-Copy" fill="#FFFFFF" cx="131" cy="203" r="126"></circle>
                <path d="M57.5,132.5 L2.5,33.5" id="Line-7-Copy-9" stroke="#FFFFFF" stroke-linecap="square"></path>
                <path d="M304.5,41.5 L173.5,88.5" id="Line-7-Copy-5" stroke="#FFFFFF" stroke-linecap="square"></path>
                <path d="M304.5,105.5 L228.5,121.5" id="Line-7-Copy-6" stroke="#FFFFFF" stroke-linecap="square"></path>
                <path d="M304.5,168.5 L248.5,177.5" id="Line-7-Copy-7" stroke="#FFFFFF" stroke-linecap="square"></path>
                <path d="M305.5,232.5 L230.5,276.5" id="Line-7-Copy-8" stroke="#FFFFFF" stroke-linecap="square"></path>
                <path d="M2.5,33.5 L259.517509,33.5" id="Line-8-Copy-5" stroke="#FFFFFF" stroke-linecap="square"></path>
                <path d="M305.5,41.5 L556.5,41.5" id="Line-8-Copy-6" stroke="#FFFFFF" stroke-linecap="square"></path>
                <path d="M305.5,105.5 L556.507968,105.5" id="Line-8-Copy-7" stroke="#FFFFFF" stroke-linecap="square"></path>
                <path d="M305.5,168.5 L556.5,168.5" id="Line-8-Copy-8" stroke="#FFFFFF" stroke-linecap="square"></path>
                <path d="M305.5,232.5 L556.5,232.5" id="Line-8-Copy-9" stroke="#FFFFFF" stroke-linecap="square"></path>
                <path d="M168.5,86.5 L130.5,203.5" id="Line-6-Copy" stroke="#46709A" stroke-width="7" stroke-linecap="round" stroke-linejoin="bevel"></path>
                <path d="M217.5,290.5 L130.5,206.5" id="Line-6-Copy-2" stroke="#46709A" stroke-width="7" stroke-linecap="round" stroke-linejoin="bevel"></path>
                <path d="M240.5,258.5 L130.5,206.5" id="Line-6-Copy-3" stroke="#46709A" stroke-width="7" stroke-linecap="round" stroke-linejoin="bevel"></path>
                <path d="M234.5,137.5 L132.5,205.5" id="Line-6-Copy-4" stroke="#46709A" stroke-width="7" stroke-linecap="round" stroke-linejoin="bevel"></path>
                <path d="M213.5,112.5 L133.5,199.5" id="Line-6-Copy-5" stroke="#46709A" stroke-width="7" stroke-linecap="round" stroke-linejoin="bevel"></path>
            </g>
        </g>
    </g>
</svg>