<?xml version="1.0" encoding="UTF-8"?>
<svg width="721px" height="591px" viewBox="0 0 721 591" version="1.1" xmlns="http://www.w3.org/2000/svg" xmlns:xlink="http://www.w3.org/1999/xlink">
    <!-- Generator: Sketch 47.1 (45422) - http://www.bohemiancoding.com/sketch -->
    <title>Group 11</title>
    <desc>Created with Sketch.</desc>
    <defs>
        <polygon id="path-1" points="0 0.161628057 0 14.0399564 129.980387 14.0399564 129.980387 0.161628057 0 0.161628057"></polygon>
        <polygon id="path-3" points="0.0422698469 0.058656404 45.5833033 0.058656404 45.5833033 58.820664 0.0422698469 58.820664"></polygon>
        <polygon id="path-5" points="101.587221 5.11711712 0.0931009777 5.11711712 0.0931009777 0.187399419 101.587221 0.187399419"></polygon>
        <polygon id="path-7" points="162 0 162 98 0 98 0 0"></polygon>
    </defs>
    <g id="Page-1" stroke="none" stroke-width="1" fill="none" fill-rule="evenodd">
        <g id="mountaintoken" transform="translate(-359.000000, -5849.000000)">
            <g id="Group-11" transform="translate(359.000000, 5849.000000)">
                <path d="M239.632,315.976 L239.632,343 L243.184,343 L243.184,309.4 L237.952,309.4 L232.624,336.232 L227.104,309.4 L221.872,309.4 L221.872,343 L225.136,343 L225.136,316.216 L230.704,342.952 L234.304,342.952 L239.632,315.976 Z M248.236,334.888 L248.236,317.512 C248.236,312.376 250.78,309.064 255.916,309.064 C261.1,309.064 263.644,312.376 263.644,317.512 L263.644,334.888 C263.644,339.976 261.1,343.336 255.916,343.336 C250.78,343.336 248.236,339.976 248.236,334.888 Z M251.932,317.32 L251.932,335.08 C251.932,338.152 253.228,339.928 255.916,339.928 C258.652,339.928 259.9,338.152 259.9,335.08 L259.9,317.32 C259.9,314.296 258.652,312.472 255.916,312.472 C253.228,312.472 251.932,314.296 251.932,317.32 Z M272.248,309.4 L268.552,309.4 L268.552,334.888 C268.552,339.976 270.904,343.384 276.04,343.384 C281.224,343.384 283.576,339.976 283.576,334.888 L283.576,309.4 L280.072,309.4 L280.072,335.08 C280.072,338.104 278.872,339.928 276.184,339.928 C273.448,339.928 272.248,338.104 272.248,335.08 L272.248,309.4 Z M292.084,315.832 L300.676,343 L304.564,343 L304.564,309.4 L301.252,309.4 L301.252,333.688 L293.476,309.4 L288.724,309.4 L288.724,343 L292.084,343 L292.084,315.832 Z M318.448,343 L318.448,312.808 L324.64,312.808 L324.64,309.4 L308.56,309.4 L308.56,312.808 L314.752,312.808 L314.752,343 L318.448,343 Z M339.148,336.232 L330.652,336.232 L329.356,343 L325.9,343 L332.332,309.4 L337.756,309.4 L344.188,343 L340.444,343 L339.148,336.232 Z M334.828,313.624 L331.132,333.016 L338.62,333.016 L334.828,313.624 Z M348.616,309.4 L348.616,343 L352.36,343 L352.36,309.4 L348.616,309.4 Z M361.012,315.832 L369.604,343 L373.492,343 L373.492,309.4 L370.18,309.4 L370.18,333.688 L362.404,309.4 L357.652,309.4 L357.652,343 L361.012,343 L361.012,315.832 Z M395.02,309.064 C389.884,309.064 387.484,312.424 387.484,317.512 L387.484,334.888 C387.484,339.976 389.884,343.336 395.02,343.336 C400.204,343.336 402.604,339.976 402.604,334.888 L402.604,325 L395.596,325 L395.596,328.36 L399.052,328.36 L399.052,335.08 C399.052,338.104 397.852,339.928 395.116,339.928 C392.428,339.928 391.18,338.104 391.18,335.08 L391.18,317.32 C391.18,314.296 392.428,312.472 395.116,312.472 C397.852,312.472 399.052,314.296 399.052,317.32 L399.052,320.392 L402.604,320.392 L402.604,317.512 C402.604,312.424 400.204,309.064 395.02,309.064 Z M407.656,309.4 L415.144,309.4 C420.424,309.4 422.632,312.088 422.632,317.08 L422.632,319.816 C422.632,323.512 421.336,325.816 418.456,326.728 C421.528,327.64 422.68,330.136 422.68,333.736 L422.68,338.968 C422.68,340.456 422.728,341.848 423.352,343 L419.56,343 C419.128,342.04 418.936,341.176 418.936,338.92 L418.936,333.64 C418.936,329.848 417.16,328.648 414.04,328.648 L411.4,328.648 L411.4,343 L407.656,343 L407.656,309.4 Z M411.4,325.24 L414.184,325.24 C417.16,325.24 418.936,324.28 418.936,320.632 L418.936,317.416 C418.936,314.392 417.832,312.808 415.048,312.808 L411.4,312.808 L411.4,325.24 Z M427.78,334.888 L427.78,317.512 C427.78,312.376 430.324,309.064 435.46,309.064 C440.644,309.064 443.188,312.376 443.188,317.512 L443.188,334.888 C443.188,339.976 440.644,343.336 435.46,343.336 C430.324,343.336 427.78,339.976 427.78,334.888 Z M431.476,317.32 L431.476,335.08 C431.476,338.152 432.772,339.928 435.46,339.928 C438.196,339.928 439.444,338.152 439.444,335.08 L439.444,317.32 C439.444,314.296 438.196,312.472 435.46,312.472 C432.772,312.472 431.476,314.296 431.476,317.32 Z M451.792,309.4 L448.096,309.4 L448.096,334.888 C448.096,339.976 450.448,343.384 455.584,343.384 C460.768,343.384 463.12,339.976 463.12,334.888 L463.12,309.4 L459.616,309.4 L459.616,335.08 C459.616,338.104 458.416,339.928 455.728,339.928 C452.992,339.928 451.792,338.104 451.792,335.08 L451.792,309.4 Z M468.316,309.4 L475.66,309.4 C480.94,309.4 483.196,312.52 483.196,317.608 L483.196,321.64 C483.196,326.968 480.7,329.752 475.372,329.752 L472.06,329.752 L472.06,343 L468.316,343 L468.316,309.4 Z M472.06,326.392 L475.372,326.392 C478.156,326.392 479.5,325.096 479.5,321.88 L479.5,317.416 C479.5,314.344 478.396,312.808 475.66,312.808 L472.06,312.808 L472.06,326.392 Z" id="mountain-group" fill="#1A5692"></path>
                <path d="M45.2,200.57 C45.8,203.48 47.93,205.67 50.78,206.15 L50.78,208.7 L53.18,208.7 L53.18,206.12 C54.56,205.91 55.73,205.28 56.66,204.26 C57.74,203.09 58.28,201.65 58.28,199.97 C58.19,197.87 57.44,196.64 56.03,195.59 C55.04,194.84 54.47,194.54 53.27,193.94 L51.65,193.1 C51.32,192.92 50.93,192.65 50.45,192.32 C49.52,191.6 49.22,190.88 49.22,189.89 C49.22,188.48 50.3,187.25 51.74,187.25 C53.15,187.25 54.11,187.79 55.07,189.5 L57.2,188.12 C56.27,186.29 54.92,185.21 53.18,184.88 L53.18,182.3 L50.78,182.3 L50.78,184.85 C48.38,185.33 46.58,187.43 46.58,190.1 C46.58,191.66 47.06,192.83 48.14,193.79 C49.22,194.72 50.03,195.2 51.68,195.95 C54.2,197.15 55.64,198.2 55.64,200.03 C55.64,201.02 55.37,201.86 54.83,202.52 C54.14,203.33 53.21,203.72 51.98,203.72 C49.49,203.72 48.29,202.04 47.48,199.19 L45.2,200.57 Z M65.15,209.21 L68.63,202.7 L65.21,202.7 L63.23,209.21 L65.15,209.21 Z M85.64,199.01 C86.45,203.6 89.27,206.24 93.44,206.24 C96.17,206.24 98.12,205.1 99.35,202.82 L97.22,201.65 C96.32,203.12 95.06,203.84 93.44,203.84 C90.53,203.84 88.79,202.22 88.16,199.01 L94.07,199.01 L95.27,196.61 L87.95,196.61 L87.95,194.39 L94.07,194.39 L95.27,191.99 L88.16,191.99 C88.79,188.78 90.53,187.16 93.44,187.16 C95.06,187.16 96.32,187.88 97.22,189.35 L99.35,188.18 C98.12,185.9 96.17,184.76 93.44,184.76 C89.27,184.76 86.45,187.4 85.64,191.99 L83.93,191.99 L82.73,194.39 L85.43,194.39 L85.43,196.61 L83.93,196.61 L82.73,199.01 L85.64,199.01 Z M106.07,209.21 L109.55,202.7 L106.13,202.7 L104.15,209.21 L106.07,209.21 Z M123.818049,194.47561 L125.982683,194.47561 L125.982683,184.75 L131.561951,184.75 C132.598542,184.75 133.543654,184.866869 134.397317,185.10061 C135.25098,185.334351 135.98268,185.690038 136.592439,186.167683 C137.202198,186.645328 137.679836,187.249996 138.025366,187.981707 C138.370896,188.713418 138.543659,189.587393 138.543659,190.603659 C138.543659,191.619924 138.360734,192.504061 137.994878,193.256098 C137.629023,194.008134 137.13106,194.633128 136.500976,195.131098 C135.870891,195.629068 135.129029,195.999999 134.275366,196.243902 C133.421703,196.487806 132.496916,196.609756 131.500976,196.609756 L128.421707,196.609756 L128.421707,199.689024 L133.330244,199.689024 L133.330244,201.70122 L128.421707,201.70122 L128.421707,206 L125.982683,206 L125.982683,201.70122 L123.818049,201.70122 L123.818049,199.689024 L125.982683,199.689024 L125.982683,196.609756 L123.818049,196.609756 L123.818049,194.47561 Z M131.561951,194.47561 C132.964397,194.47561 134.067029,194.155491 134.869878,193.515244 C135.672728,192.874997 136.074146,191.904478 136.074146,190.603659 C136.074146,189.302839 135.672728,188.357727 134.869878,187.768293 C134.067029,187.178859 132.964397,186.884146 131.561951,186.884146 L128.421707,186.884146 L128.421707,194.47561 L131.561951,194.47561 Z" id="$,-€,-₽" fill="#1A5692"></path>
                <path d="M559.61,313.79 C556.46,313.79 554.96,315.8 554.96,319.04 C554.96,324.95 561.98,325.4 561.98,330.08 C561.98,331.97 561.2,333.08 559.52,333.08 C557.84,333.08 557.06,331.97 557.06,330.08 L557.06,328.76 L554.87,328.76 L554.87,329.96 C554.87,333.14 556.37,335.21 559.58,335.21 C562.79,335.21 564.32,333.14 564.32,329.96 C564.32,324.05 557.27,323.6 557.27,318.89 C557.27,317.03 557.99,315.92 559.67,315.92 C561.35,315.92 562.07,317.03 562.07,318.92 L562.07,319.61 L564.29,319.61 L564.29,319.04 C564.29,315.86 562.79,313.79 559.61,313.79 Z M578.3675,318.11 L578.3675,335 L580.5875,335 L580.5875,314 L577.3175,314 L573.9875,330.77 L570.5375,314 L567.2675,314 L567.2675,335 L569.3075,335 L569.3075,318.26 L572.7875,334.97 L575.0375,334.97 L578.3675,318.11 Z M591.605,330.77 L586.295,330.77 L585.485,335 L583.325,335 L587.345,314 L590.735,314 L594.755,335 L592.415,335 L591.605,330.77 Z M588.905,316.64 L586.595,328.76 L591.275,328.76 L588.905,316.64 Z M597.5225,314 L602.2025,314 C605.5025,314 606.8825,315.68 606.8825,318.8 L606.8825,320.51 C606.8825,322.82 606.0725,324.26 604.2725,324.83 C606.1925,325.4 606.9125,326.96 606.9125,329.21 L606.9125,332.48 C606.9125,333.41 606.9425,334.28 607.3325,335 L604.9625,335 C604.6925,334.4 604.5725,333.86 604.5725,332.45 L604.5725,329.15 C604.5725,326.78 603.4625,326.03 601.5125,326.03 L599.8625,326.03 L599.8625,335 L597.5225,335 L597.5225,314 Z M599.8625,323.9 L601.6025,323.9 C603.4625,323.9 604.5725,323.3 604.5725,321.02 L604.5725,319.01 C604.5725,317.12 603.8825,316.13 602.1425,316.13 L599.8625,316.13 L599.8625,323.9 Z M615.62,335 L615.62,316.13 L619.49,316.13 L619.49,314 L609.44,314 L609.44,316.13 L613.31,316.13 L613.31,335 L615.62,335 Z M626.5475,313.79 C623.3375,313.79 621.8375,315.89 621.8375,319.07 L621.8375,329.93 C621.8375,333.11 623.3375,335.21 626.5475,335.21 C629.7875,335.21 631.2875,333.11 631.2875,329.93 L631.2875,327.32 L629.0675,327.32 L629.0675,330.05 C629.0675,331.94 628.3175,333.08 626.6075,333.08 C624.9275,333.08 624.1475,331.94 624.1475,330.05 L624.1475,318.95 C624.1475,317.06 624.9275,315.92 626.6075,315.92 C628.3175,315.92 629.0675,317.06 629.0675,318.95 L629.0675,320.96 L631.2875,320.96 L631.2875,319.07 C631.2875,315.89 629.7875,313.79 626.5475,313.79 Z M634.175,329.93 L634.175,319.07 C634.175,315.86 635.765,313.79 638.975,313.79 C642.215,313.79 643.805,315.86 643.805,319.07 L643.805,329.93 C643.805,333.11 642.215,335.21 638.975,335.21 C635.765,335.21 634.175,333.11 634.175,329.93 Z M636.485,318.95 L636.485,330.05 C636.485,331.97 637.295,333.08 638.975,333.08 C640.685,333.08 641.465,331.97 641.465,330.05 L641.465,318.95 C641.465,317.06 640.685,315.92 638.975,315.92 C637.295,315.92 636.485,317.06 636.485,318.95 Z M649.0325,318.02 L654.4025,335 L656.8325,335 L656.8325,314 L654.7625,314 L654.7625,329.18 L649.9025,314 L646.9325,314 L646.9325,335 L649.0325,335 L649.0325,318.02 Z M665.51,335 L665.51,316.13 L669.38,316.13 L669.38,314 L659.33,314 L659.33,316.13 L663.2,316.13 L663.2,335 L665.51,335 Z M671.9075,314 L676.5875,314 C679.8875,314 681.2675,315.68 681.2675,318.8 L681.2675,320.51 C681.2675,322.82 680.4575,324.26 678.6575,324.83 C680.5775,325.4 681.2975,326.96 681.2975,329.21 L681.2975,332.48 C681.2975,333.41 681.3275,334.28 681.7175,335 L679.3475,335 C679.0775,334.4 678.9575,333.86 678.9575,332.45 L678.9575,329.15 C678.9575,326.78 677.8475,326.03 675.8975,326.03 L674.2475,326.03 L674.2475,335 L671.9075,335 L671.9075,314 Z M674.2475,323.9 L675.9875,323.9 C677.8475,323.9 678.9575,323.3 678.9575,321.02 L678.9575,319.01 C678.9575,317.12 678.2675,316.13 676.5275,316.13 L674.2475,316.13 L674.2475,323.9 Z M692.345,330.77 L687.035,330.77 L686.225,335 L684.065,335 L688.085,314 L691.475,314 L695.495,335 L693.155,335 L692.345,330.77 Z M689.645,316.64 L687.335,328.76 L692.015,328.76 L689.645,316.64 Z M706.3325,335 L708.7325,335 L703.2425,323.57 L708.5525,314 L706.1825,314 L700.6025,324.14 L700.6025,314 L698.2625,314 L698.2625,335 L700.6025,335 L700.6025,327.95 L701.8325,325.88 L706.3325,335 Z M716.81,335 L716.81,316.13 L720.68,316.13 L720.68,314 L710.63,314 L710.63,316.13 L714.5,316.13 L714.5,335 L716.81,335 Z" id="smartcontrakt" fill="#1A5692"></path>
                <path d="M340.577465,518.521673 L340.577465,530.482759 L301.239437,508.554189 L301.239437,496.593103 L340.577465,518.521673 Z M344.591549,529.675862 L344.591549,518.37931 L351.014085,518.37931 L351.014085,529.675862 L344.591549,529.675862 Z M353.422535,528.868966 L353.422535,517.141677 L393.991016,494.172414 L394.366197,505.87397 L353.422535,528.868966 Z M352.076724,534.517241 L363.056338,540.26462 L361.816592,545.813793 L351.014085,540.066415 L352.076724,534.517241 Z M353.422535,533.106583 L395.292418,508.696552 L404,513.578874 L364.909298,538.551724 L353.422535,533.106583 Z M349.408451,583.158784 L349.408451,543.393103 L360.647887,548.433698 L360.647887,591 L349.408451,583.158784 Z M342.726093,534.517241 L343.788732,540.066415 L332.986225,545.813793 L331.746479,540.26462 L342.726093,534.517241 Z M290,513.578874 L298.707671,508.696552 L340.577465,533.106583 L329.091103,538.551724 L290,513.578874 Z M334.15493,548.433698 L345.394366,543.393103 L345.394366,583.158784 L334.15493,591 L334.15493,548.433698 Z M342.760545,474 L350.74406,474 L390.352113,493.60461 L350.74406,515.958621 L342.760545,515.958621 L302.84507,493.980245 L342.760545,474 Z M351.831578,482.08145 L353.282137,494.196862 L342.034357,482.106418 L336.831476,482.119423 L334.957746,502.175837 L341.300431,502.191963 L341.634427,487.85384 L353.898787,502.224214 L360.647887,502.241379 L356.805851,482.068966 L351.831578,482.08145 Z M330.054431,541.760769 L331.558415,547.775171 L331.746479,591 L292.945806,562.70325 C291.094668,561.352852 290,559.200113 290,556.909439 L290,516.765517 L330.054431,541.760769 Z M317.134473,570.033801 L322.915493,574.055172 L322.829009,546.268208 L316.30938,542.454129 L309.449723,554.874703 L302.753903,534.524035 L297.225352,531.289655 L297.476748,556.358156 L302.357471,559.754049 L302.220493,544.001879 L307.597562,561.035353 L311.433491,563.665344 L317.056046,553.313066 L317.134473,570.033801 Z M362.441583,547.775171 L363.945547,541.761296 L404,516.765517 L404,558.800522 L404,561.01907 C404,562.955429 403.015443,564.759118 401.386631,565.807321 L401.017356,566.045286 L362.253521,591 L362.441583,547.775171 Z M374.32981,544.060788 L374.295775,549.185517 L382.744862,544.011655 L383.215689,570.02069 L389.050737,565.993276 L388.179218,540.683882 L395.971831,535.912813 L395.701609,531.289655 L374.32981,544.060788 Z" id="Combined-Shape-Copy-2" fill="#1A5692"></path>
                <g id="Page-1" transform="translate(569.000000, 204.000000)">
                    <path d="M95.5089259,60.9046975 C92.9060651,61.1104341 90.3100091,61.3748572 87.7071483,61.5789265 C87.0013325,61.634612 86.6297113,61.8353469 86.3726386,62.4748974 C85.8085909,63.8803746 85.0891655,65.2368352 84.3723864,66.7413461 C86.2769925,68.8097151 88.2957691,71.0021262 90.2597287,73.1348504 C88.0402086,75.0945158 85.8513104,77.0275055 83.6147781,79.0021761 C81.3650141,77.370622 78.9927626,75.6760466 76.6605841,73.9397904 C76.1502193,73.5596613 75.7687688,73.5269836 75.1608675,73.7640641 C73.9571625,74.2342237 72.7092259,74.6260234 71.4544844,74.9794768 C70.8874123,75.1388642 70.6749493,75.3579386 70.6205104,75.89212 C70.3392427,78.6527241 69.9986214,81.4083264 69.6750122,84.2022751 L60.2771157,84.2022751 C60.0835551,82.571388 59.8850799,80.927163 59.6945436,79.2822712 C59.5565561,78.094868 59.4609099,76.9021296 59.2730201,75.7207285 C59.2340811,75.4756453 58.918789,75.16554 58.6458383,75.0658394 C57.2546215,74.5566665 55.8463925,74.0771704 54.4166148,73.661696 C54.12703,73.5776674 53.6401041,73.730386 53.3750924,73.9177829 C51.1642674,75.4823142 48.9851984,77.0811904 46.7944099,78.6677292 C46.6012274,78.8071098 46.3967034,78.9348199 46.22885,79.0468579 C44.0346591,77.09953 41.8639072,75.1738761 39.6338018,73.1945373 C41.610615,71.0484753 43.6312819,68.85373 45.5563026,66.7633536 C44.8119259,65.1461378 44.1291712,63.6019467 43.3738311,62.0860987 C43.2607948,61.8603554 42.8184786,61.6619547 42.5054548,61.6302772 C39.8783989,61.3641869 37.2479405,61.117103 34.6129456,60.9180354 C33.9381298,60.8673515 33.6939108,60.7036293 33.70374,60.0787504 C33.7419229,57.6102455 33.719618,55.1410738 33.719618,52.578537 C35.6457729,52.4054782 37.5140863,52.2377546 39.3820218,52.0693641 C40.4787392,51.9703304 41.578859,51.8969722 42.6676374,51.7525898 C42.9356735,51.7169111 43.2849899,51.4951691 43.3912214,51.2804295 C44.1257687,49.7852551 44.8066333,48.2694071 45.5623513,46.6351855 C43.6611477,44.582155 41.6325418,42.3917446 39.6145213,40.2120044 C41.8521877,38.2820158 44.0524274,36.3847048 46.3494474,34.4030319 C47.6419937,35.3370157 49.0933201,36.3853717 50.5442686,37.4340612 C51.5426935,38.155973 52.5214599,38.9015595 53.553153,39.5847915 C53.7830062,39.7371765 54.2355298,39.7745226 54.5201999,39.6911609 C55.88949,39.2900247 57.227024,38.80486 58.5955579,38.40239 C59.0866424,38.2580076 59.2745322,38.0706106 59.3229224,37.6011179 C59.6098609,34.8135047 59.9459456,32.0295593 60.2737133,29.1719223 L69.6644269,29.1719223 C69.8598777,30.808478 70.0575969,32.4283614 70.2454867,34.0485782 C70.3861206,35.263991 70.4840351,36.4844054 70.672303,37.693816 C70.7104858,37.940233 71.0178389,38.2586745 71.2877652,38.3550406 C72.6831406,38.8528763 74.0977964,39.313366 75.5283302,39.7268397 C75.7990126,39.8051996 76.2477557,39.6961626 76.4836577,39.5294393 C78.523983,38.0889502 80.5344425,36.614783 82.5547313,35.1519529 C82.9418525,34.8715244 83.3331323,34.5954306 83.6726194,34.3526815 C85.9042371,36.2960081 88.0938914,38.2033224 90.3636919,40.1799936 C88.3517202,42.351731 86.328407,44.5361394 84.3882644,46.6305172 C85.1375556,48.2664061 85.8320299,49.8312708 86.5892602,51.3724608 C86.6879307,51.5728621 87.1003811,51.7395854 87.3869416,51.7679284 C90.1398875,52.0403542 92.89737,52.2797688 95.6533403,52.5301872 C95.8056936,52.5438585 95.9572909,52.5698674 96.2279733,52.606213 L96.2279733,53.8396318 C96.2279733,55.9513489 96.2154977,58.0633994 96.2370465,60.1751165 C96.241583,60.6546126 96.0896077,60.8586819 95.5089259,60.9046975 M129.99825,17.3352364 L129.99825,16.4606061 L0,16.4606061 L0,96.9999541 L1.03169314,96.9999541 C39.0493395,96.9999541 77.0673639,97.0009544 115.08501,96.9936186 C116.027106,96.9936186 116.986592,96.984949 117.908651,96.8388994 C125.202332,95.6801726 129.992579,90.6314582 129.994847,84.0945719 C130.00392,61.8413489 129.99825,39.5881259 129.99825,17.3352364" id="Fill-1" fill="#1A5692"></path>
                    <g id="Group-5">
                        <mask id="mask-2" fill="white">
                            <use xlink:href="#path-1"></use>
                        </mask>
                        <g id="Clip-4"></g>
                        <path d="M17.666811,5.06019186 C18.950561,5.09915983 19.9758227,6.06596848 19.9395436,7.20410182 C19.9025087,8.35970355 18.8557064,9.23312346 17.5311424,9.21397541 C16.2065785,9.19516329 15.2187297,8.30393905 15.2153285,7.12482216 C15.2115494,5.96250182 16.3312878,5.01954424 17.666811,5.06019186 L17.666811,5.06019186 Z M24.7102413,5.05750442 C26.0162878,5.06187152 27.0415494,5.97123602 27.0502413,7.13322043 C27.059311,8.31032173 26.0725959,9.19717887 24.7332936,9.215991 C23.3826541,9.23513905 22.3245145,8.3099858 22.3264041,7.111049 C22.3279157,6.00079792 23.427625,5.05313732 24.7102413,5.05750442 L24.7102413,5.05750442 Z M31.8606192,5.05616069 C33.1379448,5.06993385 34.2040203,6.02767238 34.1979738,7.15572779 C34.1919273,8.30024381 33.1473924,9.21263169 31.836811,9.21901437 C30.5009099,9.22506113 29.5021017,8.36071134 29.4741366,7.17386805 C29.4465494,5.9863529 30.5111134,5.04137974 31.8606192,5.05616069 L31.8606192,5.05616069 Z M44.2117529,6.71297108 C44.3546017,5.77404468 45.2770727,4.93354597 46.4017238,4.77061957 C46.864282,4.70343342 47.3423343,4.705449 47.8135843,4.705449 C58.3621017,4.70242563 68.9102413,4.70309749 79.4587587,4.70309749 C90.0068983,4.70309749 100.555416,4.70276156 111.103555,4.70477714 C111.543439,4.70477714 111.988613,4.69906632 112.422828,4.75046372 C113.818439,4.91607758 114.812334,5.94906459 114.793439,7.18025074 C114.774922,8.36440658 113.78027,9.35775377 112.419049,9.5253832 C112.046433,9.57140571 111.665125,9.57006199 111.287974,9.57006199 C90.0968401,9.57207758 68.9057064,9.57409316 47.7149506,9.56166372 C47.0668401,9.56132779 46.3775378,9.50858667 45.7804448,9.30870788 C44.6183808,8.92037195 44.0371599,7.85916675 44.2117529,6.71297108 L44.2117529,6.71297108 Z M129.980387,14.0399564 L129.980387,0.16601697 L128.581375,0.16601697 L46.677218,0.16601697 C36.0965785,0.16601697 25.5163169,0.175758961 14.9352994,0.16164987 C9.80143314,0.154595325 5.61875872,1.85843602 2.59890407,5.58558753 C0.561985465,8.10036502 -0.234264535,10.9456984 0.0586133721,14.0399564 L129.980387,14.0399564 Z" id="Fill-3" fill="#1A5692" mask="url(#mask-2)"></path>
                    </g>
                    <path d="M66.6523984,63.3655794 C66.3807764,63.4436501 66.10416,63.5084827 65.7760622,63.5933421 L65.7760622,65.8689331 C64.2189424,66.2093892 64.0510516,66.130979 64.1132903,64.8614817 C64.1543985,64.019676 64.0402943,63.531225 62.8592959,63.4687685 C61.9161108,63.4185317 60.9978979,63.0023809 59.9794117,62.724042 C60.2387396,62.0777524 60.4273766,61.6076311 60.608714,61.1558394 C61.6068382,61.4290868 62.5500234,61.7983951 63.5323958,61.9209322 C64.3238261,62.020048 65.2051567,61.9412984 65.972383,61.7305076 C67.74657,61.2427355 68.2936557,59.3418838 66.9766543,58.1860982 C66.3634879,57.6480893 65.5105873,57.3117064 64.7375981,56.9298389 C63.8213063,56.4777078 62.8139615,56.1521869 61.9533771,55.633526 C60.6286919,54.8348289 60.0919792,53.6617319 60.3405498,52.2408453 C60.6094824,50.7052287 61.6978911,49.7385099 63.2895881,49.3067451 C64.1540143,49.072533 64.3941327,48.731398 64.2946277,48.0131476 C64.2373835,47.5990335 64.2842546,47.173718 64.2842546,46.6832304 L65.9251277,46.6832304 L65.9251277,48.7653418 C67.1514605,49.0657442 68.2671467,49.3389916 69.4788802,49.6359997 C69.2045689,50.2581892 68.999796,50.7218612 68.809238,51.1532866 C67.7957462,50.946569 66.8525611,50.7062471 65.8905507,50.5769213 C65.3695898,50.5066576 64.800221,50.5650409 64.281181,50.6726427 C63.4079184,50.8542419 62.8181876,51.3644169 62.62033,52.1525915 C62.4193989,52.9519675 62.7313608,53.655622 63.4866773,54.0741488 C64.4824963,54.6260746 65.55669,55.0707381 66.6139794,55.5316947 C67.9928354,56.132839 69.2487507,56.847695 69.7662539,58.2156293 C70.595719,60.4067002 69.2460614,62.6177979 66.6523984,63.3655794 M64.8555443,44.0919623 C56.2124341,44.1883626 50.5471763,50.5117492 50.6685802,56.8005131 C50.820335,64.2864741 57.6688963,69.5328246 65.2143772,69.3658212 C73.2070547,69.1886346 79.5200559,63.400202 79.3291137,56.6576098 C79.1281826,49.5569107 72.8197917,44.0030296 64.8555443,44.0919623" id="Fill-6" fill="#1A5692"></path>
                </g>
                <path d="M161.15942,79.5529266 L161.15942,85.2 L141.681159,74.8470734 L141.681159,69.2 L161.15942,79.5529266 Z M162.782609,84.4 L162.782609,78.8 L166.028986,78.8 L166.028986,84.4 L162.782609,84.4 Z M166.84058,84.4 L166.84058,78.7216708 L186.944511,67.6 L187.130435,73.2658696 L166.84058,84.4 Z M166.530306,86.8 L171.710145,89.6491276 L171.125272,92.4 L166.028986,89.5508724 L166.530306,86.8 Z M166.84058,86.5736535 L187.668472,74.8 L192,77.1548829 L172.554593,89.2 L166.84058,86.5736535 Z M165.217391,110.310551 L165.217391,91.6 L170.898551,93.971701 L170.898551,114 L165.217391,110.310551 Z M161.469694,86.8 L161.971014,89.5508724 L156.874728,92.4 L156.289855,89.6491276 L161.469694,86.8 Z M136,77.1548829 L140.331573,74.8 L161.15942,86.5736535 L155.445607,89.2 L136,77.1548829 Z M157.101449,93.971701 L162.782609,91.6 L162.782609,110.310551 L157.101449,114 L157.101449,93.971701 Z M162.11339,58 L166.037724,58 L185.507246,67.3447351 L166.037724,78 L162.11339,78 L142.492754,67.5237856 L162.11339,58 Z M165.909129,62.0059412 L166.596512,67.7716349 L161.266472,62.0178236 L158.800957,62.0240124 L157.913043,71.5688087 L160.918682,71.5764827 L161.076955,64.7530067 L166.888727,71.5918308 L170.086957,71.6 L168.266312,62 L165.909129,62.0059412 Z M155.467477,90.652078 L156.198451,93.503946 L156.289855,114 L137.431737,100.58244 C136.532037,99.942118 136,98.9213469 136,97.8351706 L136,78.8 L155.467477,90.652078 Z M148.680809,104.044113 L151.42029,106 L151.379307,92.4851662 L148.289819,90.6301007 L145.039199,96.6711346 L141.866218,86.7731156 L139.246377,85.2 L139.365507,97.3926462 L141.678359,99.0443175 L141.613449,91.3828845 L144.161507,99.6675094 L145.979257,100.946667 L148.643645,95.911596 L148.680809,104.044113 Z M171.801548,93.503946 L172.532513,90.6523276 L192,78.8 L192,98.7318714 L192,99.7838473 C192,100.702017 191.52148,101.557278 190.729836,102.054308 L190.550359,102.167144 L171.710145,114 L171.801548,93.503946 Z M177.407871,91.2671979 L177.391304,93.7018091 L181.50386,91.243856 L181.733033,103.6 L184.573217,101.686692 L184.149009,89.662927 L187.942029,87.396329 L187.810499,85.2 L177.407871,91.2671979 Z" id="Combined-Shape-Copy-5" fill="#1A5692"></path>
                <g id="Page-1" transform="translate(307.000000, 0.000000)">
                    <g id="Group-3" transform="translate(0.000000, 53.000000)" fill="#1A5692">
                        <path d="M119.205399,23.9903677 C116.708943,34.995531 114.241348,46.0069867 111.767487,57.017147 C110.482994,62.7326512 109.190525,68.4466749 107.933563,74.1679162 C107.74293,75.0362628 107.740842,75.9414381 107.298057,76.7533385 C106.247297,78.6806532 104.631095,79.7448033 102.375778,79.8456663 C102.186285,79.8541795 101.996032,79.8526989 101.806348,79.8526989 C73.9109051,79.8530691 46.015462,79.847702 18.1202089,79.8641732 C16.0942595,79.8652837 14.4444494,79.2153192 13.2028671,77.6498156 C12.633057,76.9311903 12.3100823,76.1080008 12.1443228,75.2083775 C11.8458418,73.5886484 11.5298924,71.97077 11.1702722,70.3632556 C9.13748734,61.2765236 7.08913291,52.193308 5.04723418,43.1086119 C3.57989241,36.5808372 2.11027215,30.0534326 0.652613924,23.5238073 C0.398943038,22.387665 0.766917722,21.3481291 1.35685443,20.3950207 C2.50141139,18.5459904 4.24843671,17.6887481 6.42837342,17.6757932 C9.97255063,17.6548804 13.5169177,17.6700561 17.0610949,17.6700561 C29.9719177,17.6700561 42.8829304,17.6700561 55.7937532,17.6700561 L60.0161582,17.6700561 C77.7998924,17.6700561 95.5838165,17.6706113 113.367551,17.6695009 C115.610146,17.6693158 117.399703,18.5160092 118.576348,20.4048294 C119.258943,21.5006265 119.502551,22.6804451 119.205399,23.9903677 M119.645905,20.6345008 C118.82793,18.225635 116.702108,16.7837578 113.951411,16.7769102 C110.549639,16.7685821 107.147867,16.7687671 103.746095,16.7835727 C103.376032,16.7852383 103.186348,16.6717907 103.020209,16.3523606 C101.805399,14.015857 100.283373,11.8849657 98.4778671,9.94266029 C94.4964114,5.65977978 89.6508418,2.73549514 83.9328038,1.22680782 C82.2191962,0.774682808 80.4516646,0.516695796 78.7072975,0.16950524 C78.541538,0.798741855 78.4764114,1.33118707 78.2635633,1.79996835 C77.6884367,3.06547423 77.1106519,4.33634712 76.4259684,5.54725746 C74.2538165,9.38856193 71.6470443,12.9565186 69.0231835,16.5105951 C68.9183734,16.6525434 68.6643228,16.7615494 68.4786266,16.7635852 C66.6435,16.7819071 64.8079937,16.7754297 62.9726772,16.7726536 C62.8528671,16.7724685 62.7332468,16.7456334 62.596538,16.7289772 C62.4953354,15.3479879 62.3863481,13.9971649 62.3111582,12.6446763 C62.3029937,12.4990266 62.4528038,12.2854563 62.5917911,12.2005093 C63.8983101,11.401934 64.9255253,10.3635085 65.5635,8.98492515 C65.8832468,8.2944305 66.0896392,7.57413964 66.0791962,6.71911812 C61.7421076,8.55982029 57.4353987,8.52761818 53.0817911,6.68654588 C53.1321076,7.49974167 53.2724241,8.14119287 53.5921709,8.78153367 C54.1061582,9.81144595 54.7701456,10.6981144 55.6264747,11.4804035 C56.0601456,11.8766375 56.8479304,11.952331 56.9514114,12.5967433 C57.0446392,13.1763813 56.9050823,13.792663 56.8602722,14.3924736 C56.8021709,15.1714315 56.7362848,15.9498342 56.6747658,16.7160223 C56.5828671,16.7408216 56.5378671,16.7634001 56.4928671,16.7634001 C54.5785633,16.7682119 52.6642595,16.7770953 50.7499557,16.7617345 C50.6022342,16.7606241 50.4013481,16.6205264 50.3172342,16.4889419 C48.5918544,13.7961793 46.8283101,11.1250699 45.1805886,8.3875205 C43.6475506,5.84096291 42.0898291,3.28663239 41.5156519,0.259634132 C41.0521709,0.320522028 40.6156519,0.379744297 40.1787532,0.434709966 C35.298057,1.04951115 30.8495127,2.7771358 26.8418544,5.52578939 C22.726538,8.34810068 19.4593861,11.928457 17.1879304,16.3320029 C17.0172342,16.6632775 16.8161582,16.7857935 16.4284367,16.7841279 C12.9476772,16.768397 9.46672785,16.7793161 5.98596835,16.7732088 C4.14457595,16.7698776 2.56482911,17.3617301 1.3728038,18.7528982 C0.397613924,19.8908912 -0.238272152,21.2048853 0.0848924051,22.7148681 C1.77913291,30.6282588 3.51590506,38.5329512 5.23843671,46.4404197 C6.99058861,54.4835442 8.75052532,62.5250031 10.4907152,70.5707186 C10.8941962,72.4365902 11.2025506,74.3222643 11.6141962,76.1866554 C11.7545127,76.8229246 11.9888165,77.4732592 12.3322975,78.0273575 C13.5028671,79.9158077 15.2795127,80.7667576 17.530462,80.7663875 C45.820462,80.7615757 74.1106519,80.7632413 102.400652,80.7630562 C102.574576,80.7630562 102.749449,80.7697188 102.922614,80.756949 C105.167487,80.5907565 106.827551,79.5569577 107.864259,77.5937395 C108.301728,76.7651829 108.310652,75.845387 108.500715,74.9607544 C110.099259,67.5154047 111.73293,60.0774577 113.355778,52.63729 C115.504196,42.787331 117.648247,32.9364468 119.808437,23.0888937 C119.994133,22.2418302 119.917614,21.4341865 119.645905,20.6345008" id="Fill-1"></path>
                    </g>
                    <g id="Group-6" transform="translate(37.000000, 0.000000)">
                        <mask id="mask-4" fill="white">
                            <use xlink:href="#path-3"></use>
                        </mask>
                        <g id="Clip-5"></g>
                        <path d="M3.15715279,29.3695852 C4.2738752,29.5990689 5.21815437,30.1662077 6.23322214,30.7891464 C6.14487502,29.9607199 6.05745203,29.2143743 5.98684827,28.4665051 C5.72531861,25.6970849 5.57024908,22.9219514 6.03693628,20.1639578 C6.20420437,19.1742262 6.49567594,18.1907792 6.86181746,17.2591327 C7.08434871,16.6931365 7.5190609,16.1953188 7.92863668,15.733114 C8.34763862,15.2604348 8.80878102,15.1678795 9.47914716,15.4634469 C14.3731711,17.6221168 19.4669926,18.8489498 24.8238224,18.6369868 C28.416667,18.494726 31.7666494,17.5049944 34.7658308,15.399458 C34.8421642,15.3459436 34.9190521,15.2930005 34.9983427,15.2444376 C35.022555,15.229583 35.055639,15.2299639 35.1432468,15.2103483 C35.5892334,16.0185878 36.0581385,16.8350164 36.4961776,17.6685848 C37.7136305,19.9855128 38.8150123,22.3563361 39.4875964,24.9111272 C39.8520745,26.2946946 40.121182,27.6931166 39.8147395,29.1821894 C40.7808282,28.0412462 41.7472866,26.9004934 42.7137449,25.7595502 L42.8115182,25.7848791 C42.7778798,26.326689 42.7538523,26.8696417 42.7085698,27.4106899 C42.4499974,30.510338 42.0683304,33.5884661 41.2408616,36.5928928 C40.0646251,40.862622 38.2954647,44.8289756 35.5522681,48.2807527 C33.1522945,51.3009861 30.2660421,53.6497181 26.5506575,54.7030576 C22.4061054,55.8782805 18.5260403,55.1018449 14.9270965,52.7702529 C11.4133577,50.4936988 8.95405474,47.2384588 7.04257789,43.5057786 C5.17213255,39.8528939 4.04173297,35.9514813 3.43365341,31.8811458 C3.32368157,31.1448937 3.247533,30.4033091 3.15826175,29.6638195 C3.14920525,29.5872614 3.15715279,29.5082276 3.15715279,29.3695852 M5.57191252,46.793013 C7.52756293,50.2630725 9.96265358,53.3073018 13.2022945,55.5888074 C17.1272725,58.3530856 21.418392,59.4795552 26.133319,58.4372614 C30.3290679,57.5096141 33.6790503,55.1161282 36.497841,51.8789803 C40.4566423,47.3327281 42.775477,41.9254836 44.1833014,36.0585101 C44.7825092,33.560471 45.0835918,31.0142498 45.3528842,28.4577448 C45.608869,26.0305504 45.705903,23.6105928 45.3567655,21.1980626 C44.4692281,15.0627551 41.8792528,9.83319384 37.3205043,5.73162575 C32.4468113,1.34705955 26.7395503,-0.503664258 20.3162709,0.206306761 C15.6181632,0.725644468 11.4974538,2.71367759 8.01476589,5.9988171 C2.68769319,11.0236522 0.175529836,17.3461651 0.0422698469,25.5565381 C0.219703397,27.2400531 0.414140996,29.7390444 0.758288153,32.2159444 C1.47541542,37.3784697 3.02167488,42.2677095 5.57191252,46.793013" id="Fill-4" fill="#1A5692" mask="url(#mask-4)"></path>
                    </g>
                    <g id="Group-9" transform="translate(9.000000, 136.000000)">
                        <mask id="mask-6" fill="white">
                            <use xlink:href="#path-5"></use>
                        </mask>
                        <g id="Clip-8"></g>
                        <path d="M98.8425832,0.1874002 C66.8475248,0.209763897 34.8520868,0.202941074 2.85664877,0.20464678 C2.63589763,0.20464678 2.41324838,0.212796263 2.1949648,0.242551351 C0.789977774,0.43491705 -0.160220149,1.80895776 0.152969338,3.18678892 C0.43104364,4.41015896 1.38427855,5.11651064 2.76971496,5.11670017 C18.7752163,5.11745826 34.7809074,5.11707921 50.7864087,5.11707921 C66.7287026,5.11726874 82.6709966,5.11726874 98.6132906,5.11670017 C98.8503655,5.11670017 99.0881997,5.11992206 99.3247052,5.10513927 C100.306981,5.0431653 101.177079,4.36922202 101.471856,3.43165245 C101.961761,1.87377457 100.854968,0.18607354 98.8425832,0.1874002" id="Fill-7" fill="#1A5692" mask="url(#mask-6)"></path>
                    </g>
                    <path d="M60.5415212,100.000477 C58.6279258,99.9707309 57.0111144,101.3348 57.0000581,102.988154 C56.9890019,104.616782 58.5566023,105.981409 60.4593582,105.999814 C62.3863946,106.01822 63.9904155,104.664935 63.9999542,103.012138 C64.0097097,101.379977 62.459886,100.030596 60.5415212,100.000477" id="Fill-10" fill="#1A5692"></path>
                </g>
                <g id="Page-1" transform="translate(274.000000, 214.000000)" fill="#1A5692">
                    <g id="Group-3" transform="translate(38.750000, 0.056408)">
                        <path d="M76.4006726,82.1942553 L43.5729172,82.1942553 C42.8618183,78.8930736 42.1484031,75.5955912 41.4419367,72.2971839 C41.1834395,71.0930549 41.0185201,69.8630306 40.664592,68.6884961 C40.3644017,67.6924539 40.6460618,66.9525896 41.1440627,66.1082196 C41.8417272,64.9244368 42.5009414,63.6777655 42.913703,62.3751421 C43.6109043,60.1712715 42.7135762,58.7137389 40.4950401,58.0779181 C40.1628851,57.9826606 39.8210017,57.8827789 39.4800448,57.866132 C37.7080881,57.7782731 35.8986077,57.8272891 34.7316642,59.3828536 C33.5790817,60.9180719 34.2396857,62.5466981 34.9327176,64.081454 C35.2329079,64.746407 35.5280024,65.4469659 35.9861632,65.9990896 C36.7825014,66.9595259 36.8209517,67.9255111 36.5527261,69.0963463 C35.5567243,73.4379621 34.6529106,77.8013114 33.7083303,82.1831574 L0.693419191,82.1831574 C0.693419191,80.005182 0.692955934,77.8951817 0.693419191,75.7861062 C0.693419191,74.4756217 0.692955934,73.1655996 0.695272218,71.8555774 C0.698978271,69.2239728 1.71628986,67.0954759 3.78797356,65.4409545 C10.3152596,60.2262989 17.2692051,55.6756714 24.7776687,51.9953092 C25.630061,51.5772859 25.931641,51.1051601 25.9200596,50.1585963 C25.8677116,45.7665772 25.8834624,41.3736333 25.9107945,36.9811518 C25.9154271,36.304176 25.7241021,35.8829158 25.1728267,35.4445462 C23.5004702,34.1155651 22.7217358,32.2793146 22.7078381,30.1827243 C22.6712408,24.7114282 22.5961932,19.2378201 22.734707,13.7692986 C22.9144505,6.64995495 28.9891349,0.741676594 36.1487663,0.592778916 C38.917188,0.534977022 41.7046032,0.319029148 44.4290155,1.12363151 C50.0251557,2.774916 54.1750087,7.86795645 54.3422444,13.7276812 C54.5016047,19.3099569 54.4219245,24.900556 54.3746723,30.4869934 C54.3575318,32.5165335 53.3527282,34.1442348 51.8953228,35.5337924 C51.5576087,35.8560957 51.2463002,36.4003584 51.2416677,36.8461266 C51.1944155,41.3537494 51.2273067,45.8622971 51.1990481,50.3703824 C51.1944155,51.1333674 51.5066505,51.5241082 52.1403856,51.9060631 C57.747644,55.2840058 63.3549023,58.6637981 68.9093495,62.1272876 C70.5057319,63.122405 71.944607,64.3737003 73.4335138,65.5366744 C75.4162523,67.0848404 76.3932605,69.1402757 76.3988196,71.6484155 C76.406695,75.144274 76.4006726,78.6396701 76.4006726,82.1942553" id="Fill-1"></path>
                    </g>
                    <path d="M0.0250968327,82.2366519 C0.0250968327,79.0917665 -0.0494874867,76.0176306 0.0589145675,72.9499685 C0.108483028,71.5678096 0.922424948,70.4302684 1.98096637,69.5072877 C6.714986,65.3802325 11.9720224,62.0115382 17.5653831,59.2130017 C19.4466683,58.2719869 20.2230864,57.2884298 20.056314,55.1543839 C19.8330243,52.2832483 20.0275921,49.3806684 19.9738543,46.4928858 C19.9650525,46.0295458 19.7065553,45.4640121 19.37579,45.1338477 C18.3214179,44.082778 17.5283225,42.8712503 17.5195207,41.3975333 C17.4889457,36.5481856 17.3064226,31.6789541 17.6793442,26.8550393 C18.0698695,21.804541 22.5375166,17.8208345 27.6046178,17.5179526 C29.5187942,17.4032736 31.5006061,17.3325241 33.3652141,17.6913583 C38.8418341,18.7452024 42.2597416,23.1381463 42.3394218,28.9853858 C42.3926963,32.8747597 42.3551725,36.7655207 42.3468339,40.6558194 C42.3431278,42.4781975 41.7353351,44.028213 40.3233289,45.2586997 C40.0319404,45.5125657 39.827181,46.0249216 39.8225484,46.4212114 C39.7845614,49.9258558 39.7757595,53.4309627 39.8285708,56.9351447 C39.8359829,57.4322409 40.2228022,57.9233258 40.4609161,58.4796113 C39.0553954,59.7817723 37.3515375,61.1736419 35.8756018,62.7740607 C33.8243014,64.9978152 32.7685395,67.7311511 32.6856166,70.7530341 C32.5929653,74.1402251 32.642997,77.5311154 32.6318788,80.9206184 C32.6304891,81.3349424 32.6318788,81.7492664 32.6318788,82.2366519 L0.0250968327,82.2366519 Z" id="Fill-6"></path>
                    <g id="Group-10" transform="translate(111.406250, 16.978738)">
                        <path d="M10.4521472,65.2570355 C10.4521472,62.0057946 10.4136969,58.8516608 10.4609491,55.6993768 C10.5378497,50.5369741 8.68945566,46.3243721 4.47706302,43.2187919 C3.7645743,42.6934883 3.10397033,42.0997473 2.42113004,41.5356008 C2.39333464,41.5129424 2.38036346,41.4722499 2.30392611,41.3469354 C3.40786669,41.0264817 3.28834648,40.1381822 3.28371391,39.2651424 C3.26749993,36.0689289 3.2624041,32.872253 3.28880973,29.6760395 C3.29436881,29.0207972 3.15863462,28.5551451 2.62496297,28.0899555 C1.34498486,26.9736853 0.72329445,25.5133783 0.726537247,23.795506 C0.73441261,19.5977013 0.703374415,15.3998966 0.738581919,11.2020919 C0.783054557,5.95044302 5.11172462,1.07889943 10.3608856,0.605848734 C12.6002682,0.403773314 14.953612,0.397761917 17.1374038,0.858327405 C22.0090106,1.88627628 25.3643785,6.06697164 25.506135,11.0430211 C25.6307511,15.4299536 25.55663,19.8224351 25.5459751,24.2121421 C25.5418058,25.8028502 24.8316334,27.073567 23.7008239,28.1805889 C23.3445795,28.5292499 23.0536544,29.1280775 23.045779,29.6182376 C22.9887984,32.9675105 23.0402199,36.3186331 22.9985268,39.6688308 C22.9883352,40.5058022 23.2394203,40.9649805 24.0186179,41.3547964 C30.036785,44.3600325 35.6963914,47.9284902 40.8918146,52.2146162 C42.1680867,53.2670731 43.1159098,54.5484255 43.1701108,56.2071086 C43.2673947,59.1961601 43.1979062,62.1902982 43.1979062,65.2570355 L10.4521472,65.2570355 Z" id="Fill-8"></path>
                    </g>
                </g>
                <g id="Page-1" transform="translate(0.000000, 219.000000)">
                    <mask id="mask-8" fill="white">
                        <use xlink:href="#path-7"></use>
                    </mask>
                    <g id="Clip-2"></g>
                    <path d="M69.5633759,79.1955032 C67.9146683,79.1955032 66.4160698,79.1010519 64.9355341,79.2216015 C63.3839925,79.3471223 62.1563376,80.4357971 62.1251946,81.8693433 C62.0342572,85.9872932 62.0934288,90.1083501 62.0934288,94.2648262 L69.5633759,94.2648262 L69.5633759,79.1955032 Z M126.523824,94.3288293 C126.584242,94.0193772 126.639676,93.8702437 126.639676,93.7204887 C126.645905,85.0732289 126.66895,76.4253476 126.635939,67.7787092 C126.628465,65.8443228 125.258175,64.3772216 123.232015,64.1920475 C121.326067,64.0180583 119.398318,64.0851684 117.479913,64.0534776 C116.780442,64.0422925 116.080349,64.0516134 115.287449,64.0516134 C115.287449,60.5910938 115.363438,57.3822371 115.252569,54.1802157 C115.203363,52.7646898 115.580816,52.1010456 117.014637,51.6791219 C120.00436,50.7986127 122.920585,49.6676833 125.867331,48.6399046 C121.084397,47.3312578 116.787294,44.5548884 111.480536,44.6567963 L111.480536,63.6352823 C110.644659,63.6352823 110.026783,63.6352823 109.40953,63.6359036 C98.9249455,63.6359036 88.4403613,63.6334181 77.955777,63.6371464 C74.5537216,63.6383892 73.4624727,64.7183646 73.4599813,68.0875399 C73.4549984,76.2687574 73.456867,84.4505963 73.4624727,92.6318139 C73.4624727,93.1792583 73.5129243,93.7267026 73.5421987,94.3288293 L126.523824,94.3288293 Z M0,98 C9.77888508,72.1383797 19.5135472,46.3935807 29.3403924,20.4039541 C38.6396761,27.4001813 47.796948,34.2889082 57.094986,41.2845141 C64.8421053,27.4884187 72.5300529,13.7973382 80.2771722,0 C81.4842728,0.752502996 82.5823731,1.42236115 83.6673933,2.11458934 C93.3609467,8.30425272 103.060729,14.4833525 112.729991,20.7109206 C113.707256,21.3403884 114.447213,21.4553455 115.538462,20.9240573 C124.66459,16.4836061 133.8256,12.1152361 142.977889,7.72822441 C143.535347,7.46102681 144.10464,7.21868481 144.925568,6.8489579 C150.624105,37.2684721 156.299595,67.5674366 162,98 L0,98 Z" id="Fill-1" fill="#1A5692" mask="url(#mask-8)"></path>
                </g>
                <path d="M89.5,98.3976652 L89.5,162.598765" id="Line-11" stroke="#979797" stroke-width="7" stroke-linecap="square"></path>
                <path id="Line-11-decoration-1" d="M89.5,162.598765 L92.5,151.798765 L86.5,151.798765 L89.5,162.598765 Z" stroke="#979797" stroke-width="7" stroke-linecap="square"></path>
                <polyline id="Line-11-Copy-4" stroke="#979797" stroke-width="7" stroke-linecap="square" points="631 163 631 95 509 95"></polyline>
                <path id="Line-11-Copy-4-decoration-1" d="M509,95 L519.8,98 L519.8,92 L509,95 Z" stroke="#979797" stroke-width="7" stroke-linecap="square"></path>
                <path d="M350.5,359.398596 L350.5,432.602245" id="Line-11-Copy-3" stroke="#979797" stroke-width="7" stroke-linecap="square"></path>
                <path id="Line-11-Copy-3-decoration-1" d="M350.5,432.602245 L353.5,421.802245 L347.5,421.802245 L350.5,432.602245 Z" stroke="#979797" stroke-width="7" stroke-linecap="square"></path>
                <path d="M179.402439,271.489621 L244.67683,271.489621" id="Line-11-Copy" stroke="#979797" stroke-width="7" stroke-linecap="square"></path>
                <path id="Line-11-Copy-decoration-1" d="M244.67683,271.489621 L233.87683,268.489621 L233.87683,274.489621 L244.67683,271.489621 Z" stroke="#979797" stroke-width="7" stroke-linecap="square"></path>
                <path d="M467.402439,271.489621 L532.67683,271.489621" id="Line-11-Copy-2" stroke="#979797" stroke-width="7" stroke-linecap="square"></path>
                <path id="Line-11-Copy-2-decoration-1" d="M532.67683,271.489621 L521.87683,268.489621 L521.87683,274.489621 L532.67683,271.489621 Z" stroke="#979797" stroke-width="7" stroke-linecap="square"></path>
                <path d="M119.605145,95.5 L89,95.5" id="Line-12" stroke="#979797" stroke-width="7" stroke-linecap="square"></path>
                <path d="M239.605145,95.5 L209,95.5" id="Line-12-Copy" stroke="#979797" stroke-width="7" stroke-linecap="square"></path>
                <path d="M486.73,244 L486.73,241.6 L478.12,241.6 L484.66,233.14 C485.77,231.67 486.34,230.17 486.34,228.58 C486.34,226.93 485.89,225.58 485.02,224.59 C483.94,223.36 482.41,222.76 480.46,222.76 C478.84,222.76 477.46,223.3 476.32,224.35 C475.21,225.4 474.58,226.72 474.49,228.28 L477.01,228.76 C477.22,226.6 478.51,225.16 480.46,225.16 C481.57,225.16 482.41,225.49 482.98,226.18 C483.49,226.81 483.76,227.59 483.76,228.58 C483.76,229.9 483.37,230.89 482.05,232.57 L474.04,242.83 L474.04,244 L486.73,244 Z M492.54,241.39 C491.28,239.47 490.65,236.83 490.65,233.5 C490.65,230.17 491.28,227.53 492.54,225.64 C493.8,223.72 495.63,222.76 498.03,222.76 C500.43,222.76 502.26,223.72 503.52,225.64 C504.78,227.53 505.41,230.17 505.41,233.5 C505.41,236.83 504.78,239.47 503.52,241.39 C502.26,243.28 500.43,244.24 498.03,244.24 C495.63,244.24 493.8,243.28 492.54,241.39 Z M494.49,227.35 C493.68,228.82 493.29,230.86 493.29,233.5 C493.29,236.14 493.68,238.18 494.49,239.65 C495.3,241.12 496.47,241.84 498.03,241.84 C499.59,241.84 500.76,241.12 501.57,239.65 C502.38,238.18 502.77,236.14 502.77,233.5 C502.77,230.86 502.38,228.82 501.57,227.35 C500.76,225.88 499.59,225.16 498.03,225.16 C496.47,225.16 495.3,225.88 494.49,227.35 Z M510.8,230.98 C509.87,230.05 509.42,228.91 509.42,227.56 C509.42,226.21 509.87,225.1 510.8,224.17 C511.73,223.24 512.87,222.76 514.22,222.76 C515.57,222.76 516.71,223.24 517.64,224.17 C518.57,225.1 519.02,226.21 519.02,227.56 C519.02,228.91 518.57,230.05 517.64,230.98 C516.71,231.91 515.57,232.36 514.22,232.36 C512.87,232.36 511.73,231.91 510.8,230.98 Z M512.96,244.87 L511.46,243.67 L527.6,222.13 L529.1,223.3 L512.96,244.87 Z M512.3,225.64 C511.85,226.15 511.61,226.78 511.61,227.56 C511.61,228.34 511.85,229 512.3,229.51 C512.78,230.02 513.41,230.26 514.22,230.26 C515.03,230.26 515.66,230.02 516.11,229.51 C516.59,229 516.83,228.34 516.83,227.56 C516.83,226.78 516.59,226.15 516.11,225.64 C515.66,225.13 515.03,224.86 514.22,224.86 C513.41,224.86 512.78,225.13 512.3,225.64 Z M522.98,242.86 C522.05,241.93 521.6,240.79 521.6,239.44 C521.6,238.09 522.05,236.98 522.98,236.05 C523.91,235.12 525.05,234.64 526.4,234.64 C527.75,234.64 528.89,235.12 529.82,236.05 C530.75,236.98 531.2,238.09 531.2,239.44 C531.2,240.79 530.75,241.93 529.82,242.86 C528.89,243.79 527.75,244.24 526.4,244.24 C525.05,244.24 523.91,243.79 522.98,242.86 Z M524.48,237.52 C524.03,238.03 523.79,238.66 523.79,239.44 C523.79,240.22 524.03,240.88 524.48,241.39 C524.96,241.9 525.59,242.14 526.4,242.14 C527.21,242.14 527.84,241.9 528.29,241.39 C528.77,240.88 529.01,240.22 529.01,239.44 C529.01,238.66 528.77,238.03 528.29,237.52 C527.84,237.01 527.21,236.74 526.4,236.74 C525.59,236.74 524.96,237.01 524.48,237.52 Z" id="20%" fill="#1A5692"></path>
                <path d="M363.268,399.412 C363.736,403.876 366.724,406.288 370.9,406.288 C373.312,406.288 375.22,405.496 376.66,403.948 C378.1,402.364 378.82,400.312 378.82,397.792 C378.82,395.272 378.136,393.22 376.768,391.672 C375.4,390.088 373.528,389.296 371.116,389.296 C369.424,389.296 368.056,389.872 366.976,390.988 L367.912,383.68 L377.308,383.68 L377.308,380.8 L365.284,380.8 L363.916,394.552 L365.824,394.984 C367.228,393.112 368.92,392.176 370.9,392.176 C373.924,392.176 375.724,394.372 375.724,397.792 C375.724,401.212 373.924,403.408 370.9,403.408 C368.344,403.408 366.652,401.824 366.328,398.836 L363.268,399.412 Z M386.404,390.376 C385.288,389.26 384.748,387.892 384.748,386.272 C384.748,384.652 385.288,383.32 386.404,382.204 C387.52,381.088 388.888,380.512 390.508,380.512 C392.128,380.512 393.496,381.088 394.612,382.204 C395.728,383.32 396.268,384.652 396.268,386.272 C396.268,387.892 395.728,389.26 394.612,390.376 C393.496,391.492 392.128,392.032 390.508,392.032 C388.888,392.032 387.52,391.492 386.404,390.376 Z M388.996,407.044 L387.196,405.604 L406.564,379.756 L408.364,381.16 L388.996,407.044 Z M388.204,383.968 C387.664,384.58 387.376,385.336 387.376,386.272 C387.376,387.208 387.664,388 388.204,388.612 C388.78,389.224 389.536,389.512 390.508,389.512 C391.48,389.512 392.236,389.224 392.776,388.612 C393.352,388 393.64,387.208 393.64,386.272 C393.64,385.336 393.352,384.58 392.776,383.968 C392.236,383.356 391.48,383.032 390.508,383.032 C389.536,383.032 388.78,383.356 388.204,383.968 Z M401.02,404.632 C399.904,403.516 399.364,402.148 399.364,400.528 C399.364,398.908 399.904,397.576 401.02,396.46 C402.136,395.344 403.504,394.768 405.124,394.768 C406.744,394.768 408.112,395.344 409.228,396.46 C410.344,397.576 410.884,398.908 410.884,400.528 C410.884,402.148 410.344,403.516 409.228,404.632 C408.112,405.748 406.744,406.288 405.124,406.288 C403.504,406.288 402.136,405.748 401.02,404.632 Z M402.82,398.224 C402.28,398.836 401.992,399.592 401.992,400.528 C401.992,401.464 402.28,402.256 402.82,402.868 C403.396,403.48 404.152,403.768 405.124,403.768 C406.096,403.768 406.852,403.48 407.392,402.868 C407.968,402.256 408.256,401.464 408.256,400.528 C408.256,399.592 407.968,398.836 407.392,398.224 C406.852,397.612 406.096,397.288 405.124,397.288 C404.152,397.288 403.396,397.612 402.82,398.224 Z" id="5%" fill="#1A5692"></path>
            </g>
        </g>
    </g>
</svg>