<?xml version="1.0" encoding="UTF-8"?>
<svg width="721px" height="600px" viewBox="0 0 721 600" version="1.1" xmlns="http://www.w3.org/2000/svg" xmlns:xlink="http://www.w3.org/1999/xlink">
    <!-- Generator: Sketch 47.1 (45422) - http://www.bohemiancoding.com/sketch -->
    <title>Group 11</title>
    <desc>Created with Sketch.</desc>
    <defs>
        <polygon id="path-1" points="0 0.161628057 0 14.0399564 129.980387 14.0399564 129.980387 0.161628057 0 0.161628057"></polygon>
        <polygon id="path-3" points="0.0341681262 0.047171234 36.8465035 0.047171234 36.8465035 47.3033312 0.0341681262 47.3033312"></polygon>
        <polygon id="path-5" points="82.1163366 4.11516412 0.0752566237 4.11516412 0.0752566237 0.150705826 82.1163366 0.150705826"></polygon>
        <polygon id="path-7" points="162 0 162 98 0 98 0 0"></polygon>
    </defs>
    <g id="Page-1" stroke="none" stroke-width="1" fill="none" fill-rule="evenodd">
        <g id="mountaintoken" transform="translate(-359.000000, -5393.000000)">
            <g id="Group-11" transform="translate(359.000000, 5393.000000)">
                <text id="mountain-group" font-family="BebasNeueRegular, Bebas Neue" font-size="48" font-weight="normal" letter-spacing="1.5" fill="#1A5692">
                    <tspan x="220" y="352">mountain group</tspan>
                </text>
                <text id="$,-€,-₽" font-family="ApercuPro-Regular, Apercu Pro" font-size="30" font-weight="normal" letter-spacing="1.5" fill="#1A5692">
                    <tspan x="44" y="215">$, €, </tspan>
                    <tspan x="122.69" y="215" font-family=".HelveticaNeueDeskInterface-Regular, .Helvetica Neue DeskInterface">₽</tspan>
                </text>
                <text id="smartcontrakt" font-family="BebasNeueRegular, Bebas Neue" font-size="30" font-weight="normal" letter-spacing="0.9375" fill="#1A5692">
                    <tspan x="554" y="344">smartcontrakt</tspan>
                </text>
                <path d="M340.577465,527.521673 L340.577465,539.482759 L301.239437,517.554189 L301.239437,505.593103 L340.577465,527.521673 Z M344.591549,538.675862 L344.591549,527.37931 L351.014085,527.37931 L351.014085,538.675862 L344.591549,538.675862 Z M353.422535,537.868966 L353.422535,526.141677 L393.991016,503.172414 L394.366197,514.87397 L353.422535,537.868966 Z M352.076724,543.517241 L363.056338,549.26462 L361.816592,554.813793 L351.014085,549.066415 L352.076724,543.517241 Z M353.422535,542.106583 L395.292418,517.696552 L404,522.578874 L364.909298,547.551724 L353.422535,542.106583 Z M349.408451,592.158784 L349.408451,552.393103 L360.647887,557.433698 L360.647887,600 L349.408451,592.158784 Z M342.726093,543.517241 L343.788732,549.066415 L332.986225,554.813793 L331.746479,549.26462 L342.726093,543.517241 Z M290,522.578874 L298.707671,517.696552 L340.577465,542.106583 L329.091103,547.551724 L290,522.578874 Z M334.15493,557.433698 L345.394366,552.393103 L345.394366,592.158784 L334.15493,600 L334.15493,557.433698 Z M342.760545,483 L350.74406,483 L390.352113,502.60461 L350.74406,524.958621 L342.760545,524.958621 L302.84507,502.980245 L342.760545,483 Z M351.831578,491.08145 L353.282137,503.196862 L342.034357,491.106418 L336.831476,491.119423 L334.957746,511.175837 L341.300431,511.191963 L341.634427,496.85384 L353.898787,511.224214 L360.647887,511.241379 L356.805851,491.068966 L351.831578,491.08145 Z M330.054431,550.760769 L331.558415,556.775171 L331.746479,600 L292.945806,571.70325 C291.094668,570.352852 290,568.200113 290,565.909439 L290,525.765517 L330.054431,550.760769 Z M317.134473,579.033801 L322.915493,583.055172 L322.829009,555.268208 L316.30938,551.454129 L309.449723,563.874703 L302.753903,543.524035 L297.225352,540.289655 L297.476748,565.358156 L302.357471,568.754049 L302.220493,553.001879 L307.597562,570.035353 L311.433491,572.665344 L317.056046,562.313066 L317.134473,579.033801 Z M362.441583,556.775171 L363.945547,550.761296 L404,525.765517 L404,567.800522 L404,570.01907 C404,571.955429 403.015443,573.759118 401.386631,574.807321 L401.017356,575.045286 L362.253521,600 L362.441583,556.775171 Z M374.32981,553.060788 L374.295775,558.185517 L382.744862,553.011655 L383.215689,579.02069 L389.050737,574.993276 L388.179218,549.683882 L395.971831,544.912813 L395.701609,540.289655 L374.32981,553.060788 Z" id="Combined-Shape-Copy-2" fill="#1A5692"></path>
                <g id="Page-1" transform="translate(569.000000, 213.000000)">
                    <path d="M95.5089259,60.9046975 C92.9060651,61.1104341 90.3100091,61.3748572 87.7071483,61.5789265 C87.0013325,61.634612 86.6297113,61.8353469 86.3726386,62.4748974 C85.8085909,63.8803746 85.0891655,65.2368352 84.3723864,66.7413461 C86.2769925,68.8097151 88.2957691,71.0021262 90.2597287,73.1348504 C88.0402086,75.0945158 85.8513104,77.0275055 83.6147781,79.0021761 C81.3650141,77.370622 78.9927626,75.6760466 76.6605841,73.9397904 C76.1502193,73.5596613 75.7687688,73.5269836 75.1608675,73.7640641 C73.9571625,74.2342237 72.7092259,74.6260234 71.4544844,74.9794768 C70.8874123,75.1388642 70.6749493,75.3579386 70.6205104,75.89212 C70.3392427,78.6527241 69.9986214,81.4083264 69.6750122,84.2022751 L60.2771157,84.2022751 C60.0835551,82.571388 59.8850799,80.927163 59.6945436,79.2822712 C59.5565561,78.094868 59.4609099,76.9021296 59.2730201,75.7207285 C59.2340811,75.4756453 58.918789,75.16554 58.6458383,75.0658394 C57.2546215,74.5566665 55.8463925,74.0771704 54.4166148,73.661696 C54.12703,73.5776674 53.6401041,73.730386 53.3750924,73.9177829 C51.1642674,75.4823142 48.9851984,77.0811904 46.7944099,78.6677292 C46.6012274,78.8071098 46.3967034,78.9348199 46.22885,79.0468579 C44.0346591,77.09953 41.8639072,75.1738761 39.6338018,73.1945373 C41.610615,71.0484753 43.6312819,68.85373 45.5563026,66.7633536 C44.8119259,65.1461378 44.1291712,63.6019467 43.3738311,62.0860987 C43.2607948,61.8603554 42.8184786,61.6619547 42.5054548,61.6302772 C39.8783989,61.3641869 37.2479405,61.117103 34.6129456,60.9180354 C33.9381298,60.8673515 33.6939108,60.7036293 33.70374,60.0787504 C33.7419229,57.6102455 33.719618,55.1410738 33.719618,52.578537 C35.6457729,52.4054782 37.5140863,52.2377546 39.3820218,52.0693641 C40.4787392,51.9703304 41.578859,51.8969722 42.6676374,51.7525898 C42.9356735,51.7169111 43.2849899,51.4951691 43.3912214,51.2804295 C44.1257687,49.7852551 44.8066333,48.2694071 45.5623513,46.6351855 C43.6611477,44.582155 41.6325418,42.3917446 39.6145213,40.2120044 C41.8521877,38.2820158 44.0524274,36.3847048 46.3494474,34.4030319 C47.6419937,35.3370157 49.0933201,36.3853717 50.5442686,37.4340612 C51.5426935,38.155973 52.5214599,38.9015595 53.553153,39.5847915 C53.7830062,39.7371765 54.2355298,39.7745226 54.5201999,39.6911609 C55.88949,39.2900247 57.227024,38.80486 58.5955579,38.40239 C59.0866424,38.2580076 59.2745322,38.0706106 59.3229224,37.6011179 C59.6098609,34.8135047 59.9459456,32.0295593 60.2737133,29.1719223 L69.6644269,29.1719223 C69.8598777,30.808478 70.0575969,32.4283614 70.2454867,34.0485782 C70.3861206,35.263991 70.4840351,36.4844054 70.672303,37.693816 C70.7104858,37.940233 71.0178389,38.2586745 71.2877652,38.3550406 C72.6831406,38.8528763 74.0977964,39.313366 75.5283302,39.7268397 C75.7990126,39.8051996 76.2477557,39.6961626 76.4836577,39.5294393 C78.523983,38.0889502 80.5344425,36.614783 82.5547313,35.1519529 C82.9418525,34.8715244 83.3331323,34.5954306 83.6726194,34.3526815 C85.9042371,36.2960081 88.0938914,38.2033224 90.3636919,40.1799936 C88.3517202,42.351731 86.328407,44.5361394 84.3882644,46.6305172 C85.1375556,48.2664061 85.8320299,49.8312708 86.5892602,51.3724608 C86.6879307,51.5728621 87.1003811,51.7395854 87.3869416,51.7679284 C90.1398875,52.0403542 92.89737,52.2797688 95.6533403,52.5301872 C95.8056936,52.5438585 95.9572909,52.5698674 96.2279733,52.606213 L96.2279733,53.8396318 C96.2279733,55.9513489 96.2154977,58.0633994 96.2370465,60.1751165 C96.241583,60.6546126 96.0896077,60.8586819 95.5089259,60.9046975 M129.99825,17.3352364 L129.99825,16.4606061 L0,16.4606061 L0,96.9999541 L1.03169314,96.9999541 C39.0493395,96.9999541 77.0673639,97.0009544 115.08501,96.9936186 C116.027106,96.9936186 116.986592,96.984949 117.908651,96.8388994 C125.202332,95.6801726 129.992579,90.6314582 129.994847,84.0945719 C130.00392,61.8413489 129.99825,39.5881259 129.99825,17.3352364" id="Fill-1" fill="#1A5692"></path>
                    <g id="Group-5">
                        <mask id="mask-2" fill="white">
                            <use xlink:href="#path-1"></use>
                        </mask>
                        <g id="Clip-4"></g>
                        <path d="M17.666811,5.06019186 C18.950561,5.09915983 19.9758227,6.06596848 19.9395436,7.20410182 C19.9025087,8.35970355 18.8557064,9.23312346 17.5311424,9.21397541 C16.2065785,9.19516329 15.2187297,8.30393905 15.2153285,7.12482216 C15.2115494,5.96250182 16.3312878,5.01954424 17.666811,5.06019186 L17.666811,5.06019186 Z M24.7102413,5.05750442 C26.0162878,5.06187152 27.0415494,5.97123602 27.0502413,7.13322043 C27.059311,8.31032173 26.0725959,9.19717887 24.7332936,9.215991 C23.3826541,9.23513905 22.3245145,8.3099858 22.3264041,7.111049 C22.3279157,6.00079792 23.427625,5.05313732 24.7102413,5.05750442 L24.7102413,5.05750442 Z M31.8606192,5.05616069 C33.1379448,5.06993385 34.2040203,6.02767238 34.1979738,7.15572779 C34.1919273,8.30024381 33.1473924,9.21263169 31.836811,9.21901437 C30.5009099,9.22506113 29.5021017,8.36071134 29.4741366,7.17386805 C29.4465494,5.9863529 30.5111134,5.04137974 31.8606192,5.05616069 L31.8606192,5.05616069 Z M44.2117529,6.71297108 C44.3546017,5.77404468 45.2770727,4.93354597 46.4017238,4.77061957 C46.864282,4.70343342 47.3423343,4.705449 47.8135843,4.705449 C58.3621017,4.70242563 68.9102413,4.70309749 79.4587587,4.70309749 C90.0068983,4.70309749 100.555416,4.70276156 111.103555,4.70477714 C111.543439,4.70477714 111.988613,4.69906632 112.422828,4.75046372 C113.818439,4.91607758 114.812334,5.94906459 114.793439,7.18025074 C114.774922,8.36440658 113.78027,9.35775377 112.419049,9.5253832 C112.046433,9.57140571 111.665125,9.57006199 111.287974,9.57006199 C90.0968401,9.57207758 68.9057064,9.57409316 47.7149506,9.56166372 C47.0668401,9.56132779 46.3775378,9.50858667 45.7804448,9.30870788 C44.6183808,8.92037195 44.0371599,7.85916675 44.2117529,6.71297108 L44.2117529,6.71297108 Z M129.980387,14.0399564 L129.980387,0.16601697 L128.581375,0.16601697 L46.677218,0.16601697 C36.0965785,0.16601697 25.5163169,0.175758961 14.9352994,0.16164987 C9.80143314,0.154595325 5.61875872,1.85843602 2.59890407,5.58558753 C0.561985465,8.10036502 -0.234264535,10.9456984 0.0586133721,14.0399564 L129.980387,14.0399564 Z" id="Fill-3" fill="#1A5692" mask="url(#mask-2)"></path>
                    </g>
                    <path d="M66.6523984,63.3655794 C66.3807764,63.4436501 66.10416,63.5084827 65.7760622,63.5933421 L65.7760622,65.8689331 C64.2189424,66.2093892 64.0510516,66.130979 64.1132903,64.8614817 C64.1543985,64.019676 64.0402943,63.531225 62.8592959,63.4687685 C61.9161108,63.4185317 60.9978979,63.0023809 59.9794117,62.724042 C60.2387396,62.0777524 60.4273766,61.6076311 60.608714,61.1558394 C61.6068382,61.4290868 62.5500234,61.7983951 63.5323958,61.9209322 C64.3238261,62.020048 65.2051567,61.9412984 65.972383,61.7305076 C67.74657,61.2427355 68.2936557,59.3418838 66.9766543,58.1860982 C66.3634879,57.6480893 65.5105873,57.3117064 64.7375981,56.9298389 C63.8213063,56.4777078 62.8139615,56.1521869 61.9533771,55.633526 C60.6286919,54.8348289 60.0919792,53.6617319 60.3405498,52.2408453 C60.6094824,50.7052287 61.6978911,49.7385099 63.2895881,49.3067451 C64.1540143,49.072533 64.3941327,48.731398 64.2946277,48.0131476 C64.2373835,47.5990335 64.2842546,47.173718 64.2842546,46.6832304 L65.9251277,46.6832304 L65.9251277,48.7653418 C67.1514605,49.0657442 68.2671467,49.3389916 69.4788802,49.6359997 C69.2045689,50.2581892 68.999796,50.7218612 68.809238,51.1532866 C67.7957462,50.946569 66.8525611,50.7062471 65.8905507,50.5769213 C65.3695898,50.5066576 64.800221,50.5650409 64.281181,50.6726427 C63.4079184,50.8542419 62.8181876,51.3644169 62.62033,52.1525915 C62.4193989,52.9519675 62.7313608,53.655622 63.4866773,54.0741488 C64.4824963,54.6260746 65.55669,55.0707381 66.6139794,55.5316947 C67.9928354,56.132839 69.2487507,56.847695 69.7662539,58.2156293 C70.595719,60.4067002 69.2460614,62.6177979 66.6523984,63.3655794 M64.8555443,44.0919623 C56.2124341,44.1883626 50.5471763,50.5117492 50.6685802,56.8005131 C50.820335,64.2864741 57.6688963,69.5328246 65.2143772,69.3658212 C73.2070547,69.1886346 79.5200559,63.400202 79.3291137,56.6576098 C79.1281826,49.5569107 72.8197917,44.0030296 64.8555443,44.0919623" id="Fill-6" fill="#1A5692"></path>
                </g>
                <path d="M161.15942,88.5529266 L161.15942,94.2 L141.681159,83.8470734 L141.681159,78.2 L161.15942,88.5529266 Z M162.782609,93.4 L162.782609,87.8 L166.028986,87.8 L166.028986,93.4 L162.782609,93.4 Z M166.84058,93.4 L166.84058,87.7216708 L186.944511,76.6 L187.130435,82.2658696 L166.84058,93.4 Z M166.530306,95.8 L171.710145,98.6491276 L171.125272,101.4 L166.028986,98.5508724 L166.530306,95.8 Z M166.84058,95.5736535 L187.668472,83.8 L192,86.1548829 L172.554593,98.2 L166.84058,95.5736535 Z M165.217391,119.310551 L165.217391,100.6 L170.898551,102.971701 L170.898551,123 L165.217391,119.310551 Z M161.469694,95.8 L161.971014,98.5508724 L156.874728,101.4 L156.289855,98.6491276 L161.469694,95.8 Z M136,86.1548829 L140.331573,83.8 L161.15942,95.5736535 L155.445607,98.2 L136,86.1548829 Z M157.101449,102.971701 L162.782609,100.6 L162.782609,119.310551 L157.101449,123 L157.101449,102.971701 Z M162.11339,67 L166.037724,67 L185.507246,76.3447351 L166.037724,87 L162.11339,87 L142.492754,76.5237856 L162.11339,67 Z M165.909129,71.0059412 L166.596512,76.7716349 L161.266472,71.0178236 L158.800957,71.0240124 L157.913043,80.5688087 L160.918682,80.5764827 L161.076955,73.7530067 L166.888727,80.5918308 L170.086957,80.6 L168.266312,71 L165.909129,71.0059412 Z M155.467477,99.652078 L156.198451,102.503946 L156.289855,123 L137.431737,109.58244 C136.532037,108.942118 136,107.921347 136,106.835171 L136,87.8 L155.467477,99.652078 Z M148.680809,113.044113 L151.42029,115 L151.379307,101.485166 L148.289819,99.6301007 L145.039199,105.671135 L141.866218,95.7731156 L139.246377,94.2 L139.365507,106.392646 L141.678359,108.044317 L141.613449,100.382884 L144.161507,108.667509 L145.979257,109.946667 L148.643645,104.911596 L148.680809,113.044113 Z M171.801548,102.503946 L172.532513,99.6523276 L192,87.8 L192,107.731871 L192,108.783847 C192,109.702017 191.52148,110.557278 190.729836,111.054308 L190.550359,111.167144 L171.710145,123 L171.801548,102.503946 Z M177.407871,100.267198 L177.391304,102.701809 L181.50386,100.243856 L181.733033,112.6 L184.573217,110.686692 L184.149009,98.662927 L187.942029,96.396329 L187.810499,94.2 L177.407871,100.267198 Z" id="Combined-Shape-Copy-5" fill="#1A5692"></path>
                <g id="Page-1" transform="translate(264.000000, 20.000000)">
                    <g id="Group-3" transform="translate(0.000000, 43.209223)" fill="#1A5692">
                        <path d="M96.3576973,19.5311377 C94.339729,28.4907069 92.3450897,37.4553989 90.3453856,46.4190362 C89.3070866,51.0721662 88.2623413,55.7240908 87.246297,60.3818916 C87.0922021,61.0888335 87.0905138,61.8257586 86.732596,62.4867462 C85.8832321,64.0558197 84.5768017,64.92217 82.7537543,65.004285 C82.6005802,65.0112158 82.4467922,65.0100104 82.2934647,65.0100104 C59.7446483,65.0103118 37.1958318,65.0059424 14.6471688,65.0193519 C13.0095264,65.020256 11.6759299,64.4911042 10.6723176,63.2165899 C10.211721,62.6315397 9.95064984,61.9613613 9.81666092,61.2289562 C9.57538877,59.9102957 9.31999636,58.5931418 9.02930332,57.2844254 C7.3861356,49.8866976 5.73038244,42.4918324 4.07984763,35.0957619 C2.89374636,29.7813429 1.70580332,24.4672252 0.527529589,19.1512995 C0.322478956,18.2263387 0.619925158,17.3800274 1.09679066,16.6040789 C2.02197421,15.0987387 3.43415301,14.400837 5.19626851,14.3902901 C8.06114509,14.3732644 10.9261752,14.3856193 13.7910517,14.3856193 C24.2273002,14.3856193 34.6637021,14.3856193 45.0999505,14.3856193 L48.5130612,14.3856193 C62.8882464,14.3856193 77.263585,14.3860713 91.6387701,14.3851673 C93.4515343,14.3850166 94.8980929,15.0743302 95.8492147,16.6120644 C96.400979,17.5041792 96.5978951,18.4646981 96.3576973,19.5311377 M96.7137733,16.7990454 C96.0525771,14.8379295 94.3342036,13.6640625 92.1107242,13.6584877 C89.3609584,13.6517076 86.6111926,13.6518583 83.8614267,13.6639118 C83.5622922,13.6652679 83.4089647,13.5729074 83.2746688,13.3128516 C82.2926973,11.4106476 81.0623935,9.67583754 79.6029426,8.09455983 C76.3845992,4.60776339 72.4677638,2.22703265 67.8456831,0.998773873 C66.4605169,0.630687981 65.0317622,0.420654524 63.6217321,0.137998309 C63.4877432,0.650275032 63.4350992,1.08375154 63.263047,1.4653977 C62.798153,2.49567659 62.3311103,3.5303249 61.7776578,4.51615625 C60.021835,7.64345498 57.9146941,10.5482147 55.79374,13.4416741 C55.7090185,13.5572377 55.5036609,13.6459821 55.3535565,13.6476395 C53.8701625,13.6625558 52.3864616,13.6572824 50.9029141,13.6550223 C50.8060676,13.6548716 50.7093745,13.6330246 50.5988682,13.6194643 C50.5170628,12.4951676 50.4289647,11.39543 50.3681862,10.2943363 C50.3615866,10.1757594 50.4826831,10.0018866 50.5950312,9.93272925 C51.651134,9.28258982 52.4814663,8.43718256 52.9971625,7.31484453 C53.2556245,6.75269616 53.4224584,6.16628998 53.4140169,5.47019631 C49.9082036,6.9687564 46.4269473,6.94253988 42.9077812,5.44367846 C42.9484536,6.10572079 43.0618761,6.62794171 43.3203381,7.14925861 C43.7358112,7.98773507 44.2725343,8.70959324 44.9647337,9.34647374 C45.3152843,9.66905741 45.9520771,9.73068128 46.0357242,10.2553129 C46.1110834,10.7272102 45.9982748,11.22894 45.9620533,11.7172603 C45.9150881,12.3514287 45.8618302,12.9851452 45.8121024,13.6089174 C45.7378176,13.6291071 45.7014426,13.6474888 45.6650676,13.6474888 C44.117672,13.6514062 42.5702764,13.6586384 41.0228809,13.6461328 C40.9034726,13.6452288 40.7410897,13.5311719 40.6730976,13.4240458 C39.2784157,11.2318028 37.852884,9.05718806 36.5209758,6.82848298 C35.2817701,4.75526895 34.0226119,2.67572679 33.5584853,0.211374416 C33.1838381,0.260944722 32.8309853,0.309159002 32.4778255,0.353907881 C28.532596,0.854432373 24.9366894,2.26093332 21.6971657,4.49867858 C18.3706182,6.79639035 15.7296704,9.7112449 13.8935771,13.2962779 C13.7555976,13.5659766 13.5930612,13.6657199 13.279653,13.6643638 C10.4660391,13.6515569 7.65227168,13.6604464 4.83865775,13.6554743 C3.35019889,13.6527623 2.07323687,14.1346037 1.10968307,15.2671873 C0.321404589,16.1936548 -0.192603323,17.2634092 0.0686213608,18.4927226 C1.43813244,24.9352051 2.84202326,31.3706061 4.23440301,37.8082671 C5.65072579,44.356369 7.0733413,50.9031148 8.47999478,57.4533261 C8.80614193,58.9723772 9.05539509,60.50755 9.38814193,62.0253958 C9.5015644,62.543398 9.69095997,63.0728511 9.96860712,63.5239559 C10.9148176,65.0613888 12.3509394,65.7541677 14.1704568,65.7538664 C37.0382068,65.749949 59.9061103,65.751305 82.7738603,65.7511543 C82.9144489,65.7511543 83.0558049,65.7565784 83.1957796,65.7461822 C85.0103856,65.6108809 86.3522701,64.7692404 87.1902764,63.170937 C87.5438967,62.4963891 87.5511103,61.7475611 87.7047448,61.0273603 C88.9969014,54.9659213 90.3174521,48.9105091 91.6292543,42.8532888 C93.3658919,34.8341994 95.0989995,26.8143566 96.845153,18.7972259 C96.9952574,18.1076111 96.9334046,17.4500888 96.7137733,16.7990454" id="Fill-1"></path>
                    </g>
                    <g id="Group-6" transform="translate(29.521739, 0.000000)">
                        <mask id="mask-4" fill="white">
                            <use xlink:href="#path-3"></use>
                        </mask>
                        <g id="Clip-5"></g>
                        <path d="M2.55203184,23.6188972 C3.45471579,23.803447 4.21800812,24.2595377 5.03852123,24.7605023 C4.96710731,24.0942852 4.89644039,23.4940772 4.83936902,22.892644 C4.62796587,20.6654879 4.502618,18.4337372 4.87985683,16.2157702 C5.0150652,15.4198322 5.25067138,14.6289483 5.54663578,13.8797221 C5.7265152,13.4245503 6.07790756,13.0242074 6.40898132,12.6525042 C6.74767455,12.2723776 7.12043133,12.1979451 7.66231062,12.4356391 C11.6183133,14.1716324 15.735819,15.1582463 20.0659231,14.9877866 C22.9701391,14.8733811 25.6780416,14.0774431 28.1023799,12.3841795 C28.1640828,12.3411435 28.2262338,12.2985668 28.290327,12.2595127 C28.3098986,12.2475668 28.3366415,12.2478731 28.4074578,12.2320983 C28.7679637,12.8820811 29.1469953,13.5386496 29.5010769,14.2090018 C30.4851847,16.0722655 31.3754683,17.9788717 31.9191404,20.033424 C32.2137602,21.1460831 32.4312888,22.2706882 32.1835811,23.4681943 C32.9645028,22.5506525 33.7457233,21.6332639 34.5269438,20.7157222 L34.6059772,20.7360916 C34.5787862,21.1718129 34.559364,21.6084531 34.5227606,22.0435618 C34.3137479,24.5362858 34.0052337,27.0117035 33.3363632,29.4278509 C32.3855719,32.8615492 30.9555006,36.0512741 28.7380834,38.8271787 C26.7981047,41.2560378 24.4650507,43.1448782 21.4617814,43.9919694 C18.1116019,44.9370787 14.9752159,44.3126725 12.0660696,42.437616 C9.22579746,40.6068207 7.23786092,37.9889704 5.69275046,34.9871646 C4.18080714,32.0495301 3.26706748,28.9120304 2.7755365,25.6386837 C2.6866426,25.0465928 2.62508918,24.4502136 2.55292825,23.8555191 C2.54560757,23.7939515 2.55203184,23.7303929 2.55203184,23.6188972 M4.50396262,37.6307447 C6.08478003,40.421352 8.05314498,42.8695084 10.6718547,44.7042856 C13.8445453,46.9273066 17.3132002,47.8332087 21.1244328,46.9950004 C24.5159966,46.2489904 27.223899,44.324159 29.5024215,41.7208582 C32.7024525,38.0647813 34.5768439,33.716298 35.7148353,28.9981026 C36.199195,26.98919 36.44257,24.9415296 36.660248,22.8855989 C36.8671691,20.9336594 36.9456049,18.9875397 36.6633855,17.047393 C35.9459594,12.1134044 33.852396,7.90781323 30.1674077,4.60934938 C26.2278391,1.08329964 21.6144698,-0.405044683 16.422319,0.165911032 C12.6246819,0.583560236 9.29377515,2.18232813 6.47860242,4.82422354 C2.17255199,8.86517486 0.141886618,13.9497132 0.0341681262,20.5524607 C0.177593579,21.9063364 0.334763972,23.9160147 0.612949591,25.9079273 C1.19262746,30.0596085 2.44252053,33.9915146 4.50396262,37.6307447" id="Fill-4" fill="#1A5692" mask="url(#mask-4)"></path>
                    </g>
                    <g id="Group-9" transform="translate(7.380435, 110.080640)">
                        <mask id="mask-6" fill="white">
                            <use xlink:href="#path-5"></use>
                        </mask>
                        <g id="Clip-8"></g>
                        <path d="M79.8977548,0.150706455 C54.0350826,0.168691246 28.1721035,0.163204361 2.30912442,0.164576082 C2.13068392,0.164576082 1.95070911,0.171129862 1.77426321,0.195058779 C0.638565367,0.349758467 -0.129511287,1.45475624 0.123650215,2.56280228 C0.348426943,3.54663133 1.1189585,4.11467639 2.23885292,4.11482881 C15.1766331,4.11543846 28.1145668,4.11513363 41.052347,4.11513363 C53.9390346,4.11528605 66.8257222,4.11528605 79.7124099,4.11482881 C79.9040455,4.11482881 80.0962948,4.11741983 80.2874701,4.10553158 C81.0814766,4.05569237 81.7848053,3.51371002 82.0230839,2.7597205 C82.4190899,1.50688165 81.5244325,0.14963956 79.8977548,0.150706455" id="Fill-7" fill="#1A5692" mask="url(#mask-6)"></path>
                    </g>
                    <path d="M49.0584438,81.2749006 C47.6173044,81.2493981 46.3996746,82.4188495 46.3913481,83.8363133 C46.3830216,85.232578 47.5635902,86.4025076 48.9965664,86.4182873 C50.4478282,86.434067 51.6558253,85.2738603 51.663009,83.8568747 C51.6703559,82.4575815 50.503175,81.300722 49.0584438,81.2749006" id="Fill-10" fill="#1A5692"></path>
                </g>
                <g id="Page-1-Copy-2" transform="translate(383.000000, 0.000000)" fill="#1A5692">
                    <g id="Group-3" transform="translate(0.000000, 68.990099)">
                        <path d="M83.4518623,19.9907547 C83.1916407,16.6266355 82.5965332,13.3219737 81.2780978,10.1839775 C80.3194361,7.90210654 78.6947833,6.29798852 76.1741615,5.67568808 C69.4153288,4.00718354 62.6590164,2.32820463 55.8998687,0.660624289 C54.9963387,0.437890022 54.0814674,0.258593559 53.0827958,0.039556127 C51.334963,7.05861218 49.1205585,13.7850022 46.5259027,20.3992549 C46.4109137,20.2350538 46.3623978,20.0887208 46.3425504,19.938999 C45.8495153,16.2252209 45.3829436,12.508054 44.8517889,8.79951306 C44.7314443,7.96002361 44.8814025,7.24098934 45.2711049,6.51918244 C45.5521191,5.99854494 45.8126559,5.46404432 46.0334977,4.91691284 C46.4975492,3.76688931 45.7260203,2.33313374 44.5222588,2.27583281 C42.7942735,2.19419438 41.057152,2.210214 39.3275915,2.27706509 C38.379011,2.31372536 37.8541571,2.85777614 37.7996555,3.80508993 C37.7687818,4.33620179 37.8793602,4.93508894 38.1203645,5.40920794 C38.7964368,6.73821987 39.3824082,8.04412659 38.9148913,9.58200966 C38.7750142,10.0422655 38.789506,10.5465753 38.723978,11.0296284 C38.3008815,14.1500646 37.8752647,17.2701927 37.450278,20.3903209 C34.7437835,13.7942443 32.5571024,7.05491534 30.8061193,0.105483005 C30.2831556,0.178803552 29.8395816,0.202524906 29.4168001,0.306344335 C22.2506229,2.07158271 15.0926366,3.86978453 7.91952847,5.60729665 C5.26816575,6.24931354 3.53324957,7.84881051 2.56986231,10.2563738 C2.01823016,11.634985 1.60458481,13.0764423 1.25048171,14.5178996 C0.250549997,18.5871899 0.245824422,22.7602997 0.00261481828,26.9069155 C-0.0332995533,27.5175093 0.318283242,27.8563858 0.850698048,28.0621762 C1.84968465,28.4478793 2.83701482,28.8671619 3.85364357,29.2023415 C10.2930274,31.3240164 16.9248996,32.5775513 23.6641999,33.3129132 C31.7109094,34.1909114 39.7872324,34.3008922 47.8717465,34.1249845 C54.571352,33.9789595 61.2318927,33.400405 67.8294258,32.2392909 C72.9708516,31.3341827 78.0246967,30.1009804 82.865891,28.1256386 C83.6106417,27.821882 83.9077228,27.383191 83.8525911,26.6000783 C83.6972772,24.3986134 83.6219831,22.1912953 83.4518623,19.9907547" id="Fill-1"></path>
                    </g>
                    <path d="M26.9773881,38.9579407 C28.880198,38.9420178 30.7891837,38.9866643 32.6836561,38.8433582 C37.5688316,38.4740094 42.3987324,37.794008 46.7984784,35.3924602 C47.6745367,34.9138366 48.48513,34.3018977 49.2864594,33.697452 C49.7129087,33.3755597 49.9726073,33.3006284 50.3555161,33.7780031 C51.6398047,35.3793472 53.3737023,36.344712 55.2354421,37.0749798 C55.7573098,37.279792 55.8795936,37.5454859 55.8363619,38.0590774 C55.6387316,40.4134809 55.5445484,42.7791242 55.2681747,45.1235368 C54.9164544,48.1098609 53.9669022,50.9419514 52.6736585,53.6425999 C51.7129897,55.6485729 50.7869062,57.6885773 49.2639172,59.3536129 C47.1931215,61.6184111 44.625162,62.7929591 41.5779488,62.950627 C36.359272,63.2200674 32.814895,60.6221372 30.4235676,56.1971324 C28.3120107,52.2894657 26.9199518,48.1167296 26.4647844,43.6626889 C26.3912906,42.9427241 26.4542852,42.2083975 26.4542852,41.4809396 C26.4101272,41.4809396 26.3656604,41.4812518 26.3211935,41.4812518 C26.3211935,40.8842992 26.3730715,40.2807901 26.3063713,39.6916429 C26.241215,39.1159208 26.4499621,38.9623117 26.9773881,38.9579407 M25.8833188,51.8227062 C26.4391542,51.6903276 26.600964,51.949465 26.7757434,52.3843787 C27.4609649,54.0893777 28.0445921,55.8524485 28.8977994,57.4694033 C32.2451637,63.8117124 37.5583325,65.7224602 44.0347413,64.5419802 C47.7471041,63.8654131 50.4370387,61.5572172 52.2654283,58.2792856 C53.3483809,56.3376286 54.2454375,54.2901311 55.2582931,52.3072619 C55.3861353,52.0571787 55.7579274,51.7056261 55.9348683,51.7483994 C56.8757741,51.9744421 57.3920835,51.4530452 57.862382,50.7933377 C59.5147571,48.4763998 60.1011634,45.865981 59.8911812,43.0551211 C59.8000859,41.8328044 59.1744623,41.1328213 58.0118399,40.9270725 C57.5291895,40.8415259 57.4313007,40.5930038 57.4594013,40.1755741 C57.6351071,37.585137 57.7502885,34.9890801 57.9930033,32.4048873 C58.3132262,29.0001969 56.3767575,24.9073874 53.3020613,23.4996159 C51.8173632,22.8202389 50.6007013,21.8617428 49.2935617,20.9775536 C48.9316511,20.732778 48.5539918,20.5064231 48.1649071,20.3097285 C45.3597911,18.890405 42.3629119,18.425831 39.2628944,18.5553997 C35.2442045,18.7233707 31.511461,19.787395 28.290086,22.3250679 C25.905861,24.2030333 24.2284733,26.5599346 24.0607963,29.6992433 C23.9490116,31.7926362 24.0645018,33.9013276 24.1432452,36.0006525 C24.2031519,37.6041821 24.3646529,39.2036529 24.4829224,40.8346572 C22.7008523,41.1946396 22.161692,41.8384243 22.1070348,43.5209439 C22.1027117,43.6508248 22.0863454,43.7803935 22.0832574,43.9099622 C22.0286003,46.5144489 22.7175274,48.887273 24.2689257,50.9812903 C24.6654217,51.5167368 25.1570272,51.9959848 25.8833188,51.8227062" id="Fill-4"></path>
                    <g id="Group-8" transform="translate(57.829227, 0.000000)">
                        <path d="M47.9618458,20.52606 C46.0544789,9.92362601 37.8957725,0.642440032 24.2685782,0.0923281777 C18.0572339,-0.158390581 12.5472005,1.83909403 7.76855183,5.76702125 C3.98792233,8.87452566 1.49085903,12.8180654 0.0612639321,17.4405968 C-0.00384449776,17.6518251 -0.0255473077,18.0265257 0.0947482675,18.1189763 C1.11571046,18.9026637 2.17480758,19.6382891 3.24041555,20.401466 C3.28599145,20.2416672 3.33993844,20.0732969 3.38148382,19.9024775 C3.94792716,17.5820279 4.84053272,15.3944379 6.13743064,13.3767488 C10.6385934,6.37346064 19.3776949,2.36655242 28.6113104,4.48373305 C38.7313307,6.80418261 44.5752774,16.3578224 44.410646,24.1827579 C44.2385738,32.3912717 40.4994896,38.6402607 33.1332459,42.5795147 C28.0082824,45.3202779 22.7961975,47.9021607 17.6213175,50.5516977 C17.4604067,50.6340461 17.2796533,50.6778224 17.0127087,50.7742527 C17.6693737,48.6411534 18.2882139,46.6305053 18.9241062,44.5647542 C15.1447169,43.2095259 11.5956873,41.5956196 8.76471081,38.7648548 C9.50539671,40.3714141 9.73947701,42.029709 9.70320232,43.7268821 C9.69235091,44.2332177 9.85264166,44.5215902 10.2897983,44.7548596 C11.577705,45.442729 12.8501098,46.1587622 14.1584792,46.880918 C14.0902703,47.1163303 14.0130703,47.38358 13.9352503,47.6505235 C13.3359427,49.7052541 12.7202029,51.7556988 12.1450785,53.816858 C11.9013869,54.6911593 12.2011957,55.4430095 12.9335106,55.9778149 C13.6645852,56.5120081 14.4313145,56.5224165 15.254161,56.0892455 C18.4857094,54.3868682 21.7321398,52.7126546 24.9742295,51.0298695 C28.808806,49.0394258 32.7388748,47.2087809 36.4605967,45.0306809 C45.7689319,39.5825225 49.5297188,29.2406033 47.9618458,20.52606" id="Fill-6"></path>
                    </g>
                    <path d="M82.0972459,34.6668054 C81.6437694,34.6971001 81.1811317,34.6689475 80.728266,34.6193744 C79.2258388,34.455355 78.1442133,33.5006149 77.7841805,32.032396 C77.6711931,31.5703262 77.595461,31.0990763 77.4919401,30.5788654 C75.9626402,30.5788654 74.4647935,30.5657071 72.967863,30.5999798 C72.8240331,30.6033459 72.5733232,30.895582 72.5635513,31.0648036 C72.4334631,33.3580159 73.1941432,35.261682 75.0816437,36.6485032 C76.4610063,37.6623025 78.0333635,38.2305565 79.6774831,38.6133706 C80.1569161,38.7250629 80.343498,38.9279452 80.3181522,39.4380579 C80.2744841,40.3254766 80.3062427,41.2162614 80.3062427,42.2104763 C81.1304401,42.2104763 81.8395125,42.1927279 82.5470579,42.2169024 C82.9785477,42.2318968 83.1425321,42.0645112 83.1306227,41.6385503 C83.1123004,40.9760463 83.1660457,40.3095643 83.1159648,39.6507324 C83.0643571,38.96895 83.274758,38.6935442 83.9954344,38.5527813 C87.7548615,37.8192838 89.6979396,35.9795731 90.2821151,32.7261126 C90.8714819,29.4429694 89.6130464,26.7745932 86.6967497,25.1597972 C86.097611,24.8280863 85.4737373,24.5404402 84.8587193,24.2371878 C83.2179589,23.4278008 81.5460506,22.6762489 79.9440723,21.7964804 C78.6095993,21.063901 78.4624103,19.7514393 78.6489922,18.3912407 C78.8230539,17.1210079 79.5709084,16.3058068 80.7288767,16.032543 C82.9290775,15.5129441 84.5728917,16.5472459 85.043469,18.7480442 C85.086221,18.9472544 85.1366073,19.1486066 85.1469899,19.3505709 C85.1708089,19.8089686 85.4114415,19.9460594 85.8462904,19.9396333 C87.1181622,19.9206609 88.3909501,19.9185189 89.6628219,19.9399393 C90.1443926,19.9478955 90.3074609,19.7138005 90.283642,19.2908996 C90.2054669,17.9013244 89.9300219,16.5680543 89.1571269,15.3758532 C87.9759504,13.5545028 86.2328906,12.5893585 84.1774358,12.139835 C83.5819616,12.0094763 83.3996549,11.7450867 83.4286651,11.1563303 C83.4750816,10.2199506 83.4411854,9.27959282 83.4411854,8.2483511 C82.6612668,8.2483511 81.9552482,8.27252561 81.2519779,8.23978292 C80.7636891,8.21713844 80.5603117,8.36861163 80.5890166,8.88392648 C80.6256612,9.5449004 80.5288585,10.2184206 80.6152786,10.8699083 C80.7160511,11.6288043 80.3654848,11.8864617 79.7165706,12.0630274 C78.9100848,12.2824341 78.1035989,12.5388675 77.3423081,12.8806767 C73.3678995,14.6637762 72.0618261,19.9760481 74.714282,23.440653 C75.7110141,24.7427105 77.1071721,25.4673337 78.5314242,26.1558482 C80.1779868,26.951771 81.8553918,27.6886345 83.4723332,28.5411684 C84.9442233,29.3175068 85.4703782,30.6865796 85.0950768,32.3638009 C84.7735207,33.8001952 83.8109901,34.552971 82.0972459,34.6668054" id="Fill-9"></path>
                </g>
                <g id="Page-1" transform="translate(274.000000, 223.000000)" fill="#1A5692">
                    <g id="Group-3" transform="translate(38.750000, 0.056408)">
                        <path d="M76.4006726,82.1942553 L43.5729172,82.1942553 C42.8618183,78.8930736 42.1484031,75.5955912 41.4419367,72.2971839 C41.1834395,71.0930549 41.0185201,69.8630306 40.664592,68.6884961 C40.3644017,67.6924539 40.6460618,66.9525896 41.1440627,66.1082196 C41.8417272,64.9244368 42.5009414,63.6777655 42.913703,62.3751421 C43.6109043,60.1712715 42.7135762,58.7137389 40.4950401,58.0779181 C40.1628851,57.9826606 39.8210017,57.8827789 39.4800448,57.866132 C37.7080881,57.7782731 35.8986077,57.8272891 34.7316642,59.3828536 C33.5790817,60.9180719 34.2396857,62.5466981 34.9327176,64.081454 C35.2329079,64.746407 35.5280024,65.4469659 35.9861632,65.9990896 C36.7825014,66.9595259 36.8209517,67.9255111 36.5527261,69.0963463 C35.5567243,73.4379621 34.6529106,77.8013114 33.7083303,82.1831574 L0.693419191,82.1831574 C0.693419191,80.005182 0.692955934,77.8951817 0.693419191,75.7861062 C0.693419191,74.4756217 0.692955934,73.1655996 0.695272218,71.8555774 C0.698978271,69.2239728 1.71628986,67.0954759 3.78797356,65.4409545 C10.3152596,60.2262989 17.2692051,55.6756714 24.7776687,51.9953092 C25.630061,51.5772859 25.931641,51.1051601 25.9200596,50.1585963 C25.8677116,45.7665772 25.8834624,41.3736333 25.9107945,36.9811518 C25.9154271,36.304176 25.7241021,35.8829158 25.1728267,35.4445462 C23.5004702,34.1155651 22.7217358,32.2793146 22.7078381,30.1827243 C22.6712408,24.7114282 22.5961932,19.2378201 22.734707,13.7692986 C22.9144505,6.64995495 28.9891349,0.741676594 36.1487663,0.592778916 C38.917188,0.534977022 41.7046032,0.319029148 44.4290155,1.12363151 C50.0251557,2.774916 54.1750087,7.86795645 54.3422444,13.7276812 C54.5016047,19.3099569 54.4219245,24.900556 54.3746723,30.4869934 C54.3575318,32.5165335 53.3527282,34.1442348 51.8953228,35.5337924 C51.5576087,35.8560957 51.2463002,36.4003584 51.2416677,36.8461266 C51.1944155,41.3537494 51.2273067,45.8622971 51.1990481,50.3703824 C51.1944155,51.1333674 51.5066505,51.5241082 52.1403856,51.9060631 C57.747644,55.2840058 63.3549023,58.6637981 68.9093495,62.1272876 C70.5057319,63.122405 71.944607,64.3737003 73.4335138,65.5366744 C75.4162523,67.0848404 76.3932605,69.1402757 76.3988196,71.6484155 C76.406695,75.144274 76.4006726,78.6396701 76.4006726,82.1942553" id="Fill-1"></path>
                    </g>
                    <path d="M0.0250968327,82.2366519 C0.0250968327,79.0917665 -0.0494874867,76.0176306 0.0589145675,72.9499685 C0.108483028,71.5678096 0.922424948,70.4302684 1.98096637,69.5072877 C6.714986,65.3802325 11.9720224,62.0115382 17.5653831,59.2130017 C19.4466683,58.2719869 20.2230864,57.2884298 20.056314,55.1543839 C19.8330243,52.2832483 20.0275921,49.3806684 19.9738543,46.4928858 C19.9650525,46.0295458 19.7065553,45.4640121 19.37579,45.1338477 C18.3214179,44.082778 17.5283225,42.8712503 17.5195207,41.3975333 C17.4889457,36.5481856 17.3064226,31.6789541 17.6793442,26.8550393 C18.0698695,21.804541 22.5375166,17.8208345 27.6046178,17.5179526 C29.5187942,17.4032736 31.5006061,17.3325241 33.3652141,17.6913583 C38.8418341,18.7452024 42.2597416,23.1381463 42.3394218,28.9853858 C42.3926963,32.8747597 42.3551725,36.7655207 42.3468339,40.6558194 C42.3431278,42.4781975 41.7353351,44.028213 40.3233289,45.2586997 C40.0319404,45.5125657 39.827181,46.0249216 39.8225484,46.4212114 C39.7845614,49.9258558 39.7757595,53.4309627 39.8285708,56.9351447 C39.8359829,57.4322409 40.2228022,57.9233258 40.4609161,58.4796113 C39.0553954,59.7817723 37.3515375,61.1736419 35.8756018,62.7740607 C33.8243014,64.9978152 32.7685395,67.7311511 32.6856166,70.7530341 C32.5929653,74.1402251 32.642997,77.5311154 32.6318788,80.9206184 C32.6304891,81.3349424 32.6318788,81.7492664 32.6318788,82.2366519 L0.0250968327,82.2366519 Z" id="Fill-6"></path>
                    <g id="Group-10" transform="translate(111.406250, 16.978738)">
                        <path d="M10.4521472,65.2570355 C10.4521472,62.0057946 10.4136969,58.8516608 10.4609491,55.6993768 C10.5378497,50.5369741 8.68945566,46.3243721 4.47706302,43.2187919 C3.7645743,42.6934883 3.10397033,42.0997473 2.42113004,41.5356008 C2.39333464,41.5129424 2.38036346,41.4722499 2.30392611,41.3469354 C3.40786669,41.0264817 3.28834648,40.1381822 3.28371391,39.2651424 C3.26749993,36.0689289 3.2624041,32.872253 3.28880973,29.6760395 C3.29436881,29.0207972 3.15863462,28.5551451 2.62496297,28.0899555 C1.34498486,26.9736853 0.72329445,25.5133783 0.726537247,23.795506 C0.73441261,19.5977013 0.703374415,15.3998966 0.738581919,11.2020919 C0.783054557,5.95044302 5.11172462,1.07889943 10.3608856,0.605848734 C12.6002682,0.403773314 14.953612,0.397761917 17.1374038,0.858327405 C22.0090106,1.88627628 25.3643785,6.06697164 25.506135,11.0430211 C25.6307511,15.4299536 25.55663,19.8224351 25.5459751,24.2121421 C25.5418058,25.8028502 24.8316334,27.073567 23.7008239,28.1805889 C23.3445795,28.5292499 23.0536544,29.1280775 23.045779,29.6182376 C22.9887984,32.9675105 23.0402199,36.3186331 22.9985268,39.6688308 C22.9883352,40.5058022 23.2394203,40.9649805 24.0186179,41.3547964 C30.036785,44.3600325 35.6963914,47.9284902 40.8918146,52.2146162 C42.1680867,53.2670731 43.1159098,54.5484255 43.1701108,56.2071086 C43.2673947,59.1961601 43.1979062,62.1902982 43.1979062,65.2570355 L10.4521472,65.2570355 Z" id="Fill-8"></path>
                    </g>
                </g>
                <g id="Page-1" transform="translate(0.000000, 228.000000)">
                    <mask id="mask-8" fill="white">
                        <use xlink:href="#path-7"></use>
                    </mask>
                    <g id="Clip-2"></g>
                    <path d="M69.5633759,79.1955032 C67.9146683,79.1955032 66.4160698,79.1010519 64.9355341,79.2216015 C63.3839925,79.3471223 62.1563376,80.4357971 62.1251946,81.8693433 C62.0342572,85.9872932 62.0934288,90.1083501 62.0934288,94.2648262 L69.5633759,94.2648262 L69.5633759,79.1955032 Z M126.523824,94.3288293 C126.584242,94.0193772 126.639676,93.8702437 126.639676,93.7204887 C126.645905,85.0732289 126.66895,76.4253476 126.635939,67.7787092 C126.628465,65.8443228 125.258175,64.3772216 123.232015,64.1920475 C121.326067,64.0180583 119.398318,64.0851684 117.479913,64.0534776 C116.780442,64.0422925 116.080349,64.0516134 115.287449,64.0516134 C115.287449,60.5910938 115.363438,57.3822371 115.252569,54.1802157 C115.203363,52.7646898 115.580816,52.1010456 117.014637,51.6791219 C120.00436,50.7986127 122.920585,49.6676833 125.867331,48.6399046 C121.084397,47.3312578 116.787294,44.5548884 111.480536,44.6567963 L111.480536,63.6352823 C110.644659,63.6352823 110.026783,63.6352823 109.40953,63.6359036 C98.9249455,63.6359036 88.4403613,63.6334181 77.955777,63.6371464 C74.5537216,63.6383892 73.4624727,64.7183646 73.4599813,68.0875399 C73.4549984,76.2687574 73.456867,84.4505963 73.4624727,92.6318139 C73.4624727,93.1792583 73.5129243,93.7267026 73.5421987,94.3288293 L126.523824,94.3288293 Z M0,98 C9.77888508,72.1383797 19.5135472,46.3935807 29.3403924,20.4039541 C38.6396761,27.4001813 47.796948,34.2889082 57.094986,41.2845141 C64.8421053,27.4884187 72.5300529,13.7973382 80.2771722,0 C81.4842728,0.752502996 82.5823731,1.42236115 83.6673933,2.11458934 C93.3609467,8.30425272 103.060729,14.4833525 112.729991,20.7109206 C113.707256,21.3403884 114.447213,21.4553455 115.538462,20.9240573 C124.66459,16.4836061 133.8256,12.1152361 142.977889,7.72822441 C143.535347,7.46102681 144.10464,7.21868481 144.925568,6.8489579 C150.624105,37.2684721 156.299595,67.5674366 162,98 L0,98 Z" id="Fill-1" fill="#1A5692" mask="url(#mask-8)"></path>
                </g>
                <path d="M89.5,107.397665 L89.5,171.598765" id="Line-11" stroke="#979797" stroke-width="7" stroke-linecap="square"></path>
                <path id="Line-11-decoration-1" d="M89.5,171.598765 L92.5,160.798765 L86.5,160.798765 L89.5,171.598765 Z" stroke="#979797" stroke-width="7" stroke-linecap="square"></path>
                <polyline id="Line-11-Copy-4" stroke="#979797" stroke-width="7" stroke-linecap="square" points="631 172 631 104 509 104"></polyline>
                <path id="Line-11-Copy-4-decoration-1" d="M509,104 L519.8,107 L519.8,101 L509,104 Z" stroke="#979797" stroke-width="7" stroke-linecap="square"></path>
                <path d="M350.5,368.398596 L350.5,441.602245" id="Line-11-Copy-3" stroke="#979797" stroke-width="7" stroke-linecap="square"></path>
                <path id="Line-11-Copy-3-decoration-1" d="M350.5,441.602245 L353.5,430.802245 L347.5,430.802245 L350.5,441.602245 Z" stroke="#979797" stroke-width="7" stroke-linecap="square"></path>
                <path d="M179.402439,280.489621 L244.67683,280.489621" id="Line-11-Copy" stroke="#979797" stroke-width="7" stroke-linecap="square"></path>
                <path id="Line-11-Copy-decoration-1" d="M244.67683,280.489621 L233.87683,277.489621 L233.87683,283.489621 L244.67683,280.489621 Z" stroke="#979797" stroke-width="7" stroke-linecap="square"></path>
                <path d="M467.402439,280.489621 L532.67683,280.489621" id="Line-11-Copy-2" stroke="#979797" stroke-width="7" stroke-linecap="square"></path>
                <path id="Line-11-Copy-2-decoration-1" d="M532.67683,280.489621 L521.87683,277.489621 L521.87683,283.489621 L532.67683,280.489621 Z" stroke="#979797" stroke-width="7" stroke-linecap="square"></path>
                <path d="M119.605145,104.5 L89,104.5" id="Line-12" stroke="#979797" stroke-width="7" stroke-linecap="square"></path>
                <path d="M239.605145,104.5 L209,104.5" id="Line-12-Copy" stroke="#979797" stroke-width="7" stroke-linecap="square"></path>
                <text id="20%" font-family="ApercuPro-Regular, Apercu Pro" font-size="30" font-weight="normal" letter-spacing="1.25" fill="#1A5692">
                    <tspan x="472" y="253">20%</tspan>
                </text>
                <text id="5%" font-family="ApercuPro-Regular, Apercu Pro" font-size="36" font-weight="normal" letter-spacing="1.5" fill="#1A5692">
                    <tspan x="361" y="415">5%</tspan>
                </text>
            </g>
        </g>
    </g>
</svg>