<?xml version="1.0" encoding="UTF-8"?>
<svg width="378px" height="202px" viewBox="0 0 378 202" version="1.1" xmlns="http://www.w3.org/2000/svg" xmlns:xlink="http://www.w3.org/1999/xlink">
    <!-- Generator: Sketch 47.1 (45422) - http://www.bohemiancoding.com/sketch -->
    <title>Group 26</title>
    <desc>Created with Sketch.</desc>
    <defs></defs>
    <g id="Page-1" stroke="none" stroke-width="1" fill="none" fill-rule="evenodd">
        <g id="mountaintoken" transform="translate(-516.000000, -8119.000000)" fill="#F4F2F2">
            <g id="Group-26" transform="translate(516.000000, 8119.000000)">
                <path d="M282.151068,201.553808 L201.867117,201.553808 C200.128045,193.414895 198.383308,185.285103 196.655565,177.153031 C196.023381,174.184306 195.620053,171.151737 194.754482,168.255976 C194.020333,165.80028 194.709164,163.976178 195.927081,161.894422 C197.633298,158.97586 199.24548,155.902249 200.254935,152.690691 C201.960018,147.257148 199.765502,143.663669 194.339824,142.096081 C193.527501,141.861228 192.691387,141.614975 191.857539,141.573932 C187.524021,141.35732 183.098734,141.478167 180.244843,145.31334 C177.426073,149.098351 179.041654,153.113654 180.736541,156.897524 C181.47069,158.536936 182.192377,160.264132 183.31286,161.625367 C185.260394,163.993279 185.354429,166.374871 184.698453,169.261512 C182.262619,179.965567 180.052242,190.723205 177.742165,201.526446 L97.0005035,201.526446 C97.0005035,196.156748 96.9993706,190.954638 97.0005035,185.754809 C97.0005035,182.523869 96.9993706,179.29407 97.0050353,176.06427 C97.0140989,169.576169 99.5020483,164.328458 104.568583,160.249311 C120.531792,147.392816 137.538444,136.173452 155.901232,127.099687 C157.985853,126.06907 158.723401,124.905065 158.695077,122.571356 C158.567054,111.743034 158.605574,100.912431 158.672418,90.0829691 C158.683748,88.4139163 158.215841,87.3753185 156.867635,86.2945384 C152.7777,83.0179962 150.873218,78.4908045 150.83923,73.321757 C150.749727,59.8325269 150.56619,46.3375965 150.90494,32.8552068 C151.344524,15.3027908 166.200844,0.736200749 183.710524,0.369100336 C190.48101,0.226592411 197.297946,-0.305817195 203.960801,1.67789311 C217.646788,5.7490595 227.795718,18.3057177 228.204712,32.7526011 C228.594445,46.5154464 228.399579,60.2988129 228.284018,74.0719188 C228.242099,79.075657 225.784739,83.0886802 222.220491,86.5145707 C221.394574,87.3091948 220.633234,88.6510495 220.621904,89.7500706 C220.506344,100.863409 220.586783,111.979027 220.517673,123.093505 C220.506344,124.974609 221.26995,125.937963 222.81982,126.879655 C236.532998,135.207818 250.246176,143.540542 263.830198,152.079617 C267.73433,154.533033 271.25326,157.618045 274.894549,160.485304 C279.743558,164.302236 282.132941,169.369818 282.146536,175.553522 C282.165796,184.172401 282.151068,192.79014 282.151068,201.553808" id="Fill-1"></path>
                <path d="M0.0611782768,201.987136 C0.0611782768,194.233565 -0.121226026,186.654424 0.143883334,179.091243 C0.265108554,175.683594 2.25569465,172.879038 4.84447622,170.603471 C16.4220512,160.428405 29.2787222,152.123044 42.957912,145.22338 C47.5588057,142.903351 49.4576231,140.478436 49.0497626,135.217043 C48.5036826,128.13839 48.9795199,120.982212 48.8480982,113.862516 C48.8265722,112.720173 48.1943884,111.325875 47.3854649,110.51187 C44.8068799,107.920506 42.8672764,104.93354 42.8457504,101.300157 C42.7709759,89.3443126 42.3245952,77.3394451 43.2366167,65.4463037 C44.1916902,52.9945313 55.1178213,43.1728852 67.5099844,42.4261436 C72.1913172,42.1434079 77.0380602,41.9689782 81.5981677,42.8536674 C94.9918551,45.4518719 103.350731,56.2824742 103.545597,70.6985758 C103.675886,80.287649 103.584117,89.8801424 103.563724,99.4714958 C103.554661,103.964486 102.068236,107.785978 98.6150164,110.819687 C97.9023934,111.445582 97.4016313,112.708772 97.3903018,113.685806 C97.2974002,122.326347 97.2758742,130.968027 97.4050301,139.607428 C97.4231572,140.832996 98.3691671,142.043743 98.9515014,143.415239 C95.5141432,146.625658 91.3471679,150.057249 87.737602,154.003008 C82.7209172,159.485573 80.1389333,166.224488 79.936136,173.674802 C79.7095468,182.025766 79.8319049,190.385851 79.8047142,198.742516 C79.8013154,199.764013 79.8047142,200.78551 79.8047142,201.987136 L0.0611782768,201.987136 Z" id="Fill-6"></path>
                <path d="M297.797699,201.914521 C297.797699,193.898735 297.703664,186.122363 297.819225,178.35055 C298.007294,165.622883 293.486839,155.236905 283.184961,147.580239 C281.44249,146.285127 279.826909,144.821286 278.156947,143.430409 C278.08897,143.374545 278.057248,143.27422 277.870312,142.965263 C280.570122,142.175199 280.277822,139.985137 280.266492,137.832697 C280.226839,129.952579 280.214377,122.071321 280.278955,114.191203 C280.29255,112.575733 279.960597,111.427689 278.655443,110.280785 C275.525114,107.528672 274.0047,103.928352 274.012631,99.6930164 C274.031891,89.3435209 273.955983,78.9940254 274.042087,68.6445299 C274.15085,55.6968299 284.737097,43.686262 297.574508,42.5199772 C303.051169,42.0217695 308.806535,42.0069487 314.147242,43.1424518 C326.061302,45.6768127 334.26723,55.9841259 334.613911,68.2523481 C334.918674,79.0681295 334.737402,89.8975917 334.711345,100.720214 C334.701148,104.642032 332.964342,107.774926 330.198821,110.504238 C329.327585,111.363845 328.616095,112.840228 328.596835,114.048695 C328.457483,122.306174 328.58324,130.568213 328.481275,138.827973 C328.45635,140.891487 329.070407,142.02357 330.976022,142.984644 C345.694123,150.393916 359.535324,159.191785 372.241313,169.759033 C375.362579,172.353817 377.680587,175.512933 377.813142,179.60234 C378.05106,186.97171 377.881118,194.35362 377.881118,201.914521 L297.797699,201.914521 Z" id="Fill-8"></path>
            </g>
        </g>
    </g>
</svg>