<?xml version="1.0" encoding="UTF-8"?>
<svg width="713px" height="582px" viewBox="0 0 713 582" version="1.1" xmlns="http://www.w3.org/2000/svg" xmlns:xlink="http://www.w3.org/1999/xlink">
    <!-- Generator: Sketch 47.1 (45422) - http://www.bohemiancoding.com/sketch -->
    <title>Group 23</title>
    <desc>Created with Sketch.</desc>
    <defs></defs>
    <g id="Page-1" stroke="none" stroke-width="1" fill="none" fill-rule="evenodd">
        <g id="mountaintoken" transform="translate(-373.000000, -10412.000000)">
            <g id="Group-23" transform="translate(373.000000, 10412.000000)">
                <path d="M342.7,291.225156 L342.7,304.251534 L298.6,280.369936 L298.6,267.343558 L342.7,291.225156 Z M346.6375,303.466258 L346.6375,290.90184 L352.9375,290.90184 L352.9375,303.466258 L346.6375,303.466258 Z M356.0875,303.466258 L356.0875,290.460677 L400.56368,264.98773 L400.975,277.964773 L356.0875,303.466258 Z M354.118847,309.748466 L366.325,316.1409 L364.946761,322.312883 L352.9375,315.92045 L354.118847,309.748466 Z M356.0875,307.802715 L402.373921,281.478528 L412,286.743706 L368.785915,313.674847 L356.0875,307.802715 Z M351.3625,362.4635 L351.3625,319.171779 L363.9625,324.659326 L363.9625,371 L351.3625,362.4635 Z M343.881153,309.748466 L345.0625,315.92045 L333.053239,322.312883 L331.675,316.1409 L343.881153,309.748466 Z M286,286.743706 L295.626178,281.478528 L341.9125,307.802715 L329.214528,313.674847 L286,286.743706 Z M334.0375,324.659326 L346.6375,319.171779 L346.6375,362.4635 L334.0375,371 L334.0375,324.659326 Z M345.145374,243 L353.982415,243 L397.825,264.280771 L353.982415,288.546012 L345.145374,288.546012 L300.9625,264.688523 L345.145374,243 Z M353.716137,251.651644 L355.272416,264.857323 L343.204871,251.67886 L337.622791,251.693034 L335.6125,273.554327 L342.417454,273.571903 L342.775793,257.943492 L355.934009,273.607056 L363.175,273.625767 L359.052947,251.638037 L353.716137,251.651644 Z M329.823724,317.350564 L331.469239,323.903657 L331.675,371 L289.223019,340.168797 C287.197681,338.697449 286,336.351896 286,333.856053 L286,290.116564 L329.823724,317.350564 Z M315.235145,348.508137 L321.4375,352.93865 L321.344712,322.324586 L314.349918,318.122456 L306.990312,331.806723 L299.806485,309.385538 L293.875,305.822086 L294.144718,333.441105 L299.38116,337.182503 L299.234199,319.827676 L305.003161,338.59417 L309.118662,341.491741 L315.151002,330.086201 L315.235145,348.508137 Z M366.530759,323.903657 L368.176253,317.351138 L412,290.116564 L412,335.916514 L412,338.333771 C412,340.443564 410.922792,342.408803 409.140702,343.550891 L408.736677,343.81017 L366.325,371 L366.530759,323.903657 Z M378.962096,319.804638 L378.925,325.415479 L388.133765,319.750844 L388.646924,348.226994 L395.006614,343.817556 L394.056736,316.107412 L402.55,310.883778 L402.255481,305.822086 L378.962096,319.804638 Z" id="Combined-Shape-Copy-2" fill="#1A5692"></path>
                <path d="M63.124,581 L66.004,581 L59.416,567.284 L65.788,555.8 L62.944,555.8 L56.248,567.968 L56.248,555.8 L53.44,555.8 L53.44,581 L56.248,581 L56.248,572.54 L57.724,570.056 L63.124,581 Z M77.38,575.924 L71.008,575.924 L70.036,581 L67.444,581 L72.268,555.8 L76.336,555.8 L81.16,581 L78.352,581 L77.38,575.924 Z M74.14,558.968 L71.368,573.512 L76.984,573.512 L74.14,558.968 Z M83.356,555.8 L88.864,555.8 C92.824,555.8 94.516,558.14 94.516,561.956 L94.516,564.98 C94.516,568.976 92.644,571.064 88.648,571.064 L86.164,571.064 L86.164,581 L83.356,581 L83.356,555.8 Z M86.164,568.544 L88.648,568.544 C90.736,568.544 91.744,567.572 91.744,565.16 L91.744,561.812 C91.744,559.508 90.916,558.356 88.864,558.356 L86.164,558.356 L86.164,568.544 Z M99.52,566.96 L99.52,558.356 L107.08,558.356 L107.08,555.8 L96.712,555.8 L96.712,581 L107.08,581 L107.08,578.444 L99.52,578.444 L99.52,569.48 L105.676,569.48 L105.676,566.96 L99.52,566.96 Z M112.48,565.736 L114.964,565.736 C118.96,565.736 120.832,567.824 120.832,571.82 L120.832,574.844 C120.832,578.66 119.104,581 115.18,581 L109.672,581 L109.672,555.8 L112.48,555.8 L112.48,565.736 Z M112.48,578.444 L115.18,578.444 C117.232,578.444 118.06,577.292 118.06,574.988 L118.06,571.64 C118.06,569.192 117.052,568.256 114.964,568.256 L112.48,568.256 L112.48,578.444 Z M123.388,555.8 L128.896,555.8 C132.856,555.8 134.548,558.14 134.548,561.956 L134.548,564.98 C134.548,568.976 132.676,571.064 128.68,571.064 L126.196,571.064 L126.196,581 L123.388,581 L123.388,555.8 Z M126.196,568.544 L128.68,568.544 C130.768,568.544 131.776,567.572 131.776,565.16 L131.776,561.812 C131.776,559.508 130.948,558.356 128.896,558.356 L126.196,558.356 L126.196,568.544 Z" id="Кареьр" fill="#1A5692"></path>
                <path d="M162.606784,520.157105 C162.729971,520.371257 162.824146,520.602845 163,520.967217 L161.451685,520.967217 C135.976568,520.967217 110.501004,521.032938 85.0263334,520.902837 C80.7536264,520.881377 76.8924347,521.815777 73.1231868,523.621986 C69.5070297,525.354426 65.9292569,527.191484 62.2193707,528.698148 C57.5530016,530.592879 52.6862308,531.645756 47.6203972,530.566501 C42.3778175,529.449245 38.6915867,526.521756 37.1794242,521.197911 C37.1392546,521.055292 37.0790002,520.918038 36.9982147,520.695391 L25,520.695391 L25,491.382946 L35.6900245,491.382946 L35.6900245,474.993389 C34.9763446,474.993389 34.2814104,474.993837 33.5864762,474.993389 C31.8386521,474.993389 30.0903816,475.008143 28.3425575,474.987577 C26.7692479,474.969247 26.4108458,474.546755 26.420665,472.819233 C26.4295916,471.308545 26.8460165,470.861463 28.3220263,470.859675 C34.3470208,470.852522 40.3715688,470.852074 46.3965633,470.860569 C47.8359741,470.862357 48.2385628,471.320616 48.2457041,472.866623 C48.253738,474.534237 47.9020308,474.969694 46.3974559,474.985342 C43.9453247,475.010826 41.4931935,474.992048 38.9584914,474.992048 L38.9584914,491.301578 L49.8538273,491.301578 L49.8538273,520.62967 L40.1635796,520.62967 C40.8893104,523.377879 42.4679759,525.237738 44.7969203,526.473471 C47.679759,528.003384 50.7826378,528.056139 53.9310422,527.739159 C58.5469761,527.273747 62.6027672,525.264116 66.628208,523.155233 C68.0270029,522.422467 69.4632894,521.760339 70.8585137,520.854552 L53.0089266,520.854552 L53.0089266,488.455904 L44.8152198,488.455904 C51.8627538,476.19425 58.7750502,464.166866 65.7257309,452.073315 C67.6699397,453.262104 69.5637135,454.359689 71.3874135,455.563232 C72.181879,456.087211 72.7420219,456.13639 73.5355947,455.532383 C75.1289891,454.319004 76.8214684,453.235726 78.4934166,452.084939 C80.4336086,453.328272 82.3532694,454.533603 84.2421335,455.786326 C84.7540728,456.126107 85.1187235,456.130578 85.6284312,455.77336 C87.0897121,454.749991 88.6232984,453.828556 90.0685115,452.783727 C90.724615,452.309821 91.204865,452.371518 91.8408837,452.775232 C93.4414193,453.790107 95.1035483,454.707518 96.6956037,455.734911 C97.3267128,456.142202 97.7783977,456.100177 98.3996876,455.720158 C100.423789,454.481742 102.491631,453.313965 104.594733,452.088962 C109.505244,460.592451 114.376032,469.027535 119.316001,477.582438 C119.665476,476.99855 119.968087,476.510784 120.253738,476.013629 C122.033698,472.918038 123.795805,469.813057 125.59094,466.726407 C127.229413,463.908453 130.323365,463.89817 131.95559,466.738479 C142.184557,484.53813 152.393439,502.348512 162.606784,520.157105 Z M109.56532,412.976359 C109.272528,412.912874 108.863245,412.621824 108.804329,412.366987 C108.249543,409.980467 107.759473,407.578746 107.224771,405.058101 C107.707699,404.924423 108.120107,404.800582 108.537871,404.695965 C118.589199,402.183814 128.641419,399.673899 138.693193,397.162643 C141.824637,396.379804 144.068779,398.515959 143.202901,401.573548 C140.283017,411.88101 137.304218,422.171482 134.344611,432.467767 C134.315153,432.570149 134.238384,432.658671 134.123678,432.858069 C131.68449,432.239308 129.306003,431.665256 126.951172,431.00447 C126.631154,430.915053 126.296407,430.42997 126.2,430.066046 C125.68449,428.126607 125.214952,426.173755 124.79094,424.212409 C124.643651,423.531951 124.316492,423.219441 123.650569,423.085317 C121.940683,422.741958 120.249989,422.297559 118.535193,421.986391 C117.810801,421.854949 117.559518,421.507567 117.436778,420.838733 C117.094443,418.971721 116.678018,417.118121 116.325865,415.252004 C116.194198,414.55411 115.939344,414.175432 115.142647,414.056955 C113.271189,413.777976 111.4158,413.378286 109.56532,412.976359 Z M54.6644945,439.059893 C54.5332738,438.940969 54.4449007,438.774208 54.1623745,438.396424 C58.2739567,438.224745 62.1900469,438.062007 66.3373354,437.888987 C63.3777282,432.143544 60.515867,426.588557 57.6540058,421.033571 C57.738362,420.956673 57.8222718,420.879328 57.9061817,420.80243 C62.4917652,424.005321 67.0777951,427.208659 71.6633787,430.41155 C71.770944,430.376678 71.8780629,430.341358 71.9856282,430.306039 C71.4161125,423.685658 70.8465967,417.065723 70.2766347,410.445342 C70.3792903,410.405999 70.481946,410.366656 70.5846017,410.327313 C73.5504575,415.145956 76.515867,419.964152 79.4817228,424.782348 C79.5919661,424.751947 79.7022093,424.721098 79.8124526,424.69025 C81.5290337,416.662903 83.2460611,408.63511 84.9630886,400.607763 C85.055925,400.621623 85.1487614,400.635482 85.2411515,400.648895 C86.95684,408.713796 88.6725285,416.777803 90.4578442,425.170862 C93.6084802,420.052227 96.5953135,415.2005 99.5821468,410.348325 C99.6879268,410.369785 99.7941531,410.390798 99.8999331,410.411811 C99.3317563,417.023698 98.7635796,423.635585 98.1949565,430.247471 C98.2819906,430.313639 98.3685784,430.378913 98.4551663,430.444634 C103.065298,427.230566 107.67543,424.016051 112.286008,420.801536 L112.543539,420.995122 C109.684356,426.543849 106.825173,432.092576 103.840571,437.884963 C107.956617,438.055301 111.888775,438.218039 116.098549,438.3924 C115.683017,438.835011 115.463423,439.10326 115.209462,439.333954 C112.043651,442.210475 108.865789,445.074926 105.707565,447.960389 C105.03584,448.574232 104.348047,448.759324 103.624548,448.159788 C102.932738,447.587076 102.953716,446.639711 103.730774,445.897109 C104.967106,444.71592 106.275296,443.610734 107.549119,442.468888 C107.86869,442.182309 108.171747,441.877847 108.482392,441.581879 L108.398482,441.285911 C105.345593,441.149104 102.292256,441.012297 98.9572863,440.862525 C100.754653,437.350254 102.480607,433.977919 104.207007,430.605584 C104.129346,430.525556 104.052131,430.445976 103.97447,430.365948 C100.932292,432.462313 97.8896675,434.558677 94.6091497,436.819121 C95.0157554,432.052786 95.396474,427.594043 95.7767463,423.135748 C95.6785539,423.093275 95.5799152,423.050802 95.4817228,423.008329 C93.429056,426.291248 91.3763892,429.57372 89.3237224,432.856638 C89.2112475,432.832943 89.0987726,432.809248 88.9862977,432.785552 C87.738362,426.899726 86.4908726,421.013899 85.2429368,415.128073 C85.1492078,415.118684 85.0554787,415.109295 84.9617496,415.099459 C83.6972997,421.027759 82.4324035,426.955611 81.1675073,432.883463 C81.0706539,432.891958 80.9738005,432.900452 80.8769471,432.908947 L74.7725061,423.107134 C74.6631555,423.130383 74.553805,423.153184 74.444008,423.176432 C74.7970542,427.587337 75.1505468,431.998242 75.5343896,436.789613 C72.2507476,434.52604 69.2277617,432.442194 66.2043294,430.358348 L65.9454586,430.55864 C67.6763222,433.92561 69.4071859,437.292133 71.3277393,441.028839 L61.9802723,441.028839 C61.9374247,441.170117 61.8945771,441.310948 61.8517295,441.452225 C62.1735327,441.769653 62.4828387,442.10094 62.8193707,442.401826 C64.0119616,443.467668 65.224191,444.511603 66.4083017,445.586387 C67.2371346,446.338825 67.3545191,447.291108 66.7466191,447.948765 C66.2074537,448.532206 65.194287,448.53623 64.4484713,447.870526 C61.1755412,444.946614 57.9213568,442.001688 54.6644945,439.059893 Z" id="Combined-Shape" fill="#1A5692"></path>
                <path d="M562.732,555.548 C558.952,555.548 557.152,557.96 557.152,561.848 C557.152,568.94 565.576,569.48 565.576,575.096 C565.576,577.364 564.64,578.696 562.624,578.696 C560.608,578.696 559.672,577.364 559.672,575.096 L559.672,573.512 L557.044,573.512 L557.044,574.952 C557.044,578.768 558.844,581.252 562.696,581.252 C566.548,581.252 568.384,578.768 568.384,574.952 C568.384,567.86 559.924,567.32 559.924,561.668 C559.924,559.436 560.788,558.104 562.804,558.104 C564.82,558.104 565.684,559.436 565.684,561.704 L565.684,562.532 L568.348,562.532 L568.348,561.848 C568.348,558.032 566.548,555.548 562.732,555.548 Z M577.24,581 L577.24,558.356 L581.884,558.356 L581.884,555.8 L569.824,555.8 L569.824,558.356 L574.468,558.356 L574.468,581 L577.24,581 Z M583.576,574.916 L583.576,561.884 C583.576,558.032 585.484,555.548 589.336,555.548 C593.224,555.548 595.132,558.032 595.132,561.884 L595.132,574.916 C595.132,578.732 593.224,581.252 589.336,581.252 C585.484,581.252 583.576,578.732 583.576,574.916 Z M586.348,561.74 L586.348,575.06 C586.348,577.364 587.32,578.696 589.336,578.696 C591.388,578.696 592.324,577.364 592.324,575.06 L592.324,561.74 C592.324,559.472 591.388,558.104 589.336,558.104 C587.32,558.104 586.348,559.472 586.348,561.74 Z M600.28,560.624 L606.724,581 L609.64,581 L609.64,555.8 L607.156,555.8 L607.156,574.016 L601.324,555.8 L597.76,555.8 L597.76,581 L600.28,581 L600.28,560.624 Z M615.328,566.96 L615.328,558.356 L622.888,558.356 L622.888,555.8 L612.52,555.8 L612.52,581 L622.888,581 L622.888,578.444 L615.328,578.444 L615.328,569.48 L621.484,569.48 L621.484,566.96 L615.328,566.96 Z M638.764,560.732 L638.764,581 L641.428,581 L641.428,555.8 L637.504,555.8 L633.508,575.924 L629.368,555.8 L625.444,555.8 L625.444,581 L627.892,581 L627.892,560.912 L632.068,580.964 L634.768,580.964 L638.764,560.732 Z M653.524,575.924 L647.152,575.924 L646.18,581 L643.588,581 L648.412,555.8 L652.48,555.8 L657.304,581 L654.496,581 L653.524,575.924 Z M650.284,558.968 L647.512,573.512 L653.128,573.512 L650.284,558.968 Z M659.5,555.8 L665.116,555.8 C669.076,555.8 670.732,557.816 670.732,561.56 L670.732,563.612 C670.732,566.384 669.76,568.112 667.6,568.796 C669.904,569.48 670.768,571.352 670.768,574.052 L670.768,577.976 C670.768,579.092 670.804,580.136 671.272,581 L668.428,581 C668.104,580.28 667.96,579.632 667.96,577.94 L667.96,573.98 C667.96,571.136 666.628,570.236 664.288,570.236 L662.308,570.236 L662.308,581 L659.5,581 L659.5,555.8 Z M662.308,567.68 L664.396,567.68 C666.628,567.68 667.96,566.96 667.96,564.224 L667.96,561.812 C667.96,559.544 667.132,558.356 665.044,558.356 L662.308,558.356 L662.308,567.68 Z M683.368,581 L686.248,581 L679.66,567.284 L686.032,555.8 L683.188,555.8 L676.492,567.968 L676.492,555.8 L673.684,555.8 L673.684,581 L676.492,581 L676.492,572.54 L677.968,570.056 L683.368,581 Z M691.216,566.96 L691.216,558.356 L698.776,558.356 L698.776,555.8 L688.408,555.8 L688.408,581 L698.776,581 L698.776,578.444 L691.216,578.444 L691.216,569.48 L697.372,569.48 L697.372,566.96 L691.216,566.96 Z M707.776,581 L707.776,558.356 L712.42,558.356 L712.42,555.8 L700.36,555.8 L700.36,558.356 L705.004,558.356 L705.004,581 L707.776,581 Z" id="StoneMarket" fill="#1A5692"></path>
                <path d="M5.732,21.548 C1.952,21.548 0.152,23.96 0.152,27.848 C0.152,34.94 8.576,35.48 8.576,41.096 C8.576,43.364 7.64,44.696 5.624,44.696 C3.608,44.696 2.672,43.364 2.672,41.096 L2.672,39.512 L0.044,39.512 L0.044,40.952 C0.044,44.768 1.844,47.252 5.696,47.252 C9.548,47.252 11.384,44.768 11.384,40.952 C11.384,33.86 2.924,33.32 2.924,27.668 C2.924,25.436 3.788,24.104 5.804,24.104 C7.82,24.104 8.684,25.436 8.684,27.704 L8.684,28.532 L11.348,28.532 L11.348,27.848 C11.348,24.032 9.548,21.548 5.732,21.548 Z M27.116,26.732 L27.116,47 L29.78,47 L29.78,21.8 L25.856,21.8 L21.86,41.924 L17.72,21.8 L13.796,21.8 L13.796,47 L16.244,47 L16.244,26.912 L20.42,46.964 L23.12,46.964 L27.116,26.732 Z M41.876,41.924 L35.504,41.924 L34.532,47 L31.94,47 L36.764,21.8 L40.832,21.8 L45.656,47 L42.848,47 L41.876,41.924 Z M38.636,24.968 L35.864,39.512 L41.48,39.512 L38.636,24.968 Z M47.852,21.8 L53.468,21.8 C57.428,21.8 59.084,23.816 59.084,27.56 L59.084,29.612 C59.084,32.384 58.112,34.112 55.952,34.796 C58.256,35.48 59.12,37.352 59.12,40.052 L59.12,43.976 C59.12,45.092 59.156,46.136 59.624,47 L56.78,47 C56.456,46.28 56.312,45.632 56.312,43.94 L56.312,39.98 C56.312,37.136 54.98,36.236 52.64,36.236 L50.66,36.236 L50.66,47 L47.852,47 L47.852,21.8 Z M50.66,33.68 L52.748,33.68 C54.98,33.68 56.312,32.96 56.312,30.224 L56.312,27.812 C56.312,25.544 55.484,24.356 53.396,24.356 L50.66,24.356 L50.66,33.68 Z M68.444,47 L68.444,24.356 L73.088,24.356 L73.088,21.8 L61.028,21.8 L61.028,24.356 L65.672,24.356 L65.672,47 L68.444,47 Z M80.432,21.548 C76.58,21.548 74.78,24.068 74.78,27.884 L74.78,40.916 C74.78,44.732 76.58,47.252 80.432,47.252 C84.32,47.252 86.12,44.732 86.12,40.916 L86.12,37.784 L83.456,37.784 L83.456,41.06 C83.456,43.328 82.556,44.696 80.504,44.696 C78.488,44.696 77.552,43.328 77.552,41.06 L77.552,27.74 C77.552,25.472 78.488,24.104 80.504,24.104 C82.556,24.104 83.456,25.472 83.456,27.74 L83.456,30.152 L86.12,30.152 L86.12,27.884 C86.12,24.068 84.32,21.548 80.432,21.548 Z M88.46,40.916 L88.46,27.884 C88.46,24.032 90.368,21.548 94.22,21.548 C98.108,21.548 100.016,24.032 100.016,27.884 L100.016,40.916 C100.016,44.732 98.108,47.252 94.22,47.252 C90.368,47.252 88.46,44.732 88.46,40.916 Z M91.232,27.74 L91.232,41.06 C91.232,43.364 92.204,44.696 94.22,44.696 C96.272,44.696 97.208,43.364 97.208,41.06 L97.208,27.74 C97.208,25.472 96.272,24.104 94.22,24.104 C92.204,24.104 91.232,25.472 91.232,27.74 Z M105.164,26.624 L111.608,47 L114.524,47 L114.524,21.8 L112.04,21.8 L112.04,40.016 L106.208,21.8 L102.644,21.8 L102.644,47 L105.164,47 L105.164,26.624 Z M123.812,47 L123.812,24.356 L128.456,24.356 L128.456,21.8 L116.396,21.8 L116.396,24.356 L121.04,24.356 L121.04,47 L123.812,47 Z M130.364,21.8 L135.98,21.8 C139.94,21.8 141.596,23.816 141.596,27.56 L141.596,29.612 C141.596,32.384 140.624,34.112 138.464,34.796 C140.768,35.48 141.632,37.352 141.632,40.052 L141.632,43.976 C141.632,45.092 141.668,46.136 142.136,47 L139.292,47 C138.968,46.28 138.824,45.632 138.824,43.94 L138.824,39.98 C138.824,37.136 137.492,36.236 135.152,36.236 L133.172,36.236 L133.172,47 L130.364,47 L130.364,21.8 Z M133.172,33.68 L135.26,33.68 C137.492,33.68 138.824,32.96 138.824,30.224 L138.824,27.812 C138.824,25.544 137.996,24.356 135.908,24.356 L133.172,24.356 L133.172,33.68 Z M153.764,41.924 L147.392,41.924 L146.42,47 L143.828,47 L148.652,21.8 L152.72,21.8 L157.544,47 L154.736,47 L153.764,41.924 Z M150.524,24.968 L147.752,39.512 L153.368,39.512 L150.524,24.968 Z M169.424,47 L172.304,47 L165.716,33.284 L172.088,21.8 L169.244,21.8 L162.548,33.968 L162.548,21.8 L159.74,21.8 L159.74,47 L162.548,47 L162.548,38.54 L164.024,36.056 L169.424,47 Z M180.872,47 L180.872,24.356 L185.516,24.356 L185.516,21.8 L173.456,21.8 L173.456,24.356 L178.1,24.356 L178.1,47 L180.872,47 Z" id="smartcontrakt" fill="#1A5692"></path>
                <path d="M535.761125,36.5484963 C534.187825,35.1984816 532.835833,34.0387547 531.135703,32.5802245 C530.749567,36.0002617 530.427615,38.8520071 530.088719,41.8559827 C532.009132,40.0590488 533.733909,38.4452027 535.761125,36.5484963 M506.545691,36.4070662 C508.411161,38.4441741 510.003974,40.1835073 512.111293,42.4844467 C511.65481,38.7974922 511.298455,35.9179751 510.878943,32.5272525 C509.096143,34.1230984 507.81039,35.2740824 506.545691,36.4070662 M520.589864,58.3997059 C520.35161,59.2884013 520.052251,60.165268 519.885371,61.0668207 C518.466114,68.7230756 517.072531,76.3834448 515.667138,84.0417569 C515.578306,84.5262193 515.61579,85.1634262 515.32208,85.4555437 C514.449678,86.3241817 513.441205,87.055504 512.48562,87.8397983 C511.767262,86.8323016 510.415784,85.8134905 510.433756,84.8198796 C510.545695,78.6118691 510.948263,72.4090015 511.285618,66.2061339 C511.542872,61.4803109 511.958276,56.7591166 512.049676,52.0312365 C512.071755,50.8663667 511.397557,49.373379 510.541587,48.5638844 C507.539273,45.7239677 504.29357,43.1437682 501.18548,40.4133956 C498.084578,37.6897087 497.774436,35.2190532 500.599086,32.3354218 C504.7747,28.0734896 509.186515,24.0429886 513.547495,19.9672298 C514.084594,19.4657958 514.927728,19.2929939 515.989603,18.8013314 C516.85841,21.1809574 517.674842,23.4176103 518.491274,25.653749 C518.81682,25.6558061 519.143393,25.657349 519.468939,25.6594062 C519.468939,24.2065332 519.420672,22.7521173 519.488451,21.3028444 C519.525422,20.5128929 519.5208,19.5023105 519.982418,19.0224767 C520.326449,18.6650442 521.747247,18.7164733 522.042497,19.0934489 C522.454821,19.6211118 522.307966,20.6193512 522.325425,21.4180457 C522.357774,22.8560042 522.335181,24.2955056 522.335181,25.7339784 C522.668429,25.7576358 523.00219,25.7807789 523.335952,25.8044363 C524.108738,23.6171553 524.882038,21.4298744 525.89616,18.5591002 C528.164198,19.9770014 530.511312,21.0030126 532.284357,22.6497734 C535.525952,25.6599205 538.471783,28.9971568 541.458692,32.2731926 C544.201699,35.2823111 544.046115,37.7154233 541.008884,40.384081 C537.975248,43.0501672 534.938018,45.717282 531.797578,48.2532525 C530.407076,49.3759504 530.04456,50.5742492 530.153417,52.3259254 C530.808103,62.8560402 531.370877,73.3923265 531.846872,83.9316985 C531.899247,85.0785682 531.537244,86.5936704 530.781403,87.3512215 C529.397062,88.7398081 527.355982,87.5811097 526.890256,85.1629119 C525.491538,77.9057471 524.183193,70.6310964 522.831202,63.36416 C522.518493,61.6860275 522.171894,60.0140664 521.841214,58.3395338 C521.424268,58.3595912 521.00681,58.3796486 520.589864,58.3997059 Z M547.044783,58.3453968 C546.06147,63.5397391 545.078157,68.7330528 544.095357,73.9268809 C543.399593,77.606121 542.868142,81.3280473 541.909989,84.9373438 C541.61936,86.0343271 540.238614,87.4645713 539.20498,87.6029157 C537.357995,87.8508041 536.911268,86.1721572 536.995992,84.5320822 C537.606519,72.7152105 538.190345,60.896796 538.892784,49.0855815 C538.947727,48.1629429 539.680975,47.1364174 540.373659,46.4266954 C541.675329,45.0910808 543.237333,44.0146691 544.58419,42.7196836 C548.388045,39.0610151 548.604219,34.0039886 545.10229,30.0290309 C542.645292,27.2405434 540.082516,24.5461712 537.316916,21.5380812 C539.269165,20.4673267 540.870707,19.5884029 542.76904,18.5469629 C543.661467,21.1688201 544.440929,23.4594736 545.221417,25.7501272 C545.532073,25.7501272 545.842728,25.7496129 546.153896,25.7490986 C546.153896,24.2134247 546.102548,22.6751794 546.175462,21.1425912 C546.212433,20.3639542 546.23862,19.3466859 546.708454,18.9023382 C547.085348,18.5449058 548.330021,18.6246209 548.804476,19.0000536 C549.21526,19.3245714 549.157237,20.3341253 549.17983,21.0453902 C549.228097,22.5604924 549.194721,24.0786804 549.194721,25.5963541 L550.046583,25.6971552 C550.839909,23.4419877 551.633234,21.1868203 552.565713,18.5361628 C554.613982,19.6897182 556.689465,20.3701257 558.09075,21.7417406 C561.885363,25.4559525 565.513608,29.3609665 568.965216,33.3986677 C570.749043,35.4851476 570.131841,38.1805484 567.840696,40.1965703 C564.808601,42.8647137 561.779073,45.5426286 558.624769,48.0600846 C557.140814,49.2444975 556.691519,50.51994 556.803971,52.3744745 C557.435551,62.806874 557.964435,73.2454449 558.486643,83.6840158 C558.53491,84.6369976 558.573935,85.8003246 558.093318,86.509018 C557.649672,87.1637109 556.185742,87.8785758 555.728232,87.6116586 C554.78343,87.0587955 553.76366,85.9612978 553.553647,84.9286008 C552.060449,77.5906922 550.778805,70.2100975 549.393437,62.8500744 C549.102294,61.3020576 548.659162,59.782841 548.285862,58.2507671 C547.872511,58.2821389 547.458134,58.314025 547.044783,58.3453968 Z M557.598324,32.4467144 C557.232726,35.8929806 556.933882,38.7066684 556.547745,42.3447652 C558.817837,40.0736547 560.430676,38.4608371 562.242745,36.6484745 C560.773167,35.3185172 559.43658,34.1099326 557.598324,32.4467144 Z M489.471783,18.8756465 C490.319538,21.3061873 491.086162,23.5022112 491.852274,25.6982352 C492.146497,25.7141782 492.441234,25.7301212 492.735458,25.7465786 C492.815047,24.3801065 492.874611,23.0120916 492.979874,21.6476767 C493.04714,20.7769815 492.967037,19.7797707 493.381415,19.1029633 C493.572943,18.7897599 495.135461,18.8190745 495.452791,19.2063358 C495.862547,19.7051984 495.681289,20.7183523 495.694126,21.5113895 C495.718773,23.0532349 495.701315,24.5955946 495.701315,26.1384685 C496.044832,26.153383 496.38835,26.1682974 496.732381,26.1837262 C497.508249,23.8113003 498.284116,21.4393887 499.161139,18.7594167 C501.081038,19.7977708 502.676932,20.6602374 504.666151,21.7361348 C502.10697,24.513308 499.773206,27.0040208 497.486169,29.5369056 C493.136485,34.3542724 493.231479,39.6854162 498.326735,43.6212877 C502.011976,46.4684044 503.468717,49.627696 503.520065,54.307747 C503.625328,63.8586511 504.434058,73.4023552 504.950618,82.9486307 C504.987589,83.637781 505.260246,84.4627043 504.980914,84.98831 C504.402736,86.0765505 503.52674,87.0058749 502.772952,88 C501.858959,87.1617051 500.366275,86.4602118 500.129561,85.4609438 C499.018391,80.7700926 498.253821,75.9969549 497.363447,71.253646 C496.709275,67.768808 496.072047,64.2808843 495.379877,60.804275 C495.222752,60.0158664 494.869478,59.2670582 494.606577,58.4997356 L493.776281,58.4930498 C493.41017,59.8240357 492.950092,61.1375358 492.69438,62.4896076 C491.303878,69.8455164 489.946238,77.2081109 488.619921,84.5758484 C488.306185,86.3177531 487.952911,88.1404015 485.740842,87.9480566 C483.382432,87.7428543 483.277682,85.8564338 483.388593,83.93967 C483.986797,73.608586 484.501817,63.2728733 485.164205,52.9464179 C485.295656,50.8938812 484.86382,49.4384368 483.200146,48.1028222 C480.055599,45.5781662 477.075365,42.8447078 474.064835,40.1549642 C472.051483,38.3570017 471.19808,35.8215455 472.941856,33.8312381 C477.44507,28.6908964 481.278707,22.7729461 487.699253,19.6090259 C488.133656,19.3950807 488.594247,19.236679 489.471783,18.8756465 Z M480.229668,36.2792648 C481.975498,38.2999154 483.45894,40.0171341 484.941868,41.7338385 C485.110803,41.6402375 485.279224,41.5466365 485.448159,41.4530355 C485.135964,38.655805 484.823768,35.8590888 484.436605,32.388651 C482.55727,34.1264413 481.288976,35.2995398 480.229668,36.2792648 Z M501.656392,8.47765317 C500.623785,10.731792 500.008636,13.3711351 498.412229,15.1058397 C497.339571,16.2712238 494.816333,16.7058 493.052532,16.5031692 C489.080769,16.0469928 487.138276,11.1648253 488.247392,5.33327604 C488.977559,1.49614849 491.89977,-0.522444938 495.799646,0.116819173 C499.298494,0.689739704 501.086943,3.45251268 501.656392,8.47765317 Z M541.0514,8.75465047 C541.0514,3.1360178 543.004676,0.429816871 546.764885,0.0651843248 C550.589793,-0.3066483 553.3595,1.69703068 553.8052,5.51718661 C554.040887,7.53218 553.947434,9.66288894 553.560784,11.6557678 C552.919449,14.9631753 550.655005,16.721023 547.610072,16.7426233 C544.534844,16.7642235 542.424958,15.0860909 541.543314,11.7694262 C541.217768,10.5448986 541.129963,9.25814168 541.0514,8.75465047 Z M527.662067,7.99499076 C527.620988,8.63528346 527.62561,9.42934926 527.511617,10.2059291 C526.90109,14.3603744 524.623809,16.6901141 521.164499,16.7441147 C517.729322,16.7970867 515.529577,14.8288938 514.815327,10.6533626 C514.524184,8.94900116 514.581694,7.10115245 514.892349,5.39319097 C515.573736,1.64503583 517.886447,-0.109726153 521.48491,0.0419897863 C524.893386,0.184962773 527.139858,2.41030132 527.557317,6.07668414 C527.624069,6.66297624 527.623556,7.25646843 527.662067,7.99499076 Z" id="Combined-Shape" fill="#1A5692"></path>
                <path d="M668.712028,508.472891 C668.712028,509.527757 668.543318,510.580993 668.433008,511.877157 L594.275317,511.877157 L594.275317,507.238682 C594.275317,476.82039 594.333717,446.403729 594.197451,415.985437 C594.181229,412.321938 595.066956,411.149684 598.877526,411.182292 C620.764378,411.366527 642.652853,411.315984 664.541327,411.221421 C667.498615,411.208378 668.819094,411.721953 668.804494,415.183283 C668.668228,446.279819 668.726628,477.376355 668.712028,508.472891 M638.890949,525.438788 C636.451145,525.975189 633.810188,525.593676 631.253586,525.593676 C631.253586,525.588785 631.251963,525.583894 631.251963,525.579002 C628.830005,525.579002 626.312335,525.978449 624.023397,525.420854 C622.753207,525.112709 621.025554,523.193734 621.043398,522.02474 C621.061243,520.837812 622.907317,518.760688 624.070441,518.672646 C629.023047,518.300916 634.037297,518.305807 638.988281,518.690581 C640.131939,518.780253 641.955303,520.916071 641.945569,522.096477 C641.934214,523.271993 640.16925,525.15673 638.890949,525.438788 M631.423918,400.188534 C632.478354,400.027125 633.795588,401.587414 635.964482,403.036835 C633.892921,404.557994 632.68113,406.137848 631.616961,406.043285 C630.486281,405.94057 628.664539,404.246589 628.669406,403.256939 C628.675895,402.159682 630.302971,400.361356 631.423918,400.188534 M674.957535,413.805599 C675.038646,430.375309 674.978624,446.94502 674.978624,463.514731 C674.980246,479.812166 675.002957,496.109601 674.972135,512.408666 C674.947802,525.262706 668.238343,531.978305 655.458575,531.986457 C639.242968,531.9995 623.025739,532.010913 606.810131,531.981566 C595.101022,531.962001 588.063877,525.040972 588.042788,513.308645 C587.986011,480.169223 587.986011,447.029801 588.041166,413.892009 C588.062254,402.185769 595.199977,395.049527 606.725776,395.025071 C623.212293,394.990833 639.698809,394.992463 656.183703,395.025071 C667.741947,395.046266 674.899136,402.14827 674.957535,413.805599 Z M637.252355,462.790836 C631.019825,464.090261 625.514046,461.590864 622.710868,455.939913 C622.292338,455.095368 622.079828,454.061697 621.461766,453.420952 C619.245828,451.125355 619.195539,451.174267 621.194102,449.111816 C620.468974,447.778153 616.965001,446.578181 621.174635,445.011371 C622.160939,444.644532 622.670312,442.90653 623.337041,441.763623 C626.841013,435.757245 633.639694,433.764902 640.274531,436.976781 C640.0166,438.078929 639.747313,439.228358 639.445582,440.519631 C635.58959,440.88647 630.770005,438.809346 628.76171,445.070065 C630.633739,445.153216 632.199172,445.04887 633.691605,445.33419 C635.321925,445.647225 636.882491,446.320579 638.475501,446.835784 C636.824091,447.282512 635.197015,447.911845 633.516406,448.123796 C631.743331,448.347161 629.918345,448.174339 628.117692,448.174339 C628.103092,448.824867 628.090115,449.475394 628.075515,450.125922 C630.534785,450.125922 633.003788,450.003643 635.45008,450.184617 C636.475316,450.259615 637.455131,450.976989 638.456034,451.402522 C637.438909,451.945444 636.463961,452.832379 635.396547,452.95955 C633.318496,453.20737 631.188535,453.032918 628.954752,453.032918 C630.147077,457.806716 632.007751,458.566481 639.301205,457.560526 C641.210546,460.54089 640.620062,462.088135 637.252355,462.790836 Z M662.010518,450.07538 C659.046741,447.56294 656.691293,445.567336 654.210934,443.464126 C655.7715,440.508218 657.242844,437.725133 658.848831,434.684445 C657.606219,434.413799 656.971935,434.214891 656.323051,434.141523 C648.443979,433.267631 648.45209,433.270892 647.580963,425.585207 C647.509586,424.957505 647.241922,424.352628 646.825014,422.903206 C640.498396,428.585135 635.889699,426.70855 632.470081,420.11523 C632.380859,419.945669 632.023973,419.916321 631.608687,419.748391 C629.712324,422.267352 627.790006,424.823812 625.866065,427.378642 C622.691401,425.862374 619.857401,424.507516 616.518893,422.911358 C616.226896,426.827569 615.990053,429.997058 615.741855,433.316543 C612.132439,433.626318 608.941552,433.900225 605.50409,434.195326 C605.779866,435.219215 605.92262,435.995283 606.193529,436.7257 C608.894508,444.008678 608.900997,444.008678 602.541935,448.492266 C602.220738,448.718891 601.84763,448.870518 601.137102,449.25203 C603.958124,451.594909 607.677851,453.197588 608.294291,455.604052 C608.956152,458.180077 606.696414,461.514236 605.656578,464.683725 C606.72237,464.832091 607.635674,464.988609 608.557089,465.086433 C615.629923,465.844567 615.621812,465.841306 616.066297,473.134066 C616.121452,474.021001 616.358295,474.896523 616.590271,476.2416 C618.869475,475.227494 620.903726,474.534576 622.718979,473.463406 C625.007916,472.110177 626.579838,472.322129 628.043071,474.67805 C629.222417,476.579092 630.778116,478.245356 632.366259,480.271938 C633.316874,479.021424 633.991713,478.209487 634.585442,477.342117 C638.134837,472.159089 638.123481,472.167241 643.807704,474.751418 C644.719386,475.165539 645.708933,475.401946 647.014812,475.837262 C647.400898,472.258543 647.741562,469.092315 648.082226,465.934238 C651.60891,465.723917 654.754374,465.536422 659.087296,465.275559 C652.316193,458.209424 656.404161,453.857898 662.010518,450.07538 Z M603.962991,490.083985 C606.152974,488.311745 655.479502,488.008491 659.02403,489.744863 C656.879469,491.393193 607.598363,491.696446 603.962991,490.083985 Z M609.930614,497.55136 L653.083012,497.55136 C653.084634,497.210607 653.084634,496.869855 653.086256,496.527472 L609.933858,496.527472 C609.932236,496.869855 609.930614,497.210607 609.930614,497.55136 Z" id="Combined-Shape" fill="#1A5692"></path>
                <path d="M505.639497,116.376137 L420.390909,201.624726" id="Line-2" stroke="#979797" stroke-width="6" stroke-linecap="square"></path>
                <path id="Line-2-decoration-1" d="M420.390909,201.624726 L430.148983,196.109293 L425.906342,191.866652 L420.390909,201.624726 Z" stroke="#979797" stroke-width="6" stroke-linecap="square"></path>
                <path d="M256.616846,371.383154 L187.737937,440.262063" id="Line-3" stroke="#979797" stroke-width="6" stroke-linecap="square"></path>
                <path id="Line-3-decoration-1" d="M187.737937,440.262063 L197.49601,434.746631 L193.253369,430.50399 L187.737937,440.262063 Z" stroke="#979797" stroke-width="6" stroke-linecap="square"></path>
                <path d="M85.0085648,364.218011 L85.0085648,239.770874" id="Line-3-Copy-4" stroke="#979797" stroke-width="6" stroke-linecap="square"></path>
                <path id="Line-3-Copy-4-decoration-1" d="M85.0085648,239.770874 L82.0085648,250.570874 L88.0085648,250.570874 L85.0085648,239.770874 Z" stroke="#979797" stroke-width="6" stroke-linecap="square"></path>
                <path d="M180.394439,160.374169 L250.628586,230.608316" id="Line-3-Copy-5" stroke="#979797" stroke-width="6" stroke-linecap="square"></path>
                <path id="Line-3-Copy-5-decoration-1" d="M250.628586,230.608316 L245.113153,220.850242 L240.870512,225.092883 L250.628586,230.608316 Z" stroke="#979797" stroke-width="6" stroke-linecap="square"></path>
                <path d="M521,444 L443,367" id="Line-3-Copy-3" stroke="#979797" stroke-width="6" stroke-linecap="square"></path>
                <path id="Line-3-Copy-3-decoration-1" d="M443,367 L448.578272,376.722288 L452.793453,372.452364 L443,367 Z" stroke="#979797" stroke-width="6" stroke-linecap="square"></path>
                <path d="M549.666667,340.225944 L549.666667,197" id="Line-3-Copy" stroke="#979797" stroke-width="6" stroke-linecap="square"></path>
                <path id="Line-3-Copy-decoration-1" d="M549.666667,197 L546.666667,207.8 L552.666667,207.8 L549.666667,197 Z" stroke="#979797" stroke-width="6" stroke-linecap="square"></path>
                <path d="M268.781024,493 L428.607317,493" id="Line-3-Copy-2" stroke="#979797" stroke-width="6" stroke-linecap="square"></path>
                <path id="Line-3-Copy-2-decoration-1" d="M428.607317,493 L417.807317,490 L417.807317,496 L428.607317,493 Z" stroke="#979797" stroke-width="6" stroke-linecap="square"></path>
                <rect id="Rectangle-4-Copy-2" fill="#FFFFFF" transform="translate(550.500000, 272.000000) rotate(56.000000) translate(-550.500000, -272.000000) " x="532" y="250" width="37" height="44"></rect>
                <rect id="Rectangle-4-Copy" fill="#FFFFFF" transform="translate(224.500000, 403.000000) rotate(-42.000000) translate(-224.500000, -403.000000) " x="206" y="381" width="37" height="44"></rect>
                <g id="Group-5" transform="translate(447.000000, 131.000000)">
                    <rect id="Rectangle-4" fill="#FFFFFF" x="0" y="4.86666667" width="37" height="54.1333333"></rect>
                    <path d="M21.5226064,42.6505208 C22.7569876,42.4942701 23.6554161,42.2130229 24.2179189,41.8067708 C25.2022988,41.0880172 25.6944814,39.8458422 25.6944814,38.0802083 C25.6944814,36.7364516 25.2335485,35.6739622 24.3116689,34.8927083 C23.7647911,34.4395811 22.8351129,33.9708358 21.5226064,33.4864583 L21.5226064,42.6505208 Z M19.2960439,18.1583333 C17.9366621,18.1895835 16.9288597,18.5528611 16.2726064,19.2481771 C15.6163531,19.9434931 15.2882314,20.8927023 15.2882314,22.0958333 C15.2882314,23.4083399 15.780414,24.447392 16.7647939,25.2130208 C17.3116716,25.6348979 18.1554132,26.025519 19.2960439,26.3848958 L19.2960439,18.1583333 Z M21.5694814,52.5880208 L19.2960439,52.5880208 L19.2960439,47.9239583 C16.2179035,47.5802066 13.9210515,46.9083383 12.4054189,45.9083333 C9.73353052,44.1114493 8.42104365,41.04898 8.46791888,36.7208333 L14.7960439,36.7208333 C15.014795,38.6895932 15.3194794,40.0098925 15.7101064,40.6817708 C16.3194844,41.7286511 17.514785,42.4083318 19.2960439,42.7208333 L19.2960439,32.7130208 L17.3976064,32.1505208 C14.4132165,31.2755165 12.3077688,30.0567786 11.0812001,28.4942708 C9.8546315,26.931763 9.24135638,25.0489693 9.24135638,22.8458333 C9.24135638,21.3927011 9.47963525,20.0724018 9.95620013,18.8848958 C10.432765,17.6973899 11.1007271,16.6739626 11.9601064,15.8145833 C13.0694869,14.7052028 14.3038496,13.9395854 15.6632314,13.5177083 C16.4913605,13.252082 17.7022859,13.0567715 19.2960439,12.9317708 L19.2960439,9.81458333 L21.5226064,9.81458333 L21.5226064,12.9786458 C24.0694941,13.1817718 26.0694741,13.8067656 27.5226064,14.8536458 C30.1632446,16.5255292 31.5304184,19.2364396 31.6241689,22.9864583 L25.4601064,22.9864583 C25.3351058,21.5958264 25.1007331,20.5802115 24.7569814,19.9395833 C24.1632284,18.8302028 23.0851142,18.2208339 21.5226064,18.1114583 L21.5226064,27.0411458 C25.241375,28.3224022 27.74135,29.4552034 29.0226064,30.4395833 C31.1319919,32.0802165 32.1866689,34.3926934 32.1866689,37.3770833 C32.1866689,41.314603 30.7413708,44.1739494 27.8507314,45.9552083 C26.0850976,47.0489638 23.9913685,47.6895824 21.5694814,47.8770833 L21.5694814,52.5880208 Z" id="$" fill="#1A5692"></path>
                </g>
                <g id="Group-5-Copy" transform="translate(67.000000, 279.000000)">
                    <rect id="Rectangle-4" fill="#FFFFFF" x="0" y="4.86666667" width="37" height="54.1333333"></rect>
                    <path d="M21.5226064,42.6505208 C22.7569876,42.4942701 23.6554161,42.2130229 24.2179189,41.8067708 C25.2022988,41.0880172 25.6944814,39.8458422 25.6944814,38.0802083 C25.6944814,36.7364516 25.2335485,35.6739622 24.3116689,34.8927083 C23.7647911,34.4395811 22.8351129,33.9708358 21.5226064,33.4864583 L21.5226064,42.6505208 Z M19.2960439,18.1583333 C17.9366621,18.1895835 16.9288597,18.5528611 16.2726064,19.2481771 C15.6163531,19.9434931 15.2882314,20.8927023 15.2882314,22.0958333 C15.2882314,23.4083399 15.780414,24.447392 16.7647939,25.2130208 C17.3116716,25.6348979 18.1554132,26.025519 19.2960439,26.3848958 L19.2960439,18.1583333 Z M21.5694814,52.5880208 L19.2960439,52.5880208 L19.2960439,47.9239583 C16.2179035,47.5802066 13.9210515,46.9083383 12.4054189,45.9083333 C9.73353052,44.1114493 8.42104365,41.04898 8.46791888,36.7208333 L14.7960439,36.7208333 C15.014795,38.6895932 15.3194794,40.0098925 15.7101064,40.6817708 C16.3194844,41.7286511 17.514785,42.4083318 19.2960439,42.7208333 L19.2960439,32.7130208 L17.3976064,32.1505208 C14.4132165,31.2755165 12.3077688,30.0567786 11.0812001,28.4942708 C9.8546315,26.931763 9.24135638,25.0489693 9.24135638,22.8458333 C9.24135638,21.3927011 9.47963525,20.0724018 9.95620013,18.8848958 C10.432765,17.6973899 11.1007271,16.6739626 11.9601064,15.8145833 C13.0694869,14.7052028 14.3038496,13.9395854 15.6632314,13.5177083 C16.4913605,13.252082 17.7022859,13.0567715 19.2960439,12.9317708 L19.2960439,9.81458333 L21.5226064,9.81458333 L21.5226064,12.9786458 C24.0694941,13.1817718 26.0694741,13.8067656 27.5226064,14.8536458 C30.1632446,16.5255292 31.5304184,19.2364396 31.6241689,22.9864583 L25.4601064,22.9864583 C25.3351058,21.5958264 25.1007331,20.5802115 24.7569814,19.9395833 C24.1632284,18.8302028 23.0851142,18.2208339 21.5226064,18.1114583 L21.5226064,27.0411458 C25.241375,28.3224022 27.74135,29.4552034 29.0226064,30.4395833 C31.1319919,32.0802165 32.1866689,34.3926934 32.1866689,37.3770833 C32.1866689,41.314603 30.7413708,44.1739494 27.8507314,45.9552083 C26.0850976,47.0489638 23.9913685,47.6895824 21.5694814,47.8770833 L21.5694814,52.5880208 Z" id="$" fill="#1A5692"></path>
                </g>
                <path d="M553.4375,285.617188 C554.671881,285.460937 555.57031,285.17969 556.132812,284.773438 C557.117192,284.054684 557.609375,282.812509 557.609375,281.046875 C557.609375,279.703118 557.148442,278.640629 556.226562,277.859375 C555.679685,277.406248 554.750007,276.937502 553.4375,276.453125 L553.4375,285.617188 Z M551.210937,261.125 C549.851556,261.15625 548.843753,261.519528 548.1875,262.214844 C547.531247,262.91016 547.203125,263.859369 547.203125,265.0625 C547.203125,266.375007 547.695308,267.414059 548.679687,268.179688 C549.226565,268.601565 550.070307,268.992186 551.210937,269.351562 L551.210937,261.125 Z M553.484375,295.554688 L551.210937,295.554688 L551.210937,290.890625 C548.132797,290.546873 545.835945,289.875005 544.320312,288.875 C541.648424,287.078116 540.335937,284.015647 540.382812,279.6875 L546.710937,279.6875 C546.929689,281.65626 547.234373,282.976559 547.625,283.648438 C548.234378,284.695318 549.429679,285.374998 551.210937,285.6875 L551.210937,275.679688 L549.3125,275.117188 C546.32811,274.242183 544.222662,273.023445 542.996094,271.460938 C541.769525,269.89843 541.15625,268.015636 541.15625,265.8125 C541.15625,264.359368 541.394529,263.039068 541.871094,261.851562 C542.347659,260.664057 543.015621,259.640629 543.875,258.78125 C544.984381,257.671869 546.218743,256.906252 547.578125,256.484375 C548.406254,256.218749 549.61718,256.023438 551.210937,255.898438 L551.210937,252.78125 L553.4375,252.78125 L553.4375,255.945312 C555.984388,256.148439 557.984368,256.773432 559.4375,257.820312 C562.078138,259.492196 563.445312,262.203106 563.539062,265.953125 L557.375,265.953125 C557.249999,264.562493 557.015627,263.546878 556.671875,262.90625 C556.078122,261.796869 555.000008,261.187501 553.4375,261.078125 L553.4375,270.007812 C557.156269,271.289069 559.656244,272.42187 560.9375,273.40625 C563.046886,275.046883 564.101562,277.35936 564.101562,280.34375 C564.101562,284.28127 562.656264,287.140616 559.765625,288.921875 C557.999991,290.01563 555.906262,290.656249 553.484375,290.84375 L553.484375,295.554688 Z" id="$-copy-2" fill="#1A5692"></path>
                <g id="Group-2" transform="translate(321.000000, 423.000000)" fill="#1A5692">
                    <path d="M49.6154502,24.3587714 C45.1017054,24.3566811 40.5879606,24.3565204 36.0740501,24.3587714 C34.6040426,24.3595753 33.7861936,25.152421 33.7860279,26.5663906 C33.7855308,30.9333927 33.7858622,35.300234 33.7858622,39.6670752 C33.7858622,44.0472619 33.7853651,48.4274486 33.7861936,52.8077961 C33.7863592,54.1654899 34.6250853,54.9954776 36.018378,54.9966031 C40.5597932,55.0009444 45.1012083,55.0014267 49.6424577,54.9962815 C51.0155362,54.9949952 51.8564162,54.1648468 51.8565819,52.832879 C51.8572447,44.0725056 51.8574104,35.3121323 51.8565819,26.5515981 C51.8564162,25.1244438 51.0765103,24.3594145 49.6154502,24.3587714" id="Fill-1"></path>
                    <path d="M18.9339211,24.3591544 C14.4207092,24.3567426 9.90733157,24.3560994 5.39395394,24.359476 C3.96256373,24.3604407 3.14339563,25.1671252 3.14322994,26.5603723 C3.14273288,35.3067165 3.14273288,44.0530606 3.14322994,52.7992439 C3.14339563,54.1830044 3.97631595,54.9969245 5.40472375,54.9978892 C9.91793568,55.0007834 14.4313133,55.0006226 18.9445252,54.9978892 C20.3711105,54.9970852 21.2136408,54.1786631 21.2138064,52.8043892 C21.2146349,48.4244639 21.2141378,44.0446995 21.2141378,39.6647742 C21.2141378,35.2983554 21.2144692,30.9319365 21.2139721,26.5655176 C21.2138064,25.1394693 20.4125328,24.3599584 18.9339211,24.3591544" id="Fill-3"></path>
                    <path d="M31.4223856,15.3649434 C31.3664087,14.1419293 30.5960301,13.3630718 29.4307204,13.3594991 C28.1811361,13.3556016 26.9315517,13.3573879 25.6819674,13.3588495 C24.3420777,13.3604735 23.5718538,14.1685625 23.5716992,15.5726496 C23.5715445,21.7690811 23.5715445,27.9655126 23.5715445,34.1619441 C23.5715445,40.3853335 23.5710806,46.608723 23.5720084,52.8321124 C23.5723177,54.126419 24.3601697,54.9804664 25.5854768,54.992971 C26.8607301,55.0058004 28.1361381,54.9976805 29.411546,54.9949197 C29.9611095,54.9936206 30.4471191,54.8169323 30.8480809,54.4060671 C31.2946592,53.9482691 31.4288802,53.3837761 31.4285709,52.7460419 C31.4239319,40.3804616 31.425169,28.0147189 31.4250144,15.6489763 C31.4250144,15.5542987 31.4267153,15.4594586 31.4223856,15.3649434" id="Fill-5"></path>
                    <path d="M18.9636099,21.9954298 C20.3576137,21.9878748 21.2094415,21.1147784 21.2117196,19.7074113 C21.2141603,18.3391332 21.2174147,16.9710193 21.2078143,15.6029054 C21.2058617,15.3324032 21.1874746,15.0499115 21.1083937,14.7945193 C20.8179424,13.8580265 20.0626062,13.3631733 18.9387141,13.3612024 C16.1733245,13.356111 13.4079348,13.35956 10.6427079,13.35956 C7.86381271,13.35956 5.08508021,13.3524977 2.306185,13.3625163 C0.797302496,13.3679362 0.00421575993,14.1874906 0.00161227455,15.7078544 C-0.000828493004,16.9940128 -0.000177621657,18.2801712 0.00144955671,19.5661654 C0.00340217075,21.163229 0.830171499,21.9970722 2.41243974,21.9974007 C6.31636608,21.9982219 10.2204551,21.9977291 14.1243815,21.9977291 C15.7374034,21.9977291 17.350588,22.0041345 18.9636099,21.9954298" id="Fill-7"></path>
                    <path d="M54.9926698,15.6739098 C54.9907172,15.3898855 54.9746077,15.0938695 54.894874,14.8246296 C54.6112497,13.8643024 53.8524775,13.3621265 52.7095189,13.3604838 C49.9440602,13.356377 47.1784389,13.3591696 44.4128175,13.3593339 C41.6336902,13.3594982 38.8545629,13.3527631 36.0755983,13.3621265 C34.5884829,13.3672189 33.790332,14.1866018 33.7877284,15.6778523 C33.7851249,17.0053248 33.7849622,18.3329616 33.7877284,19.6604341 C33.7906574,21.1280296 34.6361604,21.9963652 36.0806427,21.9973508 C41.6253914,22.0009647 47.17014,22.0008005 52.714726,21.9973508 C54.1374035,21.9965294 54.9899036,21.133122 54.9959243,19.6975593 C55.0012941,18.356288 55.0024332,17.015181 54.9926698,15.6739098" id="Fill-10"></path>
                    <path d="M32.6524017,9.53788349 C32.6499713,9.58875311 32.6475409,9.63946175 32.6451104,9.69033137 C31.6277382,9.5848896 30.6037227,9.52178551 29.5947759,9.36370334 C28.1567796,9.13833161 27.8808463,8.51920327 28.6511262,7.28368324 C29.6866456,5.62237162 31.1353358,4.36045091 32.7572337,3.2954085 C33.337293,2.91469125 33.9727659,2.60239042 34.6145578,2.3330712 C36.5371792,1.52624041 39.0975418,3.01981107 39.4156023,5.27562112 C39.7333387,7.53014333 38.0955621,9.46640846 35.8056239,9.53273214 C34.7553599,9.56315732 33.7034758,9.53788349 32.6524017,9.53788349 M25.4327689,9.10983818 C24.8172255,9.2954479 24.1817526,9.45739359 23.5440114,9.51969277 C22.5520774,9.61644164 21.5509079,9.62046613 20.5537891,9.6637697 C20.553141,9.64718878 20.5524929,9.63076884 20.5520068,9.6143489 C19.8094336,9.6143489 19.0657262,9.63994469 18.3246112,9.60919755 C16.5555922,9.53579075 14.9816546,8.04157618 14.8011557,6.29430134 C14.6138516,4.48295654 15.7820717,2.79685403 17.5374804,2.33355414 C18.335143,2.12315353 19.1123902,2.14343699 19.8664674,2.49710963 C22.2024215,3.59209428 24.096526,5.20350216 25.5445681,7.32618191 C25.7155074,7.57666649 25.8323294,7.87335228 25.9253333,8.16408181 C26.0936801,8.69016382 25.9836633,8.943868 25.4327689,9.10983818 M41.6237165,5.38766306 C41.3727355,2.36059875 38.4753552,-0.194311782 35.4277751,0.0120643319 C34.2495093,0.0919103167 33.2126937,0.561810376 32.2178433,1.13860103 C30.2253879,2.29379213 28.5159951,3.77190873 27.1099182,5.66808989 C26.9893696,5.5212763 26.8960416,5.41036121 26.8054681,5.29703143 C25.1863247,3.26997369 23.2262749,1.66468304 20.8608317,0.564064094 C18.9540891,-0.323095628 17.1060005,-0.138934728 15.346217,0.941883703 C13.1082897,2.31649028 12.1035555,4.90150404 12.7787252,7.42872605 C13.4161424,9.8152517 15.7104554,11.6335186 18.2452176,11.7215746 C19.6472438,11.7703515 21.0525106,11.8075378 22.4543747,11.7709954 C24.0074107,11.7304285 25.5546138,11.5881223 26.9405992,10.7664814 C27.0075167,10.7267194 27.1486429,10.7492565 27.2238237,10.7944919 C28.1946941,11.3788486 29.2681279,11.6566997 30.3796384,11.6914714 C32.2118482,11.7487802 34.0489189,11.7777565 35.8808047,11.7178721 C39.3459303,11.6050252 41.8900902,8.60178591 41.6237165,5.38766306" id="Fill-13"></path>
                </g>
                <path d="M227.4375,413.617188 C228.671881,413.460937 229.57031,413.17969 230.132812,412.773438 C231.117192,412.054684 231.609375,410.812509 231.609375,409.046875 C231.609375,407.703118 231.148442,406.640629 230.226562,405.859375 C229.679685,405.406248 228.750007,404.937502 227.4375,404.453125 L227.4375,413.617188 Z M225.210937,389.125 C223.851556,389.15625 222.843753,389.519528 222.1875,390.214844 C221.531247,390.91016 221.203125,391.859369 221.203125,393.0625 C221.203125,394.375007 221.695308,395.414059 222.679687,396.179688 C223.226565,396.601565 224.070307,396.992186 225.210937,397.351562 L225.210937,389.125 Z M227.484375,423.554688 L225.210937,423.554688 L225.210937,418.890625 C222.132797,418.546873 219.835945,417.875005 218.320312,416.875 C215.648424,415.078116 214.335937,412.015647 214.382812,407.6875 L220.710937,407.6875 C220.929689,409.65626 221.234373,410.976559 221.625,411.648438 C222.234378,412.695318 223.429679,413.374998 225.210937,413.6875 L225.210937,403.679688 L223.3125,403.117188 C220.32811,402.242183 218.222662,401.023445 216.996094,399.460938 C215.769525,397.89843 215.15625,396.015636 215.15625,393.8125 C215.15625,392.359368 215.394529,391.039068 215.871094,389.851562 C216.347659,388.664057 217.015621,387.640629 217.875,386.78125 C218.984381,385.671869 220.218743,384.906252 221.578125,384.484375 C222.406254,384.218749 223.61718,384.023438 225.210937,383.898438 L225.210937,380.78125 L227.4375,380.78125 L227.4375,383.945312 C229.984388,384.148439 231.984368,384.773432 233.4375,385.820312 C236.078138,387.492196 237.445312,390.203106 237.539062,393.953125 L231.375,393.953125 C231.249999,392.562493 231.015627,391.546878 230.671875,390.90625 C230.078122,389.796869 229.000008,389.187501 227.4375,389.078125 L227.4375,398.007812 C231.156269,399.289069 233.656244,400.42187 234.9375,401.40625 C237.046886,403.046883 238.101562,405.35936 238.101562,408.34375 C238.101562,412.28127 236.656264,415.140616 233.765625,416.921875 C231.999991,418.01563 229.906262,418.656249 227.484375,418.84375 L227.484375,423.554688 Z" id="$-copy" fill="#1A5692"></path>
                <g id="Group-6" transform="translate(455.000000, 371.000000)">
                    <rect id="Rectangle-4-Copy-3" fill="#FFFFFF" transform="translate(28.500000, 32.000000) rotate(-42.000000) translate(-28.500000, -32.000000) " x="10.1506849" y="10.0540541" width="36.6986301" height="43.8918919"></rect>
                    <path d="M30.8347603,43.2658361 C32.0691414,43.1095854 32.96757,42.8283382 33.5300728,42.4220861 C34.5144527,41.7033326 35.0066353,40.4611575 35.0066353,38.6955236 C35.0066353,37.3517669 34.5457024,36.2892776 33.6238228,35.5080236 C33.076945,35.0548964 32.1472668,34.5861511 30.8347603,34.1017736 L30.8347603,43.2658361 Z M28.6081978,18.7736486 C27.248816,18.8048988 26.2410136,19.1681764 25.5847603,19.8634924 C24.928507,20.5588084 24.6003853,21.5080176 24.6003853,22.7111486 C24.6003853,24.0236552 25.0925679,25.0627073 26.0769478,25.8283361 C26.6238255,26.2502133 27.4675671,26.6408344 28.6081978,27.0002111 L28.6081978,18.7736486 Z M30.8816353,53.2033361 L28.6081978,53.2033361 L28.6081978,48.5392736 C25.5300574,48.1955219 23.2332054,47.5236536 21.7175728,46.5236486 C19.0456844,44.7267647 17.7331975,41.6642953 17.7800728,37.3361486 L24.1081978,37.3361486 C24.3269489,39.3049085 24.6316333,40.6252078 25.0222603,41.2970861 C25.6316383,42.3439664 26.8269389,43.0236471 28.6081978,43.3361486 L28.6081978,33.3283361 L26.7097603,32.7658361 C23.7253704,31.8908318 21.6199227,30.672094 20.393354,29.1095861 C19.1667854,27.5470783 18.5535103,25.6642847 18.5535103,23.4611486 C18.5535103,22.0080164 18.7917891,20.6877171 19.268354,19.5002111 C19.7449189,18.3127052 20.412881,17.2892779 21.2722603,16.4298986 C22.3816408,15.3205181 23.6160035,14.5549008 24.9753853,14.1330236 C25.8035144,13.8673973 27.0144398,13.6720868 28.6081978,13.5470861 L28.6081978,10.4298986 L30.8347603,10.4298986 L30.8347603,13.5939611 C33.381648,13.7970872 35.381628,14.4220809 36.8347603,15.4689611 C39.4753985,17.1408445 40.8425723,19.8517549 40.9363228,23.6017736 L34.7722603,23.6017736 C34.6472596,22.2111417 34.412887,21.1955269 34.0691353,20.5548986 C33.4753823,19.4455181 32.3972681,18.8361492 30.8347603,18.7267736 L30.8347603,27.6564611 C34.5535289,28.9377176 37.0535039,30.0705187 38.3347603,31.0548986 C40.4441458,32.6955319 41.4988228,35.0080087 41.4988228,37.9923986 C41.4988228,41.9299183 40.0535247,44.7892647 37.1628853,46.5705236 C35.3972514,47.6642791 33.3035224,48.3048977 30.8816353,48.4923986 L30.8816353,53.2033361 Z" id="$-copy-3" fill="#1A5692"></path>
                </g>
                <g id="Group-6-Copy" transform="translate(186.000000, 161.000000)">
                    <rect id="Rectangle-4-Copy-3" fill="#FFFFFF" transform="translate(28.500000, 32.000000) rotate(-42.000000) translate(-28.500000, -32.000000) " x="10.1506849" y="10.0540541" width="36.6986301" height="43.8918919"></rect>
                    <path d="M30.8347603,43.2658361 C32.0691414,43.1095854 32.96757,42.8283382 33.5300728,42.4220861 C34.5144527,41.7033326 35.0066353,40.4611575 35.0066353,38.6955236 C35.0066353,37.3517669 34.5457024,36.2892776 33.6238228,35.5080236 C33.076945,35.0548964 32.1472668,34.5861511 30.8347603,34.1017736 L30.8347603,43.2658361 Z M28.6081978,18.7736486 C27.248816,18.8048988 26.2410136,19.1681764 25.5847603,19.8634924 C24.928507,20.5588084 24.6003853,21.5080176 24.6003853,22.7111486 C24.6003853,24.0236552 25.0925679,25.0627073 26.0769478,25.8283361 C26.6238255,26.2502133 27.4675671,26.6408344 28.6081978,27.0002111 L28.6081978,18.7736486 Z M30.8816353,53.2033361 L28.6081978,53.2033361 L28.6081978,48.5392736 C25.5300574,48.1955219 23.2332054,47.5236536 21.7175728,46.5236486 C19.0456844,44.7267647 17.7331975,41.6642953 17.7800728,37.3361486 L24.1081978,37.3361486 C24.3269489,39.3049085 24.6316333,40.6252078 25.0222603,41.2970861 C25.6316383,42.3439664 26.8269389,43.0236471 28.6081978,43.3361486 L28.6081978,33.3283361 L26.7097603,32.7658361 C23.7253704,31.8908318 21.6199227,30.672094 20.393354,29.1095861 C19.1667854,27.5470783 18.5535103,25.6642847 18.5535103,23.4611486 C18.5535103,22.0080164 18.7917891,20.6877171 19.268354,19.5002111 C19.7449189,18.3127052 20.412881,17.2892779 21.2722603,16.4298986 C22.3816408,15.3205181 23.6160035,14.5549008 24.9753853,14.1330236 C25.8035144,13.8673973 27.0144398,13.6720868 28.6081978,13.5470861 L28.6081978,10.4298986 L30.8347603,10.4298986 L30.8347603,13.5939611 C33.381648,13.7970872 35.381628,14.4220809 36.8347603,15.4689611 C39.4753985,17.1408445 40.8425723,19.8517549 40.9363228,23.6017736 L34.7722603,23.6017736 C34.6472596,22.2111417 34.412887,21.1955269 34.0691353,20.5548986 C33.4753823,19.4455181 32.3972681,18.8361492 30.8347603,18.7267736 L30.8347603,27.6564611 C34.5535289,28.9377176 37.0535039,30.0705187 38.3347603,31.0548986 C40.4441458,32.6955319 41.4988228,35.0080087 41.4988228,37.9923986 C41.4988228,41.9299183 40.0535247,44.7892647 37.1628853,46.5705236 C35.3972514,47.6642791 33.3035224,48.3048977 30.8816353,48.4923986 L30.8816353,53.2033361 Z" id="$-copy-3" fill="#1A5692"></path>
                </g>
                <path d="M125.326255,98.187772 C126.463025,99.3217288 127.001469,100.627138 126.999997,102.260134 C126.978891,126.672567 126.987235,151.085 126.982327,175.497433 C126.981836,178.674488 125.231034,180.505124 122.102953,180.544158 C119.118196,180.581216 116.131475,180.590109 113.147699,180.514018 C111.060185,180.46115 109.407059,179.097437 109.00703,177.301388 C108.495581,175.008275 109.193055,172.970118 111.182894,172.07234 C112.315246,171.560948 113.710685,171.534761 114.994705,171.489304 C117.941177,171.384555 117.778221,171.872725 117.778221,168.695175 C117.777239,147.575911 117.769877,126.456646 117.797363,105.337876 C117.799327,104.143145 117.485684,103.272049 116.61151,102.41874 C113.183039,99.0731971 109.82034,95.6579862 106.467458,92.2348698 C105.782746,91.53572 105.059257,91.2422253 104.086916,91.2437076 C89.3236322,91.2649539 74.5603479,91.2684126 59.7970636,91.2387667 C58.6524403,91.2362962 58.2268879,91.5470843 58.2283604,92.7640496 C58.2573195,118.453234 58.2494662,144.141924 58.2524112,169.830614 C58.2524112,171.374673 58.3407612,171.453235 59.8328944,171.465093 C60.9367786,171.474481 62.0431168,171.435941 63.1450376,171.49128 C65.84413,171.628146 67.6371441,173.466193 67.6292907,176.034025 C67.6214374,178.577151 65.7744317,180.475973 63.1042985,180.530323 C59.9565844,180.594062 56.8059254,180.59505 53.6582114,180.532794 C50.8270849,180.476467 49.0566491,178.59395 49.0546858,175.723236 C49.0458508,160.902743 49.0507591,146.082744 49.0502683,131.262251 C49.0497775,116.647303 49.1135858,102.032355 49.0002033,87.4188889 C48.9751708,84.1736481 51.2644174,81.9823199 54.3723739,82.0001075 C71.7935205,82.0999154 89.2156488,82.0613757 106.636795,82.0282711 C108.39496,82.0253065 109.783037,82.5861087 111.010611,83.828273 C115.762859,88.6343719 120.541612,93.4142836 125.326255,98.187772 Z M82.667638,143.240243 C90.4964293,140.224264 98.918638,144.080211 101.745347,151.95911 C103.852494,157.830486 101.960332,164.072436 97.6046773,167.859209 C96.9155473,168.458551 96.6475523,169.069257 96.6509881,169.971976 C96.6799473,177.337012 96.669149,184.702049 96.663259,192.067086 C96.6627681,192.583419 96.6019048,193.099752 96.5444773,194 C94.8049641,192.812187 93.3574966,191.833377 91.9208275,190.83925 C90.9799001,190.188522 90.0311193,189.545699 89.1284768,188.843585 C88.3632677,188.249184 87.6981886,188.263513 86.9118736,188.832221 C84.8587179,190.316988 82.767768,191.748392 80.6861439,193.194125 C80.3906623,193.399176 80.0672031,193.564205 79.549374,193.869558 C79.4742765,193.204007 79.369729,192.708426 79.3692382,192.212845 C79.3584398,184.847808 79.3476415,177.482772 79.378564,170.117735 C79.3829815,169.134973 79.1041882,168.471398 78.3473232,167.794483 C70.2039078,160.510972 72.5010077,147.157458 82.667638,143.240243 Z M88.0255744,162.325797 C90.9749918,162.315421 93.5018016,159.776741 93.4929666,156.832901 C93.4846225,153.901413 90.9038209,151.334075 87.9877802,151.355322 C85.0398354,151.376568 82.5179338,153.924635 82.5257872,156.873417 C82.5336405,159.815281 85.0766479,162.336173 88.0255744,162.325797 Z" id="Combined-Shape" fill="#1A5692"></path>
            </g>
        </g>
    </g>
</svg>