<?xml version="1.0" encoding="UTF-8"?>
<svg width="863px" height="737px" viewBox="0 0 863 737" version="1.1" xmlns="http://www.w3.org/2000/svg" xmlns:xlink="http://www.w3.org/1999/xlink">
    <!-- Generator: Sketch 47.1 (45422) - http://www.bohemiancoding.com/sketch -->
    <title>mnt-scheme</title>
    <desc>Created with Sketch.</desc>
    <defs></defs>
    <g id="Page-1" stroke="none" stroke-width="1" fill="none" fill-rule="evenodd">
        <g id="mountaintoken" transform="translate(-295.000000, -1044.000000)">
            <g id="mnt-scheme" transform="translate(294.000000, 1044.000000)">
                <path d="M418,370.411722 L418,387 L362,356.588278 L362,340 L418,370.411722 Z M423,386 L423,370 L431,370 L431,386 L423,386 Z M435,386 L435,369.438206 L491.477688,337 L492,353.525453 L435,386 Z M432.500124,394 L448,402.140365 L446.249856,410 L431,401.859635 L432.500124,394 Z M435,391.522208 L493.776407,358 L506,364.704875 L451.124972,399 L435,391.522208 Z M429,461.129301 L429,406 L445,412.988048 L445,472 L429,461.129301 Z M419.499876,394 L421,401.859635 L405.750144,410 L404,402.140365 L419.499876,394 Z M346,364.704875 L358.223718,358 L417,391.522208 L400.875591,399 L346,364.704875 Z M407,412.988048 L423,406 L423,461.129301 L407,472 L407,412.988048 Z M421.105237,309 L432.326876,309 L488,336.099732 L432.326876,367 L421.105237,367 L365,336.618978 L421.105237,309 Z M431.988745,320.017329 L433.964973,336.833935 L418.641107,320.051986 L411.552751,320.070036 L409,347.909025 L417.641212,347.931408 L418.096245,328.029603 L434.805091,347.976173 L444,348 L438.765646,320 L431.988745,320.017329 Z M401.649173,403.680796 L403.738716,412.025751 L404,472 L350.092723,432.73839 C347.520865,430.86472 346,427.877805 346,424.699505 L346,369 L401.649173,403.680796 Z M383.123994,443.358018 L391,449 L390.882175,410.014902 L381.999895,404.663752 L372.654365,422.089811 L363.532044,393.537833 L356,389 L356.342499,424.171095 L362.99195,428.935531 L362.805332,406.835244 L370.130998,430.7332 L375.357031,434.423076 L383.017146,419.898835 L383.123994,443.358018 Z M448.261281,412.025751 L450.350797,403.681527 L506,369 L506,427.323374 L506,430.401599 C506,433.088288 504.632117,435.590898 502.369145,437.045275 L501.856097,437.37545 L448,472 L448.261281,412.025751 Z M464.047106,406.805907 L464,413.950961 L475.693669,406.737403 L476.3453,443 L484.421098,437.384856 L483.214903,402.097721 L494,395.445748 L493.626008,389 L464.047106,406.805907 Z" id="Combined-Shape-Copy-2" fill="#1A5692"></path>
                <text id="Кареьр" font-family="BebasNeueRegular, Bebas Neue" font-size="36" font-weight="normal" fill="#1A5692">
                    <tspan x="60" y="736">Кареьр</tspan>
                </text>
                <path d="M189.498507,663.163171 C189.655615,663.436455 189.775723,663.731989 190,664.19697 L188.025337,664.19697 C155.535333,664.19697 123.044759,664.280838 90.5553238,664.114814 C85.1060743,664.087429 80.1816559,665.279835 75.3744991,667.584773 C70.7625886,669.795574 66.1996319,672.139879 61.4681829,674.062562 C55.5168716,676.480465 49.3099755,677.824061 42.8492023,676.446804 C36.1630136,675.021051 31.4617338,671.285226 29.5331787,664.491364 C29.4819479,664.309365 29.4051017,664.134212 29.3020709,663.850089 L14,663.850089 L14,626.443909 L27.6336545,626.443909 L27.6336545,605.528878 C26.7234539,605.528878 25.8371611,605.529448 24.9508682,605.528878 C22.7217592,605.528878 20.4920809,605.547705 18.2629718,605.521461 C16.2564321,605.498069 15.7993396,604.958919 15.8118626,602.754394 C15.8232473,600.826576 16.3543399,600.256046 18.2367872,600.253764 C25.9208381,600.244636 33.6043197,600.244065 41.2883705,600.254905 C43.1241409,600.257187 43.6375874,600.84198 43.6466951,602.81487 C43.6569412,604.942944 43.2083871,605.49864 41.289509,605.518608 C38.1621532,605.551128 35.0347975,605.527166 31.802134,605.527166 L31.802134,626.340073 L45.6976348,626.340073 L45.6976348,663.766221 L33.339058,663.766221 C34.2646278,667.273264 36.2779982,669.646666 39.2482462,671.223609 C42.92491,673.17596 46.8822047,673.243282 50.897561,672.838777 C56.7845493,672.244856 61.9571524,669.680327 67.0910479,666.989141 C68.8750182,666.054043 70.7068039,665.209089 72.4862204,664.053197 L49.7215295,664.053197 L49.7215295,622.708654 L39.2715847,622.708654 C48.259744,607.061319 57.0754264,591.712941 65.9400626,576.280125 C68.4196333,577.797163 70.8348809,579.197812 73.1607593,580.733677 C74.1739907,581.402337 74.8883757,581.465095 75.9004686,580.69431 C77.9326237,579.145894 80.0911481,577.763501 82.2234879,576.294959 C84.6979356,577.881601 87.1461986,579.419748 89.5551847,581.018371 C90.2080928,581.451973 90.6731546,581.457678 91.3232165,581.001825 C93.1868792,579.695884 95.1427573,578.520023 96.9859277,577.186696 C97.8226974,576.581935 98.4351901,576.660668 99.2463445,577.175856 C101.287607,578.470958 103.407424,579.641684 105.437871,580.95276 C106.242764,581.472512 106.818826,581.418882 107.611196,580.933932 C110.192659,579.353566 112.829907,577.863344 115.512124,576.300094 C121.774804,587.15156 127.986824,597.915735 134.287074,608.832812 C134.732782,608.087701 135.11872,607.465254 135.483028,606.830825 C137.753122,602.880481 140.000446,598.918155 142.289894,594.979221 C144.379541,591.383175 148.325451,591.370053 150.40713,594.994626 C163.452768,617.709106 176.472792,640.43728 189.498507,663.163171 Z M121.851423,526.387742 C121.478007,526.306727 120.956022,525.935312 120.880884,525.610111 C120.17333,522.564626 119.548314,519.499743 118.866375,516.283099 C119.482283,516.11251 120.008253,515.954474 120.541053,515.82097 C133.360138,512.615166 146.180361,509.412215 159.000015,506.207552 C162.99374,505.208555 165.855834,507.934544 164.751526,511.836394 C161.027616,524.989945 157.228568,538.121817 153.453996,551.261106 C153.416427,551.391757 153.318519,551.504722 153.172227,551.759178 C150.061379,550.969565 147.027946,550.237006 144.024683,549.393763 C143.616544,549.279658 143.189621,548.660633 143.066667,548.196223 C142.409205,545.721267 141.810374,543.229195 141.269604,540.726283 C141.081758,539.857938 140.664511,539.459138 139.815219,539.287979 C137.634494,538.849812 135.478247,538.282706 133.291261,537.885618 C132.367399,537.717882 132.046921,537.274581 131.890383,536.421069 C131.453783,534.038539 130.92269,531.673125 130.473567,529.291736 C130.305643,528.40114 129.980613,527.917902 128.964535,527.766711 C126.577749,527.410701 124.211455,526.900648 121.851423,526.387742 Z M51.8329785,559.673445 C51.6656246,559.521684 51.5529168,559.308877 51.1925935,558.82678 C56.4363506,558.607697 61.4307844,558.400024 66.72008,558.179229 C62.9455084,550.847358 59.2955985,543.758532 55.6456886,536.669706 C55.7532732,536.571575 55.8602887,536.472874 55.9673041,536.374742 C61.8155846,540.462014 67.6644344,544.549856 73.5127149,548.637128 C73.6498996,548.592626 73.786515,548.547554 73.9236997,548.502483 C73.1973608,540.054086 72.4710219,531.606259 71.7441138,523.157862 C71.875037,523.107655 72.0059601,523.057449 72.1368833,523.007242 C75.919424,529.156406 79.7013956,535.305 83.4839364,541.453594 C83.6245364,541.414798 83.7651365,541.375431 83.9057366,541.336065 C86.0949995,531.092212 88.2848316,520.847789 90.4746637,510.603936 C90.5930638,510.621623 90.7114639,510.639309 90.8292947,510.656425 C93.0174191,520.948202 95.2055435,531.238838 97.482468,541.949384 C101.50067,535.417394 105.309965,529.226011 109.11926,523.034057 C109.254168,523.061443 109.389645,523.088257 109.524552,523.115072 C108.799921,531.552629 108.07529,539.990186 107.350089,548.427743 C107.461089,548.512182 107.57152,548.595479 107.681951,548.679347 C113.561539,544.577812 119.441128,540.475707 125.321285,536.373601 L125.649731,536.620641 C122.003237,543.701479 118.356742,550.782318 114.550294,558.174094 C119.799743,558.391466 124.814669,558.599139 130.183657,558.821645 C129.653703,559.386469 129.373641,559.728787 129.049749,560.02318 C125.012193,563.693965 120.959267,567.349346 116.931388,571.031541 C116.074695,571.814878 115.19751,572.051077 114.274786,571.285998 C113.392478,570.55515 113.419232,569.346198 114.410263,568.398549 C115.987033,566.891211 117.65545,565.480862 119.280035,564.023731 C119.687605,563.658022 120.074113,563.269491 120.470297,562.891801 L120.363282,562.51411 C116.469741,562.339528 112.575631,562.164946 108.322336,561.973819 C110.61463,557.491741 112.815847,553.188239 115.017633,548.884737 C114.918586,548.782613 114.820109,548.681058 114.721063,548.578934 C110.841184,551.254145 106.960735,553.929357 102.776887,556.813953 C103.295456,550.73154 103.78101,545.041652 104.265995,539.352335 C104.140764,539.298134 104.014964,539.243934 103.889733,539.189734 C101.27184,543.37913 98.6539456,547.567956 96.0360517,551.757352 C95.8926055,551.727114 95.7491593,551.696876 95.605713,551.666638 C94.0141428,544.15562 92.4231418,536.644603 90.8315716,529.133585 C90.7120331,529.121604 90.5924946,529.109623 90.472956,529.097071 C88.8603243,536.662289 87.2471233,544.226936 85.6339223,551.791584 C85.5103991,551.802424 85.386876,551.813264 85.2633528,551.824104 L77.4779788,539.315821 C77.3385172,539.345488 77.1990556,539.374585 77.0590247,539.404253 C77.5092866,545.033094 77.9601176,550.661936 78.4496564,556.776298 C74.261823,553.887708 70.4064207,551.228471 66.5504491,548.569235 L66.220295,548.824832 C68.4277733,553.121487 70.6352516,557.417573 73.0846531,562.186056 L61.1632458,562.186056 C61.1085996,562.366343 61.0539534,562.54606 60.9993072,562.726347 C61.4097229,563.131423 61.8042,563.554185 62.2334003,563.938151 C63.7543858,565.298293 65.3004175,566.630479 66.8105877,568.002031 C67.8676499,568.962232 68.0173577,570.177459 67.2420649,571.016708 C66.5544337,571.761248 65.2622791,571.766383 64.3110939,570.916865 C60.1369221,567.185604 55.986658,563.427528 51.8329785,559.673445 Z" id="Combined-Shape" fill="#1A5692"></path>
                <text id="StoneMarket" font-family="BebasNeueRegular, Bebas Neue" font-size="36" font-weight="normal" fill="#1A5692">
                    <tspan x="708" y="736">StoneMarket</tspan>
                </text>
                <text id="smartcontrakt" font-family="BebasNeueRegular, Bebas Neue" font-size="36" font-weight="normal" fill="#1A5692">
                    <tspan x="0" y="57">smartcontrakt</tspan>
                </text>
                <path d="M664.327966,46.516268 C662.321205,44.7980675 660.596726,43.3220514 658.428193,41.4657402 C657.935672,45.818515 657.525019,49.4480091 657.092754,53.2712507 C659.54226,50.984244 661.742231,48.930258 664.327966,46.516268 M627.063381,46.3362661 C629.442807,48.9289489 631.474457,51.1426457 634.162364,54.071114 C633.580115,49.3786265 633.125581,45.7137865 632.590488,41.3983213 C630.316508,43.429398 628.676518,44.8942867 627.063381,46.3362661 M644.976868,74.3268984 C644.672972,75.4579653 644.291137,76.5739775 644.078279,77.7214082 C642.268002,87.4657326 640.490473,97.2152934 638.69788,106.962236 C638.584574,107.578825 638.632385,108.389815 638.257755,108.761601 C637.144998,109.86714 635.85868,110.797914 634.639821,111.796107 C633.723549,110.513838 631.999725,109.21717 632.022648,107.952574 C632.165427,100.05147 632.678906,92.156911 633.109207,84.2623522 C633.437336,78.2476684 633.967189,72.2388757 634.08377,66.2215737 C634.111933,64.7390121 633.251986,62.8388459 632.160187,61.8085802 C628.330706,58.1941408 624.190778,54.9102504 620.226377,51.4352307 C616.271145,47.9687202 615.875557,44.8242496 619.478426,41.1541732 C624.804465,35.7298959 630.431779,30.6001672 635.994254,25.412838 C636.67933,24.7746492 637.754754,24.5547195 639.109187,23.9289673 C640.21736,26.9575821 641.258727,29.8042313 642.300095,32.650226 C642.715332,32.6528442 643.131879,32.6548078 643.547116,32.657426 C643.547116,30.808315 643.485551,28.9572402 643.572004,27.1127111 C643.61916,26.1073183 643.613266,24.8211224 644.202064,24.2104249 C644.640879,23.7555108 646.453121,23.8209661 646.829716,24.3007531 C647.355639,24.9723241 647.168324,26.2428107 647.190593,27.2593308 C647.231854,29.0894599 647.203037,30.9215526 647.203037,32.7523362 C647.628098,32.7824456 648.053814,32.8119004 648.47953,32.8420099 C649.465227,30.0581977 650.451579,27.2743855 651.745102,23.620673 C654.638008,25.4252745 657.631776,26.7311069 659.893312,28.8269843 C664.028,32.6580806 667.785437,36.9054723 671.595271,41.0749723 C675.094004,44.9047595 674.895554,48.0014478 671.021536,51.3979212 C667.152102,54.7911218 663.278084,58.1856316 659.272421,61.4132304 C657.498822,62.8421187 657.036428,64.3672262 657.175277,66.5966324 C658.010336,79.9985966 658.728159,93.4084155 659.335296,106.822162 C659.402101,108.281814 658.940362,110.210126 657.976279,111.174282 C656.210538,112.941574 653.60712,111.466867 653.013082,108.389161 C651.229003,99.152769 649.560195,89.8941227 647.835716,80.6452946 C647.436853,78.5094895 646.994763,76.381539 646.572976,74.2503158 C646.041159,74.2758433 645.508686,74.3013709 644.976868,74.3268984 Z M678.720386,74.2577777 C677.46616,80.8687588 676.211935,87.4784309 674.958364,94.0887575 C674.070909,98.7714267 673.393038,103.508424 672.170905,108.102074 C671.800204,109.498235 670.039048,111.318545 668.720638,111.49462 C666.364789,111.810114 665.794984,109.673655 665.903051,107.586286 C666.681784,92.5466316 667.42646,77.5050131 668.322429,62.4725583 C668.392509,61.298291 669.327775,59.991804 670.2113,59.0885214 C671.871593,57.3886483 673.863946,56.0186698 675.581875,54.3705064 C680.43373,49.7140192 680.709464,43.2778036 676.242717,38.2187667 C673.10879,34.6697825 669.839944,31.2405815 666.312393,27.4121034 C668.802506,26.0493249 670.845289,24.9306945 673.266633,23.6052255 C674.404933,26.9421346 675.399144,29.8575119 676.394665,32.7728891 C676.790909,32.7728891 677.187152,32.7722346 677.584051,32.77158 C677.584051,30.817086 677.518556,28.8593192 677.611559,26.9087525 C677.658715,25.9177598 677.692117,24.6230548 678.291395,24.0575214 C678.772127,23.6026073 680.359721,23.704063 680.964893,24.1818864 C681.488852,24.5949091 681.414843,25.8797958 681.44366,26.785042 C681.505226,28.713354 681.462654,30.6455932 681.462654,32.5771779 L682.549213,32.7054702 C683.561108,29.8352571 684.573003,26.965044 685.762389,23.5914799 C688.374977,25.0596414 691.022277,25.9256145 692.809631,27.6713062 C697.649698,32.398485 702.277561,37.3685028 706.680123,42.5073952 C708.955413,45.1629151 708.168165,48.5934252 705.245786,51.1592714 C701.378317,54.5550902 697.514123,57.9633455 693.490777,61.1673804 C691.597977,62.6748151 691.024897,64.2981055 691.168331,66.6584221 C691.973917,79.9360214 692.648513,93.2214753 693.314596,106.506929 C693.376161,107.719815 693.425937,109.200413 692.812905,110.102387 C692.24703,110.935632 690.379773,111.84546 689.796214,111.505747 C688.59111,110.802103 687.290383,109.405288 687.022509,108.090946 C685.11792,98.7517901 683.483169,89.3583059 681.716119,79.9910038 C681.344763,78.0208005 680.779543,76.0872522 680.303396,74.13734 C679.776162,74.1772677 679.247619,74.21785 678.720386,74.2577777 Z M692.181535,41.2958184 C691.715212,45.6819753 691.334033,49.2630325 690.841512,53.8933375 C693.737037,51.0028333 695.794229,48.9501564 698.105541,46.643513 C696.23108,44.95084 694.52625,43.4126415 692.181535,41.2958184 Z M605.285438,24.0235501 C606.366757,27.1169656 607.344595,29.9119052 608.321777,32.7068448 C608.697063,32.7271359 609.073003,32.747427 609.448288,32.7683727 C609.549805,31.0292265 609.625779,29.2881166 609.760044,27.5515886 C609.845842,26.443431 609.74367,25.1742536 610.272213,24.3128623 C610.516509,23.9142398 612.509516,23.9515493 612.914274,24.4444274 C613.436923,25.0793434 613.205726,26.368812 613.2221,27.3781321 C613.253537,29.3404808 613.231269,31.303484 613.231269,33.2671418 C613.669429,33.2861238 614.107589,33.3051058 614.546405,33.3247424 C615.536031,30.3052913 616.525658,27.2864948 617.644309,23.8756212 C620.093161,25.1971629 622.128739,26.2948476 624.666009,27.6641716 C621.401747,31.1987556 618.425008,34.3687538 615.507869,37.5924253 C609.959803,43.7236194 610.080968,50.5087115 616.580019,55.5180025 C621.280582,59.1416056 623.13867,63.1625222 623.204164,69.1189508 C623.338429,81.2746469 624.369972,93.4211793 625.02885,105.570984 C625.076006,106.448085 625.423784,107.497987 625.067492,108.16694 C624.33002,109.551973 623.212679,110.73475 622.251215,112 C621.085407,110.933079 619.181473,110.04027 618.879542,108.768474 C617.462234,102.7983 616.487016,96.7233971 615.351336,90.6864586 C614.516932,86.2512102 613.704141,81.8120346 612.821271,77.3872591 C612.620857,76.3838299 612.170253,75.4308014 611.834919,74.4542089 L610.775868,74.4456997 C610.30889,76.1396818 609.722057,77.8114091 609.395892,79.5322279 C607.622293,88.8942936 605.89061,98.2648685 604.198879,107.641989 C603.798706,109.858958 603.348101,112.178693 600.526585,111.93389 C597.518408,111.672724 597.384798,109.271825 597.526267,106.832307 C598.289282,93.6836549 598.946195,80.5291115 599.791078,67.3863501 C599.958745,64.7740307 599.407933,62.9216468 597.285901,61.2217738 C593.274999,58.0085751 589.47368,54.5296281 585.633719,51.106318 C583.065667,48.8180022 581.977143,45.5910579 584.201347,43.0579394 C589.945242,36.5156863 594.835085,28.9837496 603.024557,24.9569421 C603.578643,24.6846482 604.166131,24.483046 605.285438,24.0235501 Z M593.497026,46.1736097 C595.72385,48.7453469 597.615995,50.930898 599.507485,53.1157945 C599.722963,52.9966659 599.937786,52.8775374 600.153264,52.7584088 C599.755056,49.1982972 599.356847,45.6388403 598.863016,41.2219194 C596.465906,43.4336526 594.848184,44.9266871 593.497026,46.1736097 Z M620.82703,10.7897404 C619.509929,13.6586444 618.725301,17.0178083 616.689068,19.2256142 C615.320881,20.7088303 612.102466,21.2619273 609.852719,21.0040336 C604.786695,20.4234454 602.309026,14.2097777 603.723714,6.78780586 C604.65505,1.90418899 608.38236,-0.664929921 613.356691,0.148678948 C617.819508,0.877850533 620.100693,4.39410704 620.82703,10.7897404 Z M671.075766,11.1422824 C671.075766,3.99129538 673.567189,0.547039654 678.363374,0.0829618679 C683.242083,-0.390279654 686.774873,2.15985723 687.343368,7.02187387 C687.643989,9.58641091 687.524789,12.2982223 687.031613,14.8346136 C686.213582,19.0440413 683.325261,21.281302 679.441418,21.3087932 C675.518934,21.3362844 672.827752,19.2004793 671.703206,14.9792697 C671.287969,13.42078 671.175973,11.7830894 671.075766,11.1422824 Z M653.997534,10.1754428 C653.945138,10.9903608 653.951033,12.00099 653.805634,12.9893644 C653.026901,18.2768402 650.122206,21.2419634 645.70982,21.3106914 C641.328217,21.3781104 638.522419,18.8731376 637.611386,13.5588251 C637.240031,11.3896378 637.313385,9.03783039 637.709629,6.86406124 C638.578745,2.09368197 641.528631,-0.139651468 646.118508,0.0534415461 C650.466054,0.235407166 653.331452,3.06765622 653.863925,7.73396163 C653.949068,8.48015158 653.948413,9.23550527 653.997534,10.1754428 Z" id="Combined-Shape" fill="#1A5692"></path>
                <path d="M833.977415,647.118855 C833.977415,648.458611 833.762165,649.796297 833.621424,651.442521 L739.006439,651.442521 L739.006439,645.551318 C739.006439,606.917868 739.080949,568.286488 738.907093,529.653037 C738.886396,525.000126 740.016461,523.511277 744.878223,523.552692 C772.802827,523.786683 800.729502,523.722491 828.656176,523.602389 C832.429268,523.585823 834.114016,524.238101 834.095389,528.634242 C833.921533,568.129113 833.996043,607.623984 833.977415,647.118855 M795.929831,668.666782 C792.816979,669.34805 789.447481,668.863501 786.185609,668.863501 C786.185609,668.857289 786.18354,668.851077 786.18354,668.844864 C783.093454,668.844864 779.881255,669.352191 776.960886,668.644004 C775.340299,668.252638 773.136052,665.815399 773.158819,664.330692 C773.181585,662.823206 775.536922,660.185107 777.020908,660.073288 C783.33975,659.601164 789.737242,659.607376 796.054014,660.096066 C797.513164,660.209956 799.839524,662.922601 799.827106,664.421803 C799.812618,665.914793 797.560767,668.308548 795.929831,668.666782 M786.40293,509.589817 C787.748245,509.384816 789.428854,511.366496 792.196064,513.207367 C789.553037,515.139351 788.006959,517.14588 786.649226,517.025778 C785.206634,516.895322 782.882343,514.743843 782.888552,513.486915 C782.896831,512.093319 784.972756,509.809313 786.40293,509.589817 M841.945821,526.884483 C842.049307,547.929225 841.972727,568.973968 841.972727,590.01871 C841.974797,610.717642 842.003773,631.416574 841.964448,652.117576 C841.933402,668.443144 833.373058,676.972446 817.067838,676.9828 C796.378959,676.999366 775.688011,677.013861 754.999133,676.976588 C740.059925,676.951739 731.081498,668.161526 731.054592,653.260615 C730.982152,611.17113 730.982152,569.081645 731.052522,526.994231 C731.079428,512.126451 740.186177,503.062903 754.891508,503.031842 C775.926029,502.988357 796.960549,502.990428 817.993001,503.031842 C832.739725,503.058761 841.871311,512.078824 841.945821,526.884483 Z M793.839211,589.09931 C785.887363,590.749675 778.862748,587.575259 775.286279,580.398138 C774.752293,579.325504 774.48116,578.012667 773.692598,577.198873 C770.865367,574.283297 770.801205,574.345419 773.351095,571.725956 C772.425932,570.032106 767.955346,568.508055 773.326259,566.518092 C774.584646,566.05218 775.234536,563.84479 776.08519,562.393215 C780.555776,554.764677 789.229954,552.234255 797.695092,556.313576 C797.366007,557.713384 797.022434,559.173243 796.637467,560.813254 C791.717753,561.279167 785.568627,558.641067 783.006319,566.592638 C785.394771,566.698245 787.392047,566.565718 789.296185,566.928095 C791.376249,567.325673 793.367316,568.180881 795.399777,568.835229 C793.292806,569.402607 791.216881,570.201905 789.072656,570.471099 C786.810457,570.754788 784.482026,570.535292 782.184642,570.535292 C782.166014,571.361509 782.149457,572.187727 782.130829,573.013945 C785.268518,573.013945 788.418626,572.858641 791.539757,573.088491 C792.847817,573.183744 794.097926,574.094862 795.37494,574.63532 C794.077228,575.32487 792.833329,576.451343 791.471456,576.612859 C788.820151,576.927609 786.102614,576.706042 783.252615,576.706042 C784.773856,582.769114 787.14782,583.73407 796.453262,582.456435 C798.889318,586.241714 798.135941,588.206829 793.839211,589.09931 Z M825.427213,572.949753 C821.645842,569.758771 818.640615,567.224208 815.476019,564.552977 C817.467086,560.798759 819.344318,557.264038 821.393337,553.402142 C819.807934,553.058402 818.998675,552.805774 818.170789,552.712592 C808.11818,551.602685 808.128529,551.606826 807.017091,541.845445 C806.926024,541.048218 806.584521,540.27998 806.052604,538.439109 C797.980712,545.655573 792.10065,543.272173 787.737689,534.898175 C787.623855,534.68282 787.168517,534.645547 786.63867,534.432263 C784.219172,537.631527 781.766559,540.878419 779.311876,544.123239 C775.261443,542.197468 771.645649,540.476699 767.386174,538.449462 C767.013626,543.423335 766.711447,547.448818 766.394781,551.664807 C761.789663,552.058244 757.718532,552.406125 753.332805,552.780926 C753.684656,554.081339 753.866791,555.067002 754.212434,555.994685 C757.658511,565.244598 757.666789,565.244598 749.553504,570.939082 C749.1437,571.226912 748.667665,571.41949 747.76113,571.904038 C751.360366,574.879665 756.106224,576.915184 756.892716,579.971569 C757.73716,583.243309 754.854046,587.477935 753.527358,591.503417 C754.887161,591.691853 756.052411,591.890642 757.22801,592.014885 C766.25197,592.977771 766.241622,592.973629 766.808724,602.235967 C766.879094,603.362439 767.181273,604.474417 767.477242,606.182762 C770.385193,604.894773 772.980616,604.014716 775.296628,602.654252 C778.216997,600.935554 780.222551,601.204747 782.089435,604.19694 C783.594118,606.611401 785.578976,608.727678 787.605227,611.301585 C788.818081,609.713342 789.679083,608.682123 790.436598,607.580499 C794.965136,600.997675 794.950648,601.008029 802.202932,604.290122 C803.366113,604.816086 804.628639,605.11634 806.29476,605.669223 C806.787353,601.123989 807.221993,597.102648 807.656633,593.091661 C812.156195,592.824537 816.169374,592.586405 821.697585,592.255089 C813.058591,583.280582 818.274275,577.753827 825.427213,572.949753 Z M751.366575,623.763601 C754.160691,621.512727 817.094537,621.127573 821.616866,623.332891 C818.880702,625.426391 756.004808,625.811545 751.366575,623.763601 Z M758.980438,633.247713 L814.036946,633.247713 C814.039016,632.814932 814.039016,632.382151 814.041085,631.9473 L758.984577,631.9473 C758.982508,632.382151 758.980438,632.814932 758.980438,633.247713 Z" id="Combined-Shape" fill="#1A5692"></path>
                <path d="M626.538892,148.481106 L517.5,257.519998" id="Line-2" stroke="#979797" stroke-width="6" stroke-linecap="square"></path>
                <path id="Line-2-decoration-1" d="M517.5,257.519998 L527.258074,252.004565 L523.015433,247.761924 L517.5,257.519998 Z" stroke="#979797" stroke-width="6" stroke-linecap="square"></path>
                <path d="M309.512847,473.487153 L221.938234,561.061766" id="Line-3" stroke="#979797" stroke-width="6" stroke-linecap="square"></path>
                <path id="Line-3-decoration-1" d="M221.938234,561.061766 L231.696307,555.546334 L227.453666,551.303693 L221.938234,561.061766 Z" stroke="#979797" stroke-width="6" stroke-linecap="square"></path>
                <path d="M90.5128471,463.006998 L90.5128471,304.978887" id="Line-3-Copy-4" stroke="#979797" stroke-width="6" stroke-linecap="square"></path>
                <path id="Line-3-Copy-4-decoration-1" d="M90.5128471,304.978887 L87.5128471,315.778887 L93.5128471,315.778887 L90.5128471,304.978887 Z" stroke="#979797" stroke-width="6" stroke-linecap="square"></path>
                <path d="M212.499993,204.474298 L301.529193,293.503499" id="Line-3-Copy-5" stroke="#979797" stroke-width="6" stroke-linecap="square"></path>
                <path id="Line-3-Copy-5-decoration-1" d="M301.529193,293.503499 L296.01376,283.745425 L291.77112,287.988066 L301.529193,293.503499 Z" stroke="#979797" stroke-width="6" stroke-linecap="square"></path>
                <path d="M639.512847,473.487153 L551.938234,561.061766" id="Line-3-Copy-3" stroke="#979797" stroke-width="6" stroke-linecap="square" transform="translate(595.500000, 517.500000) scale(1, -1) translate(-595.500000, -517.500000) "></path>
                <path id="Line-3-Copy-3-decoration-1" d="M551.938234,561.061766 L561.696307,555.546334 L557.453666,551.303693 L551.938234,561.061766 Z" stroke="#979797" stroke-width="6" stroke-linecap="square"></path>
                <path d="M682,257 L682,431.347354" id="Line-3-Copy" stroke="#979797" stroke-width="6" stroke-linecap="square" transform="translate(681.500000, 344.500000) scale(1, -1) translate(-681.500000, -344.500000) "></path>
                <path id="Line-3-Copy-decoration-1" d="M682,431.347354 L685,420.547354 L679,420.547354 L682,431.347354 Z" stroke="#979797" stroke-width="6" stroke-linecap="square"></path>
                <path d="M324.994472,628.5 L528.5,628.5" id="Line-3-Copy-2" stroke="#979797" stroke-width="6" stroke-linecap="square"></path>
                <path id="Line-3-Copy-2-decoration-1" d="M528.5,628.5 L517.7,625.5 L517.7,631.5 L528.5,628.5 Z" stroke="#979797" stroke-width="6" stroke-linecap="square"></path>
                <rect id="Rectangle-4-Copy-2" fill="#FFFFFF" transform="translate(683.000000, 346.139784) rotate(56.000000) translate(-683.000000, -346.139784) " x="659.5" y="318.139784" width="47" height="56"></rect>
                <rect id="Rectangle-4-Copy" fill="#FFFFFF" transform="translate(267.500000, 513.000000) rotate(-42.000000) translate(-267.500000, -513.000000) " x="244" y="485" width="47" height="56"></rect>
                <g id="Group-5" transform="translate(551.000000, 168.000000)">
                    <rect id="Rectangle-4" fill="#FFFFFF" x="0" y="4" width="47" height="56"></rect>
                    <text id="$" font-family="Helvetica-Bold, Helvetica" font-size="48" font-weight="bold" fill="#1A5692">
                        <tspan x="9" y="47">$</tspan>
                    </text>
                </g>
                <g id="Group-5-Copy" transform="translate(68.000000, 356.000000)">
                    <rect id="Rectangle-4" fill="#FFFFFF" x="0" y="4" width="47" height="56"></rect>
                    <text id="$" font-family="Helvetica-Bold, Helvetica" font-size="48" font-weight="bold" fill="#1A5692">
                        <tspan x="9" y="47">$</tspan>
                    </text>
                </g>
                <text id="$-copy-2" font-family="Helvetica-Bold, Helvetica" font-size="48" font-weight="bold" fill="#1A5692">
                    <tspan x="668.645915" y="364">$</tspan>
                </text>
                <g id="Group-2" transform="translate(391.000000, 539.000000)" fill="#1A5692">
                    <path d="M63.1469366,31.0020727 C57.4021705,30.9994124 51.6574044,30.9992077 45.9124274,31.0020727 C44.0415088,31.0030959 43.00061,32.0121721 43.0003991,33.8117699 C42.9997665,39.3697725 43.0001882,44.9275705 43.0001882,50.4853685 C43.0001882,56.0601515 42.9995556,61.6349346 43.00061,67.2099223 C43.0008209,68.9378963 44.0682904,69.9942442 45.8415721,69.9956767 C51.6215549,70.0012019 57.4015378,70.0018158 63.1813098,69.9952674 C64.9288642,69.9936303 65.9990752,68.9370777 65.9992861,67.241846 C66.0001296,56.0922799 66.0003405,44.9427138 65.9992861,33.7929431 C65.9990752,31.9765649 65.0064677,31.0028912 63.1469366,31.0020727" id="Fill-1"></path>
                    <path d="M24.0977178,31.0025602 C18.3536299,30.9994905 12.6093311,30.998672 6.86503229,31.0029694 C5.04326293,31.0041973 4.00068535,32.0308866 4.00047447,33.8041103 C3.99984184,44.9358209 3.99984184,56.0675316 4.00047447,67.1990377 C4.00068535,68.9601875 5.06076575,69.9960857 6.87873931,69.9973135 C12.6228272,70.0009971 18.367126,70.0007924 24.1112139,69.9973135 C25.9268679,69.9962903 26.9991791,68.9546621 26.99939,67.2055862 C27.0004444,61.6311359 26.9998118,56.0568903 26.9998118,50.4824399 C26.9998118,44.9251796 27.0002335,39.3679192 26.9996009,33.8106588 C26.99939,31.9956882 25.9795872,31.0035834 24.0977178,31.0025602" id="Fill-3"></path>
                    <path d="M39.9921271,19.5553825 C39.9208838,17.9988191 38.940402,17.007546 37.4572805,17.0029989 C35.8669005,16.9980384 34.2765204,17.0003119 32.6861403,17.0021721 C30.9808262,17.004239 30.0005412,18.0327159 30.0003444,19.8197358 C30.0001476,27.7061032 30.0001476,35.5924705 30.0001476,43.4788379 C30.0001476,51.3995154 29.9995572,59.3201929 30.000738,67.2408704 C30.0011316,68.8881696 31.0038524,69.975139 32.5633341,69.991054 C34.1863838,70.0073823 35.8096303,69.9970479 37.4328767,69.9935342 C38.1323212,69.9918807 38.7508789,69.7670047 39.2611939,69.2440854 C39.8295663,68.6614334 40.0003929,67.9429877 39.9999993,67.131326 C39.9940952,51.3933148 39.9956696,35.6550968 39.9954728,19.9168789 C39.9954728,19.7963801 39.9976377,19.6756746 39.9921271,19.5553825" id="Fill-5"></path>
                    <path d="M24.1355036,27.9941834 C25.9096901,27.9845679 26.9938347,26.8733543 26.996734,25.0821598 C26.9998404,23.340715 27.0039823,21.5994791 26.9917637,19.8582433 C26.9892786,19.5139677 26.9658768,19.1544328 26.8652284,18.8293882 C26.4955631,17.6374883 25.5342261,17.0076751 24.103818,17.0051667 C20.5842312,16.9986867 17.0646443,17.0030764 13.5452646,17.0030764 C10.0084889,17.0030764 6.47192027,16.994088 2.93514454,17.006839 C1.01474863,17.013737 0.00536551264,18.0568063 0.00205198579,19.9918147 C-0.00105444564,21.6287436 -0.000226063927,23.2656725 0.00184489036,24.9023924 C0.0043300355,26.9350187 1.05658191,27.9962737 3.07037786,27.9966918 C8.03901138,27.9977369 13.007852,27.9971098 17.9764855,27.9971098 C20.0294225,27.9971098 22.0825666,28.0052621 24.1355036,27.9941834" id="Fill-7"></path>
                    <path d="M69.9906707,19.9486125 C69.9881855,19.587127 69.9676825,19.2103794 69.8662032,18.8677105 C69.5052269,17.6454758 68.5395168,17.0063428 67.0848422,17.0042521 C63.5651676,16.9990253 60.0452858,17.0025796 56.5254041,17.0027886 C52.988333,17.0029977 49.4512619,16.9944257 45.9143979,17.0063428 C44.0217055,17.0128241 43.0058771,18.055675 43.0025635,19.9536302 C42.9992498,21.6431406 42.9990427,23.3328602 43.0025635,25.0223706 C43.0062913,26.8902195 44.082386,27.9953738 45.920818,27.9966283 C52.9777708,28.0012278 60.0347237,28.0010188 67.0914694,27.9966283 C68.90215,27.9955829 69.98715,26.8967007 69.9948127,25.0696209 C70.001647,23.3625484 70.0030967,21.655685 69.9906707,19.9486125" id="Fill-10"></path>
                    <path d="M41.5576022,12.1391244 C41.5545089,12.2038676 41.5514156,12.2684059 41.5483224,12.333149 C40.2534849,12.1989504 38.9501926,12.1186361 37.6660784,11.9174406 C35.8359013,11.6306039 35.4847135,10.8426223 36.4650698,9.27014231 C37.7830035,7.1557457 39.626791,5.54966479 41.6910246,4.19415627 C42.429282,3.70960705 43.2380657,3.31213327 44.0548918,2.96936335 C46.5018644,1.94248779 49.7605077,3.8433959 50.165312,6.71442687 C50.5697038,9.58381878 48.4852609,12.0481562 45.570794,12.1325682 C44.2340945,12.1712911 42.8953328,12.1391244 41.5576022,12.1391244 M32.3689786,11.5943395 C31.5855597,11.8305701 30.7767761,12.0366827 29.9651054,12.1159726 C28.702644,12.2391075 27.4284283,12.2442296 26.159368,12.2993433 C26.1585431,12.2782403 26.1577182,12.2573422 26.1570996,12.2364441 C25.2120064,12.2364441 24.2654697,12.2690205 23.3222325,12.2298878 C21.0707537,12.136461 19.0675604,10.2347333 18.8378345,8.01092898 C18.5994474,5.70558105 20.0862731,3.5596324 22.3204296,2.969978 C23.3356366,2.70219541 24.3248602,2.72801071 25.2845948,3.17813953 C28.2576274,4.57175636 30.6683058,6.62263911 32.5112685,9.32423152 C32.7288275,9.64303008 32.8775101,10.0206302 32.9958787,10.3906496 C33.2101384,11.0602085 33.0701169,11.3831047 32.3689786,11.5943395 M52.9756392,6.85702571 C52.6562089,3.00439841 48.9686339,-0.247305904 45.0898956,0.0153546042 C43.5902846,0.116976767 42.270701,0.715031388 41.0045278,1.44912858 C38.4686755,2.9193718 36.2930847,4.80061111 34.5035323,7.21393258 C34.3501067,7.02707893 34.2313257,6.88591427 34.1160503,6.74167636 C32.0553223,4.16178469 29.5607136,2.11868751 26.5501495,0.717899756 C24.1233861,-0.411212618 21.7712733,-0.176826018 19.5315489,1.19876108 C16.6832777,2.94826036 15.4045252,6.23827787 16.2638321,9.45474224 C17.0750903,12.4921385 19.9951251,14.8062964 23.2211861,14.9183677 C25.005583,14.9804473 26.7941043,15.0277754 28.5782951,14.9812669 C30.5548864,14.9296362 32.5240539,14.7485193 34.2880354,13.7027945 C34.3732031,13.6521883 34.5528182,13.680872 34.6485029,13.7384442 C35.8841561,14.4821709 37.2503447,14.8357997 38.6649943,14.8800545 C40.9968977,14.952993 43.3349877,14.989872 45.6664788,14.9136553 C50.0766386,14.7700321 53.3146602,10.9477275 52.9756392,6.85702571" id="Fill-13"></path>
                </g>
                <text id="$-copy" font-family="Helvetica-Bold, Helvetica" font-size="48" font-weight="bold" fill="#1A5692">
                    <tspan x="253" y="528">$</tspan>
                </text>
                <g id="Group-6" transform="translate(562.000000, 476.000000)">
                    <rect id="Rectangle-4-Copy-3" fill="#FFFFFF" transform="translate(36.500000, 37.000000) rotate(-42.000000) translate(-36.500000, -37.000000) " x="13" y="9" width="47" height="56"></rect>
                    <text id="$-copy-3" font-family="Helvetica-Bold, Helvetica" font-size="48" font-weight="bold" fill="#1A5692">
                        <tspan x="21" y="52">$</tspan>
                    </text>
                </g>
                <g id="Group-6-Copy" transform="translate(219.000000, 209.000000)">
                    <rect id="Rectangle-4-Copy-3" fill="#FFFFFF" transform="translate(36.500000, 37.000000) rotate(-42.000000) translate(-36.500000, -37.000000) " x="13" y="9" width="47" height="56"></rect>
                    <text id="$-copy-3" font-family="Helvetica-Bold, Helvetica" font-size="48" font-weight="bold" fill="#1A5692">
                        <tspan x="21" y="52">$</tspan>
                    </text>
                </g>
                <path d="M141.854188,124.616397 C143.311585,126.06058 144.001898,127.723121 144.00001,129.80287 C143.972952,160.894018 143.983649,191.985166 143.977357,223.076315 C143.976727,227.122544 141.732108,229.454002 137.721748,229.503715 C133.895135,229.55091 130.066006,229.562237 126.240652,229.465329 C123.564351,229.397997 121.444958,227.661202 120.9321,225.373792 C120.276397,222.453334 121.170595,219.85758 123.72167,218.71419 C125.173404,218.062892 126.962429,218.029541 128.608608,217.971648 C132.386137,217.838242 132.177219,218.459964 132.177219,214.413106 C132.17596,187.516066 132.166521,160.619026 132.20176,133.722615 C132.204277,132.201032 131.802172,131.091622 130.681435,130.004867 C126.28596,125.744056 121.974806,121.394517 117.676239,117.034909 C116.798402,116.144487 115.870853,115.770699 114.624262,115.772587 C95.6969717,115.799645 76.7696814,115.80405 57.8423912,115.766294 C56.3749253,115.763148 55.8293451,116.158961 55.8312329,117.708861 C55.8683601,150.426053 55.8582917,183.142614 55.8620673,215.859176 C55.8620673,217.825656 55.9753366,217.925711 57.8883282,217.940813 C59.3035644,217.952769 60.721947,217.903686 62.1346662,217.974165 C65.5950415,218.148473 67.8937778,220.489371 67.8837095,223.759706 C67.8736411,226.998577 65.5056847,229.416875 62.0824365,229.486095 C58.0469051,229.567271 54.0075981,229.56853 49.9720668,229.489242 C46.3424169,229.417504 44.0726271,227.019972 44.07011,223.363893 C44.0587831,204.488832 44.0650758,185.614401 44.0644466,166.73934 C44.0638173,148.126058 44.1456228,129.512775 44.0002607,110.90138 C43.9681677,106.768311 46.9030996,103.977483 50.8876598,104.000137 C73.2224664,104.12725 95.5585315,104.078167 117.893338,104.036005 C120.147396,104.03223 121.926982,104.746455 123.500795,106.328449 C129.593421,112.449393 135.720029,118.536985 141.854188,124.616397 Z M87.1636446,181.994253 C97.2005579,178.153167 107.998263,183.064018 111.622249,193.098414 C114.323721,200.576072 111.897871,208.525685 106.313698,213.348438 C105.430198,214.111746 105.086614,214.889529 105.091019,216.039211 C105.128146,225.419163 105.114302,234.799115 105.106751,244.179067 C105.106122,244.836657 105.028092,245.494248 104.954467,246.640785 C102.724321,245.128011 100.868594,243.88142 99.0267098,242.615322 C97.8203924,241.786568 96.6040066,240.967884 95.4467725,240.073686 C94.465735,239.31667 93.6130693,239.334919 92.6049731,240.059213 C89.9727218,241.95018 87.2920164,243.773185 84.6232672,245.61444 C84.2444445,245.875588 83.8297533,246.085765 83.1658696,246.474656 C83.0695908,245.627025 82.9355555,244.995864 82.9349262,244.364702 C82.9210822,234.98475 82.9072382,225.604799 82.9468824,216.224847 C82.9525459,214.973222 82.5951185,214.128108 81.6247787,213.266003 C71.184501,203.989881 74.1295013,186.983134 87.1636446,181.994253 Z M94.0327948,206.301203 C97.8140996,206.287988 101.0536,203.054781 101.042273,199.305569 C101.031575,195.572089 97.722855,192.302383 93.9843407,192.329442 C90.2049237,192.356501 86.9717162,195.601665 86.9817845,199.357169 C86.9918529,203.103864 90.2521192,206.314418 94.0327948,206.301203 Z" id="Combined-Shape" fill="#1A5692"></path>
            </g>
        </g>
    </g>
</svg>