<?xml version="1.0" encoding="UTF-8"?>
<svg width="657px" height="452px" viewBox="0 0 657 452" version="1.1" xmlns="http://www.w3.org/2000/svg" xmlns:xlink="http://www.w3.org/1999/xlink">
    <!-- Generator: Sketch 47.1 (45422) - http://www.bohemiancoding.com/sketch -->
    <title>Group 12</title>
    <desc>Created with Sketch.</desc>
    <defs>
        <polygon id="path-1" points="74.8006133 26.2058824 0.221808377 26.2058824 0.221808377 0.161185166 74.8006133 0.161185166 74.8006133 26.2058824"></polygon>
        <polygon id="path-3" points="0.025729472 0.0347961719 27.7463585 0.0347961719 27.7463585 34.8936142 0.025729472 34.8936142"></polygon>
        <polygon id="path-5" points="59.7571886 3.41141141 0.054765281 3.41141141 0.054765281 0.124932946 59.7571886 0.124932946"></polygon>
        <polygon id="path-7" points="0 0.166227273 0 32.9985 70.7629464 32.9985 70.7629464 0.166227273"></polygon>
        <polygon id="path-9" points="0.0194549296 0.0978521739 18.7411451 0.0978521739 18.7411451 62 0.0194549296 62"></polygon>
    </defs>
    <g id="Page-1" stroke="none" stroke-width="1" fill="none" fill-rule="evenodd">
        <g id="mountaintoken" transform="translate(-397.000000, -3689.000000)">
            <g id="Group-12" transform="translate(397.000000, 3689.000000)">
                <text id="STONEMARKET" font-family="BebasNeueBold, Bebas Neue" font-size="72" font-weight="bold" fill="#1A5692">
                    <tspan x="176" y="451">STONEMARKET</tspan>
                </text>
                <g id="Page-1" transform="translate(191.000000, 0.000000)">
                    <path d="M12.5755264,24.8476218 C11.0950026,24.8521912 9.89169303,23.6511829 9.90397954,22.1813375 C9.91588209,20.7724183 11.1157361,19.6079657 12.5640078,19.6007307 C14.0387724,19.5927342 15.2359387,20.7937425 15.2228843,22.2673958 C15.2098298,23.6805036 14.017271,24.8430523 12.5755264,24.8476218 M46.2628189,17.7877945 C51.2211915,19.4050052 54.4698201,22.9966066 57.1471263,27.2195562 C57.1667079,27.2504001 57.1110347,27.3284618 57.0584331,27.4716385 L52.0881579,27.4716385 L52.0881579,58.8238972 L57.3391029,58.8238972 L57.3391029,57.6548751 C57.3391029,52.166183 57.3364153,46.677491 57.3402548,41.188799 C57.3421746,38.9029229 58.3116566,37.9353382 60.5942588,37.933815 C65.3610387,37.9307687 70.1274347,37.9326727 74.8938306,37.9326727 L76,37.9326727 L76,27.4583108 C74.5094934,27.4583108 73.0738921,27.4221359 71.6417464,27.4739232 C70.9406477,27.4998168 70.5636056,27.2530656 70.2126723,26.6529422 C67.593343,22.1721986 64.7559283,17.8445321 60.9970258,14.1889581 C55.325268,8.67361084 48.5987906,5.90794065 40.5987401,6.59031446 C33.2368201,7.21823545 26.5932765,9.8403482 20.5064653,13.9326871 C20.3670902,14.0263612 20.2016064,14.0823372 19.9462774,14.2045704 C20.3859039,9.40282169 20.8143958,4.71721359 21.2459593,0 L5.2393312,0 C5.2393312,0.329382447 5.23318795,0.607739174 5.24048306,0.885715112 C5.32303301,4.18410905 5.40673483,7.4821222 5.49274036,10.7808969 C5.84520947,24.3541193 6.19230323,37.9281032 6.5704972,51.5009447 C6.58969487,52.195123 6.32515106,52.5096547 5.7611237,52.8055277 C2.56279292,54.4863302 0.68103792,57.160611 0.263296757,60.684432 C-0.0146854139,63.0293304 -0.0561523676,65.4260161 0.0624891944,67.7865268 C0.209543299,70.6919466 1.24468133,73.3548037 3.08036194,75.6623848 C4.05944279,76.8934755 5.14756637,78.1771151 6.70910434,78.4901236 C8.63117443,78.875482 10.6380982,78.8415918 12.7529128,79 C12.2810343,74.5706629 12.3274926,70.3008763 12.8976632,66.0402287 C13.5434726,61.2099208 14.666152,56.5174585 16.8485424,52.1086839 C17.213682,51.3699533 17.4313835,50.5002314 17.4816814,49.6769656 C17.8644828,43.4080371 18.1854677,37.1360622 18.5406245,30.8652296 C18.5617419,30.4981491 18.6177991,30.0781389 18.8124634,29.7834082 C22.7859959,23.7665619 27.7220992,18.9716674 35.1631136,17.5357122 C38.8644232,16.8213521 42.5995207,16.592498 46.2628189,17.7877945" id="Fill-1" fill="#1A5692"></path>
                    <g id="Group-5" transform="translate(38.000000, 60.000000)">
                        <mask id="mask-2" fill="white">
                            <use xlink:href="#path-1"></use>
                        </mask>
                        <g id="Clip-4"></g>
                        <path d="M70.7923469,15.9492798 C70.678699,18.636712 69.3053571,20.5068246 66.7220663,21.4745432 C64.677551,22.2405905 62.5423469,22.2968003 60.4109694,22.299079 C45.0179847,22.3165496 29.6242347,22.3268041 14.23125,22.2827478 C12.496301,22.2774307 10.7085459,22.1175368 9.03979592,21.6777338 C5.58788265,20.767744 4.05535714,18.5459409 4.26084184,15.2223514 C4.43915816,12.3404639 6.57627551,10.0822005 9.75114796,9.51136803 C10.7797194,9.32640767 11.8381378,9.22386292 12.8827806,9.22082455 C21.2008929,9.19803683 29.5193878,9.20791151 37.8375,9.20791151 C45.8047194,9.20791151 53.7723214,9.20981049 61.7403061,9.20677212 C63.702551,9.20601253 65.6322704,9.43540895 67.4184949,10.2728578 C69.8108418,11.3943936 70.9006378,13.3886992 70.7923469,15.9492798 M64.2355867,5.29298056 C60.5735969,5.41261611 56.9043367,5.31386931 53.2385204,5.31386931 L52.1391582,5.31386931 L52.1391582,0.161185166 L25.5126276,0.161185166 L25.5126276,5.31386931 L24.3991071,5.31386931 C19.5857143,5.31386931 14.7723214,5.29222097 9.95854592,5.3226046 C6.7565051,5.34197417 4.04234694,6.43084757 2.11262755,9.09359309 C-0.447704082,12.6264499 -0.399872449,19.0396749 2.20752551,22.5467056 C4.22257653,25.258065 7.03278061,26.2075535 10.2998724,26.2060343 C25.0591837,26.1984384 39.8188776,26.2026161 54.5778061,26.2026161 C58.0522959,26.2026161 61.5267857,26.199198 65.0016582,26.2037555 C66.852551,26.2060343 68.6196429,25.8475074 70.2149235,24.8980189 C73.1047194,23.1786852 74.4164541,20.5011276 74.7244898,17.2770445 C75.383801,10.3883156 71.7497449,5.04877212 64.2355867,5.29298056" id="Fill-3" fill="#1A5692" mask="url(#mask-2)"></path>
                    </g>
                    <path d="M62,59 L98,59 L98,44.2910854 L75.3816017,44.2910854 C75.3497215,43.786065 75.3259074,43.4057362 75.3005569,43 L62,43 L62,59 Z" id="Fill-6" fill="#1A5692"></path>
                    <path d="M21.1166171,77.3095714 C20.1372867,77.3518233 19.1550885,77.3220904 18.0047696,77.3220904 C18.0879338,68.9875126 17.7154871,60.7084882 21.6765417,53.181391 C19.641886,52.8253797 19.6490553,52.8285094 18.93033,54.7482322 C17.4867855,58.6048914 16.7490615,62.6473808 16.3271464,66.762246 C15.9210039,70.7194491 15.8679508,74.6872152 16.3102985,78.6483305 C16.342202,78.9331396 16.572696,79.4065173 16.7454768,79.4260784 C18.7769064,79.653378 20.8147883,79.8110401 23,80 C22.6383073,79.2183399 22.3128198,78.6029489 22.0654779,77.9523479 C21.8762076,77.4523671 21.6048484,77.2884454 21.1166171,77.3095714" id="Fill-8" fill="#1A5692"></path>
                    <path d="M103.153567,74.2875977 C102.449296,74.0225239 101.647925,74.0126747 100.886852,74.0109617 C92.6060134,73.9951173 84.3247908,74.0011125 76.043952,74.0011125 C67.7631132,74.0011125 59.4818907,73.9968302 51.2010519,74.0088206 C50.5017708,74.0096771 49.796349,74.0687727 49.1055115,74.1895332 C48.4611136,74.3017292 47.9671648,74.6511641 48.0017067,75.5268923 C48.0350971,76.3786398 48.4968069,76.7310722 49.1738276,76.7884549 C50.2864598,76.8826653 51.4017785,76.9892943 52.5159459,76.9901507 C68.1829889,77.0029976 83.8492644,77.0038541 99.5159236,76.9892943 C100.694569,76.9880096 101.887415,76.9421891 103.0438,76.7216512 C103.433356,76.6471393 103.980653,75.9795304 103.999459,75.558153 C104.018265,75.1333499 103.543122,74.4344802 103.153567,74.2875977" id="Fill-10" fill="#1A5692"></path>
                </g>
                <path d="M588.385663,232.304503 L604.878165,232.304503 C602.11356,227.930848 599.412034,223.657097 596.636858,219.266394 C593.873617,223.632888 591.166977,227.909707 588.385663,232.304503 L588.385663,232.304503 Z M616.488622,217.727585 L599.991005,217.727585 C602.763453,222.107036 605.476913,226.393402 608.247315,230.769444 C611.023514,226.376354 613.716856,222.114197 616.488622,217.727585 L616.488622,217.727585 Z M611.608282,232.298365 L628.093623,232.298365 C625.325949,227.925733 622.617945,223.647209 619.845497,219.266735 C617.086006,223.631865 614.381411,227.911412 611.608282,232.298365 L611.608282,232.298365 Z M581.682825,232.333826 C578.899466,227.929484 576.199645,223.657438 573.42481,219.266053 C570.636678,223.671077 567.922536,227.959148 565.153839,232.333826 L581.682825,232.333826 Z M593.262594,217.750771 L576.794983,217.750771 C579.555156,222.117265 582.257364,226.392038 585.023674,230.767739 C587.805328,226.372944 590.508899,222.101581 593.262594,217.750771 L593.262594,217.750771 Z M605.266533,236.077023 L588.004115,236.077023 C590.864875,247.528927 593.705517,258.898657 596.54616,270.268387 C596.60583,270.263273 596.665841,270.258499 596.725511,270.253385 C599.566836,258.883314 602.408501,247.513243 605.266533,236.077023 L605.266533,236.077023 Z M627.610465,236.087593 C627.179134,236.053496 626.936703,236.018035 626.694271,236.017694 C621.068224,236.014625 615.442177,236.025877 609.81613,235.999963 C609.196924,235.996894 608.997455,236.229097 608.860384,236.781131 C606.837393,244.929694 604.793604,253.0728 602.757998,261.217953 C602.023884,264.155431 601.298635,267.094956 600.569295,270.033798 C600.60953,270.05528 600.649764,270.076761 600.689999,270.098583 C609.630641,258.803526 618.5706,247.508128 627.610465,236.087593 L627.610465,236.087593 Z M592.672029,270.217923 C592.636227,269.861607 592.638955,269.749768 592.6127,269.64509 C589.876054,258.693733 587.130202,247.744422 584.415379,236.787951 C584.256827,236.147604 583.978593,236.002009 583.375413,236.004055 C577.778348,236.022808 572.181283,236.014284 566.583878,236.017694 C566.32167,236.018035 566.059803,236.05486 565.657455,236.085547 C574.682999,247.489034 583.607956,258.765337 592.672029,270.217923 L592.672029,270.217923 Z M596.578211,214.02019 C604.077221,214.02019 611.576571,214.040648 619.075581,214.000073 C620.333769,213.993253 621.155172,214.466523 621.804725,215.497283 C625.419375,221.236192 629.059939,226.959076 632.687205,232.690143 C633.495651,233.967426 633.466668,234.602999 632.542974,235.769807 C621.176994,250.13123 609.809992,264.491289 598.43958,278.848962 C597.222649,280.385384 596.038111,280.379929 594.830727,278.855099 C583.44463,264.4739 572.058874,250.092359 560.6738,235.710136 C559.817277,234.62789 559.783862,233.955833 560.536389,232.767202 C564.225371,226.941004 567.923218,221.119921 571.60163,215.286903 C572.15196,214.414354 572.850613,214.002459 573.910696,214.00621 C581.466648,214.032465 589.022259,214.02019 596.578211,214.02019 L596.578211,214.02019 Z" id="Fill-1" fill="#1A5692"></path>
                <g id="Page-1" transform="translate(496.000000, 58.000000)" fill="#1A5692">
                    <g id="Group-3" transform="translate(0.000000, 54.000000)">
                        <path d="M64.4873764,15.988081 C64.2862903,13.2975467 63.8264213,10.6545649 62.8076011,8.14487794 C62.0667959,6.31989742 60.8113464,5.03696593 58.8635375,4.53926637 C53.6406536,3.20484023 48.4197172,1.86203696 43.1965899,0.528349969 C42.4983876,0.350212948 41.7914213,0.206816342 41.0196985,0.0316359522 C39.6690618,5.64529277 37.957882,11.024883 35.9528633,16.3147887 C35.8640056,16.183465 35.826515,16.0664317 35.8111779,15.9466881 C35.4301854,12.9765058 35.0696423,10.0036133 34.6591929,7.03761961 C34.5661966,6.36621798 34.6820768,5.79115324 34.9832191,5.21387102 C35.2003727,4.79747882 35.4017022,4.36999925 35.5723577,3.93241785 C35.9309532,3.01265921 35.3347547,1.86597913 34.4045487,1.82015135 C33.0692491,1.75485908 31.7268895,1.76767115 30.3903727,1.8211369 C29.6573577,1.85045682 29.2517772,2.28557436 29.209661,3.04321106 C29.1858034,3.46798039 29.2712528,3.94695462 29.4574888,4.32614255 C29.9799232,5.38905141 30.4327322,6.43348133 30.0714588,7.66343985 C29.9633689,8.03154041 29.9745674,8.43487417 29.9239307,8.82120729 C29.5969831,11.3168503 29.268088,13.8122469 28.9396798,16.3076435 C26.8482378,11.0322745 25.1584813,5.64233614 23.8054101,0.0843625393 C23.4012903,0.143002388 23.0585187,0.161974104 22.7318146,0.24500616 C17.1941554,1.65679749 11.6628258,3.09495211 6.11981086,4.4845687 C4.07097191,4.99803696 2.73031648,6.27727266 1.98585955,8.20277863 C1.55958614,9.30535563 1.23994195,10.4581953 0.966308989,11.6110351 C0.19361236,14.8655467 0.189960674,18.2030904 0.00202059925,21.5194449 C-0.0257322097,22.0077818 0.245953184,22.2788063 0.657376404,22.4433921 C1.4293427,22.7518673 2.1923015,23.0871985 2.97790075,23.3552664 C7.95393071,25.0521262 13.078706,26.0546705 18.2864963,26.6427937 C24.5045861,27.3449936 30.7455599,27.4329534 36.9928633,27.292267 C42.1699794,27.1754801 47.3169082,26.7127673 52.4151479,25.7841388 C56.3881816,25.0602569 60.2935375,24.0739741 64.0345674,22.4941476 C64.610073,22.2512111 64.8396423,21.9003575 64.7970393,21.2740445 C64.6770206,19.5133707 64.6188371,17.7480156 64.4873764,15.988081" id="Fill-1"></path>
                    </g>
                    <path d="M20.7519163,31.3080821 C22.209744,31.2953676 23.6723034,31.3310181 25.1237433,31.2165876 C28.8664946,30.9216609 32.5668976,30.3786769 35.9377396,28.4610307 C36.6089271,28.0788477 37.2299588,27.5902119 37.8438931,27.1075594 C38.1706149,26.850527 38.3695817,26.7906941 38.6629453,27.1718799 C39.6468961,28.4505599 40.9753126,29.2214078 42.4016747,29.8045298 C42.8015009,29.9680732 42.8951879,30.1802309 42.8620662,30.590336 C42.7106528,32.4703372 42.6384948,34.3593135 42.4267526,36.231337 C42.1572839,38.6159295 41.4297896,40.8773659 40.4389778,43.0338453 C39.7029664,44.6356233 38.9934524,46.2645755 37.8266225,47.5941136 C36.2400934,49.4025646 34.2726648,50.3404462 31.9380586,50.4663447 C27.939797,50.681494 25.2242913,48.6070356 23.3921885,45.0736504 C21.7744303,41.9533618 20.7079118,38.6214142 20.3591877,35.0648437 C20.3028808,34.4899487 20.3511438,33.9035858 20.3511438,33.3227075 C20.3173124,33.3227075 20.2832444,33.3229568 20.2491763,33.3229568 C20.2491763,32.8462876 20.2889224,32.3643831 20.2378203,31.8939465 C20.1879012,31.4342299 20.3478317,31.3115724 20.7519163,31.3080821 M19.9137009,41.5806524 C20.3395512,41.4749475 20.463521,41.6818698 20.5974273,42.0291503 C21.1224061,43.3905993 21.569549,44.7984188 22.2232293,46.0895641 C24.7877947,51.153925 28.8584508,52.6796654 33.8203171,51.737047 C36.6645242,51.1968053 38.7254033,49.353701 40.1262144,46.7362586 C40.9559128,45.1858372 41.6431879,43.5509017 42.4191819,41.9675722 C42.5171275,41.7678797 42.801974,41.4871634 42.9375364,41.5213181 C43.6584064,41.7018141 44.053974,41.2854765 44.4142908,40.7586972 C45.6802492,38.9086124 46.1295213,36.8241819 45.9686445,34.5796982 C45.8988524,33.6036731 45.4195342,33.0447336 44.5287972,32.8804423 C44.1590171,32.812133 44.0840202,32.613687 44.1055493,32.2803676 C44.2401653,30.2118925 44.3284109,28.13893 44.5143656,26.075441 C44.7597027,23.3567811 43.2760874,20.0886553 40.9204253,18.9645437 C39.7829317,18.4220582 38.8507926,17.656695 37.8493345,16.9506662 C37.5720586,16.7552119 37.282717,16.5744665 36.9846217,16.417405 C34.835497,15.2840691 32.5394539,14.9131048 30.1643919,15.0165659 C27.0854939,15.1506915 24.2256722,16.0003194 21.7576329,18.0266621 C19.9309715,19.5262256 18.6458498,21.4082213 18.5173849,23.9149727 C18.4317417,25.5865559 18.5202239,27.2703549 18.5805527,28.9466749 C18.6264499,30.2271001 18.7501831,31.5042843 18.8407946,32.8066483 C17.4754711,33.0940958 17.0623962,33.6081606 17.020521,34.9516597 C17.0172088,35.0553702 17.0046699,35.1588313 17.002304,35.2622925 C16.9604287,37.3419862 17.4882466,39.2366964 18.6768422,40.9087782 C18.9806155,41.3363345 19.3572564,41.7190161 19.9137009,41.5806524" id="Fill-4"></path>
                    <g id="Group-8" transform="translate(45.000000, 0.000000)">
                        <path d="M36.6906231,16.3096054 C35.2314949,7.88511892 28.9901167,0.51047027 18.5653667,0.0733621622 C13.8137128,-0.125854054 9.59855897,1.46130811 5.94291154,4.58236216 C3.05074487,7.05152432 1.14050128,10.1849838 0.0468666667,13.8579568 C-0.00294102564,14.0257946 -0.0195435897,14.3235243 0.0724820513,14.3969838 C0.853514103,15.0196865 1.66371923,15.6042 2.47890513,16.2106054 C2.51377051,16.0836324 2.55503974,15.9498486 2.58682179,15.8141189 C3.02014872,13.9703351 3.70298846,12.2321189 4.69511026,10.6289027 C8.13848205,5.06422703 14.8238603,1.88041622 21.8875397,3.56268649 C29.6293154,5.40647027 34.0999115,12.9976054 33.9739692,19.2151459 C33.8423346,25.7374703 30.98195,30.7027946 25.3468026,33.8328486 C21.4262256,36.0106054 17.4390013,38.0621189 13.4802385,40.1673892 C13.3571423,40.2328216 13.2188667,40.2676054 13.0146551,40.344227 C13.5170013,38.6493081 13.9904115,37.0516865 14.4768667,35.4102811 C11.5856487,34.3334432 8.87065513,33.0510649 6.70496923,30.8017946 C7.27159103,32.0783351 7.45066154,33.3959838 7.42291154,34.7445243 C7.41461026,35.1468486 7.53723205,35.3759838 7.87165513,35.5613351 C8.85689872,36.1079027 9.83028333,36.6768486 10.8311808,37.2506595 C10.7790013,37.4377135 10.7199436,37.6500649 10.6604115,37.862173 C10.2019436,39.4948216 9.73090513,41.1240649 9.29093718,42.7618216 C9.1045141,43.4565243 9.33386667,44.0539297 9.89408462,44.4788757 C10.4533538,44.9033351 11.0398987,44.9116054 11.6693731,44.5674162 C14.1414949,43.2147405 16.6250013,41.8844432 19.1051872,40.5473351 C22.0386231,38.9657676 25.0451103,37.511173 27.8922128,35.7804973 C35.0130526,31.4514973 37.8900397,23.2340108 36.6906231,16.3096054" id="Fill-6"></path>
                    </g>
                    <path d="M63.4782525,27.0001103 C63.123072,27.0241818 62.760716,27.0018123 62.4060138,26.9624225 C61.2292539,26.8320959 60.3820824,26.0734781 60.1000906,24.9068601 C60.0115944,24.5397085 59.9522781,24.1652626 59.8711964,23.7519131 C58.6733888,23.7519131 57.5002166,23.7414578 56.3277619,23.7686902 C56.2151087,23.7713649 56.0187428,24.00357 56.0110891,24.1380301 C55.9091989,25.9601717 56.5049934,27.4727875 57.9833578,28.5747285 C59.0637287,29.3802736 60.2952605,29.8317971 61.5829994,30.1359736 C61.9585102,30.2247222 62.1046484,30.3859285 62.0847966,30.7912541 C62.050594,31.4963796 62.0754686,32.2041797 62.0754686,32.9941634 C62.7210123,32.9941634 63.2763856,32.9800609 63.830563,32.9992695 C64.1685227,33.0111837 64.2969617,32.8781824 64.2876337,32.5397222 C64.273283,32.0133095 64.3153785,31.4837359 64.2761531,30.960241 C64.2357319,30.4185101 64.4005261,30.1996781 64.9649882,30.0878306 C67.9095189,29.5050079 69.4314139,28.0432097 69.888963,25.4580737 C70.3505782,22.8493525 69.3649222,20.729113 67.0807642,19.4460277 C66.6114953,19.1824566 66.122853,18.9538987 65.6411468,18.7129403 C64.3560389,18.0698172 63.0465347,17.4726488 61.7918025,16.773602 C60.746591,16.1915087 60.6313068,15.1486524 60.7774451,14.0678652 C60.913777,13.0585631 61.499526,12.4108202 62.4064921,12.1936902 C64.1297757,11.7808271 65.4172754,12.602663 65.78585,14.3513743 C65.819335,14.5096628 65.8587995,14.6696534 65.8669316,14.8301302 C65.8855876,15.194364 66.0740605,15.3032937 66.4146512,15.2981877 C67.410831,15.2831126 68.4077284,15.2814105 69.4039083,15.2984308 C69.7810934,15.3047526 69.9088149,15.1187454 69.8901589,14.7827166 C69.8289291,13.6785873 69.6131898,12.619197 69.0078282,11.6718973 C68.0826844,10.224688 66.7174516,9.45780323 65.1075388,9.10062068 C64.6411401,8.99704018 64.4983503,8.7869614 64.5210723,8.3191471 C64.5574275,7.57511811 64.5308786,6.82792821 64.5308786,6.00852373 C63.9200158,6.00852373 63.3670344,6.02773232 62.8162055,6.00171562 C62.4337585,5.98372277 62.2744654,6.1040804 62.2969482,6.51353949 C62.3256497,7.03873642 62.24983,7.57390237 62.3175176,8.09156176 C62.3964466,8.69456564 62.1218693,8.89929519 61.6136143,9.03959085 C60.981943,9.21392706 60.3502716,9.41768402 59.7539988,9.68927891 C56.6410862,11.1060949 55.6181183,15.3271221 57.6956257,18.0800294 C58.4763054,19.1146187 59.5698311,19.6903902 60.6853612,20.2374703 C61.9750135,20.8698949 63.2888229,21.4553923 64.5552749,22.1327991 C65.7081169,22.7496623 66.120222,23.8375008 65.8262712,25.170188 C65.5744159,26.3115187 64.8205242,26.9096597 63.4782525,27.0001103" id="Fill-9"></path>
                </g>
                <g id="Page-1" transform="translate(581.000000, 337.000000)" fill="#1A5692">
                    <path d="M70.2527739,18.4439351 L15.4695596,18.4439351 C15.1544593,17.0049992 14.8420676,15.5787291 14.5102642,14.0624407 L70.9732611,14.0624407 C70.7258758,15.5674203 70.4942906,16.9746915 70.2527739,18.4439351 M72.7947937,9.27654248 L14.7860898,9.27654248 L13.4697109,9.27654248 C13.1270732,7.67702109 12.8101671,6.2055157 12.4977754,4.73265325 C12.2792818,3.70264471 11.7565222,2.94314347 10.7105517,2.60206906 C8.24662974,1.79688012 5.79173646,0.960931166 3.32284875,0.170669894 C1.79610196,-0.317419352 0.50951758,0.269735274 0.115867904,1.56979875 C-0.288164734,2.90333638 0.377699111,4.06317032 1.90625164,4.59694725 C3.57113697,5.17822128 5.2306051,5.79387417 6.93160508,6.24577515 C7.88096892,6.49818831 8.23985825,6.99984816 8.43307162,7.89912658 C10.8915764,19.3414041 13.3613669,30.7814199 15.8808152,42.2105792 C16.2062984,43.6879652 16.1950126,45.0798564 15.8456034,46.5350771 C15.2935007,48.8393649 14.8208502,51.1644611 14.3436854,53.4868431 C13.850269,55.8906487 14.7535867,56.9989144 17.1773311,56.9989144 C33.2032067,57.0007238 49.2286308,57.0002714 65.2545064,56.9975573 C65.6300988,56.9975573 66.0133655,57.0111279 66.3790263,56.9410131 C67.4701401,56.7320259 68.2457022,55.7992733 68.2718853,54.7176965 C68.2998742,53.6049073 67.6155016,52.6762259 66.4973018,52.4201939 C65.9916967,52.3043915 65.4540398,52.293535 64.9312803,52.2930826 C50.259704,52.2867497 35.5885792,52.2881067 20.917003,52.2881067 L19.3861933,52.2881067 C19.7712657,50.4108404 20.0786917,48.7086348 20.5034903,47.0367369 C20.5743653,46.7567302 21.1382052,46.4527488 21.4984488,46.4192746 C24.3424775,46.1537432 27.1919233,45.9479224 30.0400148,45.7289834 C43.0078825,44.7347108 55.9762016,43.7426999 68.9445207,42.747975 C70.4021982,42.635339 71.179566,41.9129307 71.4197285,40.4373541 C72.9130692,31.2600097 74.4027985,22.0826653 75.8916249,12.9048686 C76.3236464,10.2409598 75.4984267,9.27654248 72.7947937,9.27654248" id="Fill-1"></path>
                    <path d="M57.447061,70.437869 C55.8427577,70.4060987 54.6051145,69.1472004 54.5967312,67.5392699 C54.5883479,65.8770653 55.8555533,64.5965455 57.5101565,64.5952217 C59.1638773,64.5943392 60.4138749,65.8700052 60.402403,67.5476538 C60.3918135,69.2147123 59.1078414,70.4700805 57.447061,70.437869 M57.5229521,60.0000002 C53.4257133,59.9991177 50.0106123,63.4038353 50.0000228,67.4995571 C49.9898746,71.6116052 53.3696774,74.9960252 57.4920662,74.9999965 C61.6347515,75.0039678 64.9946991,71.6623495 64.9999938,67.5326511 C65.0052885,63.4210442 61.6104839,60.0008827 57.5229521,60.0000002" id="Fill-4"></path>
                    <path d="M21.487174,70.4378974 C19.8379748,70.4317199 18.5556076,69.1340004 18.5737064,67.4872512 C18.5913637,65.8409433 19.8966856,64.5701402 21.5454434,64.5952915 C23.1354905,64.6195603 24.391813,65.8899222 24.4054975,67.4881337 C24.4209477,69.1326766 23.1235717,70.4436337 21.487174,70.4378974 M21.5039486,60.0001024 C17.4092022,59.9784811 14.0039765,63.3836159 14.0000036,67.5035775 C13.9960306,71.6544267 17.325771,74.9942564 21.473931,74.9999926 C25.6066408,75.0057289 28.9840561,71.6539855 28.9999477,67.5313764 C29.0153979,63.4498036 25.6031093,60.0217237 21.5039486,60.0001024" id="Fill-7"></path>
                </g>
                <g id="Page-1" transform="translate(0.000000, 332.000000)" fill="#1A5692">
                    <g id="Group-3">
                        <path d="M84.109644,70.2106124 C72.7129359,75.7870945 61.3238185,81.3799935 49.9329493,86.9684951 C49.7209963,87.0725668 49.5017446,87.161101 49.2150534,87.2889186 C49.1940332,87.0063127 49.1657144,86.7981694 49.1657144,86.5897329 C49.1633789,80.5805472 49.1703856,74.5713616 49.1511171,68.5621759 C49.1493654,68.0649772 49.3128554,67.8310358 49.7522346,67.6372573 C61.2254326,62.5773225 72.6933755,57.5047818 84.1621943,52.4348795 C84.3140064,52.3677459 84.4693218,52.3082345 84.7221473,52.2041629 C84.7373285,52.5325016 84.756305,52.7494397 84.756305,52.9663779 C84.7580567,58.3649121 84.7490064,63.7634463 84.7706104,69.1619805 C84.772654,69.70843 84.5901876,69.9754984 84.109644,70.2106124 M33.0155366,46.7982997 C32.9095601,46.84843 32.7971607,46.8853681 32.6129426,46.9580717 C32.5965936,46.6827948 32.5709023,46.4547166 32.5709023,46.2263453 C32.5685668,38.1160847 32.5703185,30.0058241 32.5647715,21.8955635 C32.5644795,21.4918827 32.578493,21.1946189 33.034805,20.9674202 C40.0648721,17.4688534 47.0823856,13.9441954 54.1036943,10.4268664 C54.2295232,10.3638371 54.3629426,10.3160521 54.6052581,10.2140326 L54.6052581,10.9824039 C54.6052581,19.2635765 54.6040903,27.5447492 54.6093453,35.8259218 C54.6096372,36.255987 54.5970836,36.5857915 54.1069057,36.8165081 C47.0701238,40.1300912 40.0444359,43.4674202 33.0155366,46.7982997 M47.0467681,86.441101 L47.0467681,87.3038697 C46.7460634,87.1825016 46.5454963,87.1124365 46.3545634,87.0227296 C31.8395768,80.2076482 17.3269258,73.3878762 2.80610034,66.5862801 C2.26804329,66.3341629 2.07594262,66.0462801 2.07798624,65.4420782 C2.10192584,58.8975831 2.0928755,52.3530879 2.0928755,45.8085928 L2.0928755,44.985987 C2.36467752,45.0783322 2.56670436,45.1296352 2.75471779,45.2134788 C7.25828154,47.2236743 11.7565903,49.2453029 16.2671607,51.2384951 C16.7704762,51.4607101 16.9558621,51.7354007 16.9225802,52.2806775 C16.869154,53.1563453 16.8983487,54.0369967 16.8767446,54.9150098 C16.8615634,55.5297655 17.1313218,55.9217199 17.6985735,56.1489186 C27.2349997,59.9711336 36.7670466,63.803316 46.3087279,67.610873 C46.8663453,67.8333811 47.0651607,68.0963453 47.0625332,68.7122736 C47.0362581,74.621785 47.0467681,80.5315896 47.0467681,86.441101 M30.4604225,47.7601564 C30.4510802,47.9035114 30.2665701,48.0905472 30.1173856,48.161785 C26.4806104,49.8969967 22.8377044,51.6193094 19.1945064,53.3410358 C19.1577211,53.3583322 19.1031272,53.3369316 18.9974426,53.3296026 C18.9974426,52.8285928 18.9752547,52.3217199 19.0108721,51.8198306 C19.0216742,51.6665081 19.158597,51.4560195 19.2952279,51.3882997 C22.969956,49.5680717 26.6519829,47.7630879 30.4767715,45.8845212 C30.4767715,46.5775505 30.4992513,47.1706124 30.4604225,47.7601564 M16.8930936,15.9192117 C16.8930936,15.8245212 16.9222883,15.7301238 16.9544023,15.5383974 C17.2040164,15.6412964 17.418305,15.7274853 17.6308419,15.8177785 C21.6999896,17.5456612 25.7682614,19.2753029 29.8382849,21.0002541 C30.2046775,21.1556287 30.4977916,21.2752378 30.4960399,21.8055635 C30.4744359,28.5696352 30.4817346,35.3334137 30.4802748,42.0977785 C30.4802748,42.2153355 30.4604225,42.3325993 30.4391104,42.5700586 C28.6351742,41.7694397 26.9290399,41.0119153 25.2223218,40.254684 C22.6464795,39.1119479 20.071805,37.9665733 17.4933352,36.8299935 C17.146503,36.676671 16.8758688,36.5482671 16.8770366,36.0645537 C16.8939695,29.3494397 16.8895903,22.6343257 16.8930936,15.9192117 M86.8764191,50.7582997 C86.877295,50.1382671 86.6273889,49.7691792 86.0665601,49.5223388 C76.5715903,45.3383648 67.0839191,41.1385603 57.5831104,36.9677785 C56.9198084,36.676671 56.65005,36.3612313 56.6585164,35.5867036 C56.7061037,31.1655635 56.6815802,26.7441303 56.682456,22.3229902 C56.6833319,17.7796026 56.6736977,13.236215 56.6941339,8.69282736 C56.6970534,8.03614984 56.4439359,7.65357655 55.8702614,7.38445603 C50.9851238,5.09458632 46.1005701,2.80325081 41.2300299,0.48171987 C40.5220601,0.14429316 39.940503,0.153674267 39.2427513,0.518364821 C31.3587413,4.64370684 23.4636372,8.74588925 15.5638621,12.8410358 C14.9624527,13.1526645 14.7601339,13.5839023 14.7615936,14.246443 C14.7796943,21.4766384 14.7718117,28.707127 14.7893285,35.9373225 C14.7902044,36.4025668 14.6427715,36.6212638 14.2162379,36.7936417 C9.8244896,38.5701889 5.44617081,40.3816221 1.0494594,42.1461498 C0.313754698,42.4413616 -0.00242315436,42.8353681 0.000204362416,43.656215 C0.025311745,51.2774853 0.0250197987,58.8984625 -8.75838926e-05,66.5194397 C-0.00242315436,67.2942606 0.266459396,67.7213941 0.953701007,68.0432834 C16.4029158,75.281101 31.8462916,82.5309381 47.2841205,89.7933811 C47.8691809,90.068658 48.357607,90.0712964 48.9362446,89.7872248 C61.2420735,83.7469642 73.5534493,77.7169642 85.8697883,71.6986906 C86.5666641,71.3580391 86.8758352,70.9007101 86.8734997,70.1044886 C86.8548151,63.6558567 86.8632815,57.2072248 86.8764191,50.7582997" id="Fill-1"></path>
                    </g>
                    <path d="M19.3180023,59.046435 C17.1176304,58.1102457 14.9258717,57.1554823 12.728576,56.2118035 C12.5298565,56.126423 12.3145258,56.0760935 12.0770469,56 C12.0419787,56.1770521 12.0062954,56.2720192 12.0062954,56.3669862 C12.0022964,59.5814859 11.986608,62.7968844 12.0275208,66.0107849 C12.0312122,66.2881965 12.3502092,66.6836429 12.6270629,66.8151588 C14.0731622,67.5008987 15.5530992,68.1198322 17.0219621,68.7603355 C17.9460383,69.1632714 18.871345,69.5629119 19.8794002,70 C19.928311,69.7207909 19.9892188,69.5347513 19.9895264,69.3484122 C19.9953711,66.2330737 19.9870655,63.1180348 19.9999853,60.0026962 C20.0021386,59.5008987 19.7671206,59.2375674 19.3180023,59.046435" id="Fill-4"></path>
                    <path d="M43.2757041,71.0681565 C41.0991597,70.1313469 38.9309228,69.1756572 36.7580706,68.2304564 C36.5565387,68.1429489 36.3420841,68.084211 36.0983998,68 C36.0544012,68.1546365 36.0067105,68.2454405 36.0067105,68.3365442 C36.0017876,71.5818135 35.9867111,74.8276822 36.0285559,78.0726518 C36.0322481,78.3453635 36.3682371,78.7322545 36.6494587,78.8641151 C38.1014114,79.5446956 39.5850553,80.1617433 41.059161,80.796772 C41.9668237,81.1875589 42.8775632,81.570554 43.8879918,82 C43.9424515,81.7416731 43.9882962,81.6250963 43.9882962,81.5085196 C43.9932191,78.3378714 43.9870655,75.1672232 43.9999881,71.996575 C44.0021419,71.476325 43.7110745,71.2554585 43.2757041,71.0681565" id="Fill-6"></path>
                    <path d="M31.3052792,66.088845 C29.1036093,65.1424525 26.9120924,64.1726254 24.7150376,63.2151165 C24.535052,63.1367011 24.3418367,63.0868278 24.0843188,63 C24.048014,63.2015966 24.0154013,63.2992403 24.0150936,63.396884 C24.0104786,66.6010988 24.0169396,69.8053135 24.0000179,73.0095283 C23.9972489,73.5677497 24.3166079,73.7936821 24.7728791,73.9880682 C26.9299372,74.9086227 29.0802266,75.8463024 31.2345157,76.7734667 C31.4317306,76.8587922 31.6418677,76.9161767 31.8849251,77 C31.9313829,76.7902914 31.9910705,76.6478819 31.9910705,76.5051719 C31.9966085,73.3508305 31.9913781,70.1964891 31.9999928,67.0421477 C32.0015312,66.5431134 31.7550894,66.2823297 31.3052792,66.088845" id="Fill-8"></path>
                    <path d="M71.9854726,63.7789698 C71.9851657,63.5456364 71.9510978,63.3123031 71.9265444,63 C71.6239234,63.1084717 71.4096948,63.1710515 71.2077428,63.2598553 C69.0672978,64.1988506 66.9363673,65.1584078 64.7845663,66.0729672 C64.2041847,66.3197105 63.9951736,66.6594295 64.0000843,67.2661558 C64.0249447,70.2458493 64.0108264,73.2255428 64.0129749,76.2052363 C64.0129749,76.4242656 64.0363006,76.642699 64.0562503,77 C64.3907907,76.8822903 64.6047125,76.8214985 64.8060506,76.7332908 C66.9471094,75.7945934 69.0786538,74.8362282 71.229534,73.9195828 C71.8114502,73.6719455 72.0051154,73.3232865 71.9998978,72.7180502 C71.9731959,69.7386547 71.9891556,66.7586633 71.9854726,63.7789698" id="Fill-10"></path>
                    <path d="M81.9842363,57.8155195 C81.9836222,57.5610989 81.9292748,57.3069769 81.8936572,57 C81.6197706,57.0964529 81.4499732,57.1439328 81.2906154,57.2138088 C79.1068917,58.1744556 76.9320723,59.1542137 74.7369878,60.0897767 C74.1803102,60.3271762 73.9957745,60.6538617 74.0000731,61.2275025 C74.0224876,64.2327709 74.0095916,67.238338 74.012355,70.2436064 C74.0126621,70.4604014 74.0412175,70.6765992 74.063632,71 C74.3884886,70.8712966 74.641803,70.7790244 74.8877482,70.6712241 C76.9796647,69.7538767 79.0623697,68.8168206 81.165647,67.9251541 C81.7671536,67.6707335 82.0057297,67.3243393 81.9998958,66.6826142 C81.9728756,63.7272146 81.9903773,60.7712177 81.9842363,57.8155195" id="Fill-12"></path>
                    <path d="M59.9950407,71.914175 L59.9950407,68 C59.7324657,68.0668193 59.6067126,68.081202 59.4972551,68.1294437 C57.1928061,69.144019 54.8951213,70.1732765 52.5832931,71.1716713 C52.0498416,71.4020932 51.998495,71.7847313 52.0000323,72.2611562 C52.0086413,75.2536438 52.003107,78.2458318 52.007104,81.2380198 C52.0074115,81.4729362 52.0436923,81.7081523 52.0682895,82 C52.2779805,81.9451662 52.4018889,81.929585 52.5104239,81.8819425 C54.8151804,80.8679665 57.1140951,79.8408065 59.4253083,78.8412131 C59.9184819,78.6278706 60.0021124,78.2823877 59.9999601,77.8236415 C59.9885839,75.8538193 59.9950407,73.8839972 59.9950407,71.914175" id="Fill-14"></path>
                    <path d="M52.9928116,23.1908591 C52.9928116,21.6668503 52.9867943,20.143137 52.9958203,18.6191282 C52.9991298,18.0276071 52.781002,17.8518054 52.2165776,18.1268834 C50.0229643,19.195876 47.8134051,20.2341402 45.6408524,21.3433161 C45.3393848,21.4975488 45.0379171,21.9797478 45.0325015,22.3148052 C44.9846639,25.3374128 45.0054236,28.3606114 45.000008,31.3838099 C44.9988046,31.94933 45.1645817,32.1617694 45.7587918,31.8683726 C47.9232211,30.7979027 50.0960747,29.7427969 52.2752465,28.7006916 C52.7906298,28.4542738 53.0087575,28.1032613 52.9997316,27.5412867 C52.9777684,26.0911442 52.9925108,24.6410017 52.9928116,23.1908591" id="Fill-16"></path>
                    <path d="M42.9938338,28.1881904 C42.9941344,26.688376 43.0010489,25.1885616 42.9911281,23.6884519 C42.9863179,22.9265852 42.8618559,22.8536468 42.1544669,23.1944197 C40.0229801,24.2223492 37.9008129,25.2685871 35.7639146,26.2861812 C35.2534401,26.5292108 34.9985034,26.8643731 35.0000066,27.4278002 C35.0090256,30.4029193 34.9988041,33.3783337 35.0081237,36.3534529 C35.0099275,37.0320458 35.2026331,37.1427823 35.829152,36.8421697 C37.9627432,35.8180791 40.0867142,34.7750894 42.2230112,33.7566094 C42.760242,33.5005868 43.0070616,33.1299888 42.9998464,32.5402803 C42.9815078,31.0897806 42.9935331,29.6389855 42.9938338,28.1881904" id="Fill-18"></path>
                    <path d="M20.8790907,33.4691723 C22.9975851,34.2467322 25.0983929,35.0703526 27.1950038,35.9020336 C27.7705676,36.1303213 27.9983949,35.9570184 27.9986947,35.4094735 C28.0013927,32.4592945 28.0001936,29.5094033 27.9923995,26.5592243 C27.9915002,26.0848005 27.7669703,25.7750432 27.269947,25.5890737 C25.1568486,24.7971199 23.058439,23.9683176 20.951336,23.1605305 C20.1479449,22.8525005 20.0127473,22.9454853 20.0076512,23.8128632 C19.998658,25.1799983 20.005253,26.5471334 20.005253,27.9142684 C20.0055528,29.3533731 20.0169441,30.7924779 20.0001569,32.2315826 C19.9929623,32.8597335 20.2324808,33.2319604 20.8790907,33.4691723" id="Fill-20"></path>
                </g>
                <g id="Page-1" transform="translate(250.000000, 241.000000)" fill="#1A5692">
                    <g id="Group-3" transform="translate(40.000000, 48.000000)">
                        <path d="M78.6991784,84.0000824 L44.8838036,84.0000824 C44.1513114,80.6263729 43.4164331,77.256444 42.6887128,73.88557 C42.4224387,72.6549859 42.2525578,71.3979377 41.8879818,70.1975984 C41.5787603,69.1796729 41.868894,68.4235537 42.3818772,67.5606326 C43.1005309,66.3508418 43.7795775,65.076781 44.204757,63.7455385 C44.9229335,61.4932484 43.9986094,60.0036935 41.7133289,59.3539035 C41.371181,59.2565532 41.0190121,59.1544771 40.6677976,59.1374644 C38.8425318,59.0476753 36.9786133,59.0977682 35.7765625,60.6875088 C34.5893047,62.2564562 35.2697828,63.9208637 35.9836645,65.4893385 C36.292886,66.1689007 36.5968584,66.8848511 37.0688029,67.449105 C37.8890989,68.4306423 37.9287059,69.4178505 37.6524108,70.6144091 C36.6264444,75.0514113 35.6954396,79.5106244 34.7224417,83.9887406 L0.714280631,83.9887406 C0.714280631,81.7629146 0.713803437,79.6065571 0.714280631,77.4511447 C0.714280631,76.1118685 0.713803437,74.7730649 0.716189406,73.4342613 C0.720006955,70.7448397 1.76792425,68.5695792 3.90193433,66.8787076 C10.6255931,61.5494848 17.7887472,56.8988789 25.5231022,53.1376583 C26.4011385,52.710451 26.7117916,52.2279524 26.6998618,51.2605924 C26.6459389,46.7720796 26.6621635,42.2826217 26.6903179,37.7936363 C26.6950898,37.1017872 26.4980088,36.6712719 25.9301484,36.2232712 C24.2074792,34.865092 23.4053167,32.9884986 23.3910009,30.8458458 C23.3533026,25.2543441 23.2759972,19.6604795 23.4186781,14.0718133 C23.6038292,6.79605601 29.8612698,0.757971402 37.2362979,0.605802407 C40.0880073,0.546730593 42.9592816,0.326038293 45.7656575,1.14831795 C51.530157,2.83588156 55.8048579,8.04081729 55.9771248,14.0292816 C56.1412794,19.7342012 56.0592021,25.4476271 56.0105284,31.1567998 C55.9928722,33.2309294 54.9578391,34.8943917 53.4565879,36.3144781 C53.1087137,36.6438625 52.7880395,37.2000827 52.7832676,37.6556446 C52.7345938,42.262301 52.7684746,46.8699025 52.7393658,51.4770315 C52.7345938,52.2567794 53.0562224,52.6561049 53.7090233,53.0464515 C59.4849754,56.4986083 65.2609276,59.9526555 70.9824797,63.4922386 C72.626889,64.509219 74.1090526,65.7880056 75.642753,66.9765305 C77.6851419,68.55871 78.6915433,70.6593037 78.6972697,73.2225479 C78.705382,76.7952113 78.6991784,80.367402 78.6991784,84.0000824" id="Fill-1"></path>
                    </g>
                    <path d="M92.6644886,11.022671 C92.6933946,11.2862278 92.6843911,11.3978239 92.7185096,11.4942239 C94.1330073,15.4618212 95.532815,19.4346422 96.9989643,23.3822947 C97.1259611,23.7232564 97.681335,24.0936605 98.0585344,24.1178792 C99.4322794,24.2062063 100.815502,24.1530201 102.194933,24.153495 L107.240686,24.153495 C103.599953,18.1904645 98.8110377,13.9564612 92.6644886,11.022671 L92.6644886,11.022671 Z M50.8901317,24.1530201 C54.1110163,24.1530201 57.0219909,24.1231028 59.9324916,24.1724901 C60.7480194,24.1867364 61.0579294,23.9056092 61.3318254,23.142007 C62.6885111,19.3624609 64.1314409,15.6142568 65.5416737,11.8537058 C65.6421339,11.5858752 65.7212699,11.3094968 65.8809636,10.8208483 C59.5145395,13.7945281 54.5787246,17.9986142 50.8901317,24.1530201 L50.8901317,24.1530201 Z M88.8313658,24.0846378 C87.5012167,19.470258 85.7365302,15.2253325 83.5079264,11.1746317 C81.7110168,7.90890255 81.6953791,7.94451833 77.9769325,8.07558438 C77.2054745,8.10312725 76.7462959,8.3415155 76.4046366,9.02391375 C74.5721869,12.6842657 72.6696046,16.3104264 70.8888066,19.995472 C70.2846242,21.2448733 69.9671322,22.6329388 69.4747828,24.0846378 L88.8313658,24.0846378 Z M59.0198207,49.6396687 L59.0198207,32.3897617 L47.4095671,32.3897617 C47.3403823,32.5099055 47.2560337,32.6044061 47.2252323,32.7145775 C45.7325463,38.1419468 45.9149857,43.5802382 47.1930092,49.0085572 C47.2560337,49.2759129 47.7806062,49.5945554 48.1047323,49.6111761 C49.4429371,49.6786086 50.7863545,49.6396687 52.1283503,49.6396687 L59.0198207,49.6396687 Z M98.9716791,32.4666917 C99.0764041,35.4650651 99.2773244,38.2635153 99.2446274,41.0591162 C99.2109828,43.8822599 98.9465641,46.7030293 98.7764453,49.6368194 C102.677805,49.6368194 106.49529,49.653915 110.312302,49.6007288 C110.571508,49.5974046 110.973822,49.1144547 111.056275,48.7896389 C112.245685,44.1234975 112.310131,39.4155669 111.428736,34.6943397 C111.011732,32.4605183 110.977613,32.4666917 108.675086,32.4666917 L106.900448,32.4666917 L98.9716791,32.4666917 Z M67.2272242,32.4059075 C67.1405063,36.087154 67.0173004,39.6748497 66.9955025,43.2634952 C66.9893422,44.2355684 66.8798786,44.8562327 65.9288244,45.4545777 C61.7028645,48.113414 58.7914161,51.8744399 57.2845141,56.6531271 C56.9878723,57.5938584 56.5718158,57.8616891 55.640664,57.8137265 C54.1091208,57.7348969 52.5704696,57.792357 50.8707031,57.792357 C51.0526686,58.1651355 51.1384388,58.4571848 51.3118747,58.6794273 C52.7197382,60.483485 54.1726192,62.2533516 55.543521,64.0844773 C55.9131385,64.5778745 56.2443726,65.2431772 56.2585886,65.8372483 C56.3296689,68.8736118 56.2912856,71.9128246 56.2912856,75 C46.7172452,69.413547 36.5399701,55.5252942 38.1738689,37.3536509 C39.9395031,17.713688 55.2639385,2.66198658 73.7410215,0.348385837 C95.3996579,-2.36268696 112.593505,11.0953272 118.086115,28.662927 C123.904273,47.2690827 115.877414,65.6672423 101.847587,74.9624847 C101.817734,74.5222737 101.772716,74.1580431 101.771768,73.7942873 C101.766082,71.1041091 101.798779,68.4129811 101.751392,65.7232778 C101.737176,64.900316 102.043295,64.3580064 102.569289,63.7539629 C104.187077,61.8976687 105.71009,59.9587459 107.269592,58.0516399 C107.185243,57.9125009 107.099947,57.7738368 107.015124,57.6351727 C105.423873,57.6351727 103.830253,57.5914841 102.240898,57.6527432 C101.400256,57.6855097 101.012631,57.4366742 100.74916,56.5842699 C99.1906064,51.5439255 96.1080914,47.6551577 91.6371415,44.8875745 C91.0457536,44.5214444 90.9069101,44.1386935 90.9021714,43.4686421 C90.8780041,39.7987926 90.7822827,36.1284683 90.7097808,32.4059075 L67.2272242,32.4059075 Z" id="Fill-4"></path>
                    <path d="M0.0253890634,133 C0.0253890634,129.748932 -0.0503089567,126.571001 0.0597117682,123.399764 C0.11002039,121.970938 0.936116175,120.794989 2.01046385,119.840845 C6.81517234,115.574445 12.1507073,112.092011 17.8275887,109.198986 C19.7369654,108.226199 20.5249771,107.209433 20.3557145,105.003334 C20.1290906,102.035258 20.3265637,99.0346767 20.2720235,96.0493918 C20.2630902,95.5704078 20.0007331,94.9857795 19.6650288,94.6444675 C18.5949127,93.5579099 17.7899747,92.3054766 17.7810414,90.7820013 C17.7500099,85.7689217 17.5647614,80.7352869 17.9432515,75.7484988 C18.3396082,70.527477 22.8739666,66.4092658 28.0167302,66.0961575 C29.9594894,65.9776066 31.9708939,65.9044683 33.8633444,66.275418 C39.4217419,67.3648438 42.8906859,71.9061098 42.9715559,77.9507738 C43.0256259,81.9714673 42.9875418,85.9935949 42.9790786,90.0152444 C42.9753173,91.8991528 42.3584489,93.5015026 40.9253584,94.7735351 C40.629619,95.0359725 40.4218021,95.5656275 40.4171003,95.9752975 C40.378546,99.5982717 40.3696127,103.221724 40.4232126,106.84422 C40.4307354,107.3581 40.8233307,107.865766 41.0650001,108.440834 C39.6384921,109.78696 37.909192,111.225825 36.4112175,112.88028 C34.3292869,115.179116 33.2577602,118.00474 33.1735991,121.128653 C33.0795643,124.630208 33.1303431,128.135587 33.1190589,131.639532 C33.1176484,132.067845 33.1190589,132.496158 33.1190589,133 L0.0253890634,133 Z" id="Fill-6"></path>
                    <g id="Group-10" transform="translate(114.000000, 65.000000)">
                        <path d="M10.7893132,66.9847987 C10.7893132,63.6474771 10.7496226,60.4098336 10.798399,57.1740888 C10.8777803,51.8750049 8.96976069,47.5508689 4.62148441,44.3630646 C3.88601219,43.8238529 3.20409841,43.2143918 2.49923101,42.6353088 C2.47053899,42.6120505 2.45714938,42.5702806 2.37824631,42.4416482 C3.51779787,42.1127101 3.39442217,41.2008918 3.38964017,40.3047371 C3.37290315,37.0238998 3.36764295,33.7425878 3.39490037,30.4617505 C3.40063877,29.7891598 3.26052606,29.311179 2.70963919,28.8336729 C1.38837147,27.6878481 0.746626529,26.1888775 0.749973932,24.4255224 C0.758103339,20.1165754 0.726063912,15.8076285 0.762407142,11.4986815 C0.808314381,6.10798859 5.27661896,1.10746467 10.6951077,0.621889352 C13.0067285,0.414463728 15.4359866,0.408293171 17.6902233,0.881052718 C22.7189787,1.93621785 26.1825842,6.22760245 26.3289136,11.3353991 C26.4575495,15.8384813 26.3810374,20.3472593 26.3700388,24.8531894 C26.365735,26.4860135 25.6326538,27.7903742 24.4653666,28.9267059 C24.0976305,29.2845982 23.7973206,29.8992805 23.7891912,30.4024182 C23.7303726,33.8403674 23.7834528,37.2802152 23.7404148,40.7191137 C23.7298944,41.578245 23.989079,42.0495806 24.7934121,42.4497174 C31.0057135,45.5345209 36.8478879,49.1974581 42.2109054,53.5970648 C43.5283475,54.6773868 44.5067456,55.9926646 44.562695,57.6952635 C44.6631171,60.763454 44.591387,63.8368657 44.591387,66.9847987 L10.7893132,66.9847987 Z" id="Fill-8"></path>
                    </g>
                </g>
                <path d="M203.5,355.5 L113,366" id="Line" stroke="#1A5692" stroke-width="4" stroke-linecap="square"></path>
                <path id="Line-decoration-1" d="M203.5,355.5 L193.117711,359.724699 L192.426217,353.764679 L203.5,355.5 Z" stroke="#1A5692" stroke-width="4" stroke-linecap="square"></path>
                <path id="Line-decoration-2" d="M113,366 L124.073783,367.735321 L123.382289,361.775301 L113,366 Z" stroke="#1A5692" stroke-width="4" stroke-linecap="square"></path>
                <path d="M545,366 L453,355.5" id="Line-Copy-7" stroke="#1A5692" stroke-width="4" stroke-linecap="square"></path>
                <path id="Line-Copy-7-decoration-1" d="M545,366 L533.929476,367.755992 L534.609842,361.794691 L545,366 Z" stroke="#1A5692" stroke-width="4" stroke-linecap="square"></path>
                <path id="Line-Copy-7-decoration-2" d="M453,355.5 L463.390158,359.705309 L464.070524,353.744008 L453,355.5 Z" stroke="#1A5692" stroke-width="4" stroke-linecap="square"></path>
                <path d="M215,292 L131,266" id="Line-Copy" stroke="#1A5692" stroke-width="4" stroke-linecap="square"></path>
                <path id="Line-Copy-decoration-1" d="M215,292 L203.795861,291.672473 L205.569964,285.940758 L215,292 Z" stroke="#1A5692" stroke-width="4" stroke-linecap="square"></path>
                <path id="Line-Copy-decoration-2" d="M131,266 L140.430036,272.059242 L142.204139,266.327527 L131,266 Z" stroke="#1A5692" stroke-width="4" stroke-linecap="square"></path>
                <path d="M527,263 L443,297" id="Line-Copy-4" stroke="#1A5692" stroke-width="4" stroke-linecap="square"></path>
                <path id="Line-Copy-4-decoration-1" d="M527,263 L518.114553,269.832922 L515.863396,264.271241 L527,263 Z" stroke="#1A5692" stroke-width="4" stroke-linecap="square"></path>
                <path id="Line-Copy-4-decoration-2" d="M443,297 L454.136604,295.728759 L451.885447,290.167078 L443,297 Z" stroke="#1A5692" stroke-width="4" stroke-linecap="square"></path>
                <path d="M239,232 L185,172" id="Line-Copy-5" stroke="#1A5692" stroke-width="4" stroke-linecap="square"></path>
                <path id="Line-Copy-5-decoration-1" d="M239,232 L229.545298,225.979317 L234.005063,221.965529 L239,232 Z" stroke="#1A5692" stroke-width="4" stroke-linecap="square"></path>
                <path id="Line-Copy-5-decoration-2" d="M185,172 L189.994937,182.034471 L194.454702,178.020683 L185,172 Z" stroke="#1A5692" stroke-width="4" stroke-linecap="square"></path>
                <path d="M412,230 L477,173" id="Line-Copy-6" stroke="#1A5692" stroke-width="4" stroke-linecap="square"></path>
                <path id="Line-Copy-6-decoration-1" d="M412,230 L418.142115,220.623731 L422.098054,225.134889 L412,230 Z" stroke="#1A5692" stroke-width="4" stroke-linecap="square"></path>
                <path id="Line-Copy-6-decoration-2" d="M477,173 L466.901946,177.865111 L470.857885,182.376269 L477,173 Z" stroke="#1A5692" stroke-width="4" stroke-linecap="square"></path>
                <path d="M295.5,185 L275,120" id="Line-Copy-2" stroke="#1A5692" stroke-width="4" stroke-linecap="square"></path>
                <path id="Line-Copy-2-decoration-1" d="M295.5,185 L289.390493,175.602451 L295.112654,173.79777 L295.5,185 Z" stroke="#1A5692" stroke-width="4" stroke-linecap="square"></path>
                <path id="Line-Copy-2-decoration-2" d="M275,120 L275.387346,131.20223 L281.109507,129.397549 L275,120 Z" stroke="#1A5692" stroke-width="4" stroke-linecap="square"></path>
                <path d="M364,186 L382,117" id="Line-Copy-3" stroke="#1A5692" stroke-width="4" stroke-linecap="square"></path>
                <path id="Line-Copy-3-decoration-1" d="M364,186 L363.823305,174.792468 L369.629008,176.306999 L364,186 Z" stroke="#1A5692" stroke-width="4" stroke-linecap="square"></path>
                <path id="Line-Copy-3-decoration-2" d="M382,117 L376.370992,126.693001 L382.176695,128.207532 L382,117 Z" stroke="#1A5692" stroke-width="4" stroke-linecap="square"></path>
                <g id="Page-1" transform="translate(93.000000, 75.000000)">
                    <g id="Group-3" transform="translate(0.000000, 33.000000)" fill="#1A5692">
                        <path d="M70.5298609,14.5126916 C69.0527913,21.1701361 67.5927976,27.831387 66.1290967,34.4918543 C65.3691046,37.9493816 64.6043941,41.4060132 63.8606916,44.8670111 C63.7479005,45.3923071 63.7466647,45.9398823 63.4846837,46.4310319 C62.8629843,47.5969384 61.9067312,48.2406835 60.5723356,48.3016994 C60.4602185,48.3068493 60.3476521,48.3059537 60.2354226,48.3059537 C43.7306188,48.3061776 27.225815,48.3029309 10.7211236,48.3128949 C9.52243687,48.3135667 8.54629921,47.9203783 7.81169636,46.9733452 C7.4745587,46.5386213 7.28346535,46.0406424 7.18539098,45.4964259 C7.00878972,44.5165898 6.82185301,43.5378732 6.60907769,42.5654262 C5.40634668,37.0685143 4.19440364,31.5737295 2.98628022,26.0780491 C2.11810301,22.1291484 1.24857769,18.1804716 0.386129905,14.2304513 C0.236041297,13.5431554 0.453759652,12.9143003 0.802805538,12.3377286 C1.48000174,11.2191794 2.51365839,10.7006007 3.80345427,10.6927638 C5.90042579,10.6801128 7.99750965,10.6892932 10.0944812,10.6892932 C17.7333847,10.6892932 25.3724005,10.6892932 33.011304,10.6892932 L35.5095603,10.6892932 C46.031603,10.6892932 56.5537581,10.689629 67.0758008,10.6889573 C68.4026695,10.6888454 69.4614907,11.2010426 70.1576726,12.3436622 C70.5615413,13.0065518 70.7056758,13.7202693 70.5298609,14.5126916 M70.7904938,12.4825992 C70.3065255,11.0253841 69.048747,10.1531374 67.4212517,10.1489951 C65.4085366,10.1439571 63.3958214,10.144069 61.3831062,10.1530255 C61.1641521,10.1540331 61.0519226,10.0854042 60.9536236,9.89216874 C60.2348609,8.47872828 59.3343293,7.18967059 58.2660714,6.01469573 C55.9103767,3.4238174 53.0434147,1.6548057 49.6602422,0.742143004 C48.6463578,0.468635279 47.6005682,0.312569062 46.5684843,0.102540207 C46.47041,0.483189517 46.4318767,0.805286007 46.3059416,1.08886974 C45.9656584,1.85442268 45.6238024,2.62322233 45.2186979,3.35574834 C43.9335081,5.67950043 42.3911679,7.83789397 40.8387169,9.98789084 C40.7767043,10.0737608 40.626391,10.1397027 40.5165207,10.1409343 C39.4307375,10.1520179 38.3447296,10.1480994 37.258834,10.1464201 C37.1879464,10.1463081 37.117171,10.1300746 37.036285,10.1199985 C36.9764068,9.28458526 36.9119226,8.46742076 36.8674353,7.64924865 C36.8626046,7.56113953 36.9512422,7.43194268 37.0334764,7.38055502 C37.8065002,6.89746626 38.4142691,6.26928295 38.7917375,5.43532509 C38.980921,5.01761845 39.1030366,4.58188694 39.0968578,4.0646517 C36.530747,5.17816289 33.9826109,5.15868261 31.4067264,4.04494751 C31.436497,4.53688076 31.5195176,4.92491915 31.7087011,5.3122858 C32.0128103,5.93531915 32.4056695,6.47169881 32.9123309,6.94493547 C33.1689195,7.18463258 33.6350255,7.23042245 33.6962517,7.62025213 C33.7514116,7.97089732 33.6688403,8.34370973 33.6423277,8.70655809 C33.6079511,9.17777954 33.5689685,9.64866513 33.5325698,10.1121616 C33.4781964,10.1271637 33.4515714,10.1408223 33.4249464,10.1408223 C32.2923166,10.1437331 31.1596869,10.149107 30.0270571,10.1398147 C29.9396552,10.139143 29.8207976,10.0543925 29.7710302,9.97479203 C28.7501805,8.34583689 27.7067502,6.72998057 26.7318483,5.07393216 C25.8248008,3.53342201 24.9031489,1.98820972 24.5634274,0.157062623 C24.2892011,0.193896041 24.0309274,0.229721859 23.772429,0.262972696 C20.8846837,0.634889463 18.2526283,1.67999573 15.8814305,3.34276148 C13.446535,5.0500856 11.5134701,7.21598017 10.1695255,9.87985361 C10.0685302,10.0802543 9.94956028,10.1543689 9.72015839,10.1533613 C7.66070902,10.1438451 5.60114731,10.1504505 3.54169794,10.146756 C2.45220744,10.1447407 1.51752389,10.502775 0.812242247,11.3443459 C0.235254905,12.0327613 -0.14097769,12.8276467 0.0502280063,13.741093 C1.05265364,18.5282059 2.08024383,23.3100569 3.09940839,28.0935872 C4.13609826,32.9591811 5.17739415,37.8237673 6.20700649,42.6909285 C6.44573275,43.8196657 6.62817579,44.9603821 6.87173275,46.0882236 C6.95475332,46.4731272 7.09338307,46.8665395 7.29660934,47.2017348 C7.98919636,48.3441306 9.04037832,48.8589028 10.37219,48.8586789 C27.11044,48.855768 43.8488024,48.8567756 60.5870524,48.8566637 C60.6899574,48.8566637 60.7934242,48.8606941 60.8958799,48.8529691 C62.2240967,48.7524329 63.2063008,48.1270485 63.8196869,46.9394226 C64.0785223,46.4381971 64.0838024,45.8817773 64.1962565,45.3466292 C65.1420619,40.8426522 66.1086505,36.3431534 67.0688356,31.8423112 C68.3399828,25.8836941 69.608546,19.9245172 70.8866584,13.9673555 C70.9965286,13.4549343 70.9512549,12.9663597 70.7904938,12.4825992" id="Fill-1"></path>
                    </g>
                    <g id="Group-6" transform="translate(21.000000, 0.000000)">
                        <mask id="mask-4" fill="white">
                            <use xlink:href="#path-3"></use>
                        </mask>
                        <g id="Clip-5"></g>
                        <path d="M1.92174518,17.4226353 C2.60148925,17.5587697 3.17626788,17.895208 3.79413522,18.2647479 C3.74035871,17.7733084 3.68714472,17.330561 3.64416851,16.8869098 C3.48497654,15.2440334 3.39058639,13.5977678 3.67465687,11.9616699 C3.77647222,11.374541 3.9538897,10.7911402 4.17675845,10.2384685 C4.31221226,9.90270807 4.57681968,9.60739251 4.82612668,9.33320319 C5.08117133,9.05280028 5.36186671,8.99789463 5.76991566,9.17323118 C8.74888675,10.4537981 11.8494738,11.1815804 15.1101528,11.0558397 C17.2971016,10.9714476 19.3362213,10.3843187 21.1618101,9.13527172 C21.2082739,9.10352587 21.2550752,9.07211893 21.303339,9.04331041 C21.318077,9.03449839 21.338215,9.03472434 21.3915415,9.02308796 C21.6630116,9.5025521 21.9484321,9.98687414 22.2150646,10.4813639 C22.9561229,11.8558127 23.6265292,13.2622333 24.0359282,14.7777873 C24.2577845,15.5985477 24.421589,16.42812 24.2350588,17.3114683 C24.8231128,16.6346376 25.4113918,15.9579198 25.9996708,15.2810891 L26.059185,15.2961147 C26.0387094,15.6175274 26.024084,15.9396179 25.9965207,16.2605787 C25.8391288,18.0993531 25.6068098,19.9253613 25.1031332,21.7076483 C24.3871631,24.2405385 23.3102829,26.5934601 21.640511,28.6411245 C20.1796575,30.4327884 18.4228082,31.8261039 16.1612698,32.4509664 C13.638499,33.1481325 11.2767202,32.6875351 9.08605872,31.3043873 C6.9472612,29.9538891 5.45029419,28.0228146 4.28678654,25.8085127 C3.14825459,23.6415472 2.46018529,21.3271499 2.0900499,18.9125441 C2.02311052,18.4757844 1.97675922,18.0358613 1.9224202,17.597181 C1.91690754,17.5517653 1.92174518,17.5048808 1.92174518,17.4226353 M3.39159892,27.758567 C4.58199483,29.8170769 6.06422392,31.6229756 8.03617926,32.9764111 C10.4252963,34.6162372 13.0372821,35.2844819 15.9072376,34.666172 C18.4611718,34.1158728 20.5002915,32.6960082 22.2160772,30.7756663 C24.6257823,28.078737 26.0372469,24.8710496 26.8941834,21.3906416 C27.2589187,19.908754 27.4421863,18.3982838 27.6061034,16.881713 C27.7619203,15.4418519 27.8209844,14.0062839 27.608466,12.5751219 C27.0682258,8.93553266 25.4917191,5.83325058 22.7168287,3.40011697 C19.750233,0.799103125 16.276248,-0.298783882 12.3664258,0.122385367 C9.50670802,0.430467057 6.99845014,1.60980874 4.87855315,3.55862031 C1.63598716,6.53945471 0.106844248,10.2900979 0.025729472,15.1606582 C0.133732503,16.1593535 0.252085824,17.641806 0.461566702,19.1111534 C0.898078951,22.1736685 1.83928036,25.0740649 3.39159892,27.758567" id="Fill-4" fill="#1A5692" mask="url(#mask-4)"></path>
                    </g>
                    <g id="Group-9" transform="translate(5.000000, 81.000000)">
                        <mask id="mask-6" fill="white">
                            <use xlink:href="#path-5"></use>
                        </mask>
                        <g id="Clip-8"></g>
                        <path d="M58.142696,0.124933467 C39.3220734,0.139842598 20.5012275,0.13529405 1.68038163,0.136431187 C1.55052802,0.136431187 1.41955787,0.141864175 1.29115576,0.161700901 C0.464692808,0.2899447 -0.0942471466,1.20597184 0.0899819636,2.12452595 C0.253555083,2.94010597 0.814281502,3.4110071 1.62924409,3.41113344 C11.0442449,3.41163884 20.4593573,3.41138614 29.874358,3.41138614 C39.252178,3.41151249 48.629998,3.41151249 58.007818,3.41113344 C58.1472738,3.41113344 58.2871763,3.41328137 58.4262972,3.40342618 C59.0041067,3.3621102 59.5159286,2.91281468 59.6893273,2.2877683 C59.9775063,1.24918305 59.3264518,0.124049027 58.142696,0.124933467" id="Fill-7" fill="#1A5692" mask="url(#mask-6)"></path>
                    </g>
                    <path d="M36.0237264,60.0003183 C34.9302433,59.9804872 34.0063511,60.8898664 34.0000332,61.9921029 C33.9937154,63.0778548 34.889487,63.9876058 35.9767761,63.9998763 C37.0779398,64.0121468 37.9945231,63.1099564 37.9999738,62.0080917 C38.0055484,60.9199849 37.1199349,60.0203973 36.0237264,60.0003183" id="Fill-10" fill="#1A5692"></path>
                </g>
                <g id="Page-1" transform="translate(20.000000, 192.000000)" fill="#1A5692">
                    <g id="Group-3" transform="translate(0.000000, 48.000000)">
                        <path d="M33.4504937,12.5120071 C32.0088286,11.9805009 31.0197154,11.0254858 30.3108842,9.82953462 C29.6155546,8.65702852 29.0439891,7.40845045 28.4701734,6.16910079 C28.3081549,5.81966853 28.1398856,5.61040824 27.7680931,5.48245768 C23.6783748,4.0762485 19.6176598,2.59596267 15.7199635,0.704638758 C15.5569448,0.625573787 15.2289073,0.671965221 15.0888912,0.790437971 C13.4552042,2.17694326 11.8425195,3.58789135 10.2263344,4.99484878 C10.1393245,5.07067134 10.0718168,5.16869195 9.95380324,5.30337676 C13.2474304,7.50272982 16.8798463,8.76128454 20.5905212,9.87068831 C20.4917599,9.87792138 20.3927485,9.89413344 20.2942373,9.89138986 C16.4557977,9.77541128 12.676615,9.19950901 9.17471403,7.62718856 C7.60878473,6.92408397 6.21012457,6.79837815 4.66769796,7.28723413 C4.39791707,7.37253451 4.13088649,7.56633098 3.93886451,7.77858426 C2.75347877,9.09076349 2.20716622,10.6141983 2.48594814,12.3912896 C2.4986996,12.4723499 2.47694711,12.5586479 2.48894848,12.6399576 C2.56520722,13.1515105 2.36543434,13.5490801 2.04639781,13.9429085 C1.40557443,14.734057 0.788503776,15.546406 0.205937069,16.3809529 C0.052419491,16.6009381 -0.0315901284,16.9481256 0.0111647672,17.2112599 C0.190685323,18.3164235 0.444464382,19.4093658 0.63998677,20.5122848 C0.709494729,20.903619 0.893265771,21.1076415 1.2603078,21.2650232 C2.9222481,21.9773562 4.5946896,22.6729783 6.21412503,23.4736047 C7.68054294,24.1986579 9.16971346,24.6543415 10.8201524,24.4859855 C11.1066853,24.4568038 11.4019691,24.508433 11.6927524,24.5266404 C13.7222347,24.6538427 15.7517171,24.7820427 17.9054637,24.9177251 C14.9306231,22.176141 11.2507017,21.2615314 7.59728341,20.2279502 C10.6181293,20.402791 13.619723,20.6736571 16.6178163,20.9799404 C16.9138502,21.0101197 17.2428879,21.1999256 17.4629131,21.4124283 C18.6595501,22.5687223 19.8154324,23.7674171 21.0148198,24.9207181 C21.2305945,25.1284819 21.5823848,25.3018263 21.8749183,25.3075628 C25.4955828,25.3776488 29.1167475,25.4195508 32.7379121,25.4517255 C33.2474705,25.456215 33.7577789,25.3686698 34.3813503,25.3137982 C33.2404697,21.0477816 32.1310926,16.8550934 33.4504937,12.5120071" id="Fill-1"></path>
                    </g>
                    <g id="Group-6" transform="translate(21.000000, 19.000000)">
                        <path d="M3.57497872,0.719065445 C3.40870813,0.866991285 3.27072835,0.984991339 3.13771188,1.10810067 C2.32844561,1.85624535 1.51992384,2.60560651 0.674921805,3.38829965 C16.0619001,18.8995892 31.3364597,34.2977447 46.5948885,49.6793559 C48.0039697,48.2757635 49.3899716,46.8950412 50.8166726,45.4739313 C35.1043498,30.5886502 19.3510799,15.6646846 3.57497872,0.719065445" id="Fill-4"></path>
                    </g>
                    <path d="M49,0 C47.8515929,0.164371456 46.7785406,0.425951837 45.7059907,0.689047163 C36.240926,3.01019431 27.9084439,7.41489485 20.9310922,14.3078914 C19.8424666,15.3832493 18.8271863,16.5401618 17.6843053,17.5526496 C14.9742956,19.9525738 12.4873362,22.5512083 10.3331938,25.4682335 C6.50491899,30.6518679 4.0217273,36.4707689 2.31795537,42.6530041 C1.83995479,44.3871103 1.437309,46.1424258 1,47.8878941 C1.07510361,47.9252627 1.14995604,47.9626314 1.22480847,48 C13.2444007,28.0724228 28.9187005,11.8261601 49,0" id="Fill-7"></path>
                    <path d="M51.1899575,65.0694219 C49.4593452,65.7769816 47.8357917,65.5254488 46.2304279,64.739409 C45.9238029,64.589133 45.5820979,64.5042159 45.2762525,64.3529497 C43.8364142,63.6416765 42.4033321,62.9175295 40.9679113,62.1980865 C42.6982637,62.4617502 44.357157,62.8251853 46.0363187,63.0541891 C47.7679704,63.2903724 49.4738969,63.0061602 51.1938553,62.5573129 C51.1938553,62.2216058 51.1587753,61.9104083 51.2016508,61.6096088 C51.2754487,61.0929268 51.0127386,60.8307485 50.6099685,60.5064297 C49.2408099,59.4034982 47.7102834,58.9511849 45.9432918,59.1891012 C45.8159645,59.2061836 45.6808416,59.1744945 45.5542938,59.1940526 C44.451743,59.3633916 43.5835785,58.9368257 42.6899485,58.3555276 C40.980644,57.2439311 39.2061167,56.2204701 37.4232742,55.2175575 C37.0716949,55.0197478 36.5228881,54.9439909 36.1299923,55.0440098 C34.4292629,55.4780029 32.7526997,55.9981508 31,56.5066629 C31.7543495,57.7759625 32.669807,58.7214384 33.9568525,59.319819 C34.8673729,59.7431664 35.2532526,60.5306917 35.0264021,61.4704735 C34.9681953,61.7113607 34.8943974,61.9485343 34.8374899,62.189669 C34.1041884,65.2860471 34.6678068,68.2945372 35.5427274,71.2765371 C35.5848234,71.4206238 35.8301234,71.5869919 36.0000664,71.6092734 C39.0348745,72.0076161 42.0943684,72.2559304 45.0998132,71.5704046 C47.6380446,70.9913347 50.1188488,70.1832609 52.6175827,69.4526771 C52.7758324,69.4066288 52.9670833,69.1580669 52.9733197,68.9976405 C53.0081398,68.1118293 53.0052815,67.2240376 52.9852729,66.3374837 C52.9694219,65.6356182 51.8455633,64.8013019 51.1899575,65.0694219" id="Fill-9"></path>
                    <path d="M18,48.638357 C18.2570125,48.7967102 18.3203048,48.8497534 18.3933342,48.8784743 C21.032133,49.9152737 23.669138,50.9567306 26.3169053,51.9697254 C26.5090881,52.0432095 26.8217056,51.9741241 27.0074823,51.8569116 C28.5977314,50.8542668 30.1774745,49.8342859 31.7467115,48.798004 C32.1856572,48.5082073 32.5787352,48.1469964 33,47.8132127 C31.9009703,46.1528328 30.8367898,44.5454961 29.8138645,43 C25.8894906,44.8730699 22.0248215,46.7176777 18,48.638357" id="Fill-11"></path>
                    <path d="M29,52.2464882 C29.384813,53.0370449 29.7696261,53.8285787 30.1826187,54.6775232 C30.6843077,54.5216595 31.2037822,54.3828967 31.708474,54.1984498 C32.4513063,53.9267876 33.1814348,53.6162815 33.9210334,53.3343587 C35.2422403,52.8306109 36.5158652,52.9112301 37.743063,53.6729593 C38.4514793,54.1127003 39.1786051,54.5192165 39.9985848,55 C39.9985848,54.0760552 40.0043593,53.2447003 39.9925793,52.4135898 C39.9907315,52.2848434 39.9417637,52.1226278 39.8588418,52.0346796 C38.6630572,50.7650495 37.6000863,49.2811678 35.7524756,49.0158573 C35.4817667,48.9772579 35.152389,49.005841 34.917944,49.1380076 C33.5819545,49.8919192 32.2822288,50.7183881 30.937462,51.4532442 C30.284481,51.8104117 29.560358,52.021976 29,52.2464882" id="Fill-13"></path>
                    <path d="M17,14.334415 C16.565085,13.8462446 16.1831692,13.4173698 15.8114593,13 C15.1953447,13.6184436 14.6021486,14.2135229 14,14.8178064 C14.386034,15.1880937 14.7881826,15.5739572 15.2320501,16 C15.8413608,15.4259838 16.4691137,14.8346215 17,14.334415" id="Fill-15"></path>
                </g>
                <g id="Page-1" transform="translate(360.000000, 15.000000)">
                    <g id="Group-3" transform="translate(0.000000, 29.000000)">
                        <mask id="mask-8" fill="white">
                            <use xlink:href="#path-7"></use>
                        </mask>
                        <g id="Clip-2"></g>
                        <path d="M47.9244331,0.179863636 C40.2448247,4.90186364 32.674011,9.55704545 24.9857639,14.2845 L24.9857639,0.166227273 C24.7104027,0.329318182 24.5203494,0.436227273 24.3359654,0.552136364 C16.4131213,5.52831818 8.49297681,10.5088636 0.563113688,15.4733182 C0.149531939,15.7318636 -0.00164676806,16.0051364 -2.69961977e-05,16.4993182 C0.0194102662,21.7487727 0.0118513308,26.9982273 0.0118513308,32.2476818 L0.0118513308,32.9985 L70.7629464,32.9985 L70.7629464,0.184772727 C63.1394901,4.89286364 55.5975624,9.5505 47.9244331,14.2894091 L47.9244331,0.179863636 Z" id="Fill-1" fill="#1A5692" mask="url(#mask-8)"></path>
                    </g>
                    <g id="Group-6" transform="translate(74.000000, 0.000000)">
                        <mask id="mask-10" fill="white">
                            <use xlink:href="#path-9"></use>
                        </mask>
                        <g id="Clip-5"></g>
                        <path d="M11.9942718,0.0977713043 L3.46273662,0.0977713043 C2.31470845,20.7378409 1.16828592,41.349067 0.0194549296,62.0001887 L18.7411451,62.0001887 C16.4892437,41.339093 14.2416239,20.717893 11.9942718,0.0977713043" id="Fill-4" fill="#1A5692" mask="url(#mask-10)"></path>
                    </g>
                </g>
            </g>
        </g>
    </g>
</svg>