<?xml version="1.0" encoding="UTF-8"?>
<svg width="661px" height="452px" viewBox="0 0 661 452" version="1.1" xmlns="http://www.w3.org/2000/svg" xmlns:xlink="http://www.w3.org/1999/xlink">
    <!-- Generator: Sketch 47.1 (45422) - http://www.bohemiancoding.com/sketch -->
    <title>Group 12</title>
    <desc>Created with Sketch.</desc>
    <defs>
        <polygon id="path-1" points="74.8006133 26.2058824 0.221808377 26.2058824 0.221808377 0.161185166 74.8006133 0.161185166 74.8006133 26.2058824"></polygon>
        <polygon id="path-3" points="8.43806067e-21 80 73 80 73 8.88248508e-15 0 0"></polygon>
        <polygon id="path-5" points="0.025729472 0.0347961719 27.7463585 0.0347961719 27.7463585 34.8936142 0.025729472 34.8936142"></polygon>
        <polygon id="path-7" points="59.7571886 3.41141141 0.054765281 3.41141141 0.054765281 0.124932946 59.7571886 0.124932946"></polygon>
        <polygon id="path-9" points="0 0.166227273 0 32.9985 70.7629464 32.9985 70.7629464 0.166227273"></polygon>
        <polygon id="path-11" points="0.0194549296 0.0978521739 18.7411451 0.0978521739 18.7411451 62 0.0194549296 62"></polygon>
    </defs>
    <g id="Page-1" stroke="none" stroke-width="1" fill="none" fill-rule="evenodd">
        <g id="mountaintoken" transform="translate(-394.000000, -2786.000000)">
            <g id="Group-12" transform="translate(394.000000, 2786.000000)">
                <path d="M177.872,412.696 C177.872,427.096 193.352,429.04 193.352,439.408 C193.352,443.008 191.768,444.304 189.248,444.304 C186.728,444.304 185.144,443.008 185.144,439.408 L185.144,435.808 L177.656,435.808 L177.656,438.904 C177.656,446.968 181.688,451.576 189.464,451.576 C197.24,451.576 201.272,446.968 201.272,438.904 C201.272,424.504 185.792,422.56 185.792,412.192 C185.792,408.592 187.232,407.224 189.752,407.224 C192.272,407.224 193.712,408.592 193.712,412.192 L193.712,414.28 L201.2,414.28 L201.2,412.696 C201.2,404.632 197.24,400.024 189.536,400.024 C181.832,400.024 177.872,404.632 177.872,412.696 Z M203.504,407.8 L211.784,407.8 L211.784,451 L219.704,451 L219.704,407.8 L227.984,407.8 L227.984,400.6 L203.504,400.6 L203.504,407.8 Z M238.712,412.192 L238.712,439.408 C238.712,443.008 240.296,444.376 242.816,444.376 C245.336,444.376 246.92,443.008 246.92,439.408 L246.92,412.192 C246.92,408.592 245.336,407.224 242.816,407.224 C240.296,407.224 238.712,408.592 238.712,412.192 Z M230.792,438.904 L230.792,412.696 C230.792,404.632 235.04,400.024 242.816,400.024 C250.592,400.024 254.84,404.632 254.84,412.696 L254.84,438.904 C254.84,446.968 250.592,451.576 242.816,451.576 C235.04,451.576 230.792,446.968 230.792,438.904 Z M276.872,451 L285.008,451 L285.008,400.6 L277.952,400.6 L277.952,430.768 L269.816,400.6 L259.88,400.6 L259.88,451 L267.008,451 L267.008,414.496 L276.872,451 Z M298.616,407.8 L312.296,407.8 L312.296,400.6 L290.696,400.6 L290.696,451 L312.296,451 L312.296,443.8 L298.616,443.8 L298.616,429.04 L309.488,429.04 L309.488,421.84 L298.616,421.84 L298.616,407.8 Z M328.136,400.6 L317.12,400.6 L317.12,451 L324.032,451 L324.032,415.36 L329.936,451 L337.424,451 L342.896,414.856 L342.896,451 L350.384,451 L350.384,400.6 L339.368,400.6 L333.968,436.384 L328.136,400.6 Z M373.712,400.6 L381.776,451 L373.784,451 L372.416,441.856 L362.696,441.856 L361.328,451 L354.056,451 L362.12,400.6 L373.712,400.6 Z M367.52,409.528 L363.704,435.016 L371.336,435.016 L367.52,409.528 Z M410.072,451 L402.008,451 C401.576,449.704 401.288,448.912 401.288,444.808 L401.288,436.888 C401.288,432.208 399.704,430.48 396.104,430.48 L393.368,430.48 L393.368,451 L385.448,451 L385.448,400.6 L397.4,400.6 C405.608,400.6 409.136,404.416 409.136,412.192 L409.136,416.152 C409.136,421.336 407.48,424.72 403.952,426.376 C407.912,428.032 409.208,431.848 409.208,437.104 L409.208,444.88 C409.208,447.328 409.28,449.128 410.072,451 Z M397.184,407.8 L393.368,407.8 L393.368,423.28 L396.464,423.28 C399.416,423.28 401.216,421.984 401.216,417.952 L401.216,412.984 C401.216,409.384 399.992,407.8 397.184,407.8 Z M432.464,451 L440.6,451 L429.584,423.064 L440.6,400.6 L432.68,400.6 L422.312,422.56 L422.312,400.6 L414.392,400.6 L414.392,451 L422.312,451 L422.312,435.52 L424.76,430.912 L432.464,451 Z M452.12,407.8 L465.8,407.8 L465.8,400.6 L444.2,400.6 L444.2,451 L465.8,451 L465.8,443.8 L452.12,443.8 L452.12,429.04 L462.992,429.04 L462.992,421.84 L452.12,421.84 L452.12,407.8 Z M468.392,407.8 L476.672,407.8 L476.672,451 L484.592,451 L484.592,407.8 L492.872,407.8 L492.872,400.6 L468.392,400.6 L468.392,407.8 Z" id="STONEMARKET" fill="#1A5692"></path>
                <path d="M203.575526,24.8476218 C202.095003,24.8521912 200.891693,23.6511829 200.90398,22.1813375 C200.915882,20.7724183 202.115736,19.6079657 203.564008,19.6007307 C205.038772,19.5927342 206.235939,20.7937425 206.222884,22.2673958 C206.20983,23.6805036 205.017271,24.8430523 203.575526,24.8476218 M237.262819,17.7877945 C242.221191,19.4050052 245.46982,22.9966066 248.147126,27.2195562 C248.166708,27.2504001 248.111035,27.3284618 248.058433,27.4716385 L243.088158,27.4716385 L243.088158,58.8238972 L248.339103,58.8238972 L248.339103,57.6548751 C248.339103,52.166183 248.336415,46.677491 248.340255,41.188799 C248.342175,38.9029229 249.311657,37.9353382 251.594259,37.933815 C256.361039,37.9307687 261.127435,37.9326727 265.893831,37.9326727 L267,37.9326727 L267,27.4583108 C265.509493,27.4583108 264.073892,27.4221359 262.641746,27.4739232 C261.940648,27.4998168 261.563606,27.2530656 261.212672,26.6529422 C258.593343,22.1721986 255.755928,17.8445321 251.997026,14.1889581 C246.325268,8.67361084 239.598791,5.90794065 231.59874,6.59031446 C224.23682,7.21823545 217.593277,9.8403482 211.506465,13.9326871 C211.36709,14.0263612 211.201606,14.0823372 210.946277,14.2045704 C211.385904,9.40282169 211.814396,4.71721359 212.245959,0 L196.239331,0 C196.239331,0.329382447 196.233188,0.607739174 196.240483,0.885715112 C196.323033,4.18410905 196.406735,7.4821222 196.49274,10.7808969 C196.845209,24.3541193 197.192303,37.9281032 197.570497,51.5009447 C197.589695,52.195123 197.325151,52.5096547 196.761124,52.8055277 C193.562793,54.4863302 191.681038,57.160611 191.263297,60.684432 C190.985315,63.0293304 190.943848,65.4260161 191.062489,67.7865268 C191.209543,70.6919466 192.244681,73.3548037 194.080362,75.6623848 C195.059443,76.8934755 196.147566,78.1771151 197.709104,78.4901236 C199.631174,78.875482 201.638098,78.8415918 203.752913,79 C203.281034,74.5706629 203.327493,70.3008763 203.897663,66.0402287 C204.543473,61.2099208 205.666152,56.5174585 207.848542,52.1086839 C208.213682,51.3699533 208.431383,50.5002314 208.481681,49.6769656 C208.864483,43.4080371 209.185468,37.1360622 209.540625,30.8652296 C209.561742,30.4981491 209.617799,30.0781389 209.812463,29.7834082 C213.785996,23.7665619 218.722099,18.9716674 226.163114,17.5357122 C229.864423,16.8213521 233.599521,16.592498 237.262819,17.7877945" id="Fill-1" fill="#1A5692"></path>
                <g id="Group-5" transform="translate(229.000000, 60.000000)">
                    <mask id="mask-2" fill="white">
                        <use xlink:href="#path-1"></use>
                    </mask>
                    <g id="Clip-4"></g>
                    <path d="M70.7923469,15.9492798 C70.678699,18.636712 69.3053571,20.5068246 66.7220663,21.4745432 C64.677551,22.2405905 62.5423469,22.2968003 60.4109694,22.299079 C45.0179847,22.3165496 29.6242347,22.3268041 14.23125,22.2827478 C12.496301,22.2774307 10.7085459,22.1175368 9.03979592,21.6777338 C5.58788265,20.767744 4.05535714,18.5459409 4.26084184,15.2223514 C4.43915816,12.3404639 6.57627551,10.0822005 9.75114796,9.51136803 C10.7797194,9.32640767 11.8381378,9.22386292 12.8827806,9.22082455 C21.2008929,9.19803683 29.5193878,9.20791151 37.8375,9.20791151 C45.8047194,9.20791151 53.7723214,9.20981049 61.7403061,9.20677212 C63.702551,9.20601253 65.6322704,9.43540895 67.4184949,10.2728578 C69.8108418,11.3943936 70.9006378,13.3886992 70.7923469,15.9492798 M64.2355867,5.29298056 C60.5735969,5.41261611 56.9043367,5.31386931 53.2385204,5.31386931 L52.1391582,5.31386931 L52.1391582,0.161185166 L25.5126276,0.161185166 L25.5126276,5.31386931 L24.3991071,5.31386931 C19.5857143,5.31386931 14.7723214,5.29222097 9.95854592,5.3226046 C6.7565051,5.34197417 4.04234694,6.43084757 2.11262755,9.09359309 C-0.447704082,12.6264499 -0.399872449,19.0396749 2.20752551,22.5467056 C4.22257653,25.258065 7.03278061,26.2075535 10.2998724,26.2060343 C25.0591837,26.1984384 39.8188776,26.2026161 54.5778061,26.2026161 C58.0522959,26.2026161 61.5267857,26.199198 65.0016582,26.2037555 C66.852551,26.2060343 68.6196429,25.8475074 70.2149235,24.8980189 C73.1047194,23.1786852 74.4164541,20.5011276 74.7244898,17.2770445 C75.383801,10.3883156 71.7497449,5.04877212 64.2355867,5.29298056" id="Fill-3" fill="#1A5692" mask="url(#mask-2)"></path>
                </g>
                <path d="M253,59 L289,59 L289,44.2910854 L266.381602,44.2910854 C266.349722,43.786065 266.325907,43.4057362 266.300557,43 L253,43 L253,59 Z" id="Fill-6" fill="#1A5692"></path>
                <path d="M212.116617,77.3095714 C211.137287,77.3518233 210.155088,77.3220904 209.00477,77.3220904 C209.087934,68.9875126 208.715487,60.7084882 212.676542,53.181391 C210.641886,52.8253797 210.649055,52.8285094 209.93033,54.7482322 C208.486785,58.6048914 207.749061,62.6473808 207.327146,66.762246 C206.921004,70.7194491 206.867951,74.6872152 207.310298,78.6483305 C207.342202,78.9331396 207.572696,79.4065173 207.745477,79.4260784 C209.776906,79.653378 211.814788,79.8110401 214,80 C213.638307,79.2183399 213.31282,78.6029489 213.065478,77.9523479 C212.876208,77.4523671 212.604848,77.2884454 212.116617,77.3095714" id="Fill-8" fill="#1A5692"></path>
                <path d="M294.153567,74.2875977 C293.449296,74.0225239 292.647925,74.0126747 291.886852,74.0109617 C283.606013,73.9951173 275.324791,74.0011125 267.043952,74.0011125 C258.763113,74.0011125 250.481891,73.9968302 242.201052,74.0088206 C241.501771,74.0096771 240.796349,74.0687727 240.105511,74.1895332 C239.461114,74.3017292 238.967165,74.6511641 239.001707,75.5268923 C239.035097,76.3786398 239.496807,76.7310722 240.173828,76.7884549 C241.28646,76.8826653 242.401779,76.9892943 243.515946,76.9901507 C259.182989,77.0029976 274.849264,77.0038541 290.515924,76.9892943 C291.694569,76.9880096 292.887415,76.9421891 294.0438,76.7216512 C294.433356,76.6471393 294.980653,75.9795304 294.999459,75.558153 C295.018265,75.1333499 294.543122,74.4344802 294.153567,74.2875977" id="Fill-10" fill="#1A5692"></path>
                <g id="Group-3" transform="translate(496.000000, 112.000000)" fill="#1A5692">
                    <path d="M64.4873764,15.988081 C64.2862903,13.2975467 63.8264213,10.6545649 62.8076011,8.14487794 C62.0667959,6.31989742 60.8113464,5.03696593 58.8635375,4.53926637 C53.6406536,3.20484023 48.4197172,1.86203696 43.1965899,0.528349969 C42.4983876,0.350212948 41.7914213,0.206816342 41.0196985,0.0316359522 C39.6690618,5.64529277 37.957882,11.024883 35.9528633,16.3147887 C35.8640056,16.183465 35.826515,16.0664317 35.8111779,15.9466881 C35.4301854,12.9765058 35.0696423,10.0036133 34.6591929,7.03761961 C34.5661966,6.36621798 34.6820768,5.79115324 34.9832191,5.21387102 C35.2003727,4.79747882 35.4017022,4.36999925 35.5723577,3.93241785 C35.9309532,3.01265921 35.3347547,1.86597913 34.4045487,1.82015135 C33.0692491,1.75485908 31.7268895,1.76767115 30.3903727,1.8211369 C29.6573577,1.85045682 29.2517772,2.28557436 29.209661,3.04321106 C29.1858034,3.46798039 29.2712528,3.94695462 29.4574888,4.32614255 C29.9799232,5.38905141 30.4327322,6.43348133 30.0714588,7.66343985 C29.9633689,8.03154041 29.9745674,8.43487417 29.9239307,8.82120729 C29.5969831,11.3168503 29.268088,13.8122469 28.9396798,16.3076435 C26.8482378,11.0322745 25.1584813,5.64233614 23.8054101,0.0843625393 C23.4012903,0.143002388 23.0585187,0.161974104 22.7318146,0.24500616 C17.1941554,1.65679749 11.6628258,3.09495211 6.11981086,4.4845687 C4.07097191,4.99803696 2.73031648,6.27727266 1.98585955,8.20277863 C1.55958614,9.30535563 1.23994195,10.4581953 0.966308989,11.6110351 C0.19361236,14.8655467 0.189960674,18.2030904 0.00202059925,21.5194449 C-0.0257322097,22.0077818 0.245953184,22.2788063 0.657376404,22.4433921 C1.4293427,22.7518673 2.1923015,23.0871985 2.97790075,23.3552664 C7.95393071,25.0521262 13.078706,26.0546705 18.2864963,26.6427937 C24.5045861,27.3449936 30.7455599,27.4329534 36.9928633,27.292267 C42.1699794,27.1754801 47.3169082,26.7127673 52.4151479,25.7841388 C56.3881816,25.0602569 60.2935375,24.0739741 64.0345674,22.4941476 C64.610073,22.2512111 64.8396423,21.9003575 64.7970393,21.2740445 C64.6770206,19.5133707 64.6188371,17.7480156 64.4873764,15.988081" id="Fill-1"></path>
                </g>
                <path d="M516.751916,89.3080821 C518.209744,89.2953676 519.672303,89.3310181 521.123743,89.2165876 C524.866495,88.9216609 528.566898,88.3786769 531.93774,86.4610307 C532.608927,86.0788477 533.229959,85.5902119 533.843893,85.1075594 C534.170615,84.850527 534.369582,84.7906941 534.662945,85.1718799 C535.646896,86.4505599 536.975313,87.2214078 538.401675,87.8045298 C538.801501,87.9680732 538.895188,88.1802309 538.862066,88.590336 C538.710653,90.4703372 538.638495,92.3593135 538.426753,94.231337 C538.157284,96.6159295 537.42979,98.8773659 536.438978,101.033845 C535.702966,102.635623 534.993452,104.264575 533.826622,105.594114 C532.240093,107.402565 530.272665,108.340446 527.938059,108.466345 C523.939797,108.681494 521.224291,106.607036 519.392188,103.07365 C517.77443,99.9533618 516.707912,96.6214142 516.359188,93.0648437 C516.302881,92.4899487 516.351144,91.9035858 516.351144,91.3227075 C516.317312,91.3227075 516.283244,91.3229568 516.249176,91.3229568 C516.249176,90.8462876 516.288922,90.3643831 516.23782,89.8939465 C516.187901,89.4342299 516.347832,89.3115724 516.751916,89.3080821 M515.913701,99.5806524 C516.339551,99.4749475 516.463521,99.6818698 516.597427,100.02915 C517.122406,101.390599 517.569549,102.798419 518.223229,104.089564 C520.787795,109.153925 524.858451,110.679665 529.820317,109.737047 C532.664524,109.196805 534.725403,107.353701 536.126214,104.736259 C536.955913,103.185837 537.643188,101.550902 538.419182,99.9675722 C538.517127,99.7678797 538.801974,99.4871634 538.937536,99.5213181 C539.658406,99.7018141 540.053974,99.2854765 540.414291,98.7586972 C541.680249,96.9086124 542.129521,94.8241819 541.968645,92.5796982 C541.898852,91.6036731 541.419534,91.0447336 540.528797,90.8804423 C540.159017,90.812133 540.08402,90.613687 540.105549,90.2803676 C540.240165,88.2118925 540.328411,86.13893 540.514366,84.075441 C540.759703,81.3567811 539.276087,78.0886553 536.920425,76.9645437 C535.782932,76.4220582 534.850793,75.656695 533.849335,74.9506662 C533.572059,74.7552119 533.282717,74.5744665 532.984622,74.417405 C530.835497,73.2840691 528.539454,72.9131048 526.164392,73.0165659 C523.085494,73.1506915 520.225672,74.0003194 517.757633,76.0266621 C515.930971,77.5262256 514.64585,79.4082213 514.517385,81.9149727 C514.431742,83.5865559 514.520224,85.2703549 514.580553,86.9466749 C514.62645,88.2271001 514.750183,89.5042843 514.840795,90.8066483 C513.475471,91.0940958 513.062396,91.6081606 513.020521,92.9516597 C513.017209,93.0553702 513.00467,93.1588313 513.002304,93.2622925 C512.960429,95.3419862 513.488247,97.2366964 514.676842,98.9087782 C514.980615,99.3363345 515.357256,99.7190161 515.913701,99.5806524" id="Fill-4" fill="#1A5692"></path>
                <g id="Group-8" transform="translate(541.000000, 43.000000)" fill="#1A5692">
                    <path d="M48.6496892,21.7888021 C46.7146285,10.4948848 38.4374631,0.608386485 24.6124108,0.0223967259 C18.310882,-0.244673732 12.7208465,1.88308541 7.87281498,6.06718925 C4.03729324,9.37736289 1.50397422,13.5780975 0.05362234,18.5021072 C-0.0124314214,18.7271116 -0.0344493419,19.1262498 0.0875928459,19.22473 C1.12337873,20.059529 2.19785325,20.8431313 3.27893315,21.6560821 C3.32517078,21.4858613 3.37990104,21.30651 3.42204963,21.1245499 C3.99671736,18.6527623 4.90228297,16.3224992 6.21801099,14.1732179 C10.7845277,6.71318018 19.6505152,2.44494426 29.0181967,4.7002059 C39.285153,7.17199353 45.2139499,17.348715 45.0469283,25.6839872 C44.8723576,34.4278544 41.0789845,41.0843981 33.6057877,45.2805674 C28.4064131,48.2000812 23.1186522,50.9503525 17.8686363,53.7726905 C17.7053892,53.8604096 17.5220114,53.907041 17.2511909,54.0097604 C17.9173903,51.7375419 18.5452156,49.5957607 19.1903406,47.3952828 C15.3560771,45.9516675 11.755518,44.2325033 8.88343753,41.2171181 C9.63487771,42.928456 9.8723567,44.6949037 9.83555532,46.5027653 C9.82454636,47.0421237 9.98716443,47.3493036 10.4306683,47.5977867 C11.7372746,48.3305185 13.0281538,49.0932509 14.3555199,49.8625051 C14.2863207,50.1132709 14.2079998,50.3979504 14.1290498,50.6823038 C13.5210407,52.8710424 12.8963608,55.0552157 12.3128859,57.2508022 C12.0656561,58.1821249 12.369818,58.9830101 13.1127655,59.5526952 C13.8544549,60.1217281 14.6323166,60.1328153 15.4671103,59.6713932 C18.7455787,57.8579881 22.039145,56.0745835 25.3283078,54.2820483 C29.2185598,52.1617893 33.2056907,50.2117511 36.9814495,47.8915969 C46.4249356,42.0881134 50.2403266,31.0717016 48.6496892,21.7888021" id="Fill-6"></path>
                </g>
                <g id="Group-3" transform="translate(0.000000, 332.000000)" fill="#1A5692">
                    <path d="M84.109644,70.2106124 C72.7129359,75.7870945 61.3238185,81.3799935 49.9329493,86.9684951 C49.7209963,87.0725668 49.5017446,87.161101 49.2150534,87.2889186 C49.1940332,87.0063127 49.1657144,86.7981694 49.1657144,86.5897329 C49.1633789,80.5805472 49.1703856,74.5713616 49.1511171,68.5621759 C49.1493654,68.0649772 49.3128554,67.8310358 49.7522346,67.6372573 C61.2254326,62.5773225 72.6933755,57.5047818 84.1621943,52.4348795 C84.3140064,52.3677459 84.4693218,52.3082345 84.7221473,52.2041629 C84.7373285,52.5325016 84.756305,52.7494397 84.756305,52.9663779 C84.7580567,58.3649121 84.7490064,63.7634463 84.7706104,69.1619805 C84.772654,69.70843 84.5901876,69.9754984 84.109644,70.2106124 M33.0155366,46.7982997 C32.9095601,46.84843 32.7971607,46.8853681 32.6129426,46.9580717 C32.5965936,46.6827948 32.5709023,46.4547166 32.5709023,46.2263453 C32.5685668,38.1160847 32.5703185,30.0058241 32.5647715,21.8955635 C32.5644795,21.4918827 32.578493,21.1946189 33.034805,20.9674202 C40.0648721,17.4688534 47.0823856,13.9441954 54.1036943,10.4268664 C54.2295232,10.3638371 54.3629426,10.3160521 54.6052581,10.2140326 L54.6052581,10.9824039 C54.6052581,19.2635765 54.6040903,27.5447492 54.6093453,35.8259218 C54.6096372,36.255987 54.5970836,36.5857915 54.1069057,36.8165081 C47.0701238,40.1300912 40.0444359,43.4674202 33.0155366,46.7982997 M47.0467681,86.441101 L47.0467681,87.3038697 C46.7460634,87.1825016 46.5454963,87.1124365 46.3545634,87.0227296 C31.8395768,80.2076482 17.3269258,73.3878762 2.80610034,66.5862801 C2.26804329,66.3341629 2.07594262,66.0462801 2.07798624,65.4420782 C2.10192584,58.8975831 2.0928755,52.3530879 2.0928755,45.8085928 L2.0928755,44.985987 C2.36467752,45.0783322 2.56670436,45.1296352 2.75471779,45.2134788 C7.25828154,47.2236743 11.7565903,49.2453029 16.2671607,51.2384951 C16.7704762,51.4607101 16.9558621,51.7354007 16.9225802,52.2806775 C16.869154,53.1563453 16.8983487,54.0369967 16.8767446,54.9150098 C16.8615634,55.5297655 17.1313218,55.9217199 17.6985735,56.1489186 C27.2349997,59.9711336 36.7670466,63.803316 46.3087279,67.610873 C46.8663453,67.8333811 47.0651607,68.0963453 47.0625332,68.7122736 C47.0362581,74.621785 47.0467681,80.5315896 47.0467681,86.441101 M30.4604225,47.7601564 C30.4510802,47.9035114 30.2665701,48.0905472 30.1173856,48.161785 C26.4806104,49.8969967 22.8377044,51.6193094 19.1945064,53.3410358 C19.1577211,53.3583322 19.1031272,53.3369316 18.9974426,53.3296026 C18.9974426,52.8285928 18.9752547,52.3217199 19.0108721,51.8198306 C19.0216742,51.6665081 19.158597,51.4560195 19.2952279,51.3882997 C22.969956,49.5680717 26.6519829,47.7630879 30.4767715,45.8845212 C30.4767715,46.5775505 30.4992513,47.1706124 30.4604225,47.7601564 M16.8930936,15.9192117 C16.8930936,15.8245212 16.9222883,15.7301238 16.9544023,15.5383974 C17.2040164,15.6412964 17.418305,15.7274853 17.6308419,15.8177785 C21.6999896,17.5456612 25.7682614,19.2753029 29.8382849,21.0002541 C30.2046775,21.1556287 30.4977916,21.2752378 30.4960399,21.8055635 C30.4744359,28.5696352 30.4817346,35.3334137 30.4802748,42.0977785 C30.4802748,42.2153355 30.4604225,42.3325993 30.4391104,42.5700586 C28.6351742,41.7694397 26.9290399,41.0119153 25.2223218,40.254684 C22.6464795,39.1119479 20.071805,37.9665733 17.4933352,36.8299935 C17.146503,36.676671 16.8758688,36.5482671 16.8770366,36.0645537 C16.8939695,29.3494397 16.8895903,22.6343257 16.8930936,15.9192117 M86.8764191,50.7582997 C86.877295,50.1382671 86.6273889,49.7691792 86.0665601,49.5223388 C76.5715903,45.3383648 67.0839191,41.1385603 57.5831104,36.9677785 C56.9198084,36.676671 56.65005,36.3612313 56.6585164,35.5867036 C56.7061037,31.1655635 56.6815802,26.7441303 56.682456,22.3229902 C56.6833319,17.7796026 56.6736977,13.236215 56.6941339,8.69282736 C56.6970534,8.03614984 56.4439359,7.65357655 55.8702614,7.38445603 C50.9851238,5.09458632 46.1005701,2.80325081 41.2300299,0.48171987 C40.5220601,0.14429316 39.940503,0.153674267 39.2427513,0.518364821 C31.3587413,4.64370684 23.4636372,8.74588925 15.5638621,12.8410358 C14.9624527,13.1526645 14.7601339,13.5839023 14.7615936,14.246443 C14.7796943,21.4766384 14.7718117,28.707127 14.7893285,35.9373225 C14.7902044,36.4025668 14.6427715,36.6212638 14.2162379,36.7936417 C9.8244896,38.5701889 5.44617081,40.3816221 1.0494594,42.1461498 C0.313754698,42.4413616 -0.00242315436,42.8353681 0.000204362416,43.656215 C0.025311745,51.2774853 0.0250197987,58.8984625 -8.75838926e-05,66.5194397 C-0.00242315436,67.2942606 0.266459396,67.7213941 0.953701007,68.0432834 C16.4029158,75.281101 31.8462916,82.5309381 47.2841205,89.7933811 C47.8691809,90.068658 48.357607,90.0712964 48.9362446,89.7872248 C61.2420735,83.7469642 73.5534493,77.7169642 85.8697883,71.6986906 C86.5666641,71.3580391 86.8758352,70.9007101 86.8734997,70.1044886 C86.8548151,63.6558567 86.8632815,57.2072248 86.8764191,50.7582997" id="Fill-1"></path>
                </g>
                <path d="M19.3180023,391.046435 C17.1176304,390.110246 14.9258717,389.155482 12.728576,388.211803 C12.5298565,388.126423 12.3145258,388.076093 12.0770469,388 C12.0419787,388.177052 12.0062954,388.272019 12.0062954,388.366986 C12.0022964,391.581486 11.986608,394.796884 12.0275208,398.010785 C12.0312122,398.288197 12.3502092,398.683643 12.6270629,398.815159 C14.0731622,399.500899 15.5530992,400.119832 17.0219621,400.760336 C17.9460383,401.163271 18.871345,401.562912 19.8794002,402 C19.928311,401.720791 19.9892188,401.534751 19.9895264,401.348412 C19.9953711,398.233074 19.9870655,395.118035 19.9999853,392.002696 C20.0021386,391.500899 19.7671206,391.237567 19.3180023,391.046435" id="Fill-4" fill="#1A5692"></path>
                <path d="M43.2757041,403.068157 C41.0991597,402.131347 38.9309228,401.175657 36.7580706,400.230456 C36.5565387,400.142949 36.3420841,400.084211 36.0983998,400 C36.0544012,400.154637 36.0067105,400.245441 36.0067105,400.336544 C36.0017876,403.581814 35.9867111,406.827682 36.0285559,410.072652 C36.0322481,410.345363 36.3682371,410.732254 36.6494587,410.864115 C38.1014114,411.544696 39.5850553,412.161743 41.059161,412.796772 C41.9668237,413.187559 42.8775632,413.570554 43.8879918,414 C43.9424515,413.741673 43.9882962,413.625096 43.9882962,413.50852 C43.9932191,410.337871 43.9870655,407.167223 43.9999881,403.996575 C44.0021419,403.476325 43.7110745,403.255459 43.2757041,403.068157" id="Fill-6" fill="#1A5692"></path>
                <path d="M31.3052792,398.088845 C29.1036093,397.142452 26.9120924,396.172625 24.7150376,395.215117 C24.535052,395.136701 24.3418367,395.086828 24.0843188,395 C24.048014,395.201597 24.0154013,395.29924 24.0150936,395.396884 C24.0104786,398.601099 24.0169396,401.805314 24.0000179,405.009528 C23.9972489,405.56775 24.3166079,405.793682 24.7728791,405.988068 C26.9299372,406.908623 29.0802266,407.846302 31.2345157,408.773467 C31.4317306,408.858792 31.6418677,408.916177 31.8849251,409 C31.9313829,408.790291 31.9910705,408.647882 31.9910705,408.505172 C31.9966085,405.350831 31.9913781,402.196489 31.9999928,399.042148 C32.0015312,398.543113 31.7550894,398.28233 31.3052792,398.088845" id="Fill-8" fill="#1A5692"></path>
                <path d="M71.9854726,395.77897 C71.9851657,395.545636 71.9510978,395.312303 71.9265444,395 C71.6239234,395.108472 71.4096948,395.171052 71.2077428,395.259855 C69.0672978,396.198851 66.9363673,397.158408 64.7845663,398.072967 C64.2041847,398.319711 63.9951736,398.65943 64.0000843,399.266156 C64.0249447,402.245849 64.0108264,405.225543 64.0129749,408.205236 C64.0129749,408.424266 64.0363006,408.642699 64.0562503,409 C64.3907907,408.88229 64.6047125,408.821499 64.8060506,408.733291 C66.9471094,407.794593 69.0786538,406.836228 71.229534,405.919583 C71.8114502,405.671946 72.0051154,405.323287 71.9998978,404.71805 C71.9731959,401.738655 71.9891556,398.758663 71.9854726,395.77897" id="Fill-10" fill="#1A5692"></path>
                <path d="M81.9842363,389.815519 C81.9836222,389.561099 81.9292748,389.306977 81.8936572,389 C81.6197706,389.096453 81.4499732,389.143933 81.2906154,389.213809 C79.1068917,390.174456 76.9320723,391.154214 74.7369878,392.089777 C74.1803102,392.327176 73.9957745,392.653862 74.0000731,393.227503 C74.0224876,396.232771 74.0095916,399.238338 74.012355,402.243606 C74.0126621,402.460401 74.0412175,402.676599 74.063632,403 C74.3884886,402.871297 74.641803,402.779024 74.8877482,402.671224 C76.9796647,401.753877 79.0623697,400.816821 81.165647,399.925154 C81.7671536,399.670734 82.0057297,399.324339 81.9998958,398.682614 C81.9728756,395.727215 81.9903773,392.771218 81.9842363,389.815519" id="Fill-12" fill="#1A5692"></path>
                <path d="M59.9950407,403.914175 L59.9950407,400 C59.7324657,400.066819 59.6067126,400.081202 59.4972551,400.129444 C57.1928061,401.144019 54.8951213,402.173277 52.5832931,403.171671 C52.0498416,403.402093 51.998495,403.784731 52.0000323,404.261156 C52.0086413,407.253644 52.003107,410.245832 52.007104,413.23802 C52.0074115,413.472936 52.0436923,413.708152 52.0682895,414 C52.2779805,413.945166 52.4018889,413.929585 52.5104239,413.881943 C54.8151804,412.867967 57.1140951,411.840806 59.4253083,410.841213 C59.9184819,410.627871 60.0021124,410.282388 59.9999601,409.823641 C59.9885839,407.853819 59.9950407,405.883997 59.9950407,403.914175" id="Fill-14" fill="#1A5692"></path>
                <path d="M52.9928116,355.190859 C52.9928116,353.66685 52.9867943,352.143137 52.9958203,350.619128 C52.9991298,350.027607 52.781002,349.851805 52.2165776,350.126883 C50.0229643,351.195876 47.8134051,352.23414 45.6408524,353.343316 C45.3393848,353.497549 45.0379171,353.979748 45.0325015,354.314805 C44.9846639,357.337413 45.0054236,360.360611 45.000008,363.38381 C44.9988046,363.94933 45.1645817,364.161769 45.7587918,363.868373 C47.9232211,362.797903 50.0960747,361.742797 52.2752465,360.700692 C52.7906298,360.454274 53.0087575,360.103261 52.9997316,359.541287 C52.9777684,358.091144 52.9925108,356.641002 52.9928116,355.190859" id="Fill-16" fill="#1A5692"></path>
                <path d="M42.9938338,360.18819 C42.9941344,358.688376 43.0010489,357.188562 42.9911281,355.688452 C42.9863179,354.926585 42.8618559,354.853647 42.1544669,355.19442 C40.0229801,356.222349 37.9008129,357.268587 35.7639146,358.286181 C35.2534401,358.529211 34.9985034,358.864373 35.0000066,359.4278 C35.0090256,362.402919 34.9988041,365.378334 35.0081237,368.353453 C35.0099275,369.032046 35.2026331,369.142782 35.829152,368.84217 C37.9627432,367.818079 40.0867142,366.775089 42.2230112,365.756609 C42.760242,365.500587 43.0070616,365.129989 42.9998464,364.54028 C42.9815078,363.089781 42.9935331,361.638985 42.9938338,360.18819" id="Fill-18" fill="#1A5692"></path>
                <path d="M20.8790907,365.469172 C22.9975851,366.246732 25.0983929,367.070353 27.1950038,367.902034 C27.7705676,368.130321 27.9983949,367.957018 27.9986947,367.409473 C28.0013927,364.459294 28.0001936,361.509403 27.9923995,358.559224 C27.9915002,358.0848 27.7669703,357.775043 27.269947,357.589074 C25.1568486,356.79712 23.058439,355.968318 20.951336,355.160531 C20.1479449,354.8525 20.0127473,354.945485 20.0076512,355.812863 C19.998658,357.179998 20.005253,358.547133 20.005253,359.914268 C20.0055528,361.353373 20.0169441,362.792478 20.0001569,364.231583 C19.9929623,364.859733 20.2324808,365.23196 20.8790907,365.469172" id="Fill-20" fill="#1A5692"></path>
                <g id="Group-3" transform="translate(290.000000, 289.000000)" fill="#1A5692">
                    <path d="M78.6991784,84.0000824 L44.8838036,84.0000824 C44.1513114,80.6263729 43.4164331,77.256444 42.6887128,73.88557 C42.4224387,72.6549859 42.2525578,71.3979377 41.8879818,70.1975984 C41.5787603,69.1796729 41.868894,68.4235537 42.3818772,67.5606326 C43.1005309,66.3508418 43.7795775,65.076781 44.204757,63.7455385 C44.9229335,61.4932484 43.9986094,60.0036935 41.7133289,59.3539035 C41.371181,59.2565532 41.0190121,59.1544771 40.6677976,59.1374644 C38.8425318,59.0476753 36.9786133,59.0977682 35.7765625,60.6875088 C34.5893047,62.2564562 35.2697828,63.9208637 35.9836645,65.4893385 C36.292886,66.1689007 36.5968584,66.8848511 37.0688029,67.449105 C37.8890989,68.4306423 37.9287059,69.4178505 37.6524108,70.6144091 C36.6264444,75.0514113 35.6954396,79.5106244 34.7224417,83.9887406 L0.714280631,83.9887406 C0.714280631,81.7629146 0.713803437,79.6065571 0.714280631,77.4511447 C0.714280631,76.1118685 0.713803437,74.7730649 0.716189406,73.4342613 C0.720006955,70.7448397 1.76792425,68.5695792 3.90193433,66.8787076 C10.6255931,61.5494848 17.7887472,56.8988789 25.5231022,53.1376583 C26.4011385,52.710451 26.7117916,52.2279524 26.6998618,51.2605924 C26.6459389,46.7720796 26.6621635,42.2826217 26.6903179,37.7936363 C26.6950898,37.1017872 26.4980088,36.6712719 25.9301484,36.2232712 C24.2074792,34.865092 23.4053167,32.9884986 23.3910009,30.8458458 C23.3533026,25.2543441 23.2759972,19.6604795 23.4186781,14.0718133 C23.6038292,6.79605601 29.8612698,0.757971402 37.2362979,0.605802407 C40.0880073,0.546730593 42.9592816,0.326038293 45.7656575,1.14831795 C51.530157,2.83588156 55.8048579,8.04081729 55.9771248,14.0292816 C56.1412794,19.7342012 56.0592021,25.4476271 56.0105284,31.1567998 C55.9928722,33.2309294 54.9578391,34.8943917 53.4565879,36.3144781 C53.1087137,36.6438625 52.7880395,37.2000827 52.7832676,37.6556446 C52.7345938,42.262301 52.7684746,46.8699025 52.7393658,51.4770315 C52.7345938,52.2567794 53.0562224,52.6561049 53.7090233,53.0464515 C59.4849754,56.4986083 65.2609276,59.9526555 70.9824797,63.4922386 C72.626889,64.509219 74.1090526,65.7880056 75.642753,66.9765305 C77.6851419,68.55871 78.6915433,70.6593037 78.6972697,73.2225479 C78.705382,76.7952113 78.6991784,80.367402 78.6991784,84.0000824" id="Fill-1"></path>
                </g>
                <path d="M342.664489,252.022671 C342.693395,252.286228 342.684391,252.397824 342.71851,252.494224 C344.133007,256.461821 345.532815,260.434642 346.998964,264.382295 C347.125961,264.723256 347.681335,265.09366 348.058534,265.117879 C349.432279,265.206206 350.815502,265.15302 352.194933,265.153495 L357.240686,265.153495 C353.599953,259.190464 348.811038,254.956461 342.664489,252.022671 L342.664489,252.022671 Z M300.890132,265.15302 C304.111016,265.15302 307.021991,265.123103 309.932492,265.17249 C310.748019,265.186736 311.057929,264.905609 311.331825,264.142007 C312.688511,260.362461 314.131441,256.614257 315.541674,252.853706 C315.642134,252.585875 315.72127,252.309497 315.880964,251.820848 C309.51454,254.794528 304.578725,258.998614 300.890132,265.15302 L300.890132,265.15302 Z M338.831366,265.084638 C337.501217,260.470258 335.73653,256.225332 333.507926,252.174632 C331.711017,248.908903 331.695379,248.944518 327.976933,249.075584 C327.205475,249.103127 326.746296,249.341516 326.404637,250.023914 C324.572187,253.684266 322.669605,257.310426 320.888807,260.995472 C320.284624,262.244873 319.967132,263.632939 319.474783,265.084638 L338.831366,265.084638 Z M309.019821,290.639669 L309.019821,273.389762 L297.409567,273.389762 C297.340382,273.509906 297.256034,273.604406 297.225232,273.714578 C295.732546,279.141947 295.914986,284.580238 297.193009,290.008557 C297.256034,290.275913 297.780606,290.594555 298.104732,290.611176 C299.442937,290.678609 300.786354,290.639669 302.12835,290.639669 L309.019821,290.639669 Z M348.971679,273.466692 C349.076404,276.465065 349.277324,279.263515 349.244627,282.059116 C349.210983,284.88226 348.946564,287.703029 348.776445,290.636819 C352.677805,290.636819 356.49529,290.653915 360.312302,290.600729 C360.571508,290.597405 360.973822,290.114455 361.056275,289.789639 C362.245685,285.123497 362.310131,280.415567 361.428736,275.69434 C361.011732,273.460518 360.977613,273.466692 358.675086,273.466692 L356.900448,273.466692 L348.971679,273.466692 Z M317.227224,273.405907 C317.140506,277.087154 317.0173,280.67485 316.995502,284.263495 C316.989342,285.235568 316.879879,285.856233 315.928824,286.454578 C311.702865,289.113414 308.791416,292.87444 307.284514,297.653127 C306.987872,298.593858 306.571816,298.861689 305.640664,298.813726 C304.109121,298.734897 302.57047,298.792357 300.870703,298.792357 C301.052669,299.165135 301.138439,299.457185 301.311875,299.679427 C302.719738,301.483485 304.172619,303.253352 305.543521,305.084477 C305.913138,305.577874 306.244373,306.243177 306.258589,306.837248 C306.329669,309.873612 306.291286,312.912825 306.291286,316 C296.717245,310.413547 286.53997,296.525294 288.173869,278.353651 C289.939503,258.713688 305.263939,243.661987 323.741021,241.348386 C345.399658,238.637313 362.593505,252.095327 368.086115,269.662927 C373.904273,288.269083 365.877414,306.667242 351.847587,315.962485 C351.817734,315.522274 351.772716,315.158043 351.771768,314.794287 C351.766082,312.104109 351.798779,309.412981 351.751392,306.723278 C351.737176,305.900316 352.043295,305.358006 352.569289,304.753963 C354.187077,302.897669 355.71009,300.958746 357.269592,299.05164 C357.185243,298.912501 357.099947,298.773837 357.015124,298.635173 C355.423873,298.635173 353.830253,298.591484 352.240898,298.652743 C351.400256,298.68551 351.012631,298.436674 350.74916,297.58427 C349.190606,292.543925 346.108091,288.655158 341.637142,285.887575 C341.045754,285.521444 340.90691,285.138694 340.902171,284.468642 C340.878004,280.798793 340.782283,277.128468 340.709781,273.405907 L317.227224,273.405907 Z" id="Fill-4" fill="#1A5692"></path>
                <path d="M250.025389,374 C250.025389,370.748932 249.949691,367.571001 250.059712,364.399764 C250.11002,362.970938 250.936116,361.794989 252.010464,360.840845 C256.815172,356.574445 262.150707,353.092011 267.827589,350.198986 C269.736965,349.226199 270.524977,348.209433 270.355714,346.003334 C270.129091,343.035258 270.326564,340.034677 270.272023,337.049392 C270.26309,336.570408 270.000733,335.98578 269.665029,335.644468 C268.594913,334.55791 267.789975,333.305477 267.781041,331.782001 C267.75001,326.768922 267.564761,321.735287 267.943251,316.748499 C268.339608,311.527477 272.873967,307.409266 278.01673,307.096157 C279.959489,306.977607 281.970894,306.904468 283.863344,307.275418 C289.421742,308.364844 292.890686,312.90611 292.971556,318.950774 C293.025626,322.971467 292.987542,326.993595 292.979079,331.015244 C292.975317,332.899153 292.358449,334.501503 290.925358,335.773535 C290.629619,336.035972 290.421802,336.565627 290.4171,336.975297 C290.378546,340.598272 290.369613,344.221724 290.423213,347.84422 C290.430735,348.3581 290.823331,348.865766 291.065,349.440834 C289.638492,350.78696 287.909192,352.225825 286.411218,353.88028 C284.329287,356.179116 283.25776,359.00474 283.173599,362.128653 C283.079564,365.630208 283.130343,369.135587 283.119059,372.639532 C283.117648,373.067845 283.119059,373.496158 283.119059,374 L250.025389,374 Z" id="Fill-6" fill="#1A5692"></path>
                <g id="Group-10" transform="translate(364.000000, 306.000000)" fill="#1A5692">
                    <path d="M10.7893132,66.9847987 C10.7893132,63.6474771 10.7496226,60.4098336 10.798399,57.1740888 C10.8777803,51.8750049 8.96976069,47.5508689 4.62148441,44.3630646 C3.88601219,43.8238529 3.20409841,43.2143918 2.49923101,42.6353088 C2.47053899,42.6120505 2.45714938,42.5702806 2.37824631,42.4416482 C3.51779787,42.1127101 3.39442217,41.2008918 3.38964017,40.3047371 C3.37290315,37.0238998 3.36764295,33.7425878 3.39490037,30.4617505 C3.40063877,29.7891598 3.26052606,29.311179 2.70963919,28.8336729 C1.38837147,27.6878481 0.746626529,26.1888775 0.749973932,24.4255224 C0.758103339,20.1165754 0.726063912,15.8076285 0.762407142,11.4986815 C0.808314381,6.10798859 5.27661896,1.10746467 10.6951077,0.621889352 C13.0067285,0.414463728 15.4359866,0.408293171 17.6902233,0.881052718 C22.7189787,1.93621785 26.1825842,6.22760245 26.3289136,11.3353991 C26.4575495,15.8384813 26.3810374,20.3472593 26.3700388,24.8531894 C26.365735,26.4860135 25.6326538,27.7903742 24.4653666,28.9267059 C24.0976305,29.2845982 23.7973206,29.8992805 23.7891912,30.4024182 C23.7303726,33.8403674 23.7834528,37.2802152 23.7404148,40.7191137 C23.7298944,41.578245 23.989079,42.0495806 24.7934121,42.4497174 C31.0057135,45.5345209 36.8478879,49.1974581 42.2109054,53.5970648 C43.5283475,54.6773868 44.5067456,55.9926646 44.562695,57.6952635 C44.6631171,60.763454 44.591387,63.8368657 44.591387,66.9847987 L10.7893132,66.9847987 Z" id="Fill-8"></path>
                </g>
                <path d="M203.5,355.5 L113,366" id="Line" stroke="#1A5692" stroke-width="4" stroke-linecap="square"></path>
                <path id="Line-decoration-1" d="M203.5,355.5 L193.117711,359.724699 L192.426217,353.764679 L203.5,355.5 Z" stroke="#1A5692" stroke-width="4" stroke-linecap="square"></path>
                <path id="Line-decoration-2" d="M113,366 L124.073783,367.735321 L123.382289,361.775301 L113,366 Z" stroke="#1A5692" stroke-width="4" stroke-linecap="square"></path>
                <path d="M545,366 L453,355.5" id="Line-Copy-7" stroke="#1A5692" stroke-width="4" stroke-linecap="square"></path>
                <path id="Line-Copy-7-decoration-1" d="M545,366 L533.929476,367.755992 L534.609842,361.794691 L545,366 Z" stroke="#1A5692" stroke-width="4" stroke-linecap="square"></path>
                <path id="Line-Copy-7-decoration-2" d="M453,355.5 L463.390158,359.705309 L464.070524,353.744008 L453,355.5 Z" stroke="#1A5692" stroke-width="4" stroke-linecap="square"></path>
                <g id="Page-1" transform="translate(588.000000, 330.000000)">
                    <mask id="mask-4" fill="white">
                        <use xlink:href="#path-3"></use>
                    </mask>
                    <g id="Clip-2"></g>
                    <path d="M47.03586,7.38792361 C47.057963,7.32323104 47.0797546,7.25853846 47.1018575,7.19384588 C47.00613,7.12305907 46.916473,7.04133391 46.8138967,6.98273556 C43.4400853,5.05274033 39.898167,3.57293668 36.0577033,2.8610058 C31.1958348,1.95999759 26.4597352,2.28767956 21.8990581,4.29189936 C20.3269476,4.98257857 18.8384236,5.8346767 17.6769296,7.14602963 C17.5218978,7.32104336 17.3419612,7.70013562 17.4186988,7.80608143 C17.5548965,7.99390868 17.8901763,8.15735901 18.1217902,8.13313835 C18.9409999,8.04781916 19.7745298,7.95843714 20.5616746,7.72888788 C28.0393171,5.54621656 35.588405,5.11118242 43.2350883,6.69286906 C44.4960454,6.95367078 45.768521,7.15759304 47.03586,7.38792361 L47.03586,7.38792361 Z M24.5895463,27.2316686 C24.6301721,27.3119874 24.6706423,27.3923062 24.7114238,27.4724688 C25.1413415,27.4724688 25.5782637,27.5230977 26.0000874,27.4644994 C29.4096994,26.9913372 32.8053024,26.3936341 36.2261215,26.0339184 C41.6374504,25.4651237 47.0490907,25.5910711 52.3925542,26.7156906 C54.7695542,27.2157299 57.1018813,27.9267232 59.4623819,28.5102065 C59.9811783,28.6384978 60.5427798,28.721473 61.0674911,28.6644373 C61.7489466,28.5905253 61.9298171,28.1481468 61.4606744,27.6498264 C60.7728372,26.9194566 60.0411053,26.1925245 59.2111555,25.6413875 C53.8670693,22.0926715 47.9000538,21.0216499 41.6270216,21.4737167 C35.7972934,21.8935934 30.4166284,23.8618729 25.3131841,26.646779 C25.0454583,26.7928842 24.8295655,27.0346219 24.5895463,27.2316686 L24.5895463,27.2316686 Z M56.0541708,56.5652209 C56.0955749,56.4583376 56.1372903,56.3516104 56.1788501,56.2445708 C55.5731984,55.8743855 54.9957202,55.4437267 54.3572254,55.1435469 C50.0536896,53.1201068 45.5643023,51.6238956 40.9419861,50.5417794 C33.6237338,48.8288325 26.2637661,48.2509746 18.8381123,49.8556318 C15.2653744,50.6278799 11.8453336,51.7914088 8.85583312,53.9572037 C8.01000653,54.5695956 7.26613364,55.3695021 6.61440823,56.1939418 C5.90586891,57.0901059 6.27897277,57.90642 7.40544443,58.1183116 C7.85762077,58.2033183 8.34948901,58.2625417 8.7929487,58.1762849 C11.3052124,57.6867152 13.8269711,57.2251165 16.311217,56.613506 C22.0830418,55.1924569 27.8786816,53.9867373 33.8573712,53.9556411 C40.9085204,53.918607 47.8681447,54.680073 54.7306405,56.317389 C55.1666288,56.4213034 55.6127346,56.4834958 56.0541708,56.5652209 L56.0541708,56.5652209 Z M30.8957329,0 C32.0477319,0.144542595 33.203778,0.263145654 34.351263,0.438315653 C40.3506546,1.35416879 46.0469869,3.1558727 51.234329,6.38659502 C52.9608488,7.46199193 54.537162,8.72740375 55.6676807,10.4708218 C57.2727899,12.9458598 56.572189,15.8042092 53.9669995,17.165566 C53.0564207,17.6416972 52.0697268,17.9714105 50.9423212,18.4409786 C51.4699899,18.5644258 51.8525887,18.6595896 52.2375223,18.7433461 C56.5991172,19.6909205 60.4637073,21.5612235 63.4908762,24.9382074 C66.1494551,27.9035963 67.6434271,31.3791816 67.8264768,35.380902 C68.0011211,39.1938575 66.2330416,42.0151727 63.2335793,44.1565908 C61.4877583,45.4027823 59.5493927,46.2625373 57.5003568,46.8805546 C57.046157,47.0175966 56.6058104,47.2016735 56.1590819,47.3641863 C56.1589263,47.4407548 56.1587706,47.5176358 56.158615,47.5943606 C56.4755276,47.7234332 56.7845018,47.877039 57.110131,47.9778282 C60.3086754,48.9668121 63.449939,50.0883063 66.3245664,51.8557888 C68.3580369,53.1061995 70.2121934,54.5649077 71.4961874,56.614131 C73.772012,60.2469162 73.446694,64.4191186 70.6427338,67.9326757 C68.8145716,70.2236367 66.4993665,71.925489 63.9506796,73.3163795 C58.6265172,76.2220763 52.8658996,77.7737606 46.9306376,78.7422741 C40.0475953,79.8654872 33.1183236,80.2470797 26.1551193,79.843923 C20.7185744,79.5288983 15.3978364,78.6177331 10.3712854,76.4061532 C7.36979955,75.0852683 4.65798674,73.3370061 2.61922401,70.6936736 C-0.0438689372,67.2410589 -0.630375117,63.3988823 0.651284088,59.2746524 C2.08626298,54.6572587 5.14549665,51.2893381 9.1350773,48.7703904 C10.8978646,47.6574905 12.863781,46.8682098 14.7401961,45.9375118 C14.9859745,45.8156272 15.2476298,45.7265577 15.69716,45.5423245 C15.2297295,45.3044934 14.9476835,45.1485436 14.6556757,45.0144706 C12.4927007,44.0207989 10.4752626,42.8321118 8.97179573,40.9110235 C6.64787395,37.9421968 6.68538668,34.5836519 9.08511221,31.6304514 C11.1736844,29.0597808 13.8630829,27.252139 16.7068908,25.6710774 C18.3574511,24.7535054 20.0998477,24.0025089 21.8013071,23.1774442 C22.0508213,23.0564972 22.3029816,22.9405506 22.771346,22.7199082 C22.1807928,22.4753578 21.7988166,22.3012816 21.4061003,22.1570516 C18.9266797,21.24573 16.7805153,19.8551521 15.0599104,17.8171797 C12.7320973,15.0596195 12.4860075,12.0114115 13.7869679,8.75943751 C15.4930969,4.49441526 18.7674451,2.01968977 23.0617973,0.812720039 C24.4466554,0.423470737 25.8959545,0.264395752 27.3156793,0 L30.8957329,0 Z" id="Fill-1" fill="#1A5692" mask="url(#mask-4)"></path>
                </g>
                <path d="M215,292 L131,266" id="Line-Copy" stroke="#1A5692" stroke-width="4" stroke-linecap="square"></path>
                <path id="Line-Copy-decoration-1" d="M215,292 L203.795861,291.672473 L205.569964,285.940758 L215,292 Z" stroke="#1A5692" stroke-width="4" stroke-linecap="square"></path>
                <path id="Line-Copy-decoration-2" d="M131,266 L140.430036,272.059242 L142.204139,266.327527 L131,266 Z" stroke="#1A5692" stroke-width="4" stroke-linecap="square"></path>
                <path d="M527,263 L443,297" id="Line-Copy-4" stroke="#1A5692" stroke-width="4" stroke-linecap="square"></path>
                <path id="Line-Copy-4-decoration-1" d="M527,263 L518.114553,269.832922 L515.863396,264.271241 L527,263 Z" stroke="#1A5692" stroke-width="4" stroke-linecap="square"></path>
                <path id="Line-Copy-4-decoration-2" d="M443,297 L454.136604,295.728759 L451.885447,290.167078 L443,297 Z" stroke="#1A5692" stroke-width="4" stroke-linecap="square"></path>
                <path d="M590.504728,188.639341 C589.752873,188.637627 589.17492,189.203358 589.17492,189.941095 C589.174346,190.690261 589.740246,191.265707 590.482919,191.270279 C591.231905,191.275993 591.819041,190.708547 591.823632,189.974811 C591.828798,189.210216 591.267489,188.641627 590.504728,188.639341 M592.763165,261.403286 L592.762017,261.403286 C592.762017,260.748408 592.754555,260.092388 592.766034,259.438083 C592.770052,259.209504 592.678222,259.144931 592.46357,259.146074 C591.154997,259.15236 589.846424,259.15236 588.538425,259.146074 C588.324347,259.144931 588.233092,259.206647 588.23424,259.435797 C588.241701,260.746123 588.235961,262.056449 588.237683,263.366774 C588.237683,263.641069 588.269824,263.667355 588.547608,263.667355 L592.426264,263.667355 C592.741355,263.667355 592.762017,263.649069 592.762591,263.322202 C592.763738,262.682753 592.763165,262.042734 592.763165,261.403286 M619.964263,235.847074 C619.870712,235.776786 619.819058,235.747071 619.778308,235.706498 C617.668521,233.608148 615.562178,231.507512 613.446652,229.414877 C613.238887,229.210299 613.211338,228.986863 613.211338,228.725141 C613.215356,221.467776 613.215356,214.210411 613.21593,206.953045 C613.21593,202.911779 613.21593,198.870512 613.21593,194.829816 C613.21593,194.484092 613.206173,194.473234 612.848037,194.473234 C606.542208,194.474377 600.236953,194.477234 593.931697,194.477234 C585.356527,194.476663 576.781931,194.474377 568.20676,194.473234 C568.168307,194.473234 568.129279,194.476091 568.090825,194.473234 C567.870434,194.457805 567.774587,194.537236 567.779752,194.777815 C567.794675,195.417263 567.78377,196.057854 567.78377,196.698445 C567.78377,203.508368 567.784344,210.318863 567.784344,217.128214 C567.784344,225.874768 567.78377,234.62075 567.78377,243.366733 C567.783196,247.691437 567.783196,252.016141 567.782622,256.341416 C567.782048,256.646568 567.81591,256.681427 568.131575,256.681427 L608.078059,256.681427 L612.818766,256.681427 C613.199286,256.681427 613.217078,256.663712 613.21593,256.296272 C613.215356,256.072837 613.211912,255.84883 613.215356,255.625966 C613.216504,255.53682 613.233722,255.448817 613.247496,255.316813 C613.329569,255.379672 613.379501,255.410531 613.419677,255.44996 C615.520855,257.540882 617.620885,259.632946 619.723784,261.722153 C619.862677,261.860443 619.915479,261.994161 619.863825,262.19531 C619.452887,263.803931 618.484084,264.939394 616.962581,265.607415 C616.32953,265.885709 615.663765,265.995998 614.972746,265.995998 C606.297137,265.993712 597.621528,265.995426 588.94592,265.995426 C581.246001,265.995426 573.546656,265.991998 565.846738,265.999998 C565.003626,266.000569 564.199543,265.878851 563.448261,265.483982 C562.450187,264.959395 561.748264,264.169085 561.317239,263.133624 C561.075612,262.554178 561.001574,261.946159 561.001574,261.323855 C561.002722,258.208331 561.002722,255.092807 561.002722,251.976711 C561.002722,242.700427 561.002148,233.424714 561.001574,224.149001 C561.001,215.048151 560.998705,205.9473 561.001,196.84645 C561.001,196.037854 561.04175,195.229257 561.04175,194.420661 C561.041176,193.50349 561.015923,192.586319 561.001574,191.668577 C560.980913,190.27082 561.484828,189.093641 562.522503,188.154755 C563.092421,187.638739 563.756465,187.271871 564.520373,187.134152 C564.950824,187.056435 565.393329,187.019863 565.830667,187.011863 C566.798897,186.993576 567.767126,187.000434 568.735355,187.006148 C569.686366,187.011863 570.636803,187.038721 571.587814,187.037578 C572.98133,187.035863 574.374845,187.008434 575.768361,187.007862 C584.831376,187.005577 593.894391,187.007291 602.957407,187.007291 C606.946832,187.007291 610.936258,187.006148 614.92511,187.00672 C616.880508,187.007291 618.360688,187.862174 619.362205,189.517082 C619.774291,190.198246 619.989517,190.958841 619.990664,191.763437 C619.996404,194.447519 619.996978,197.131601 619.998126,199.815684 C619.999273,203.53294 620.000421,207.250197 619.999847,210.967454 C619.999273,216.520767 619.996978,222.07408 619.996404,227.626822 C619.996404,230.248616 619.999273,232.870983 619.999273,235.492777 C619.999273,235.594495 619.97976,235.695641 619.964263,235.847074" id="Fill-1" fill="#1A5692"></path>
                <path d="M604.239874,248.555084 C604.177569,248.465903 604.147845,248.405508 604.102688,248.360353 C601.701948,245.990283 599.298921,243.621907 596.89818,241.251272 C594.878128,239.256552 592.860363,237.260704 590.842598,235.264291 C590.375025,234.802017 589.893162,234.351597 589.450168,233.866745 C588.930008,233.296664 588.860844,232.392437 589.241532,231.728094 C589.645657,231.023677 590.468197,230.641554 591.255296,230.768552 C591.778315,230.853217 592.16472,231.135436 592.525403,231.497804 C593.442828,232.421223 594.376831,233.328837 595.303974,234.243225 C597.321739,236.232865 599.34122,238.220811 601.35384,240.216659 C601.518463,240.379782 601.627068,240.370751 601.766539,240.205935 C601.859711,240.095305 601.961456,239.987498 602.075777,239.898317 C602.231826,239.776399 602.221537,239.6748 602.087781,239.544415 C601.529323,238.99804 600.985727,238.43699 600.417552,237.90134 C599.799647,237.319405 599.564145,236.642081 599.773353,235.813488 C599.919684,235.231554 600.575886,234.61406 601.2218,234.506252 C601.907726,234.391672 602.519914,234.537861 603.024642,235.042467 C603.609965,235.627224 604.203863,236.204078 604.793187,236.784884 C604.987533,236.976792 605.030975,236.978486 605.222462,236.789964 C605.331639,236.682721 605.433956,236.568704 605.54942,236.46767 C605.698038,236.337285 605.664885,236.237944 605.532844,236.112075 C605.171018,235.769462 604.822339,235.413867 604.466229,235.065045 C603.54423,234.160253 603.651692,232.757063 604.728024,232.041357 C605.496261,231.53167 606.483995,231.6423 607.151629,232.277856 C607.534604,232.643047 607.91072,233.01501 608.279977,233.393183 C608.417162,233.533728 608.522909,233.555741 608.657808,233.398827 C608.752123,233.289327 608.859585,233.188292 608.969904,233.094596 C609.129954,232.959131 609.119093,232.845679 608.97905,232.693281 C608.710396,232.402596 608.412018,232.122636 608.217101,231.786231 C607.772392,231.020291 607.989602,229.976083 608.752694,229.391326 C609.439192,228.865271 610.522955,228.85624 611.170583,229.445512 C611.844505,230.05849 612.479558,230.71493 613.128902,231.354437 C616.664278,234.841528 620.199083,238.329747 623.733316,241.817402 C624.115148,242.193881 624.483833,242.584472 624.877097,242.947969 C625.049722,243.107705 625.031431,243.205917 624.878812,243.354928 C624.100286,244.115789 623.327476,244.881729 622.553523,245.647106 C620.395143,247.780112 618.236763,249.913683 616.077811,252.047255 C615.451332,252.665877 614.820281,253.281678 614.197803,253.90538 C614.069763,254.033508 613.977735,254.029557 613.853697,253.90538 C613.358115,253.405854 612.851673,252.915923 612.359521,252.413574 C612.208618,252.259483 612.073719,252.225617 611.869656,252.315362 C611.046545,252.676602 610.217718,253.025424 609.387176,253.370294 C609.294004,253.409241 609.172252,253.416578 609.07165,253.398516 C608.05648,253.21451 607.042453,253.020344 606.027854,252.831822 C604.990391,252.638784 603.952356,252.450262 602.914322,252.258918 C601.922016,252.076041 600.92971,251.893728 599.938547,251.708028 C599.416671,251.61038 598.891366,251.524022 598.375779,251.398717 C597.442348,251.173506 596.861026,250.360717 596.926189,249.411335 C597.003355,248.280768 598.055108,247.465721 599.1846,247.670047 C600.594749,247.925173 602.002612,248.1882 603.411618,248.447841 C603.615681,248.485094 603.819172,248.527991 604.023807,248.562986 C604.078681,248.572017 604.137556,248.5596 604.239874,248.555084" id="Fill-4" fill="#1A5692"></path>
                <path d="M603.746753,230.566489 C603.6981,230.214261 603.659749,229.912759 603.614531,229.611827 C603.106248,226.242869 601.51672,223.485464 598.89231,221.305985 C598.069213,220.622619 597.15854,220.073189 596.214668,219.588164 C595.650863,219.298631 595.025813,219.119668 594.415645,218.929875 C592.774029,218.419202 591.08834,218.267596 589.37861,218.412363 C588.260731,218.506974 587.174907,218.753761 586.11255,219.129357 C584.655817,219.643449 583.338174,220.39122 582.151037,221.36811 C580.962754,222.345569 579.97996,223.499712 579.191778,224.82313 C578.593631,225.828517 578.141442,226.893179 577.831779,228.014265 C577.349826,229.756024 577.249086,231.52742 577.488917,233.318194 C577.619422,234.289955 577.859826,235.236067 578.208412,236.149123 C578.918176,238.007151 579.998276,239.626941 581.441273,241.005073 C582.716558,242.223621 584.183022,243.144656 585.828645,243.774447 C587.680328,244.483462 589.60127,244.747347 591.580023,244.597451 C592.763726,244.507969 593.923389,244.296519 595.026386,243.85253 C595.710392,243.577246 596.370931,243.244966 597.046924,242.949734 C597.12019,242.917817 597.257563,242.927506 597.312513,242.976521 C597.575812,243.212479 597.824802,243.466106 598.072647,243.719162 C598.20029,243.85025 598.09497,243.924343 597.985071,243.982478 C597.549482,244.211597 597.12019,244.453825 596.67487,244.662995 C595.388709,245.267139 594.034433,245.646154 592.628642,245.849055 C591.157599,246.061646 589.685411,246.049677 588.221809,245.813149 C585.874436,245.433564 583.739992,244.535897 581.832215,243.116728 C580.394371,242.047507 579.188917,240.756006 578.234742,239.246786 C577.35784,237.859534 576.732789,236.360003 576.368749,234.753892 C576.064238,233.408246 575.944036,232.050062 576.02417,230.676489 C576.120332,229.030481 576.4838,227.443178 577.119725,225.914009 C577.934237,223.95738 579.130533,222.269196 580.684573,220.835209 C582.110397,219.519201 583.744571,218.536611 585.577365,217.877182 C587.568139,217.161899 589.616152,216.880345 591.722548,217.046199 C592.879349,217.137391 594.017834,217.344852 595.114534,217.736975 C595.64285,217.926198 596.182042,218.101172 596.683456,218.348529 C597.314802,218.66029 597.917529,219.032466 598.524263,219.392102 C599.697091,220.086298 600.692478,220.990235 601.579683,222.01443 C602.585373,223.173703 603.387864,224.457224 603.98544,225.872973 C604.463958,227.006598 604.772476,228.182399 604.965944,229.391828 C604.980254,229.483589 604.984261,229.57592 604.996281,229.667682 C605.015742,229.818148 604.959648,229.889391 604.808537,229.956075 C604.515473,230.086023 604.241871,230.262137 603.961399,230.421152 C603.903015,230.454209 603.849783,230.496385 603.746753,230.566489" id="Fill-6" fill="#1A5692"></path>
                <path d="M619.797289,260 C619.725578,259.945331 619.664945,259.909854 619.616555,259.862164 C618.443536,258.693178 617.272266,257.521865 616.098081,256.354624 C615.96049,256.218533 615.971567,256.117919 616.106826,255.983573 C617.049556,255.050128 617.985872,254.110868 618.92452,253.173934 C620.930663,251.1727 622.937388,249.172047 624.944114,247.170812 C625.633233,246.48396 626.326434,245.800597 627.009723,245.107929 C627.146731,244.968349 627.238847,244.96137 627.376438,245.103276 C628.136102,245.886672 628.898098,246.667741 629.667673,247.441249 C630.049545,247.824514 630.45124,248.188004 630.841858,248.563708 C631.053491,248.767845 631.051742,248.806229 630.842441,249.015019 C628.411866,251.438484 625.980708,253.860787 623.551299,256.284252 C622.389358,257.443351 621.230331,258.60594 620.068972,259.765621 C619.986767,259.846462 619.894068,259.916833 619.797289,260" id="Fill-8" fill="#1A5692"></path>
                <path d="M598.051814,235.280519 C598.064489,235.176655 598.058728,235.09068 598.087535,235.017975 C598.642366,233.620435 598.768542,232.164616 598.535202,230.700719 C598.144574,228.247811 596.923716,226.279022 594.859954,224.878597 C594.305123,224.501226 593.688068,224.21214 593.084841,223.912667 C592.84574,223.794378 592.565732,223.759757 592.305889,223.680128 C591.203718,223.343726 590.073892,223.307374 588.944065,223.438357 C587.333155,223.624735 585.891633,224.242722 584.62065,225.258852 C583.441275,226.202279 582.57302,227.378243 582.003786,228.772321 C581.497352,230.010027 581.305494,231.307743 581.409201,232.637772 C581.618343,235.316871 582.836896,237.451841 584.990537,239.036336 C586.248845,239.961874 587.674811,240.471382 589.240782,240.607558 C590.542876,240.721231 591.797151,240.553319 593.018008,240.102667 C593.170111,240.046696 593.281308,240.070354 593.393657,240.188066 C593.618931,240.424066 593.854575,240.650258 594.085034,240.881643 C594.24578,241.043208 594.225615,241.10091 594.01244,241.192656 C593.129205,241.572334 592.211401,241.85392 591.257876,241.938741 C590.47201,242.008561 589.669436,242.026448 588.885298,241.951436 C587.258256,241.794487 585.756814,241.233624 584.402866,240.308663 C582.764877,239.188669 581.545172,237.721309 580.78408,235.879465 C580.007433,234.000691 579.800019,232.05152 580.196409,230.067152 C580.746631,227.311886 582.216384,225.13537 584.567068,223.599923 C586.375597,222.418765 588.385778,221.886753 590.548061,222.020045 C591.165116,222.057551 591.793117,222.12737 592.387702,222.287204 C595.187206,223.040791 597.374264,224.620669 598.783522,227.195905 C599.795814,229.046405 600.149569,231.034236 599.943884,233.126507 C599.934666,233.225177 599.859767,233.357314 599.776225,233.404053 C599.04855,233.810851 598.531745,234.39768 598.217168,235.167423 C598.203341,235.201467 598.173957,235.230895 598.148031,235.259169 C598.139965,235.268401 598.120376,235.26667 598.051814,235.280519" id="Fill-10" fill="#1A5692"></path>
                <path d="M590.301834,235.977239 C589.10743,236.185489 587.151223,234.930948 586.498409,233.595793 C585.543221,231.642044 586.004886,229.507476 587.507812,228.133134 C588.92187,226.840525 591.146916,226.630595 592.813604,227.623144 C594.06893,228.371615 595.220857,230.295693 594.963755,231.291601 C594.850295,231.191394 594.750808,231.111341 594.659146,231.021771 C594.152768,230.526896 593.675453,229.997872 593.137776,229.539385 C591.563867,228.195833 589.038125,228.748929 588.133798,230.613107 C587.522903,231.871008 587.76659,233.388102 588.744135,234.387929 C589.182325,234.836339 589.628899,235.275233 590.070443,235.719725 C590.143661,235.79362 590.209613,235.873673 590.301834,235.977239" id="Fill-12" fill="#1A5692"></path>
                <path d="M239,232 L185,172" id="Line-Copy-5" stroke="#1A5692" stroke-width="4" stroke-linecap="square"></path>
                <path id="Line-Copy-5-decoration-1" d="M239,232 L229.545298,225.979317 L234.005063,221.965529 L239,232 Z" stroke="#1A5692" stroke-width="4" stroke-linecap="square"></path>
                <path id="Line-Copy-5-decoration-2" d="M185,172 L189.994937,182.034471 L194.454702,178.020683 L185,172 Z" stroke="#1A5692" stroke-width="4" stroke-linecap="square"></path>
                <path d="M412,230 L477,173" id="Line-Copy-6" stroke="#1A5692" stroke-width="4" stroke-linecap="square"></path>
                <path id="Line-Copy-6-decoration-1" d="M412,230 L418.142115,220.623731 L422.098054,225.134889 L412,230 Z" stroke="#1A5692" stroke-width="4" stroke-linecap="square"></path>
                <path id="Line-Copy-6-decoration-2" d="M477,173 L466.901946,177.865111 L470.857885,182.376269 L477,173 Z" stroke="#1A5692" stroke-width="4" stroke-linecap="square"></path>
                <path d="M295.5,185 L275,120" id="Line-Copy-2" stroke="#1A5692" stroke-width="4" stroke-linecap="square"></path>
                <path id="Line-Copy-2-decoration-1" d="M295.5,185 L289.390493,175.602451 L295.112654,173.79777 L295.5,185 Z" stroke="#1A5692" stroke-width="4" stroke-linecap="square"></path>
                <path id="Line-Copy-2-decoration-2" d="M275,120 L275.387346,131.20223 L281.109507,129.397549 L275,120 Z" stroke="#1A5692" stroke-width="4" stroke-linecap="square"></path>
                <path d="M364,186 L382,117" id="Line-Copy-3" stroke="#1A5692" stroke-width="4" stroke-linecap="square"></path>
                <path id="Line-Copy-3-decoration-1" d="M364,186 L363.823305,174.792468 L369.629008,176.306999 L364,186 Z" stroke="#1A5692" stroke-width="4" stroke-linecap="square"></path>
                <path id="Line-Copy-3-decoration-2" d="M382,117 L376.370992,126.693001 L382.176695,128.207532 L382,117 Z" stroke="#1A5692" stroke-width="4" stroke-linecap="square"></path>
                <g id="Group-3" transform="translate(93.000000, 108.000000)" fill="#1A5692">
                    <path d="M70.5298609,14.5126916 C69.0527913,21.1701361 67.5927976,27.831387 66.1290967,34.4918543 C65.3691046,37.9493816 64.6043941,41.4060132 63.8606916,44.8670111 C63.7479005,45.3923071 63.7466647,45.9398823 63.4846837,46.4310319 C62.8629843,47.5969384 61.9067312,48.2406835 60.5723356,48.3016994 C60.4602185,48.3068493 60.3476521,48.3059537 60.2354226,48.3059537 C43.7306188,48.3061776 27.225815,48.3029309 10.7211236,48.3128949 C9.52243687,48.3135667 8.54629921,47.9203783 7.81169636,46.9733452 C7.4745587,46.5386213 7.28346535,46.0406424 7.18539098,45.4964259 C7.00878972,44.5165898 6.82185301,43.5378732 6.60907769,42.5654262 C5.40634668,37.0685143 4.19440364,31.5737295 2.98628022,26.0780491 C2.11810301,22.1291484 1.24857769,18.1804716 0.386129905,14.2304513 C0.236041297,13.5431554 0.453759652,12.9143003 0.802805538,12.3377286 C1.48000174,11.2191794 2.51365839,10.7006007 3.80345427,10.6927638 C5.90042579,10.6801128 7.99750965,10.6892932 10.0944812,10.6892932 C17.7333847,10.6892932 25.3724005,10.6892932 33.011304,10.6892932 L35.5095603,10.6892932 C46.031603,10.6892932 56.5537581,10.689629 67.0758008,10.6889573 C68.4026695,10.6888454 69.4614907,11.2010426 70.1576726,12.3436622 C70.5615413,13.0065518 70.7056758,13.7202693 70.5298609,14.5126916 M70.7904938,12.4825992 C70.3065255,11.0253841 69.048747,10.1531374 67.4212517,10.1489951 C65.4085366,10.1439571 63.3958214,10.144069 61.3831062,10.1530255 C61.1641521,10.1540331 61.0519226,10.0854042 60.9536236,9.89216874 C60.2348609,8.47872828 59.3343293,7.18967059 58.2660714,6.01469573 C55.9103767,3.4238174 53.0434147,1.6548057 49.6602422,0.742143004 C48.6463578,0.468635279 47.6005682,0.312569062 46.5684843,0.102540207 C46.47041,0.483189517 46.4318767,0.805286007 46.3059416,1.08886974 C45.9656584,1.85442268 45.6238024,2.62322233 45.2186979,3.35574834 C43.9335081,5.67950043 42.3911679,7.83789397 40.8387169,9.98789084 C40.7767043,10.0737608 40.626391,10.1397027 40.5165207,10.1409343 C39.4307375,10.1520179 38.3447296,10.1480994 37.258834,10.1464201 C37.1879464,10.1463081 37.117171,10.1300746 37.036285,10.1199985 C36.9764068,9.28458526 36.9119226,8.46742076 36.8674353,7.64924865 C36.8626046,7.56113953 36.9512422,7.43194268 37.0334764,7.38055502 C37.8065002,6.89746626 38.4142691,6.26928295 38.7917375,5.43532509 C38.980921,5.01761845 39.1030366,4.58188694 39.0968578,4.0646517 C36.530747,5.17816289 33.9826109,5.15868261 31.4067264,4.04494751 C31.436497,4.53688076 31.5195176,4.92491915 31.7087011,5.3122858 C32.0128103,5.93531915 32.4056695,6.47169881 32.9123309,6.94493547 C33.1689195,7.18463258 33.6350255,7.23042245 33.6962517,7.62025213 C33.7514116,7.97089732 33.6688403,8.34370973 33.6423277,8.70655809 C33.6079511,9.17777954 33.5689685,9.64866513 33.5325698,10.1121616 C33.4781964,10.1271637 33.4515714,10.1408223 33.4249464,10.1408223 C32.2923166,10.1437331 31.1596869,10.149107 30.0270571,10.1398147 C29.9396552,10.139143 29.8207976,10.0543925 29.7710302,9.97479203 C28.7501805,8.34583689 27.7067502,6.72998057 26.7318483,5.07393216 C25.8248008,3.53342201 24.9031489,1.98820972 24.5634274,0.157062623 C24.2892011,0.193896041 24.0309274,0.229721859 23.772429,0.262972696 C20.8846837,0.634889463 18.2526283,1.67999573 15.8814305,3.34276148 C13.446535,5.0500856 11.5134701,7.21598017 10.1695255,9.87985361 C10.0685302,10.0802543 9.94956028,10.1543689 9.72015839,10.1533613 C7.66070902,10.1438451 5.60114731,10.1504505 3.54169794,10.146756 C2.45220744,10.1447407 1.51752389,10.502775 0.812242247,11.3443459 C0.235254905,12.0327613 -0.14097769,12.8276467 0.0502280063,13.741093 C1.05265364,18.5282059 2.08024383,23.3100569 3.09940839,28.0935872 C4.13609826,32.9591811 5.17739415,37.8237673 6.20700649,42.6909285 C6.44573275,43.8196657 6.62817579,44.9603821 6.87173275,46.0882236 C6.95475332,46.4731272 7.09338307,46.8665395 7.29660934,47.2017348 C7.98919636,48.3441306 9.04037832,48.8589028 10.37219,48.8586789 C27.11044,48.855768 43.8488024,48.8567756 60.5870524,48.8566637 C60.6899574,48.8566637 60.7934242,48.8606941 60.8958799,48.8529691 C62.2240967,48.7524329 63.2063008,48.1270485 63.8196869,46.9394226 C64.0785223,46.4381971 64.0838024,45.8817773 64.1962565,45.3466292 C65.1420619,40.8426522 66.1086505,36.3431534 67.0688356,31.8423112 C68.3399828,25.8836941 69.608546,19.9245172 70.8866584,13.9673555 C70.9965286,13.4549343 70.9512549,12.9663597 70.7904938,12.4825992" id="Fill-1"></path>
                </g>
                <g id="Group-6" transform="translate(114.000000, 75.000000)">
                    <mask id="mask-6" fill="white">
                        <use xlink:href="#path-5"></use>
                    </mask>
                    <g id="Clip-5"></g>
                    <path d="M1.92174518,17.4226353 C2.60148925,17.5587697 3.17626788,17.895208 3.79413522,18.2647479 C3.74035871,17.7733084 3.68714472,17.330561 3.64416851,16.8869098 C3.48497654,15.2440334 3.39058639,13.5977678 3.67465687,11.9616699 C3.77647222,11.374541 3.9538897,10.7911402 4.17675845,10.2384685 C4.31221226,9.90270807 4.57681968,9.60739251 4.82612668,9.33320319 C5.08117133,9.05280028 5.36186671,8.99789463 5.76991566,9.17323118 C8.74888675,10.4537981 11.8494738,11.1815804 15.1101528,11.0558397 C17.2971016,10.9714476 19.3362213,10.3843187 21.1618101,9.13527172 C21.2082739,9.10352587 21.2550752,9.07211893 21.303339,9.04331041 C21.318077,9.03449839 21.338215,9.03472434 21.3915415,9.02308796 C21.6630116,9.5025521 21.9484321,9.98687414 22.2150646,10.4813639 C22.9561229,11.8558127 23.6265292,13.2622333 24.0359282,14.7777873 C24.2577845,15.5985477 24.421589,16.42812 24.2350588,17.3114683 C24.8231128,16.6346376 25.4113918,15.9579198 25.9996708,15.2810891 L26.059185,15.2961147 C26.0387094,15.6175274 26.024084,15.9396179 25.9965207,16.2605787 C25.8391288,18.0993531 25.6068098,19.9253613 25.1031332,21.7076483 C24.3871631,24.2405385 23.3102829,26.5934601 21.640511,28.6411245 C20.1796575,30.4327884 18.4228082,31.8261039 16.1612698,32.4509664 C13.638499,33.1481325 11.2767202,32.6875351 9.08605872,31.3043873 C6.9472612,29.9538891 5.45029419,28.0228146 4.28678654,25.8085127 C3.14825459,23.6415472 2.46018529,21.3271499 2.0900499,18.9125441 C2.02311052,18.4757844 1.97675922,18.0358613 1.9224202,17.597181 C1.91690754,17.5517653 1.92174518,17.5048808 1.92174518,17.4226353 M3.39159892,27.758567 C4.58199483,29.8170769 6.06422392,31.6229756 8.03617926,32.9764111 C10.4252963,34.6162372 13.0372821,35.2844819 15.9072376,34.666172 C18.4611718,34.1158728 20.5002915,32.6960082 22.2160772,30.7756663 C24.6257823,28.078737 26.0372469,24.8710496 26.8941834,21.3906416 C27.2589187,19.908754 27.4421863,18.3982838 27.6061034,16.881713 C27.7619203,15.4418519 27.8209844,14.0062839 27.608466,12.5751219 C27.0682258,8.93553266 25.4917191,5.83325058 22.7168287,3.40011697 C19.750233,0.799103125 16.276248,-0.298783882 12.3664258,0.122385367 C9.50670802,0.430467057 6.99845014,1.60980874 4.87855315,3.55862031 C1.63598716,6.53945471 0.106844248,10.2900979 0.025729472,15.1606582 C0.133732503,16.1593535 0.252085824,17.641806 0.461566702,19.1111534 C0.898078951,22.1736685 1.83928036,25.0740649 3.39159892,27.758567" id="Fill-4" fill="#1A5692" mask="url(#mask-6)"></path>
                </g>
                <g id="Group-9" transform="translate(98.000000, 156.000000)">
                    <mask id="mask-8" fill="white">
                        <use xlink:href="#path-7"></use>
                    </mask>
                    <g id="Clip-8"></g>
                    <path d="M58.142696,0.124933467 C39.3220734,0.139842598 20.5012275,0.13529405 1.68038163,0.136431187 C1.55052802,0.136431187 1.41955787,0.141864175 1.29115576,0.161700901 C0.464692808,0.2899447 -0.0942471466,1.20597184 0.0899819636,2.12452595 C0.253555083,2.94010597 0.814281502,3.4110071 1.62924409,3.41113344 C11.0442449,3.41163884 20.4593573,3.41138614 29.874358,3.41138614 C39.252178,3.41151249 48.629998,3.41151249 58.007818,3.41113344 C58.1472738,3.41113344 58.2871763,3.41328137 58.4262972,3.40342618 C59.0041067,3.3621102 59.5159286,2.91281468 59.6893273,2.2877683 C59.9775063,1.24918305 59.3264518,0.124049027 58.142696,0.124933467" id="Fill-7" fill="#1A5692" mask="url(#mask-8)"></path>
                </g>
                <path d="M129.023726,135.000318 C127.930243,134.980487 127.006351,135.889866 127.000033,136.992103 C126.993715,138.077855 127.889487,138.987606 128.976776,138.999876 C130.07794,139.012147 130.994523,138.109956 130.999974,137.008092 C131.005548,135.919985 130.119935,135.020397 129.023726,135.000318" id="Fill-10" fill="#1A5692"></path>
                <g id="Group-3" transform="translate(20.000000, 240.000000)" fill="#1A5692">
                    <path d="M33.4504937,12.5120071 C32.0088286,11.9805009 31.0197154,11.0254858 30.3108842,9.82953462 C29.6155546,8.65702852 29.0439891,7.40845045 28.4701734,6.16910079 C28.3081549,5.81966853 28.1398856,5.61040824 27.7680931,5.48245768 C23.6783748,4.0762485 19.6176598,2.59596267 15.7199635,0.704638758 C15.5569448,0.625573787 15.2289073,0.671965221 15.0888912,0.790437971 C13.4552042,2.17694326 11.8425195,3.58789135 10.2263344,4.99484878 C10.1393245,5.07067134 10.0718168,5.16869195 9.95380324,5.30337676 C13.2474304,7.50272982 16.8798463,8.76128454 20.5905212,9.87068831 C20.4917599,9.87792138 20.3927485,9.89413344 20.2942373,9.89138986 C16.4557977,9.77541128 12.676615,9.19950901 9.17471403,7.62718856 C7.60878473,6.92408397 6.21012457,6.79837815 4.66769796,7.28723413 C4.39791707,7.37253451 4.13088649,7.56633098 3.93886451,7.77858426 C2.75347877,9.09076349 2.20716622,10.6141983 2.48594814,12.3912896 C2.4986996,12.4723499 2.47694711,12.5586479 2.48894848,12.6399576 C2.56520722,13.1515105 2.36543434,13.5490801 2.04639781,13.9429085 C1.40557443,14.734057 0.788503776,15.546406 0.205937069,16.3809529 C0.052419491,16.6009381 -0.0315901284,16.9481256 0.0111647672,17.2112599 C0.190685323,18.3164235 0.444464382,19.4093658 0.63998677,20.5122848 C0.709494729,20.903619 0.893265771,21.1076415 1.2603078,21.2650232 C2.9222481,21.9773562 4.5946896,22.6729783 6.21412503,23.4736047 C7.68054294,24.1986579 9.16971346,24.6543415 10.8201524,24.4859855 C11.1066853,24.4568038 11.4019691,24.508433 11.6927524,24.5266404 C13.7222347,24.6538427 15.7517171,24.7820427 17.9054637,24.9177251 C14.9306231,22.176141 11.2507017,21.2615314 7.59728341,20.2279502 C10.6181293,20.402791 13.619723,20.6736571 16.6178163,20.9799404 C16.9138502,21.0101197 17.2428879,21.1999256 17.4629131,21.4124283 C18.6595501,22.5687223 19.8154324,23.7674171 21.0148198,24.9207181 C21.2305945,25.1284819 21.5823848,25.3018263 21.8749183,25.3075628 C25.4955828,25.3776488 29.1167475,25.4195508 32.7379121,25.4517255 C33.2474705,25.456215 33.7577789,25.3686698 34.3813503,25.3137982 C33.2404697,21.0477816 32.1310926,16.8550934 33.4504937,12.5120071" id="Fill-1"></path>
                </g>
                <g id="Group-6" transform="translate(41.000000, 211.000000)" fill="#1A5692">
                    <path d="M3.57497872,0.719065445 C3.40870813,0.866991285 3.27072835,0.984991339 3.13771188,1.10810067 C2.32844561,1.85624535 1.51992384,2.60560651 0.674921805,3.38829965 C16.0619001,18.8995892 31.3364597,34.2977447 46.5948885,49.6793559 C48.0039697,48.2757635 49.3899716,46.8950412 50.8166726,45.4739313 C35.1043498,30.5886502 19.3510799,15.6646846 3.57497872,0.719065445" id="Fill-4"></path>
                </g>
                <path d="M69,192 C67.8515929,192.164371 66.7785406,192.425952 65.7059907,192.689047 C56.240926,195.010194 47.9084439,199.414895 40.9310922,206.307891 C39.8424666,207.383249 38.8271863,208.540162 37.6843053,209.55265 C34.9742956,211.952574 32.4873362,214.551208 30.3331938,217.468234 C26.504919,222.651868 24.0217273,228.470769 22.3179554,234.653004 C21.8399548,236.38711 21.437309,238.142426 21,239.887894 C21.0751036,239.925263 21.149956,239.962631 21.2248085,240 C33.2444007,220.072423 48.9187005,203.82616 69,192" id="Fill-7" fill="#1A5692"></path>
                <path d="M71.1899575,257.069422 C69.4593452,257.776982 67.8357917,257.525449 66.2304279,256.739409 C65.9238029,256.589133 65.5820979,256.504216 65.2762525,256.35295 C63.8364142,255.641676 62.4033321,254.91753 60.9679113,254.198086 C62.6982637,254.46175 64.357157,254.825185 66.0363187,255.054189 C67.7679704,255.290372 69.4738969,255.00616 71.1938553,254.557313 C71.1938553,254.221606 71.1587753,253.910408 71.2016508,253.609609 C71.2754487,253.092927 71.0127386,252.830748 70.6099685,252.50643 C69.2408099,251.403498 67.7102834,250.951185 65.9432918,251.189101 C65.8159645,251.206184 65.6808416,251.174494 65.5542938,251.194053 C64.451743,251.363392 63.5835785,250.936826 62.6899485,250.355528 C60.980644,249.243931 59.2061167,248.22047 57.4232742,247.217558 C57.0716949,247.019748 56.5228881,246.943991 56.1299923,247.04401 C54.4292629,247.478003 52.7526997,247.998151 51,248.506663 C51.7543495,249.775962 52.669807,250.721438 53.9568525,251.319819 C54.8673729,251.743166 55.2532526,252.530692 55.0264021,253.470474 C54.9681953,253.711361 54.8943974,253.948534 54.8374899,254.189669 C54.1041884,257.286047 54.6678068,260.294537 55.5427274,263.276537 C55.5848234,263.420624 55.8301234,263.586992 56.0000664,263.609273 C59.0348745,264.007616 62.0943684,264.25593 65.0998132,263.570405 C67.6380446,262.991335 70.1188488,262.183261 72.6175827,261.452677 C72.7758324,261.406629 72.9670833,261.158067 72.9733197,260.997641 C73.0081398,260.111829 73.0052815,259.224038 72.9852729,258.337484 C72.9694219,257.635618 71.8455633,256.801302 71.1899575,257.069422" id="Fill-9" fill="#1A5692"></path>
                <path d="M38,240.638357 C38.2570125,240.79671 38.3203048,240.849753 38.3933342,240.878474 C41.032133,241.915274 43.669138,242.956731 46.3169053,243.969725 C46.5090881,244.04321 46.8217056,243.974124 47.0074823,243.856912 C48.5977314,242.854267 50.1774745,241.834286 51.7467115,240.798004 C52.1856572,240.508207 52.5787352,240.146996 53,239.813213 C51.9009703,238.152833 50.8367898,236.545496 49.8138645,235 C45.8894906,236.87307 42.0248215,238.717678 38,240.638357" id="Fill-11" fill="#1A5692"></path>
                <path d="M49,244.246488 C49.384813,245.037045 49.7696261,245.828579 50.1826187,246.677523 C50.6843077,246.521659 51.2037822,246.382897 51.708474,246.19845 C52.4513063,245.926788 53.1814348,245.616282 53.9210334,245.334359 C55.2422403,244.830611 56.5158652,244.91123 57.743063,245.672959 C58.4514793,246.1127 59.1786051,246.519216 59.9985848,247 C59.9985848,246.076055 60.0043593,245.2447 59.9925793,244.41359 C59.9907315,244.284843 59.9417637,244.122628 59.8588418,244.03468 C58.6630572,242.765049 57.6000863,241.281168 55.7524756,241.015857 C55.4817667,240.977258 55.152389,241.005841 54.917944,241.138008 C53.5819545,241.891919 52.2822288,242.718388 50.937462,243.453244 C50.284481,243.810412 49.560358,244.021976 49,244.246488" id="Fill-13" fill="#1A5692"></path>
                <path d="M37,206.334415 C36.565085,205.846245 36.1831692,205.41737 35.8114593,205 C35.1953447,205.618444 34.6021486,206.213523 34,206.817806 C34.386034,207.188094 34.7881826,207.573957 35.2320501,208 C35.8413608,207.425984 36.4691137,206.834622 37,206.334415" id="Fill-15" fill="#1A5692"></path>
                <g id="Group-3" transform="translate(360.000000, 44.000000)">
                    <mask id="mask-10" fill="white">
                        <use xlink:href="#path-9"></use>
                    </mask>
                    <g id="Clip-2"></g>
                    <path d="M47.9244331,0.179863636 C40.2448247,4.90186364 32.674011,9.55704545 24.9857639,14.2845 L24.9857639,0.166227273 C24.7104027,0.329318182 24.5203494,0.436227273 24.3359654,0.552136364 C16.4131213,5.52831818 8.49297681,10.5088636 0.563113688,15.4733182 C0.149531939,15.7318636 -0.00164676806,16.0051364 -2.69961977e-05,16.4993182 C0.0194102662,21.7487727 0.0118513308,26.9982273 0.0118513308,32.2476818 L0.0118513308,32.9985 L70.7629464,32.9985 L70.7629464,0.184772727 C63.1394901,4.89286364 55.5975624,9.5505 47.9244331,14.2894091 L47.9244331,0.179863636 Z" id="Fill-1" fill="#1A5692" mask="url(#mask-10)"></path>
                </g>
                <g id="Group-6" transform="translate(434.000000, 15.000000)">
                    <mask id="mask-12" fill="white">
                        <use xlink:href="#path-11"></use>
                    </mask>
                    <g id="Clip-5"></g>
                    <path d="M11.9942718,0.0977713043 L3.46273662,0.0977713043 C2.31470845,20.7378409 1.16828592,41.349067 0.0194549296,62.0001887 L18.7411451,62.0001887 C16.4892437,41.339093 14.2416239,20.717893 11.9942718,0.0977713043" id="Fill-4" fill="#1A5692" mask="url(#mask-12)"></path>
                </g>
                <path d="M564.171904,65.4203848 L564.171904,68.2533333 L554.766342,63.0596152 L554.766342,60.2266667 L564.171904,65.4203848 Z M564.909595,68.2533333 L564.909595,65.4533333 L566.200554,65.4533333 L566.200554,68.2533333 L564.909595,68.2533333 Z M566.938245,68.2533333 L566.938245,65.4141687 L576.440353,59.8533333 L576.52823,62.6862682 L566.938245,68.2533333 Z M566.460937,69.7466667 L569.151319,71.0762596 L568.847538,72.36 L566.200554,71.0304071 L566.460937,69.7466667 Z M566.938245,69.1996145 L576.861922,63.4 L578.925726,64.5599979 L569.660749,70.4933333 L566.938245,69.1996145 Z M566.016131,81.1245299 L566.016131,71.6133333 L568.59805,72.818948 L568.59805,83 L566.016131,81.1245299 Z M564.464789,69.7466667 L564.725172,71.0304071 L562.078188,72.36 L561.774407,71.0762596 L564.464789,69.7466667 Z M552,64.5599979 L554.063825,63.4 L563.987481,69.1996145 L561.265072,70.4933333 L552,64.5599979 Z M562.327676,72.818948 L564.909595,71.6133333 L564.909595,81.1245299 L562.327676,83 L562.327676,72.818948 Z M564.556922,55 L566.441368,55 L575.790539,59.6225289 L566.441368,64.8933333 L564.556922,64.8933333 L555.135187,59.7110993 L564.556922,55 Z M566.686227,56.8483169 L567.019156,59.7375215 L564.437594,56.8542712 L563.243441,56.8573724 L562.813388,61.6402956 L564.269145,61.6441411 L564.345803,58.2248788 L567.160688,61.6518321 L568.709725,61.6559256 L567.82791,56.8453398 L566.686227,56.8483169 Z M561.41247,71.2309112 L561.765893,72.6575703 L561.810086,82.9108088 L552.692287,76.1986173 C552.257286,75.8782933 552.00005,75.3676483 552.00005,74.8242839 L552.00005,65.3018586 L561.41247,71.2309112 Z M558.267198,78.1410417 L559.599433,79.1173741 L559.579502,72.3710896 L558.077056,71.4450849 L556.496249,74.4606257 L554.953199,69.5197694 L553.679146,68.7345074 L553.73708,74.8207872 L554.861841,75.6452623 L554.830275,71.8208567 L556.069419,75.956345 L556.953408,76.5948699 L558.249125,74.0814821 L558.267198,78.1410417 Z M569.234033,72.6575578 L569.587455,71.2310236 L579,65.3018461 L579,75.2728499 L579,75.7991053 C579,76.2584236 578.768635,76.6862715 578.385875,76.9349128 L578.299097,76.9913597 L569.18984,82.9107963 L569.234033,72.6575578 Z M571.727919,71.7618996 L571.719749,73.0123494 L573.747935,71.7499109 L573.860956,78.0961963 L575.261647,77.1134949 L575.05244,70.937924 L576.923041,69.7737682 L576.858174,68.6457034 L571.727919,71.7618996 Z" id="Combined-Shape" fill="#1A5692"></path>
            </g>
        </g>
    </g>
</svg>