<svg xmlns="http://www.w3.org/2000/svg" viewBox="0 0 245.8 245.82"><title>user</title><path d="M4.1,245.78H0Q0,123.44,0,1.1C0,.2.2,0,1.1,0Q122.9,0,244.7,0c.9,0,1.1.2,1.1,1.1q0,121.8,0,243.6c0,.9-.19,1.2-1.1,1.1a23.79,23.79,0,0,0-2.52,0c.4-2.64.55-5.31.69-8a54.76,54.76,0,0,0-.47-9.68,22.39,22.39,0,0,0-4.26-11,46.38,46.38,0,0,0-12.06-10.64,124.85,124.85,0,0,0-20.94-10.57,268.88,268.88,0,0,0-30.68-10.15,2.71,2.71,0,0,1-1.52-1A86.65,86.65,0,0,0,160.59,171a60.62,60.62,0,0,0-8.64-6.41q0-4.65,0-9.3c.17-1.31,1.2-2.14,1.89-3.11a46.49,46.49,0,0,0,6.31-12.54,89,89,0,0,0,2.59-11.26c.12-.62.08-1,.9-.48a2.28,2.28,0,0,0,2.66-.27c2.52-1.76,3.77-4.4,4.85-7.11a50.85,50.85,0,0,0,3.17-14.39A29,29,0,0,0,173.51,96c-.41-1.54-.84-3.21-2.69-3.81.89-5.23,1.89-10.44,2.31-15.75a50.68,50.68,0,0,0-2.19-20.69c-3.28-9.58-9.38-16.5-19-20.08a1.64,1.64,0,0,1-1-1.18,25.9,25.9,0,0,0-9-12.28c-5.14-3.84-11-5.89-17.19-7.3a6.54,6.54,0,0,0-2.57-.42c-.89.19-.87,1.4-1.35,2.11a21.91,21.91,0,0,1-11.41,8.52c-.38.13-.86.55-1.21.15a1.51,1.51,0,0,1-.06-1.38,13.69,13.69,0,0,1,2.09-4.29c.34-.45.67-.92,1.18-1.62-.5.13-.65.16-.79.21A78.56,78.56,0,0,0,98.2,24C93,27.05,88.81,31,87.08,37.06a1.66,1.66,0,0,1-.92,1A29.45,29.45,0,0,0,77,45.92a38.19,38.19,0,0,0-7.82,20.89A58.38,58.38,0,0,0,69.74,81c.59,3.67,1.51,7.27,2.15,10.92-1.63.3-2.38,1.57-2.86,2.92-1.78,5-1.41,10.13-.72,15.22A44.07,44.07,0,0,0,71,120.46a18.61,18.61,0,0,0,3.81,6.3c1.17,1.2,2.58,1.91,4.31,1.1.62-.29.76,0,.8.58A38.45,38.45,0,0,0,82,138.22a52.75,52.75,0,0,0,8,15.56,3.71,3.71,0,0,1,.78,2.44c0,2.8,0,5.6,0,8.4a14.34,14.34,0,0,0-4,2.54c-6.36,4.68-11.53,10.54-16.37,16.72a3.92,3.92,0,0,1-2.67,1.77,36.44,36.44,0,0,0-4.42,1,197.36,197.36,0,0,0-25.6,8.68c-9.6,4-18.91,8.62-26.7,15.72a24.5,24.5,0,0,0-6.06,8.09,23.84,23.84,0,0,0-1.64,7.44,56.85,56.85,0,0,0-.21,9.8C3.26,239.55,3.67,242.67,4.1,245.78Z" style="fill:#f3f3f3"/><path d="M152,164.62a60.65,60.65,0,0,1,8.64,6.41,86.65,86.65,0,0,1,12.35,13.65,2.71,2.71,0,0,0,1.52,1,268.88,268.88,0,0,1,30.68,10.15,124.85,124.85,0,0,1,20.94,10.57,46.38,46.38,0,0,1,12.06,10.64,22.39,22.39,0,0,1,4.26,11,54.76,54.76,0,0,1,.47,9.68c-.14,2.66-.28,5.33-.69,8H4.1c-.44-3.12-.84-6.23-1.06-9.38a56.85,56.85,0,0,1,.21-9.8,23.84,23.84,0,0,1,1.64-7.44A24.5,24.5,0,0,1,11,211.08c7.8-7.1,17.1-11.68,26.7-15.72a197.36,197.36,0,0,1,25.6-8.68,36.44,36.44,0,0,1,4.42-1,3.92,3.92,0,0,0,2.67-1.77c4.83-6.18,10-12,16.37-16.72a14.33,14.33,0,0,1,4-2.54q0,8.63,0,17.27a4.9,4.9,0,0,0,.87,2.8,18,18,0,0,0,5.52,4.86c4.13,2.71,8.46,5.12,12.51,8a26.47,26.47,0,0,1,9.18,11.4,37.89,37.89,0,0,1,2.55,9.74,22.55,22.55,0,0,1,.59-3.9,29.82,29.82,0,0,1,8.5-15c3.06-3.08,6.86-5.17,10.52-7.43a40.43,40.43,0,0,0,9.1-6.95,4.94,4.94,0,0,0,1.67-3.21c.37-.41.2-.92.2-1.38Q152,172.71,152,164.62Z" style="fill:#b2b2b2"/><path d="M151.73,182.17a4.94,4.94,0,0,1-1.67,3.21,40.43,40.43,0,0,1-9.1,6.95c-3.66,2.26-7.45,4.36-10.52,7.43a29.82,29.82,0,0,0-8.5,15,22.55,22.55,0,0,0-.59,3.9,37.89,37.89,0,0,0-2.55-9.74,26.47,26.47,0,0,0-9.18-11.4c-4.05-2.84-8.38-5.24-12.51-8a18,18,0,0,1-5.52-4.86,4.9,4.9,0,0,1-.87-2.8q0-8.63,0-17.27c0-2.8,0-5.6,0-8.4a3.71,3.71,0,0,0-.78-2.44,52.75,52.75,0,0,1-8-15.56,38.45,38.45,0,0,1-2.08-9.77c0-.56-.17-.87-.8-.58-1.73.81-3.14.1-4.31-1.1a18.61,18.61,0,0,1-3.81-6.3,44.07,44.07,0,0,1-2.71-10.38c-.69-5.1-1.06-10.24.72-15.22.48-1.35,1.23-2.61,2.86-2.92.19.65.42,1.29.58,1.94,1.62,6.83,3.32,13.63,5.28,20.37.31,1.06.77,1.08,1.52.56a4.55,4.55,0,0,0,1.61-2.32,21.67,21.67,0,0,0,.95-6.6c.13-3.31.05-6.62.19-9.94a108.88,108.88,0,0,1,2.25-18.72c1.72-7.95,5.66-14.41,12.48-19,5.1-3.45,10.9-4.65,16.87-5.11,5.25-.4,10.52-.55,15.79-.5,2,0,4.08,0,6.11,0a13.45,13.45,0,0,0,9.24-3.93,24.31,24.31,0,0,0,3.57-5.2h0a14.42,14.42,0,0,1,0,1.56,53.07,53.07,0,0,0,.51,15.84A43.85,43.85,0,0,0,158.72,82a7.46,7.46,0,0,1,1.75,3.21c.9,3.87.66,7.8.51,11.7a83,83,0,0,0,.12,12.8,7.72,7.72,0,0,0,1.77,4.62c.64.68,1,.86,1.45-.24a112,112,0,0,0,4.4-13.54c.74-2.77,1.4-5.56,2.09-8.34,1.84.59,2.28,2.27,2.69,3.81a29,29,0,0,1,.81,10.15,50.85,50.85,0,0,1-3.17,14.39c-1.08,2.71-2.33,5.35-4.85,7.11a2.28,2.28,0,0,1-2.66.27c-.82-.53-.78-.14-.9.48a89,89,0,0,1-2.59,11.26,46.49,46.49,0,0,1-6.31,12.54c-.69,1-1.72,1.8-1.89,3.11-.72.1-1,.71-1.43,1.18a35.66,35.66,0,0,1-2.7,3,45.34,45.34,0,0,1-11.62,8.05,35,35,0,0,1-25.55,1.71,37.49,37.49,0,0,1-14.85-8.8c-1.44-1.38-3-2.67-4.46-4,.2-.15.16-.06.18,0,.12.29.25.59.39.87a48.07,48.07,0,0,0,11.45,13.81,52.09,52.09,0,0,0,18.05,10.29,51.08,51.08,0,0,0,17.6,2.46A73.93,73.93,0,0,0,151.73,182.17ZM91.31,155.58l-.18-.13a1,1,0,0,0,0,.19s.07.06.08.05A.79.79,0,0,0,91.31,155.58Z" style="fill:#ddd"/><path d="M148.34,43.46a24.31,24.31,0,0,1-3.57,5.2,13.45,13.45,0,0,1-9.24,3.93c-2,.06-4.08,0-6.11,0-5.27,0-10.54.1-15.79.5-6,.46-11.76,1.66-16.87,5.11-6.82,4.6-10.76,11.07-12.48,19A108.88,108.88,0,0,0,82,96c-.14,3.32-.06,6.63-.19,9.94a21.67,21.67,0,0,1-.95,6.6,4.55,4.55,0,0,1-1.61,2.32c-.75.52-1.21.5-1.52-.56-2-6.74-3.66-13.55-5.28-20.37-.16-.66-.38-1.3-.58-1.94-.64-3.65-1.56-7.25-2.15-10.92a58.38,58.38,0,0,1-.52-14.21A38.19,38.19,0,0,1,77,45.92a29.45,29.45,0,0,1,9.12-7.84,1.66,1.66,0,0,0,.92-1C88.81,31,93,27.05,98.2,24a78.56,78.56,0,0,1,12.37-5.77c.14-.05.29-.08.79-.21-.51.71-.84,1.17-1.18,1.62a13.69,13.69,0,0,0-2.09,4.29,1.51,1.51,0,0,0,.06,1.38c.35.4.82,0,1.21-.15a21.91,21.91,0,0,0,11.41-8.52c.49-.71.46-1.92,1.35-2.11a6.54,6.54,0,0,1,2.57.42c6.16,1.41,12.06,3.45,17.19,7.3a25.9,25.9,0,0,1,9,12.28,1.64,1.64,0,0,0,1,1.18c9.62,3.57,15.72,10.5,19,20.08a50.68,50.68,0,0,1,2.19,20.69c-.42,5.31-1.42,10.52-2.31,15.75-.69,2.78-1.35,5.57-2.09,8.34a112,112,0,0,1-4.4,13.54c-.45,1.1-.81.93-1.45.24a7.72,7.72,0,0,1-1.77-4.62,83,83,0,0,1-.12-12.8c.14-3.9.38-7.83-.51-11.7A7.46,7.46,0,0,0,158.72,82a43.85,43.85,0,0,1-9.89-21.12A53.07,53.07,0,0,1,148.32,45a14.41,14.41,0,0,0,0-1.56.33.33,0,0,0,.2-.39s-.09-.05-.13-.08Z" style="fill:#9f9f9f"/><path d="M151.73,182.17A73.93,73.93,0,0,1,139,183.92a51.08,51.08,0,0,1-17.6-2.46,52.09,52.09,0,0,1-18.05-10.29A48.07,48.07,0,0,1,91.9,157.36c-.15-.28-.27-.58-.39-.87,0-.06,0-.15-.18,0,1.49,1.33,3,2.62,4.46,4a37.49,37.49,0,0,0,14.85,8.8,35,35,0,0,0,25.55-1.71,45.34,45.34,0,0,0,11.62-8.05,35.66,35.66,0,0,0,2.7-3c.41-.47.71-1.08,1.43-1.18q0,4.65,0,9.3,0,8.09,0,16.18C151.93,181.26,152.1,181.76,151.73,182.17Z" style="fill:#c8c5c6"/><path d="M91.31,155.58a.79.79,0,0,1-.13.11s-.08,0-.08-.05a1,1,0,0,1,0-.19Z" style="fill:#c8c5c6"/><path d="M148.34,43.46l.07-.46s.13,0,.13.08a.33.33,0,0,1-.2.39Z" style="fill:#ddd"/></svg>