<?xml version="1.0" encoding="UTF-8"?>
<svg width="713px" height="582px" viewBox="0 0 713 582" version="1.1" xmlns="http://www.w3.org/2000/svg" xmlns:xlink="http://www.w3.org/1999/xlink">
    <!-- Generator: Sketch 47.1 (45422) - http://www.bohemiancoding.com/sketch -->
    <title>Group 11</title>
    <desc>Created with Sketch.</desc>
    <defs>
        <polygon id="path-1" points="0 0.161628057 0 14.0399564 129.980387 14.0399564 129.980387 0.161628057 0 0.161628057"></polygon>
        <polygon id="path-3" points="0.0422698469 0.058656404 45.5833033 0.058656404 45.5833033 58.820664 0.0422698469 58.820664"></polygon>
        <polygon id="path-5" points="101.587221 5.11711712 0.0931009777 5.11711712 0.0931009777 0.187399419 101.587221 0.187399419"></polygon>
        <polygon id="path-7" points="162 0 162 98 0 98 0 0"></polygon>
    </defs>
    <g id="Page-1" stroke="none" stroke-width="1" fill="none" fill-rule="evenodd">
        <g id="mountaintoken" transform="translate(-356.000000, -7076.000000)">
            <g id="Group-11" transform="translate(356.000000, 7076.000000)">
                <path d="M72.976,532.064 C67.936,532.064 65.536,535.28 65.536,540.464 C65.536,549.92 76.768,550.64 76.768,558.128 C76.768,561.152 75.52,562.928 72.832,562.928 C70.144,562.928 68.896,561.152 68.896,558.128 L68.896,556.016 L65.392,556.016 L65.392,557.936 C65.392,563.024 67.792,566.336 72.928,566.336 C78.064,566.336 80.512,563.024 80.512,557.936 C80.512,548.48 69.232,547.76 69.232,540.224 C69.232,537.248 70.384,535.472 73.072,535.472 C75.76,535.472 76.912,537.248 76.912,540.272 L76.912,541.376 L80.464,541.376 L80.464,540.464 C80.464,535.376 78.064,532.064 72.976,532.064 Z M93.82,566 L93.82,535.808 L100.012,535.808 L100.012,532.4 L83.932,532.4 L83.932,535.808 L90.124,535.808 L90.124,566 L93.82,566 Z M103.768,557.888 L103.768,540.512 C103.768,535.376 106.312,532.064 111.448,532.064 C116.632,532.064 119.176,535.376 119.176,540.512 L119.176,557.888 C119.176,562.976 116.632,566.336 111.448,566.336 C106.312,566.336 103.768,562.976 103.768,557.888 Z M107.464,540.32 L107.464,558.08 C107.464,561.152 108.76,562.928 111.448,562.928 C114.184,562.928 115.432,561.152 115.432,558.08 L115.432,540.32 C115.432,537.296 114.184,535.472 111.448,535.472 C108.76,535.472 107.464,537.296 107.464,540.32 Z M127.54,538.832 L136.132,566 L140.02,566 L140.02,532.4 L136.708,532.4 L136.708,556.688 L128.932,532.4 L124.18,532.4 L124.18,566 L127.54,566 L127.54,538.832 Z M149.104,547.28 L149.104,535.808 L159.184,535.808 L159.184,532.4 L145.36,532.4 L145.36,566 L159.184,566 L159.184,562.592 L149.104,562.592 L149.104,550.64 L157.312,550.64 L157.312,547.28 L149.104,547.28 Z M181.852,538.976 L181.852,566 L185.404,566 L185.404,532.4 L180.172,532.4 L174.844,559.232 L169.324,532.4 L164.092,532.4 L164.092,566 L167.356,566 L167.356,539.216 L172.924,565.952 L176.524,565.952 L181.852,538.976 Z M203.032,559.232 L194.536,559.232 L193.24,566 L189.784,566 L196.216,532.4 L201.64,532.4 L208.072,566 L204.328,566 L203.032,559.232 Z M198.712,536.624 L195.016,556.016 L202.504,556.016 L198.712,536.624 Z M212.5,532.4 L219.988,532.4 C225.268,532.4 227.476,535.088 227.476,540.08 L227.476,542.816 C227.476,546.512 226.18,548.816 223.3,549.728 C226.372,550.64 227.524,553.136 227.524,556.736 L227.524,561.968 C227.524,563.456 227.572,564.848 228.196,566 L224.404,566 C223.972,565.04 223.78,564.176 223.78,561.92 L223.78,556.64 C223.78,552.848 222.004,551.648 218.884,551.648 L216.244,551.648 L216.244,566 L212.5,566 L212.5,532.4 Z M216.244,548.24 L219.028,548.24 C222.004,548.24 223.78,547.28 223.78,543.632 L223.78,540.416 C223.78,537.392 222.676,535.808 219.892,535.808 L216.244,535.808 L216.244,548.24 Z M245.824,566 L249.664,566 L240.88,547.712 L249.376,532.4 L245.584,532.4 L236.656,548.624 L236.656,532.4 L232.912,532.4 L232.912,566 L236.656,566 L236.656,554.72 L238.624,551.408 L245.824,566 Z M257.788,547.28 L257.788,535.808 L267.868,535.808 L267.868,532.4 L254.044,532.4 L254.044,566 L267.868,566 L267.868,562.592 L257.788,562.592 L257.788,550.64 L265.996,550.64 L265.996,547.28 L257.788,547.28 Z M281.368,566 L281.368,535.808 L287.56,535.808 L287.56,532.4 L271.48,532.4 L271.48,535.808 L277.672,535.808 L277.672,566 L281.368,566 Z" id="Stonemarket" fill="#1A5692"></path>
                <g id="Group-24" transform="translate(467.000000, 393.000000)" fill="#1A5692">
                    <path d="M11.9669051,20.248397 C10.655635,18.2502713 10,15.5028483 10,12.037349 C10,8.57184957 10.655635,5.82442663 11.9669051,3.85752158 C13.2781751,1.85939581 15.1826387,0.860332922 17.6802959,0.860332922 C20.1779531,0.860332922 22.0824168,1.85939581 23.3936868,3.85752158 C24.7049568,5.82442663 25.3605919,8.57184957 25.3605919,12.037349 C25.3605919,15.5028483 24.7049568,18.2502713 23.3936868,20.248397 C22.0824168,22.2153021 20.1779531,23.214365 17.6802959,23.214365 C15.1826387,23.214365 13.2781751,22.2153021 11.9669051,20.248397 Z M13.9962515,5.63710234 C13.1532922,7.16691739 12.7474229,9.28992602 12.7474229,12.037349 C12.7474229,14.7847719 13.1532922,16.9077805 13.9962515,18.4375956 C14.8392109,19.9674106 16.0568187,20.7167078 17.6802959,20.7167078 C19.3037731,20.7167078 20.521381,19.9674106 21.3643403,18.4375956 C22.2072996,16.9077805 22.6131689,14.7847719 22.6131689,12.037349 C22.6131689,9.28992602 22.2072996,7.16691739 21.3643403,5.63710234 C20.521381,4.1072873 19.3037731,3.35799014 17.6802959,3.35799014 C16.0568187,3.35799014 14.8392109,4.1072873 13.9962515,5.63710234 Z M30.9699137,9.41480888 C30.0020715,8.44696671 29.5337608,7.26057953 29.5337608,5.85564735 C29.5337608,4.45071517 30.0020715,3.29554871 30.9699137,2.32770654 C31.9377559,1.35986436 33.124143,0.860332922 34.5290752,0.860332922 C35.9340074,0.860332922 37.1203946,1.35986436 38.0882367,2.32770654 C39.0560789,3.29554871 39.5243896,4.45071517 39.5243896,5.85564735 C39.5243896,7.26057953 39.0560789,8.44696671 38.0882367,9.41480888 C37.1203946,10.382651 35.9340074,10.8509618 34.5290752,10.8509618 C33.124143,10.8509618 31.9377559,10.382651 30.9699137,9.41480888 Z M33.2178052,23.87 L31.6567694,22.6211714 L48.4535142,0.204697904 L50.0145499,1.4223058 L33.2178052,23.87 Z M32.5309494,3.85752158 C32.0626387,4.38827374 31.812873,5.04390875 31.812873,5.85564735 C31.812873,6.66738594 32.0626387,7.35424168 32.5309494,7.88499383 C33.0304809,8.41574599 33.6861159,8.66551171 34.5290752,8.66551171 C35.3720345,8.66551171 36.0276695,8.41574599 36.4959803,7.88499383 C36.9955117,7.35424168 37.2452774,6.66738594 37.2452774,5.85564735 C37.2452774,5.04390875 36.9955117,4.38827374 36.4959803,3.85752158 C36.0276695,3.32676942 35.3720345,3.04578298 34.5290752,3.04578298 C33.6861159,3.04578298 33.0304809,3.32676942 32.5309494,3.85752158 Z M43.645524,21.7782121 C42.6776819,20.8103699 42.2093711,19.6239827 42.2093711,18.2190506 C42.2093711,16.8141184 42.6776819,15.6589519 43.645524,14.6911097 C44.6133662,13.7232676 45.7997534,13.2237361 47.2046856,13.2237361 C48.6096178,13.2237361 49.7960049,13.7232676 50.7638471,14.6911097 C51.7316893,15.6589519 52.2,16.8141184 52.2,18.2190506 C52.2,19.6239827 51.7316893,20.8103699 50.7638471,21.7782121 C49.7960049,22.7460543 48.6096178,23.214365 47.2046856,23.214365 C45.7997534,23.214365 44.6133662,22.7460543 43.645524,21.7782121 Z M45.2065598,16.2209248 C44.7382491,16.7516769 44.4884834,17.407312 44.4884834,18.2190506 C44.4884834,19.0307891 44.7382491,19.7176449 45.2065598,20.248397 C45.7060912,20.7791492 46.3617263,21.0289149 47.2046856,21.0289149 C48.0476449,21.0289149 48.7032799,20.7791492 49.1715906,20.248397 C49.6711221,19.7176449 49.9208878,19.0307891 49.9208878,18.2190506 C49.9208878,17.407312 49.6711221,16.7516769 49.1715906,16.2209248 C48.7032799,15.6901726 48.0476449,15.4091862 47.2046856,15.4091862 C46.3617263,15.4091862 45.7060912,15.6901726 45.2065598,16.2209248 Z" id="20%"></path>
                    <polygon id="1" points="4.27028571 4.96 4.27028571 23 6.84742857 23 6.84742857 1 5.87314286 1 0.216 4.42571429 0.216 7.31714286"></polygon>
                </g>
                <g id="Group-24-Copy" transform="translate(474.000000, 219.000000)" fill="#1A5692">
                    <path d="M11.9669051,20.248397 C10.655635,18.2502713 10,15.5028483 10,12.037349 C10,8.57184957 10.655635,5.82442663 11.9669051,3.85752158 C13.2781751,1.85939581 15.1826387,0.860332922 17.6802959,0.860332922 C20.1779531,0.860332922 22.0824168,1.85939581 23.3936868,3.85752158 C24.7049568,5.82442663 25.3605919,8.57184957 25.3605919,12.037349 C25.3605919,15.5028483 24.7049568,18.2502713 23.3936868,20.248397 C22.0824168,22.2153021 20.1779531,23.214365 17.6802959,23.214365 C15.1826387,23.214365 13.2781751,22.2153021 11.9669051,20.248397 Z M13.9962515,5.63710234 C13.1532922,7.16691739 12.7474229,9.28992602 12.7474229,12.037349 C12.7474229,14.7847719 13.1532922,16.9077805 13.9962515,18.4375956 C14.8392109,19.9674106 16.0568187,20.7167078 17.6802959,20.7167078 C19.3037731,20.7167078 20.521381,19.9674106 21.3643403,18.4375956 C22.2072996,16.9077805 22.6131689,14.7847719 22.6131689,12.037349 C22.6131689,9.28992602 22.2072996,7.16691739 21.3643403,5.63710234 C20.521381,4.1072873 19.3037731,3.35799014 17.6802959,3.35799014 C16.0568187,3.35799014 14.8392109,4.1072873 13.9962515,5.63710234 Z M30.9699137,9.41480888 C30.0020715,8.44696671 29.5337608,7.26057953 29.5337608,5.85564735 C29.5337608,4.45071517 30.0020715,3.29554871 30.9699137,2.32770654 C31.9377559,1.35986436 33.124143,0.860332922 34.5290752,0.860332922 C35.9340074,0.860332922 37.1203946,1.35986436 38.0882367,2.32770654 C39.0560789,3.29554871 39.5243896,4.45071517 39.5243896,5.85564735 C39.5243896,7.26057953 39.0560789,8.44696671 38.0882367,9.41480888 C37.1203946,10.382651 35.9340074,10.8509618 34.5290752,10.8509618 C33.124143,10.8509618 31.9377559,10.382651 30.9699137,9.41480888 Z M33.2178052,23.87 L31.6567694,22.6211714 L48.4535142,0.204697904 L50.0145499,1.4223058 L33.2178052,23.87 Z M32.5309494,3.85752158 C32.0626387,4.38827374 31.812873,5.04390875 31.812873,5.85564735 C31.812873,6.66738594 32.0626387,7.35424168 32.5309494,7.88499383 C33.0304809,8.41574599 33.6861159,8.66551171 34.5290752,8.66551171 C35.3720345,8.66551171 36.0276695,8.41574599 36.4959803,7.88499383 C36.9955117,7.35424168 37.2452774,6.66738594 37.2452774,5.85564735 C37.2452774,5.04390875 36.9955117,4.38827374 36.4959803,3.85752158 C36.0276695,3.32676942 35.3720345,3.04578298 34.5290752,3.04578298 C33.6861159,3.04578298 33.0304809,3.32676942 32.5309494,3.85752158 Z M43.645524,21.7782121 C42.6776819,20.8103699 42.2093711,19.6239827 42.2093711,18.2190506 C42.2093711,16.8141184 42.6776819,15.6589519 43.645524,14.6911097 C44.6133662,13.7232676 45.7997534,13.2237361 47.2046856,13.2237361 C48.6096178,13.2237361 49.7960049,13.7232676 50.7638471,14.6911097 C51.7316893,15.6589519 52.2,16.8141184 52.2,18.2190506 C52.2,19.6239827 51.7316893,20.8103699 50.7638471,21.7782121 C49.7960049,22.7460543 48.6096178,23.214365 47.2046856,23.214365 C45.7997534,23.214365 44.6133662,22.7460543 43.645524,21.7782121 Z M45.2065598,16.2209248 C44.7382491,16.7516769 44.4884834,17.407312 44.4884834,18.2190506 C44.4884834,19.0307891 44.7382491,19.7176449 45.2065598,20.248397 C45.7060912,20.7791492 46.3617263,21.0289149 47.2046856,21.0289149 C48.0476449,21.0289149 48.7032799,20.7791492 49.1715906,20.248397 C49.6711221,19.7176449 49.9208878,19.0307891 49.9208878,18.2190506 C49.9208878,17.407312 49.6711221,16.7516769 49.1715906,16.2209248 C48.7032799,15.6901726 48.0476449,15.4091862 47.2046856,15.4091862 C46.3617263,15.4091862 45.7060912,15.6901726 45.2065598,16.2209248 Z" id="20%"></path>
                    <polygon id="1" points="4.27028571 4.96 4.27028571 23 6.84742857 23 6.84742857 1 5.87314286 1 0.216 4.42571429 0.216 7.31714286"></polygon>
                </g>
                <path d="M239.632,315.976 L239.632,343 L243.184,343 L243.184,309.4 L237.952,309.4 L232.624,336.232 L227.104,309.4 L221.872,309.4 L221.872,343 L225.136,343 L225.136,316.216 L230.704,342.952 L234.304,342.952 L239.632,315.976 Z M248.236,334.888 L248.236,317.512 C248.236,312.376 250.78,309.064 255.916,309.064 C261.1,309.064 263.644,312.376 263.644,317.512 L263.644,334.888 C263.644,339.976 261.1,343.336 255.916,343.336 C250.78,343.336 248.236,339.976 248.236,334.888 Z M251.932,317.32 L251.932,335.08 C251.932,338.152 253.228,339.928 255.916,339.928 C258.652,339.928 259.9,338.152 259.9,335.08 L259.9,317.32 C259.9,314.296 258.652,312.472 255.916,312.472 C253.228,312.472 251.932,314.296 251.932,317.32 Z M272.248,309.4 L268.552,309.4 L268.552,334.888 C268.552,339.976 270.904,343.384 276.04,343.384 C281.224,343.384 283.576,339.976 283.576,334.888 L283.576,309.4 L280.072,309.4 L280.072,335.08 C280.072,338.104 278.872,339.928 276.184,339.928 C273.448,339.928 272.248,338.104 272.248,335.08 L272.248,309.4 Z M292.084,315.832 L300.676,343 L304.564,343 L304.564,309.4 L301.252,309.4 L301.252,333.688 L293.476,309.4 L288.724,309.4 L288.724,343 L292.084,343 L292.084,315.832 Z M318.448,343 L318.448,312.808 L324.64,312.808 L324.64,309.4 L308.56,309.4 L308.56,312.808 L314.752,312.808 L314.752,343 L318.448,343 Z M339.148,336.232 L330.652,336.232 L329.356,343 L325.9,343 L332.332,309.4 L337.756,309.4 L344.188,343 L340.444,343 L339.148,336.232 Z M334.828,313.624 L331.132,333.016 L338.62,333.016 L334.828,313.624 Z M348.616,309.4 L348.616,343 L352.36,343 L352.36,309.4 L348.616,309.4 Z M361.012,315.832 L369.604,343 L373.492,343 L373.492,309.4 L370.18,309.4 L370.18,333.688 L362.404,309.4 L357.652,309.4 L357.652,343 L361.012,343 L361.012,315.832 Z M395.02,309.064 C389.884,309.064 387.484,312.424 387.484,317.512 L387.484,334.888 C387.484,339.976 389.884,343.336 395.02,343.336 C400.204,343.336 402.604,339.976 402.604,334.888 L402.604,325 L395.596,325 L395.596,328.36 L399.052,328.36 L399.052,335.08 C399.052,338.104 397.852,339.928 395.116,339.928 C392.428,339.928 391.18,338.104 391.18,335.08 L391.18,317.32 C391.18,314.296 392.428,312.472 395.116,312.472 C397.852,312.472 399.052,314.296 399.052,317.32 L399.052,320.392 L402.604,320.392 L402.604,317.512 C402.604,312.424 400.204,309.064 395.02,309.064 Z M407.656,309.4 L415.144,309.4 C420.424,309.4 422.632,312.088 422.632,317.08 L422.632,319.816 C422.632,323.512 421.336,325.816 418.456,326.728 C421.528,327.64 422.68,330.136 422.68,333.736 L422.68,338.968 C422.68,340.456 422.728,341.848 423.352,343 L419.56,343 C419.128,342.04 418.936,341.176 418.936,338.92 L418.936,333.64 C418.936,329.848 417.16,328.648 414.04,328.648 L411.4,328.648 L411.4,343 L407.656,343 L407.656,309.4 Z M411.4,325.24 L414.184,325.24 C417.16,325.24 418.936,324.28 418.936,320.632 L418.936,317.416 C418.936,314.392 417.832,312.808 415.048,312.808 L411.4,312.808 L411.4,325.24 Z M427.78,334.888 L427.78,317.512 C427.78,312.376 430.324,309.064 435.46,309.064 C440.644,309.064 443.188,312.376 443.188,317.512 L443.188,334.888 C443.188,339.976 440.644,343.336 435.46,343.336 C430.324,343.336 427.78,339.976 427.78,334.888 Z M431.476,317.32 L431.476,335.08 C431.476,338.152 432.772,339.928 435.46,339.928 C438.196,339.928 439.444,338.152 439.444,335.08 L439.444,317.32 C439.444,314.296 438.196,312.472 435.46,312.472 C432.772,312.472 431.476,314.296 431.476,317.32 Z M451.792,309.4 L448.096,309.4 L448.096,334.888 C448.096,339.976 450.448,343.384 455.584,343.384 C460.768,343.384 463.12,339.976 463.12,334.888 L463.12,309.4 L459.616,309.4 L459.616,335.08 C459.616,338.104 458.416,339.928 455.728,339.928 C452.992,339.928 451.792,338.104 451.792,335.08 L451.792,309.4 Z M468.316,309.4 L475.66,309.4 C480.94,309.4 483.196,312.52 483.196,317.608 L483.196,321.64 C483.196,326.968 480.7,329.752 475.372,329.752 L472.06,329.752 L472.06,343 L468.316,343 L468.316,309.4 Z M472.06,326.392 L475.372,326.392 C478.156,326.392 479.5,325.096 479.5,321.88 L479.5,317.416 C479.5,314.344 478.396,312.808 475.66,312.808 L472.06,312.808 L472.06,326.392 Z" id="mountain-group" fill="#1A5692"></path>
                <path d="M45.2,200.57 C45.8,203.48 47.93,205.67 50.78,206.15 L50.78,208.7 L53.18,208.7 L53.18,206.12 C54.56,205.91 55.73,205.28 56.66,204.26 C57.74,203.09 58.28,201.65 58.28,199.97 C58.19,197.87 57.44,196.64 56.03,195.59 C55.04,194.84 54.47,194.54 53.27,193.94 L51.65,193.1 C51.32,192.92 50.93,192.65 50.45,192.32 C49.52,191.6 49.22,190.88 49.22,189.89 C49.22,188.48 50.3,187.25 51.74,187.25 C53.15,187.25 54.11,187.79 55.07,189.5 L57.2,188.12 C56.27,186.29 54.92,185.21 53.18,184.88 L53.18,182.3 L50.78,182.3 L50.78,184.85 C48.38,185.33 46.58,187.43 46.58,190.1 C46.58,191.66 47.06,192.83 48.14,193.79 C49.22,194.72 50.03,195.2 51.68,195.95 C54.2,197.15 55.64,198.2 55.64,200.03 C55.64,201.02 55.37,201.86 54.83,202.52 C54.14,203.33 53.21,203.72 51.98,203.72 C49.49,203.72 48.29,202.04 47.48,199.19 L45.2,200.57 Z M65.15,209.21 L68.63,202.7 L65.21,202.7 L63.23,209.21 L65.15,209.21 Z M85.64,199.01 C86.45,203.6 89.27,206.24 93.44,206.24 C96.17,206.24 98.12,205.1 99.35,202.82 L97.22,201.65 C96.32,203.12 95.06,203.84 93.44,203.84 C90.53,203.84 88.79,202.22 88.16,199.01 L94.07,199.01 L95.27,196.61 L87.95,196.61 L87.95,194.39 L94.07,194.39 L95.27,191.99 L88.16,191.99 C88.79,188.78 90.53,187.16 93.44,187.16 C95.06,187.16 96.32,187.88 97.22,189.35 L99.35,188.18 C98.12,185.9 96.17,184.76 93.44,184.76 C89.27,184.76 86.45,187.4 85.64,191.99 L83.93,191.99 L82.73,194.39 L85.43,194.39 L85.43,196.61 L83.93,196.61 L82.73,199.01 L85.64,199.01 Z M106.07,209.21 L109.55,202.7 L106.13,202.7 L104.15,209.21 L106.07,209.21 Z M123.818049,194.47561 L125.982683,194.47561 L125.982683,184.75 L131.561951,184.75 C132.598542,184.75 133.543654,184.866869 134.397317,185.10061 C135.25098,185.334351 135.98268,185.690038 136.592439,186.167683 C137.202198,186.645328 137.679836,187.249996 138.025366,187.981707 C138.370896,188.713418 138.543659,189.587393 138.543659,190.603659 C138.543659,191.619924 138.360734,192.504061 137.994878,193.256098 C137.629023,194.008134 137.13106,194.633128 136.500976,195.131098 C135.870891,195.629068 135.129029,195.999999 134.275366,196.243902 C133.421703,196.487806 132.496916,196.609756 131.500976,196.609756 L128.421707,196.609756 L128.421707,199.689024 L133.330244,199.689024 L133.330244,201.70122 L128.421707,201.70122 L128.421707,206 L125.982683,206 L125.982683,201.70122 L123.818049,201.70122 L123.818049,199.689024 L125.982683,199.689024 L125.982683,196.609756 L123.818049,196.609756 L123.818049,194.47561 Z M131.561951,194.47561 C132.964397,194.47561 134.067029,194.155491 134.869878,193.515244 C135.672728,192.874997 136.074146,191.904478 136.074146,190.603659 C136.074146,189.302839 135.672728,188.357727 134.869878,187.768293 C134.067029,187.178859 132.964397,186.884146 131.561951,186.884146 L128.421707,186.884146 L128.421707,194.47561 L131.561951,194.47561 Z" id="$,-€,-₽" fill="#1A5692"></path>
                <path d="M563.61,323.79 C560.46,323.79 558.96,325.8 558.96,329.04 C558.96,334.95 565.98,335.4 565.98,340.08 C565.98,341.97 565.2,343.08 563.52,343.08 C561.84,343.08 561.06,341.97 561.06,340.08 L561.06,338.76 L558.87,338.76 L558.87,339.96 C558.87,343.14 560.37,345.21 563.58,345.21 C566.79,345.21 568.32,343.14 568.32,339.96 C568.32,334.05 561.27,333.6 561.27,328.89 C561.27,327.03 561.99,325.92 563.67,325.92 C565.35,325.92 566.07,327.03 566.07,328.92 L566.07,329.61 L568.29,329.61 L568.29,329.04 C568.29,325.86 566.79,323.79 563.61,323.79 Z M581.43,328.11 L581.43,345 L583.65,345 L583.65,324 L580.38,324 L577.05,340.77 L573.6,324 L570.33,324 L570.33,345 L572.37,345 L572.37,328.26 L575.85,344.97 L578.1,344.97 L581.43,328.11 Z M593.73,340.77 L588.42,340.77 L587.61,345 L585.45,345 L589.47,324 L592.86,324 L596.88,345 L594.54,345 L593.73,340.77 Z M591.03,326.64 L588.72,338.76 L593.4,338.76 L591.03,326.64 Z M598.71,324 L603.39,324 C606.69,324 608.07,325.68 608.07,328.8 L608.07,330.51 C608.07,332.82 607.26,334.26 605.46,334.83 C607.38,335.4 608.1,336.96 608.1,339.21 L608.1,342.48 C608.1,343.41 608.13,344.28 608.52,345 L606.15,345 C605.88,344.4 605.76,343.86 605.76,342.45 L605.76,339.15 C605.76,336.78 604.65,336.03 602.7,336.03 L601.05,336.03 L601.05,345 L598.71,345 L598.71,324 Z M601.05,333.9 L602.79,333.9 C604.65,333.9 605.76,333.3 605.76,331.02 L605.76,329.01 C605.76,327.12 605.07,326.13 603.33,326.13 L601.05,326.13 L601.05,333.9 Z M615.93,345 L615.93,326.13 L619.8,326.13 L619.8,324 L609.72,324 L609.72,326.13 L613.59,326.13 L613.59,345 L615.93,345 Z M625.95,323.79 C622.74,323.79 621.24,325.89 621.24,329.07 L621.24,339.93 C621.24,343.11 622.74,345.21 625.95,345.21 C629.19,345.21 630.69,343.11 630.69,339.93 L630.69,337.32 L628.47,337.32 L628.47,340.05 C628.47,341.94 627.72,343.08 626.01,343.08 C624.33,343.08 623.55,341.94 623.55,340.05 L623.55,328.95 C623.55,327.06 624.33,325.92 626.01,325.92 C627.72,325.92 628.47,327.06 628.47,328.95 L628.47,330.96 L630.69,330.96 L630.69,329.07 C630.69,325.89 629.19,323.79 625.95,323.79 Z M632.64,339.93 L632.64,329.07 C632.64,325.86 634.23,323.79 637.44,323.79 C640.68,323.79 642.27,325.86 642.27,329.07 L642.27,339.93 C642.27,343.11 640.68,345.21 637.44,345.21 C634.23,345.21 632.64,343.11 632.64,339.93 Z M634.95,328.95 L634.95,340.05 C634.95,341.97 635.76,343.08 637.44,343.08 C639.15,343.08 639.93,341.97 639.93,340.05 L639.93,328.95 C639.93,327.06 639.15,325.92 637.44,325.92 C635.76,325.92 634.95,327.06 634.95,328.95 Z M646.56,328.02 L651.93,345 L654.36,345 L654.36,324 L652.29,324 L652.29,339.18 L647.43,324 L644.46,324 L644.46,345 L646.56,345 L646.56,328.02 Z M662.16,345 L662.16,326.13 L666.03,326.13 L666.03,324 L655.95,324 L655.95,326.13 L659.82,326.13 L659.82,345 L662.16,345 Z M667.65,324 L672.33,324 C675.63,324 677.01,325.68 677.01,328.8 L677.01,330.51 C677.01,332.82 676.2,334.26 674.4,334.83 C676.32,335.4 677.04,336.96 677.04,339.21 L677.04,342.48 C677.04,343.41 677.07,344.28 677.46,345 L675.09,345 C674.82,344.4 674.7,343.86 674.7,342.45 L674.7,339.15 C674.7,336.78 673.59,336.03 671.64,336.03 L669.99,336.03 L669.99,345 L667.65,345 L667.65,324 Z M669.99,333.9 L671.73,333.9 C673.59,333.9 674.7,333.3 674.7,331.02 L674.7,329.01 C674.7,327.12 674.01,326.13 672.27,326.13 L669.99,326.13 L669.99,333.9 Z M687.15,340.77 L681.84,340.77 L681.03,345 L678.87,345 L682.89,324 L686.28,324 L690.3,345 L687.96,345 L687.15,340.77 Z M684.45,326.64 L682.14,338.76 L686.82,338.76 L684.45,326.64 Z M696.66,323.79 C693.45,323.79 691.95,325.89 691.95,329.07 L691.95,339.93 C691.95,343.11 693.45,345.21 696.66,345.21 C699.9,345.21 701.4,343.11 701.4,339.93 L701.4,337.32 L699.18,337.32 L699.18,340.05 C699.18,341.94 698.43,343.08 696.72,343.08 C695.04,343.08 694.26,341.94 694.26,340.05 L694.26,328.95 C694.26,327.06 695.04,325.92 696.72,325.92 C698.43,325.92 699.18,327.06 699.18,328.95 L699.18,330.96 L701.4,330.96 L701.4,329.07 C701.4,325.89 699.9,323.79 696.66,323.79 Z M708.93,345 L708.93,326.13 L712.8,326.13 L712.8,324 L702.72,324 L702.72,326.13 L706.59,326.13 L706.59,345 L708.93,345 Z" id="SMARTCONTRACT" fill="#1A5692"></path>
                <path d="M433.577465,509.521673 L433.577465,521.482759 L394.239437,499.554189 L394.239437,487.593103 L433.577465,509.521673 Z M437.591549,520.675862 L437.591549,509.37931 L444.014085,509.37931 L444.014085,520.675862 L437.591549,520.675862 Z M446.422535,519.868966 L446.422535,508.141677 L486.991016,485.172414 L487.366197,496.87397 L446.422535,519.868966 Z M445.076724,525.517241 L456.056338,531.26462 L454.816592,536.813793 L444.014085,531.066415 L445.076724,525.517241 Z M446.422535,524.106583 L488.292418,499.696552 L497,504.578874 L457.909298,529.551724 L446.422535,524.106583 Z M442.408451,574.158784 L442.408451,534.393103 L453.647887,539.433698 L453.647887,582 L442.408451,574.158784 Z M435.726093,525.517241 L436.788732,531.066415 L425.986225,536.813793 L424.746479,531.26462 L435.726093,525.517241 Z M383,504.578874 L391.707671,499.696552 L433.577465,524.106583 L422.091103,529.551724 L383,504.578874 Z M427.15493,539.433698 L438.394366,534.393103 L438.394366,574.158784 L427.15493,582 L427.15493,539.433698 Z M435.760545,465 L443.74406,465 L483.352113,484.60461 L443.74406,506.958621 L435.760545,506.958621 L395.84507,484.980245 L435.760545,465 Z M444.831578,473.08145 L446.282137,485.196862 L435.034357,473.106418 L429.831476,473.119423 L427.957746,493.175837 L434.300431,493.191963 L434.634427,478.85384 L446.898787,493.224214 L453.647887,493.241379 L449.805851,473.068966 L444.831578,473.08145 Z M423.054431,532.760769 L424.558415,538.775171 L424.746479,582 L385.945806,553.70325 C384.094668,552.352852 383,550.200113 383,547.909439 L383,507.765517 L423.054431,532.760769 Z M410.134473,561.033801 L415.915493,565.055172 L415.829009,537.268208 L409.30938,533.454129 L402.449723,545.874703 L395.753903,525.524035 L390.225352,522.289655 L390.476748,547.358156 L395.357471,550.754049 L395.220493,535.001879 L400.597562,552.035353 L404.433491,554.665344 L410.056046,544.313066 L410.134473,561.033801 Z M455.441583,538.775171 L456.945547,532.761296 L497,507.765517 L497,549.800522 L497,552.01907 C497,553.955429 496.015443,555.759118 494.386631,556.807321 L494.017356,557.045286 L455.253521,582 L455.441583,538.775171 Z M467.32981,535.060788 L467.295775,540.185517 L475.744862,535.011655 L476.215689,561.02069 L482.050737,556.993276 L481.179218,531.683882 L488.971831,526.912813 L488.701609,522.289655 L467.32981,535.060788 Z" id="Combined-Shape-Copy-2" fill="#1A5692"></path>
                <g id="Page-1" transform="translate(569.000000, 204.000000)">
                    <path d="M95.5089259,60.9046975 C92.9060651,61.1104341 90.3100091,61.3748572 87.7071483,61.5789265 C87.0013325,61.634612 86.6297113,61.8353469 86.3726386,62.4748974 C85.8085909,63.8803746 85.0891655,65.2368352 84.3723864,66.7413461 C86.2769925,68.8097151 88.2957691,71.0021262 90.2597287,73.1348504 C88.0402086,75.0945158 85.8513104,77.0275055 83.6147781,79.0021761 C81.3650141,77.370622 78.9927626,75.6760466 76.6605841,73.9397904 C76.1502193,73.5596613 75.7687688,73.5269836 75.1608675,73.7640641 C73.9571625,74.2342237 72.7092259,74.6260234 71.4544844,74.9794768 C70.8874123,75.1388642 70.6749493,75.3579386 70.6205104,75.89212 C70.3392427,78.6527241 69.9986214,81.4083264 69.6750122,84.2022751 L60.2771157,84.2022751 C60.0835551,82.571388 59.8850799,80.927163 59.6945436,79.2822712 C59.5565561,78.094868 59.4609099,76.9021296 59.2730201,75.7207285 C59.2340811,75.4756453 58.918789,75.16554 58.6458383,75.0658394 C57.2546215,74.5566665 55.8463925,74.0771704 54.4166148,73.661696 C54.12703,73.5776674 53.6401041,73.730386 53.3750924,73.9177829 C51.1642674,75.4823142 48.9851984,77.0811904 46.7944099,78.6677292 C46.6012274,78.8071098 46.3967034,78.9348199 46.22885,79.0468579 C44.0346591,77.09953 41.8639072,75.1738761 39.6338018,73.1945373 C41.610615,71.0484753 43.6312819,68.85373 45.5563026,66.7633536 C44.8119259,65.1461378 44.1291712,63.6019467 43.3738311,62.0860987 C43.2607948,61.8603554 42.8184786,61.6619547 42.5054548,61.6302772 C39.8783989,61.3641869 37.2479405,61.117103 34.6129456,60.9180354 C33.9381298,60.8673515 33.6939108,60.7036293 33.70374,60.0787504 C33.7419229,57.6102455 33.719618,55.1410738 33.719618,52.578537 C35.6457729,52.4054782 37.5140863,52.2377546 39.3820218,52.0693641 C40.4787392,51.9703304 41.578859,51.8969722 42.6676374,51.7525898 C42.9356735,51.7169111 43.2849899,51.4951691 43.3912214,51.2804295 C44.1257687,49.7852551 44.8066333,48.2694071 45.5623513,46.6351855 C43.6611477,44.582155 41.6325418,42.3917446 39.6145213,40.2120044 C41.8521877,38.2820158 44.0524274,36.3847048 46.3494474,34.4030319 C47.6419937,35.3370157 49.0933201,36.3853717 50.5442686,37.4340612 C51.5426935,38.155973 52.5214599,38.9015595 53.553153,39.5847915 C53.7830062,39.7371765 54.2355298,39.7745226 54.5201999,39.6911609 C55.88949,39.2900247 57.227024,38.80486 58.5955579,38.40239 C59.0866424,38.2580076 59.2745322,38.0706106 59.3229224,37.6011179 C59.6098609,34.8135047 59.9459456,32.0295593 60.2737133,29.1719223 L69.6644269,29.1719223 C69.8598777,30.808478 70.0575969,32.4283614 70.2454867,34.0485782 C70.3861206,35.263991 70.4840351,36.4844054 70.672303,37.693816 C70.7104858,37.940233 71.0178389,38.2586745 71.2877652,38.3550406 C72.6831406,38.8528763 74.0977964,39.313366 75.5283302,39.7268397 C75.7990126,39.8051996 76.2477557,39.6961626 76.4836577,39.5294393 C78.523983,38.0889502 80.5344425,36.614783 82.5547313,35.1519529 C82.9418525,34.8715244 83.3331323,34.5954306 83.6726194,34.3526815 C85.9042371,36.2960081 88.0938914,38.2033224 90.3636919,40.1799936 C88.3517202,42.351731 86.328407,44.5361394 84.3882644,46.6305172 C85.1375556,48.2664061 85.8320299,49.8312708 86.5892602,51.3724608 C86.6879307,51.5728621 87.1003811,51.7395854 87.3869416,51.7679284 C90.1398875,52.0403542 92.89737,52.2797688 95.6533403,52.5301872 C95.8056936,52.5438585 95.9572909,52.5698674 96.2279733,52.606213 L96.2279733,53.8396318 C96.2279733,55.9513489 96.2154977,58.0633994 96.2370465,60.1751165 C96.241583,60.6546126 96.0896077,60.8586819 95.5089259,60.9046975 M129.99825,17.3352364 L129.99825,16.4606061 L0,16.4606061 L0,96.9999541 L1.03169314,96.9999541 C39.0493395,96.9999541 77.0673639,97.0009544 115.08501,96.9936186 C116.027106,96.9936186 116.986592,96.984949 117.908651,96.8388994 C125.202332,95.6801726 129.992579,90.6314582 129.994847,84.0945719 C130.00392,61.8413489 129.99825,39.5881259 129.99825,17.3352364" id="Fill-1" fill="#1A5692"></path>
                    <g id="Group-5">
                        <mask id="mask-2" fill="white">
                            <use xlink:href="#path-1"></use>
                        </mask>
                        <g id="Clip-4"></g>
                        <path d="M17.666811,5.06019186 C18.950561,5.09915983 19.9758227,6.06596848 19.9395436,7.20410182 C19.9025087,8.35970355 18.8557064,9.23312346 17.5311424,9.21397541 C16.2065785,9.19516329 15.2187297,8.30393905 15.2153285,7.12482216 C15.2115494,5.96250182 16.3312878,5.01954424 17.666811,5.06019186 L17.666811,5.06019186 Z M24.7102413,5.05750442 C26.0162878,5.06187152 27.0415494,5.97123602 27.0502413,7.13322043 C27.059311,8.31032173 26.0725959,9.19717887 24.7332936,9.215991 C23.3826541,9.23513905 22.3245145,8.3099858 22.3264041,7.111049 C22.3279157,6.00079792 23.427625,5.05313732 24.7102413,5.05750442 L24.7102413,5.05750442 Z M31.8606192,5.05616069 C33.1379448,5.06993385 34.2040203,6.02767238 34.1979738,7.15572779 C34.1919273,8.30024381 33.1473924,9.21263169 31.836811,9.21901437 C30.5009099,9.22506113 29.5021017,8.36071134 29.4741366,7.17386805 C29.4465494,5.9863529 30.5111134,5.04137974 31.8606192,5.05616069 L31.8606192,5.05616069 Z M44.2117529,6.71297108 C44.3546017,5.77404468 45.2770727,4.93354597 46.4017238,4.77061957 C46.864282,4.70343342 47.3423343,4.705449 47.8135843,4.705449 C58.3621017,4.70242563 68.9102413,4.70309749 79.4587587,4.70309749 C90.0068983,4.70309749 100.555416,4.70276156 111.103555,4.70477714 C111.543439,4.70477714 111.988613,4.69906632 112.422828,4.75046372 C113.818439,4.91607758 114.812334,5.94906459 114.793439,7.18025074 C114.774922,8.36440658 113.78027,9.35775377 112.419049,9.5253832 C112.046433,9.57140571 111.665125,9.57006199 111.287974,9.57006199 C90.0968401,9.57207758 68.9057064,9.57409316 47.7149506,9.56166372 C47.0668401,9.56132779 46.3775378,9.50858667 45.7804448,9.30870788 C44.6183808,8.92037195 44.0371599,7.85916675 44.2117529,6.71297108 L44.2117529,6.71297108 Z M129.980387,14.0399564 L129.980387,0.16601697 L128.581375,0.16601697 L46.677218,0.16601697 C36.0965785,0.16601697 25.5163169,0.175758961 14.9352994,0.16164987 C9.80143314,0.154595325 5.61875872,1.85843602 2.59890407,5.58558753 C0.561985465,8.10036502 -0.234264535,10.9456984 0.0586133721,14.0399564 L129.980387,14.0399564 Z" id="Fill-3" fill="#1A5692" mask="url(#mask-2)"></path>
                    </g>
                    <path d="M66.6523984,63.3655794 C66.3807764,63.4436501 66.10416,63.5084827 65.7760622,63.5933421 L65.7760622,65.8689331 C64.2189424,66.2093892 64.0510516,66.130979 64.1132903,64.8614817 C64.1543985,64.019676 64.0402943,63.531225 62.8592959,63.4687685 C61.9161108,63.4185317 60.9978979,63.0023809 59.9794117,62.724042 C60.2387396,62.0777524 60.4273766,61.6076311 60.608714,61.1558394 C61.6068382,61.4290868 62.5500234,61.7983951 63.5323958,61.9209322 C64.3238261,62.020048 65.2051567,61.9412984 65.972383,61.7305076 C67.74657,61.2427355 68.2936557,59.3418838 66.9766543,58.1860982 C66.3634879,57.6480893 65.5105873,57.3117064 64.7375981,56.9298389 C63.8213063,56.4777078 62.8139615,56.1521869 61.9533771,55.633526 C60.6286919,54.8348289 60.0919792,53.6617319 60.3405498,52.2408453 C60.6094824,50.7052287 61.6978911,49.7385099 63.2895881,49.3067451 C64.1540143,49.072533 64.3941327,48.731398 64.2946277,48.0131476 C64.2373835,47.5990335 64.2842546,47.173718 64.2842546,46.6832304 L65.9251277,46.6832304 L65.9251277,48.7653418 C67.1514605,49.0657442 68.2671467,49.3389916 69.4788802,49.6359997 C69.2045689,50.2581892 68.999796,50.7218612 68.809238,51.1532866 C67.7957462,50.946569 66.8525611,50.7062471 65.8905507,50.5769213 C65.3695898,50.5066576 64.800221,50.5650409 64.281181,50.6726427 C63.4079184,50.8542419 62.8181876,51.3644169 62.62033,52.1525915 C62.4193989,52.9519675 62.7313608,53.655622 63.4866773,54.0741488 C64.4824963,54.6260746 65.55669,55.0707381 66.6139794,55.5316947 C67.9928354,56.132839 69.2487507,56.847695 69.7662539,58.2156293 C70.595719,60.4067002 69.2460614,62.6177979 66.6523984,63.3655794 M64.8555443,44.0919623 C56.2124341,44.1883626 50.5471763,50.5117492 50.6685802,56.8005131 C50.820335,64.2864741 57.6688963,69.5328246 65.2143772,69.3658212 C73.2070547,69.1886346 79.5200559,63.400202 79.3291137,56.6576098 C79.1281826,49.5569107 72.8197917,44.0030296 64.8555443,44.0919623" id="Fill-6" fill="#1A5692"></path>
                </g>
                <path d="M161.15942,79.5529266 L161.15942,85.2 L141.681159,74.8470734 L141.681159,69.2 L161.15942,79.5529266 Z M162.782609,84.4 L162.782609,78.8 L166.028986,78.8 L166.028986,84.4 L162.782609,84.4 Z M166.84058,84.4 L166.84058,78.7216708 L186.944511,67.6 L187.130435,73.2658696 L166.84058,84.4 Z M166.530306,86.8 L171.710145,89.6491276 L171.125272,92.4 L166.028986,89.5508724 L166.530306,86.8 Z M166.84058,86.5736535 L187.668472,74.8 L192,77.1548829 L172.554593,89.2 L166.84058,86.5736535 Z M165.217391,110.310551 L165.217391,91.6 L170.898551,93.971701 L170.898551,114 L165.217391,110.310551 Z M161.469694,86.8 L161.971014,89.5508724 L156.874728,92.4 L156.289855,89.6491276 L161.469694,86.8 Z M136,77.1548829 L140.331573,74.8 L161.15942,86.5736535 L155.445607,89.2 L136,77.1548829 Z M157.101449,93.971701 L162.782609,91.6 L162.782609,110.310551 L157.101449,114 L157.101449,93.971701 Z M162.11339,58 L166.037724,58 L185.507246,67.3447351 L166.037724,78 L162.11339,78 L142.492754,67.5237856 L162.11339,58 Z M165.909129,62.0059412 L166.596512,67.7716349 L161.266472,62.0178236 L158.800957,62.0240124 L157.913043,71.5688087 L160.918682,71.5764827 L161.076955,64.7530067 L166.888727,71.5918308 L170.086957,71.6 L168.266312,62 L165.909129,62.0059412 Z M155.467477,90.652078 L156.198451,93.503946 L156.289855,114 L137.431737,100.58244 C136.532037,99.942118 136,98.9213469 136,97.8351706 L136,78.8 L155.467477,90.652078 Z M148.680809,104.044113 L151.42029,106 L151.379307,92.4851662 L148.289819,90.6301007 L145.039199,96.6711346 L141.866218,86.7731156 L139.246377,85.2 L139.365507,97.3926462 L141.678359,99.0443175 L141.613449,91.3828845 L144.161507,99.6675094 L145.979257,100.946667 L148.643645,95.911596 L148.680809,104.044113 Z M171.801548,93.503946 L172.532513,90.6523276 L192,78.8 L192,98.7318714 L192,99.7838473 C192,100.702017 191.52148,101.557278 190.729836,102.054308 L190.550359,102.167144 L171.710145,114 L171.801548,93.503946 Z M177.407871,91.2671979 L177.391304,93.7018091 L181.50386,91.243856 L181.733033,103.6 L184.573217,101.686692 L184.149009,89.662927 L187.942029,87.396329 L187.810499,85.2 L177.407871,91.2671979 Z" id="Combined-Shape-Copy-5" fill="#1A5692"></path>
                <g id="Page-1" transform="translate(307.000000, 0.000000)">
                    <g id="Group-3" transform="translate(0.000000, 53.000000)" fill="#1A5692">
                        <path d="M119.205399,23.9903677 C116.708943,34.995531 114.241348,46.0069867 111.767487,57.017147 C110.482994,62.7326512 109.190525,68.4466749 107.933563,74.1679162 C107.74293,75.0362628 107.740842,75.9414381 107.298057,76.7533385 C106.247297,78.6806532 104.631095,79.7448033 102.375778,79.8456663 C102.186285,79.8541795 101.996032,79.8526989 101.806348,79.8526989 C73.9109051,79.8530691 46.015462,79.847702 18.1202089,79.8641732 C16.0942595,79.8652837 14.4444494,79.2153192 13.2028671,77.6498156 C12.633057,76.9311903 12.3100823,76.1080008 12.1443228,75.2083775 C11.8458418,73.5886484 11.5298924,71.97077 11.1702722,70.3632556 C9.13748734,61.2765236 7.08913291,52.193308 5.04723418,43.1086119 C3.57989241,36.5808372 2.11027215,30.0534326 0.652613924,23.5238073 C0.398943038,22.387665 0.766917722,21.3481291 1.35685443,20.3950207 C2.50141139,18.5459904 4.24843671,17.6887481 6.42837342,17.6757932 C9.97255063,17.6548804 13.5169177,17.6700561 17.0610949,17.6700561 C29.9719177,17.6700561 42.8829304,17.6700561 55.7937532,17.6700561 L60.0161582,17.6700561 C77.7998924,17.6700561 95.5838165,17.6706113 113.367551,17.6695009 C115.610146,17.6693158 117.399703,18.5160092 118.576348,20.4048294 C119.258943,21.5006265 119.502551,22.6804451 119.205399,23.9903677 M119.645905,20.6345008 C118.82793,18.225635 116.702108,16.7837578 113.951411,16.7769102 C110.549639,16.7685821 107.147867,16.7687671 103.746095,16.7835727 C103.376032,16.7852383 103.186348,16.6717907 103.020209,16.3523606 C101.805399,14.015857 100.283373,11.8849657 98.4778671,9.94266029 C94.4964114,5.65977978 89.6508418,2.73549514 83.9328038,1.22680782 C82.2191962,0.774682808 80.4516646,0.516695796 78.7072975,0.16950524 C78.541538,0.798741855 78.4764114,1.33118707 78.2635633,1.79996835 C77.6884367,3.06547423 77.1106519,4.33634712 76.4259684,5.54725746 C74.2538165,9.38856193 71.6470443,12.9565186 69.0231835,16.5105951 C68.9183734,16.6525434 68.6643228,16.7615494 68.4786266,16.7635852 C66.6435,16.7819071 64.8079937,16.7754297 62.9726772,16.7726536 C62.8528671,16.7724685 62.7332468,16.7456334 62.596538,16.7289772 C62.4953354,15.3479879 62.3863481,13.9971649 62.3111582,12.6446763 C62.3029937,12.4990266 62.4528038,12.2854563 62.5917911,12.2005093 C63.8983101,11.401934 64.9255253,10.3635085 65.5635,8.98492515 C65.8832468,8.2944305 66.0896392,7.57413964 66.0791962,6.71911812 C61.7421076,8.55982029 57.4353987,8.52761818 53.0817911,6.68654588 C53.1321076,7.49974167 53.2724241,8.14119287 53.5921709,8.78153367 C54.1061582,9.81144595 54.7701456,10.6981144 55.6264747,11.4804035 C56.0601456,11.8766375 56.8479304,11.952331 56.9514114,12.5967433 C57.0446392,13.1763813 56.9050823,13.792663 56.8602722,14.3924736 C56.8021709,15.1714315 56.7362848,15.9498342 56.6747658,16.7160223 C56.5828671,16.7408216 56.5378671,16.7634001 56.4928671,16.7634001 C54.5785633,16.7682119 52.6642595,16.7770953 50.7499557,16.7617345 C50.6022342,16.7606241 50.4013481,16.6205264 50.3172342,16.4889419 C48.5918544,13.7961793 46.8283101,11.1250699 45.1805886,8.3875205 C43.6475506,5.84096291 42.0898291,3.28663239 41.5156519,0.259634132 C41.0521709,0.320522028 40.6156519,0.379744297 40.1787532,0.434709966 C35.298057,1.04951115 30.8495127,2.7771358 26.8418544,5.52578939 C22.726538,8.34810068 19.4593861,11.928457 17.1879304,16.3320029 C17.0172342,16.6632775 16.8161582,16.7857935 16.4284367,16.7841279 C12.9476772,16.768397 9.46672785,16.7793161 5.98596835,16.7732088 C4.14457595,16.7698776 2.56482911,17.3617301 1.3728038,18.7528982 C0.397613924,19.8908912 -0.238272152,21.2048853 0.0848924051,22.7148681 C1.77913291,30.6282588 3.51590506,38.5329512 5.23843671,46.4404197 C6.99058861,54.4835442 8.75052532,62.5250031 10.4907152,70.5707186 C10.8941962,72.4365902 11.2025506,74.3222643 11.6141962,76.1866554 C11.7545127,76.8229246 11.9888165,77.4732592 12.3322975,78.0273575 C13.5028671,79.9158077 15.2795127,80.7667576 17.530462,80.7663875 C45.820462,80.7615757 74.1106519,80.7632413 102.400652,80.7630562 C102.574576,80.7630562 102.749449,80.7697188 102.922614,80.756949 C105.167487,80.5907565 106.827551,79.5569577 107.864259,77.5937395 C108.301728,76.7651829 108.310652,75.845387 108.500715,74.9607544 C110.099259,67.5154047 111.73293,60.0774577 113.355778,52.63729 C115.504196,42.787331 117.648247,32.9364468 119.808437,23.0888937 C119.994133,22.2418302 119.917614,21.4341865 119.645905,20.6345008" id="Fill-1"></path>
                    </g>
                    <g id="Group-6" transform="translate(37.000000, 0.000000)">
                        <mask id="mask-4" fill="white">
                            <use xlink:href="#path-3"></use>
                        </mask>
                        <g id="Clip-5"></g>
                        <path d="M3.15715279,29.3695852 C4.2738752,29.5990689 5.21815437,30.1662077 6.23322214,30.7891464 C6.14487502,29.9607199 6.05745203,29.2143743 5.98684827,28.4665051 C5.72531861,25.6970849 5.57024908,22.9219514 6.03693628,20.1639578 C6.20420437,19.1742262 6.49567594,18.1907792 6.86181746,17.2591327 C7.08434871,16.6931365 7.5190609,16.1953188 7.92863668,15.733114 C8.34763862,15.2604348 8.80878102,15.1678795 9.47914716,15.4634469 C14.3731711,17.6221168 19.4669926,18.8489498 24.8238224,18.6369868 C28.416667,18.494726 31.7666494,17.5049944 34.7658308,15.399458 C34.8421642,15.3459436 34.9190521,15.2930005 34.9983427,15.2444376 C35.022555,15.229583 35.055639,15.2299639 35.1432468,15.2103483 C35.5892334,16.0185878 36.0581385,16.8350164 36.4961776,17.6685848 C37.7136305,19.9855128 38.8150123,22.3563361 39.4875964,24.9111272 C39.8520745,26.2946946 40.121182,27.6931166 39.8147395,29.1821894 C40.7808282,28.0412462 41.7472866,26.9004934 42.7137449,25.7595502 L42.8115182,25.7848791 C42.7778798,26.326689 42.7538523,26.8696417 42.7085698,27.4106899 C42.4499974,30.510338 42.0683304,33.5884661 41.2408616,36.5928928 C40.0646251,40.862622 38.2954647,44.8289756 35.5522681,48.2807527 C33.1522945,51.3009861 30.2660421,53.6497181 26.5506575,54.7030576 C22.4061054,55.8782805 18.5260403,55.1018449 14.9270965,52.7702529 C11.4133577,50.4936988 8.95405474,47.2384588 7.04257789,43.5057786 C5.17213255,39.8528939 4.04173297,35.9514813 3.43365341,31.8811458 C3.32368157,31.1448937 3.247533,30.4033091 3.15826175,29.6638195 C3.14920525,29.5872614 3.15715279,29.5082276 3.15715279,29.3695852 M5.57191252,46.793013 C7.52756293,50.2630725 9.96265358,53.3073018 13.2022945,55.5888074 C17.1272725,58.3530856 21.418392,59.4795552 26.133319,58.4372614 C30.3290679,57.5096141 33.6790503,55.1161282 36.497841,51.8789803 C40.4566423,47.3327281 42.775477,41.9254836 44.1833014,36.0585101 C44.7825092,33.560471 45.0835918,31.0142498 45.3528842,28.4577448 C45.608869,26.0305504 45.705903,23.6105928 45.3567655,21.1980626 C44.4692281,15.0627551 41.8792528,9.83319384 37.3205043,5.73162575 C32.4468113,1.34705955 26.7395503,-0.503664258 20.3162709,0.206306761 C15.6181632,0.725644468 11.4974538,2.71367759 8.01476589,5.9988171 C2.68769319,11.0236522 0.175529836,17.3461651 0.0422698469,25.5565381 C0.219703397,27.2400531 0.414140996,29.7390444 0.758288153,32.2159444 C1.47541542,37.3784697 3.02167488,42.2677095 5.57191252,46.793013" id="Fill-4" fill="#1A5692" mask="url(#mask-4)"></path>
                    </g>
                    <g id="Group-9" transform="translate(9.000000, 136.000000)">
                        <mask id="mask-6" fill="white">
                            <use xlink:href="#path-5"></use>
                        </mask>
                        <g id="Clip-8"></g>
                        <path d="M98.8425832,0.1874002 C66.8475248,0.209763897 34.8520868,0.202941074 2.85664877,0.20464678 C2.63589763,0.20464678 2.41324838,0.212796263 2.1949648,0.242551351 C0.789977774,0.43491705 -0.160220149,1.80895776 0.152969338,3.18678892 C0.43104364,4.41015896 1.38427855,5.11651064 2.76971496,5.11670017 C18.7752163,5.11745826 34.7809074,5.11707921 50.7864087,5.11707921 C66.7287026,5.11726874 82.6709966,5.11726874 98.6132906,5.11670017 C98.8503655,5.11670017 99.0881997,5.11992206 99.3247052,5.10513927 C100.306981,5.0431653 101.177079,4.36922202 101.471856,3.43165245 C101.961761,1.87377457 100.854968,0.18607354 98.8425832,0.1874002" id="Fill-7" fill="#1A5692" mask="url(#mask-6)"></path>
                    </g>
                    <path d="M60.5415212,100.000477 C58.6279258,99.9707309 57.0111144,101.3348 57.0000581,102.988154 C56.9890019,104.616782 58.5566023,105.981409 60.4593582,105.999814 C62.3863946,106.01822 63.9904155,104.664935 63.9999542,103.012138 C64.0097097,101.379977 62.459886,100.030596 60.5415212,100.000477" id="Fill-10" fill="#1A5692"></path>
                </g>
                <g id="Page-1" transform="translate(274.000000, 214.000000)" fill="#1A5692">
                    <g id="Group-3" transform="translate(38.750000, 0.056408)">
                        <path d="M76.4006726,82.1942553 L43.5729172,82.1942553 C42.8618183,78.8930736 42.1484031,75.5955912 41.4419367,72.2971839 C41.1834395,71.0930549 41.0185201,69.8630306 40.664592,68.6884961 C40.3644017,67.6924539 40.6460618,66.9525896 41.1440627,66.1082196 C41.8417272,64.9244368 42.5009414,63.6777655 42.913703,62.3751421 C43.6109043,60.1712715 42.7135762,58.7137389 40.4950401,58.0779181 C40.1628851,57.9826606 39.8210017,57.8827789 39.4800448,57.866132 C37.7080881,57.7782731 35.8986077,57.8272891 34.7316642,59.3828536 C33.5790817,60.9180719 34.2396857,62.5466981 34.9327176,64.081454 C35.2329079,64.746407 35.5280024,65.4469659 35.9861632,65.9990896 C36.7825014,66.9595259 36.8209517,67.9255111 36.5527261,69.0963463 C35.5567243,73.4379621 34.6529106,77.8013114 33.7083303,82.1831574 L0.693419191,82.1831574 C0.693419191,80.005182 0.692955934,77.8951817 0.693419191,75.7861062 C0.693419191,74.4756217 0.692955934,73.1655996 0.695272218,71.8555774 C0.698978271,69.2239728 1.71628986,67.0954759 3.78797356,65.4409545 C10.3152596,60.2262989 17.2692051,55.6756714 24.7776687,51.9953092 C25.630061,51.5772859 25.931641,51.1051601 25.9200596,50.1585963 C25.8677116,45.7665772 25.8834624,41.3736333 25.9107945,36.9811518 C25.9154271,36.304176 25.7241021,35.8829158 25.1728267,35.4445462 C23.5004702,34.1155651 22.7217358,32.2793146 22.7078381,30.1827243 C22.6712408,24.7114282 22.5961932,19.2378201 22.734707,13.7692986 C22.9144505,6.64995495 28.9891349,0.741676594 36.1487663,0.592778916 C38.917188,0.534977022 41.7046032,0.319029148 44.4290155,1.12363151 C50.0251557,2.774916 54.1750087,7.86795645 54.3422444,13.7276812 C54.5016047,19.3099569 54.4219245,24.900556 54.3746723,30.4869934 C54.3575318,32.5165335 53.3527282,34.1442348 51.8953228,35.5337924 C51.5576087,35.8560957 51.2463002,36.4003584 51.2416677,36.8461266 C51.1944155,41.3537494 51.2273067,45.8622971 51.1990481,50.3703824 C51.1944155,51.1333674 51.5066505,51.5241082 52.1403856,51.9060631 C57.747644,55.2840058 63.3549023,58.6637981 68.9093495,62.1272876 C70.5057319,63.122405 71.944607,64.3737003 73.4335138,65.5366744 C75.4162523,67.0848404 76.3932605,69.1402757 76.3988196,71.6484155 C76.406695,75.144274 76.4006726,78.6396701 76.4006726,82.1942553" id="Fill-1"></path>
                    </g>
                    <path d="M0.0250968327,82.2366519 C0.0250968327,79.0917665 -0.0494874867,76.0176306 0.0589145675,72.9499685 C0.108483028,71.5678096 0.922424948,70.4302684 1.98096637,69.5072877 C6.714986,65.3802325 11.9720224,62.0115382 17.5653831,59.2130017 C19.4466683,58.2719869 20.2230864,57.2884298 20.056314,55.1543839 C19.8330243,52.2832483 20.0275921,49.3806684 19.9738543,46.4928858 C19.9650525,46.0295458 19.7065553,45.4640121 19.37579,45.1338477 C18.3214179,44.082778 17.5283225,42.8712503 17.5195207,41.3975333 C17.4889457,36.5481856 17.3064226,31.6789541 17.6793442,26.8550393 C18.0698695,21.804541 22.5375166,17.8208345 27.6046178,17.5179526 C29.5187942,17.4032736 31.5006061,17.3325241 33.3652141,17.6913583 C38.8418341,18.7452024 42.2597416,23.1381463 42.3394218,28.9853858 C42.3926963,32.8747597 42.3551725,36.7655207 42.3468339,40.6558194 C42.3431278,42.4781975 41.7353351,44.028213 40.3233289,45.2586997 C40.0319404,45.5125657 39.827181,46.0249216 39.8225484,46.4212114 C39.7845614,49.9258558 39.7757595,53.4309627 39.8285708,56.9351447 C39.8359829,57.4322409 40.2228022,57.9233258 40.4609161,58.4796113 C39.0553954,59.7817723 37.3515375,61.1736419 35.8756018,62.7740607 C33.8243014,64.9978152 32.7685395,67.7311511 32.6856166,70.7530341 C32.5929653,74.1402251 32.642997,77.5311154 32.6318788,80.9206184 C32.6304891,81.3349424 32.6318788,81.7492664 32.6318788,82.2366519 L0.0250968327,82.2366519 Z" id="Fill-6"></path>
                    <g id="Group-10" transform="translate(111.406250, 16.978738)">
                        <path d="M10.4521472,65.2570355 C10.4521472,62.0057946 10.4136969,58.8516608 10.4609491,55.6993768 C10.5378497,50.5369741 8.68945566,46.3243721 4.47706302,43.2187919 C3.7645743,42.6934883 3.10397033,42.0997473 2.42113004,41.5356008 C2.39333464,41.5129424 2.38036346,41.4722499 2.30392611,41.3469354 C3.40786669,41.0264817 3.28834648,40.1381822 3.28371391,39.2651424 C3.26749993,36.0689289 3.2624041,32.872253 3.28880973,29.6760395 C3.29436881,29.0207972 3.15863462,28.5551451 2.62496297,28.0899555 C1.34498486,26.9736853 0.72329445,25.5133783 0.726537247,23.795506 C0.73441261,19.5977013 0.703374415,15.3998966 0.738581919,11.2020919 C0.783054557,5.95044302 5.11172462,1.07889943 10.3608856,0.605848734 C12.6002682,0.403773314 14.953612,0.397761917 17.1374038,0.858327405 C22.0090106,1.88627628 25.3643785,6.06697164 25.506135,11.0430211 C25.6307511,15.4299536 25.55663,19.8224351 25.5459751,24.2121421 C25.5418058,25.8028502 24.8316334,27.073567 23.7008239,28.1805889 C23.3445795,28.5292499 23.0536544,29.1280775 23.045779,29.6182376 C22.9887984,32.9675105 23.0402199,36.3186331 22.9985268,39.6688308 C22.9883352,40.5058022 23.2394203,40.9649805 24.0186179,41.3547964 C30.036785,44.3600325 35.6963914,47.9284902 40.8918146,52.2146162 C42.1680867,53.2670731 43.1159098,54.5484255 43.1701108,56.2071086 C43.2673947,59.1961601 43.1979062,62.1902982 43.1979062,65.2570355 L10.4521472,65.2570355 Z" id="Fill-8"></path>
                    </g>
                </g>
                <g id="Page-1" transform="translate(0.000000, 219.000000)">
                    <mask id="mask-8" fill="white">
                        <use xlink:href="#path-7"></use>
                    </mask>
                    <g id="Clip-2"></g>
                    <path d="M69.5633759,79.1955032 C67.9146683,79.1955032 66.4160698,79.1010519 64.9355341,79.2216015 C63.3839925,79.3471223 62.1563376,80.4357971 62.1251946,81.8693433 C62.0342572,85.9872932 62.0934288,90.1083501 62.0934288,94.2648262 L69.5633759,94.2648262 L69.5633759,79.1955032 Z M126.523824,94.3288293 C126.584242,94.0193772 126.639676,93.8702437 126.639676,93.7204887 C126.645905,85.0732289 126.66895,76.4253476 126.635939,67.7787092 C126.628465,65.8443228 125.258175,64.3772216 123.232015,64.1920475 C121.326067,64.0180583 119.398318,64.0851684 117.479913,64.0534776 C116.780442,64.0422925 116.080349,64.0516134 115.287449,64.0516134 C115.287449,60.5910938 115.363438,57.3822371 115.252569,54.1802157 C115.203363,52.7646898 115.580816,52.1010456 117.014637,51.6791219 C120.00436,50.7986127 122.920585,49.6676833 125.867331,48.6399046 C121.084397,47.3312578 116.787294,44.5548884 111.480536,44.6567963 L111.480536,63.6352823 C110.644659,63.6352823 110.026783,63.6352823 109.40953,63.6359036 C98.9249455,63.6359036 88.4403613,63.6334181 77.955777,63.6371464 C74.5537216,63.6383892 73.4624727,64.7183646 73.4599813,68.0875399 C73.4549984,76.2687574 73.456867,84.4505963 73.4624727,92.6318139 C73.4624727,93.1792583 73.5129243,93.7267026 73.5421987,94.3288293 L126.523824,94.3288293 Z M0,98 C9.77888508,72.1383797 19.5135472,46.3935807 29.3403924,20.4039541 C38.6396761,27.4001813 47.796948,34.2889082 57.094986,41.2845141 C64.8421053,27.4884187 72.5300529,13.7973382 80.2771722,0 C81.4842728,0.752502996 82.5823731,1.42236115 83.6673933,2.11458934 C93.3609467,8.30425272 103.060729,14.4833525 112.729991,20.7109206 C113.707256,21.3403884 114.447213,21.4553455 115.538462,20.9240573 C124.66459,16.4836061 133.8256,12.1152361 142.977889,7.72822441 C143.535347,7.46102681 144.10464,7.21868481 144.925568,6.8489579 C150.624105,37.2684721 156.299595,67.5674366 162,98 L0,98 Z" id="Fill-1" fill="#1A5692" mask="url(#mask-8)"></path>
                </g>
                <path d="M89.5,98.3976652 L89.5,162.598765" id="Line-11" stroke="#979797" stroke-width="7" stroke-linecap="square"></path>
                <path id="Line-11-decoration-1" d="M89.5,162.598765 L92.5,151.798765 L86.5,151.798765 L89.5,162.598765 Z" stroke="#979797" stroke-width="7" stroke-linecap="square"></path>
                <polyline id="Line-11-Copy-4" stroke="#979797" stroke-width="7" stroke-linecap="square" points="631 163 631 95 509 95"></polyline>
                <path id="Line-11-Copy-4-decoration-1" d="M509,95 L519.8,98 L519.8,92 L509,95 Z" stroke="#979797" stroke-width="7" stroke-linecap="square"></path>
                <path d="M441.5,363.398596 L441.5,436.602245" id="Line-11-Copy-3" stroke="#979797" stroke-width="7" stroke-linecap="square"></path>
                <path id="Line-11-Copy-3-decoration-1" d="M441.5,436.602245 L444.5,425.802245 L438.5,425.802245 L441.5,436.602245 Z" stroke="#979797" stroke-width="7" stroke-linecap="square"></path>
                <path d="M91.5,376.398596 L91.5,449.602245" id="Line-11-Copy-5" stroke="#979797" stroke-width="7" stroke-linecap="square"></path>
                <path id="Line-11-Copy-5-decoration-1" d="M91.5,449.602245 L94.5,438.802245 L88.5,438.802245 L91.5,449.602245 Z" stroke="#979797" stroke-width="7" stroke-linecap="square"></path>
                <path d="M259.5,479.5 L259.5,394.602245" id="Line-11-Copy-6" stroke="#979797" stroke-width="7" stroke-linecap="square"></path>
                <path id="Line-11-Copy-6-decoration-1" d="M259.5,394.602245 L256.5,405.402245 L262.5,405.402245 L259.5,394.602245 Z" stroke="#979797" stroke-width="7" stroke-linecap="square"></path>
                <path d="M179.402439,271.489621 L244.67683,271.489621" id="Line-11-Copy" stroke="#979797" stroke-width="7" stroke-linecap="square"></path>
                <path id="Line-11-Copy-decoration-1" d="M244.67683,271.489621 L233.87683,268.489621 L233.87683,274.489621 L244.67683,271.489621 Z" stroke="#979797" stroke-width="7" stroke-linecap="square"></path>
                <path d="M467.402439,271.489621 L532.67683,271.489621" id="Line-11-Copy-2" stroke="#979797" stroke-width="7" stroke-linecap="square"></path>
                <path id="Line-11-Copy-2-decoration-1" d="M532.67683,271.489621 L521.87683,268.489621 L521.87683,274.489621 L532.67683,271.489621 Z" stroke="#979797" stroke-width="7" stroke-linecap="square"></path>
                <path d="M119.605145,95.5 L89,95.5" id="Line-12" stroke="#979797" stroke-width="7" stroke-linecap="square"></path>
                <path d="M239.605145,95.5 L209,95.5" id="Line-12-Copy" stroke="#979797" stroke-width="7" stroke-linecap="square"></path>
                <path d="M536.512,399.216 L536.512,395.076 L540.4,395.076 L540.4,399.216 L541.912,399.216 L541.912,390.144 L540.4,390.144 L540.4,393.708 L536.512,393.708 L536.512,390.144 L535,390.144 L535,399.216 L536.512,399.216 Z M544.576,396.606 C544.576,394.68 546.142,393.636 548.68,393.636 L550.156,393.636 L550.156,393.24 C550.156,391.998 549.49,391.368 548.176,391.368 C547.222,391.368 546.484,391.908 546.286,392.79 L544.954,392.484 C545.188,390.954 546.466,390 548.176,390 C550.282,390 551.668,391.116 551.668,393.42 L551.668,399.216 L550.48,399.216 L550.228,397.938 C549.562,398.892 548.626,399.36 547.384,399.36 C545.746,399.36 544.576,398.46 544.576,396.606 Z M546.124,396.606 C546.124,397.47 546.664,397.992 547.618,397.992 C548.302,397.992 548.896,397.776 549.4,397.326 C549.904,396.876 550.156,396.174 550.156,395.22 L550.156,395.004 L548.536,395.004 C547.006,395.004 546.124,395.58 546.124,396.606 Z M560.884,399.216 L560.884,391.512 L564.754,391.512 L564.754,399.216 L566.266,399.216 L566.266,390.144 L559.372,390.144 L559.372,399.216 L560.884,399.216 Z M570.082,397.992 C569.29,397.074 568.894,395.958 568.894,394.68 C568.894,393.402 569.29,392.304 570.082,391.386 C570.892,390.468 571.936,390 573.25,390 C574.564,390 575.608,390.468 576.4,391.386 C577.21,392.304 577.606,393.402 577.606,394.68 C577.606,395.958 577.21,397.074 576.4,397.992 C575.608,398.91 574.564,399.36 573.25,399.36 C571.936,399.36 570.892,398.91 570.082,397.992 Z M571.18,392.358 C570.694,393.006 570.442,393.78 570.442,394.68 C570.442,395.58 570.694,396.354 571.18,397.02 C571.684,397.668 572.368,397.992 573.25,397.992 C574.132,397.992 574.816,397.668 575.302,397.02 C575.806,396.354 576.058,395.58 576.058,394.68 C576.058,393.78 575.806,393.006 575.302,392.358 C574.816,391.692 574.132,391.368 573.25,391.368 C572.368,391.368 571.684,391.692 571.18,392.358 Z M579.586,401.268 L579.352,397.848 L579.964,397.848 L581.224,390.144 L587.416,390.144 L587.416,397.848 L588.028,397.848 L587.83,401.268 L586.498,401.268 L586.498,399.216 L580.918,399.216 L580.918,401.268 L579.586,401.268 Z M582.34,391.512 L581.368,397.848 L585.904,397.848 L585.904,391.512 L582.34,391.512 Z M589.936,401.268 L589.702,397.848 L590.314,397.848 L591.574,390.144 L597.766,390.144 L597.766,397.848 L598.378,397.848 L598.18,401.268 L596.848,401.268 L596.848,399.216 L591.268,399.216 L591.268,401.268 L589.936,401.268 Z M592.69,391.512 L591.718,397.848 L596.254,397.848 L596.254,391.512 L592.69,391.512 Z M604.354,390 C605.632,390 606.64,390.414 607.36,391.26 C608.098,392.088 608.458,393.096 608.458,394.302 L608.458,395.004 L601.798,395.004 C601.888,396.786 602.788,397.992 604.354,397.992 C605.632,397.992 606.352,397.434 606.874,396.264 L608.206,396.84 C607.36,398.622 606.226,399.36 604.354,399.36 C603.04,399.36 602.032,398.91 601.312,398.01 C600.61,397.092 600.25,395.994 600.25,394.68 C600.25,393.366 600.61,392.268 601.312,391.368 C602.032,390.45 603.04,390 604.354,390 Z M601.888,393.636 L606.874,393.636 C606.586,392.268 605.74,391.368 604.354,391.368 C603.004,391.368 602.176,392.25 601.888,393.636 Z M612.526,402.888 L611.014,402.888 L611.014,390.144 L612.526,390.144 L612.526,391.26 C612.976,390.558 614.092,390 615.172,390 C617.764,390 619.204,391.872 619.204,394.68 C619.204,397.488 617.764,399.36 615.172,399.36 C614.632,399.36 614.092,399.234 613.57,398.964 C613.048,398.694 612.688,398.424 612.526,398.136 L612.526,402.888 Z M615.028,397.992 C616.612,397.992 617.656,396.642 617.656,394.68 C617.656,392.718 616.612,391.368 615.028,391.368 C613.39,391.368 612.4,392.718 612.4,394.68 C612.4,396.642 613.39,397.992 615.028,397.992 Z M622.372,399.216 L626.206,394.662 L626.206,399.216 L627.718,399.216 L627.718,394.662 L631.552,399.216 L633.478,399.216 L629.338,394.302 L633.19,390.144 L631.246,390.144 L627.718,393.942 L627.718,390.144 L626.206,390.144 L626.206,393.942 L622.678,390.144 L620.734,390.144 L624.586,394.302 L620.446,399.216 L622.372,399.216 Z M636.916,399.216 L636.916,394.662 L640.75,399.216 L642.676,399.216 L638.536,394.302 L642.388,390.144 L640.444,390.144 L636.916,393.942 L636.916,390.144 L635.404,390.144 L635.404,399.216 L636.916,399.216 Z M646.402,398.838 L644.962,402.888 L646.51,402.888 L651.01,390.144 L649.426,390.144 L647.176,396.696 L644.872,390.144 L643.216,390.144 L646.402,398.838 Z M653.602,401.142 L655.69,397.236 L653.638,397.236 L652.45,401.142 L653.602,401.142 Z M536.512,421.216 L536.512,416.662 L540.346,421.216 L542.272,421.216 L538.132,416.302 L541.984,412.144 L540.04,412.144 L536.512,415.942 L536.512,412.144 L535,412.144 L535,421.216 L536.512,421.216 Z M543.55,418.606 C543.55,416.68 545.116,415.636 547.654,415.636 L549.13,415.636 L549.13,415.24 C549.13,413.998 548.464,413.368 547.15,413.368 C546.196,413.368 545.458,413.908 545.26,414.79 L543.928,414.484 C544.162,412.954 545.44,412 547.15,412 C549.256,412 550.642,413.116 550.642,415.42 L550.642,421.216 L549.454,421.216 L549.202,419.938 C548.536,420.892 547.6,421.36 546.358,421.36 C544.72,421.36 543.55,420.46 543.55,418.606 Z M545.098,418.606 C545.098,419.47 545.638,419.992 546.592,419.992 C547.276,419.992 547.87,419.776 548.374,419.326 C548.878,418.876 549.13,418.174 549.13,417.22 L549.13,417.004 L547.51,417.004 C545.98,417.004 545.098,417.58 545.098,418.606 Z M555.034,421.216 L555.034,413.512 L558.904,413.512 L558.904,421.216 L560.416,421.216 L560.416,412.144 L553.522,412.144 L553.522,421.216 L555.034,421.216 Z M565.312,421.216 L569.488,414.52 L569.488,421.216 L571,421.216 L571,412.144 L569.416,412.144 L565.24,418.84 L565.24,412.144 L563.728,412.144 L563.728,421.216 L565.312,421.216 Z M575.77,413.512 L575.77,421.216 L577.282,421.216 L577.282,413.512 L579.712,413.512 L579.712,412.144 L573.34,412.144 L573.34,413.512 L575.77,413.512 Z M581.404,418.606 C581.404,416.68 582.97,415.636 585.508,415.636 L586.984,415.636 L586.984,415.24 C586.984,413.998 586.318,413.368 585.004,413.368 C584.05,413.368 583.312,413.908 583.114,414.79 L581.782,414.484 C582.016,412.954 583.294,412 585.004,412 C587.11,412 588.496,413.116 588.496,415.42 L588.496,421.216 L587.308,421.216 L587.056,419.938 C586.39,420.892 585.454,421.36 584.212,421.36 C582.574,421.36 581.404,420.46 581.404,418.606 Z M582.952,418.606 C582.952,419.47 583.492,419.992 584.446,419.992 C585.13,419.992 585.724,419.776 586.228,419.326 C586.732,418.876 586.984,418.174 586.984,417.22 L586.984,417.004 L585.364,417.004 C583.834,417.004 582.952,417.58 582.952,418.606 Z M590.458,421.216 C592.402,421.216 593.41,420.46 593.572,418.75 L594.112,413.512 L597.316,413.512 L597.316,421.216 L598.828,421.216 L598.828,412.144 L592.852,412.144 L592.258,418.192 C592.132,419.362 591.664,419.848 590.458,419.848 L590.458,421.216 Z M603.724,421.216 L607.9,414.52 L607.9,421.216 L609.412,421.216 L609.412,412.144 L607.828,412.144 L603.652,418.84 L603.652,412.144 L602.14,412.144 L602.14,421.216 L603.724,421.216 Z M612.04,418.732 C612.202,420.316 613.444,421.36 615.1,421.36 C615.964,421.36 616.684,421.072 617.278,420.514 C617.872,419.938 618.16,419.236 618.16,418.39 C618.16,417.58 617.926,416.914 617.458,416.392 C617.008,415.87 616.432,415.6 615.766,415.6 C615.658,415.6 615.55,415.6 615.442,415.618 L617.692,412.648 L617.692,412.144 L612.508,412.144 L612.508,413.512 L615.406,413.512 L613.696,415.924 L614.452,416.86 C614.668,416.752 614.902,416.698 615.154,416.698 C616.09,416.698 616.72,417.382 616.72,418.39 C616.72,419.344 616.036,419.992 615.1,419.992 C614.236,419.992 613.642,419.434 613.516,418.552 L612.04,418.732 Z M620.068,418.606 C620.068,416.68 621.634,415.636 624.172,415.636 L625.648,415.636 L625.648,415.24 C625.648,413.998 624.982,413.368 623.668,413.368 C622.714,413.368 621.976,413.908 621.778,414.79 L620.446,414.484 C620.68,412.954 621.958,412 623.668,412 C625.774,412 627.16,413.116 627.16,415.42 L627.16,421.216 L625.972,421.216 L625.72,419.938 C625.054,420.892 624.118,421.36 622.876,421.36 C621.238,421.36 620.068,420.46 620.068,418.606 Z M621.616,418.606 C621.616,419.47 622.156,419.992 623.11,419.992 C623.794,419.992 624.388,419.776 624.892,419.326 C625.396,418.876 625.648,418.174 625.648,417.22 L625.648,417.004 L624.028,417.004 C622.498,417.004 621.616,417.58 621.616,418.606 Z M636.016,421.216 L636.016,423.268 L637.222,423.268 L637.546,419.848 L636.934,419.848 L636.934,412.144 L635.422,412.144 L635.422,419.848 L631.552,419.848 L631.552,412.144 L630.04,412.144 L630.04,421.216 L636.016,421.216 Z M641.686,421.216 L645.862,414.52 L645.862,421.216 L647.374,421.216 L647.374,412.144 L645.79,412.144 L641.614,418.84 L641.614,412.144 L640.102,412.144 L640.102,421.216 L641.686,421.216 Z M652.198,421.216 L650.686,421.216 L650.686,412.144 L652.198,412.144 L652.198,415.996 L653.872,415.996 C654.016,414.862 654.466,413.908 655.24,413.152 C656.014,412.378 657.004,412 658.192,412 C659.506,412 660.55,412.468 661.342,413.386 C662.152,414.304 662.548,415.402 662.548,416.68 C662.548,417.958 662.152,419.074 661.342,419.992 C660.55,420.91 659.506,421.36 658.192,421.36 C657.004,421.36 656.014,420.982 655.24,420.226 C654.466,419.452 654.016,418.498 653.872,417.364 L652.198,417.364 L652.198,421.216 Z M656.122,414.358 C655.636,415.006 655.384,415.78 655.384,416.68 C655.384,417.58 655.636,418.354 656.122,419.02 C656.626,419.668 657.31,419.992 658.192,419.992 C659.074,419.992 659.758,419.668 660.244,419.02 C660.748,418.354 661,417.58 661,416.68 C661,415.78 660.748,415.006 660.244,414.358 C659.758,413.692 659.074,413.368 658.192,413.368 C657.31,413.368 656.626,413.692 656.122,414.358 Z M671.674,421.216 L671.674,412.036 L674.842,420.064 L675.958,420.064 L679.126,412.036 L679.126,421.216 L680.71,421.216 L680.71,408.616 L678.766,408.616 L675.4,417.49 L672.034,408.616 L670.09,408.616 L670.09,421.216 L671.674,421.216 Z M685.786,421.216 L685.786,411.406 L691.474,421.216 L693.328,421.216 L693.328,408.616 L691.744,408.616 L691.744,418.462 L686.056,408.616 L684.202,408.616 L684.202,421.216 L685.786,421.216 Z M698.98,410.128 L698.98,421.216 L700.564,421.216 L700.564,410.128 L704.2,410.128 L704.2,408.616 L695.344,408.616 L695.344,410.128 L698.98,410.128 Z" id="на-поддержку,-капита" fill="#1A5692"></path>
                <path d="M563.61,323.79 C560.46,323.79 558.96,325.8 558.96,329.04 C558.96,334.95 565.98,335.4 565.98,340.08 C565.98,341.97 565.2,343.08 563.52,343.08 C561.84,343.08 561.06,341.97 561.06,340.08 L561.06,338.76 L558.87,338.76 L558.87,339.96 C558.87,343.14 560.37,345.21 563.58,345.21 C566.79,345.21 568.32,343.14 568.32,339.96 C568.32,334.05 561.27,333.6 561.27,328.89 C561.27,327.03 561.99,325.92 563.67,325.92 C565.35,325.92 566.07,327.03 566.07,328.92 L566.07,329.61 L568.29,329.61 L568.29,329.04 C568.29,325.86 566.79,323.79 563.61,323.79 Z M581.43,328.11 L581.43,345 L583.65,345 L583.65,324 L580.38,324 L577.05,340.77 L573.6,324 L570.33,324 L570.33,345 L572.37,345 L572.37,328.26 L575.85,344.97 L578.1,344.97 L581.43,328.11 Z M593.73,340.77 L588.42,340.77 L587.61,345 L585.45,345 L589.47,324 L592.86,324 L596.88,345 L594.54,345 L593.73,340.77 Z M591.03,326.64 L588.72,338.76 L593.4,338.76 L591.03,326.64 Z M598.71,324 L603.39,324 C606.69,324 608.07,325.68 608.07,328.8 L608.07,330.51 C608.07,332.82 607.26,334.26 605.46,334.83 C607.38,335.4 608.1,336.96 608.1,339.21 L608.1,342.48 C608.1,343.41 608.13,344.28 608.52,345 L606.15,345 C605.88,344.4 605.76,343.86 605.76,342.45 L605.76,339.15 C605.76,336.78 604.65,336.03 602.7,336.03 L601.05,336.03 L601.05,345 L598.71,345 L598.71,324 Z M601.05,333.9 L602.79,333.9 C604.65,333.9 605.76,333.3 605.76,331.02 L605.76,329.01 C605.76,327.12 605.07,326.13 603.33,326.13 L601.05,326.13 L601.05,333.9 Z M615.93,345 L615.93,326.13 L619.8,326.13 L619.8,324 L609.72,324 L609.72,326.13 L613.59,326.13 L613.59,345 L615.93,345 Z M625.95,323.79 C622.74,323.79 621.24,325.89 621.24,329.07 L621.24,339.93 C621.24,343.11 622.74,345.21 625.95,345.21 C629.19,345.21 630.69,343.11 630.69,339.93 L630.69,337.32 L628.47,337.32 L628.47,340.05 C628.47,341.94 627.72,343.08 626.01,343.08 C624.33,343.08 623.55,341.94 623.55,340.05 L623.55,328.95 C623.55,327.06 624.33,325.92 626.01,325.92 C627.72,325.92 628.47,327.06 628.47,328.95 L628.47,330.96 L630.69,330.96 L630.69,329.07 C630.69,325.89 629.19,323.79 625.95,323.79 Z M632.64,339.93 L632.64,329.07 C632.64,325.86 634.23,323.79 637.44,323.79 C640.68,323.79 642.27,325.86 642.27,329.07 L642.27,339.93 C642.27,343.11 640.68,345.21 637.44,345.21 C634.23,345.21 632.64,343.11 632.64,339.93 Z M634.95,328.95 L634.95,340.05 C634.95,341.97 635.76,343.08 637.44,343.08 C639.15,343.08 639.93,341.97 639.93,340.05 L639.93,328.95 C639.93,327.06 639.15,325.92 637.44,325.92 C635.76,325.92 634.95,327.06 634.95,328.95 Z M646.56,328.02 L651.93,345 L654.36,345 L654.36,324 L652.29,324 L652.29,339.18 L647.43,324 L644.46,324 L644.46,345 L646.56,345 L646.56,328.02 Z M662.16,345 L662.16,326.13 L666.03,326.13 L666.03,324 L655.95,324 L655.95,326.13 L659.82,326.13 L659.82,345 L662.16,345 Z M667.65,324 L672.33,324 C675.63,324 677.01,325.68 677.01,328.8 L677.01,330.51 C677.01,332.82 676.2,334.26 674.4,334.83 C676.32,335.4 677.04,336.96 677.04,339.21 L677.04,342.48 C677.04,343.41 677.07,344.28 677.46,345 L675.09,345 C674.82,344.4 674.7,343.86 674.7,342.45 L674.7,339.15 C674.7,336.78 673.59,336.03 671.64,336.03 L669.99,336.03 L669.99,345 L667.65,345 L667.65,324 Z M669.99,333.9 L671.73,333.9 C673.59,333.9 674.7,333.3 674.7,331.02 L674.7,329.01 C674.7,327.12 674.01,326.13 672.27,326.13 L669.99,326.13 L669.99,333.9 Z M687.15,340.77 L681.84,340.77 L681.03,345 L678.87,345 L682.89,324 L686.28,324 L690.3,345 L687.96,345 L687.15,340.77 Z M684.45,326.64 L682.14,338.76 L686.82,338.76 L684.45,326.64 Z M696.66,323.79 C693.45,323.79 691.95,325.89 691.95,329.07 L691.95,339.93 C691.95,343.11 693.45,345.21 696.66,345.21 C699.9,345.21 701.4,343.11 701.4,339.93 L701.4,337.32 L699.18,337.32 L699.18,340.05 C699.18,341.94 698.43,343.08 696.72,343.08 C695.04,343.08 694.26,341.94 694.26,340.05 L694.26,328.95 C694.26,327.06 695.04,325.92 696.72,325.92 C698.43,325.92 699.18,327.06 699.18,328.95 L699.18,330.96 L701.4,330.96 L701.4,329.07 C701.4,325.89 699.9,323.79 696.66,323.79 Z M708.93,345 L708.93,326.13 L712.8,326.13 L712.8,324 L702.72,324 L702.72,326.13 L706.59,326.13 L706.59,345 L708.93,345 Z" id="SMARTCONTRACT" fill="#1A5692"></path>
                <g id="Group-2" transform="translate(127.000000, 426.000000)" fill="#1A5692">
                    <path d="M84.1184529,22.003291 L18.5227621,22.003291 C18.145471,20.2866657 17.771423,18.5851505 17.3741322,16.7762451 L84.9811416,16.7762451 C84.6849302,18.5716593 84.4076374,20.2505091 84.1184529,22.003291 M87.1621872,11.0667524 L17.7043971,11.0667524 L16.1282065,11.0667524 C15.7179429,9.15855148 15.3384896,7.40307137 14.9644416,5.6459723 C14.7028242,4.41719019 14.0768884,3.51111852 12.8244764,3.10422273 C9.87425403,2.14364646 6.93484234,1.14637402 3.97867417,0.203606189 C2.15059577,-0.378675718 0.610080261,0.321789449 0.138736569,1.87274237 C-0.345039353,3.46362936 0.452244988,4.84729091 2.28248552,5.48407742 C4.27596663,6.17752715 6.26296137,6.91199024 8.29968503,7.45110018 C9.43642331,7.75222465 9.86614606,8.35069604 10.0974936,9.42351943 C13.0412296,23.0739558 15.9984788,36.7216939 19.0151866,50.3564805 C19.40491,52.118976 19.3913967,53.7794778 18.9730251,55.5155305 C18.3119548,58.2645055 17.746018,61.0383044 17.1746759,63.8088654 C16.5838747,66.6765633 17.6654788,67.9987048 20.5675938,67.9987048 C39.7564711,68.0008634 58.9448079,68.0003238 78.1336853,67.9970859 C78.5834077,67.9970859 79.0423192,68.0132754 79.4801499,67.9296297 C80.7866152,67.6803116 81.7152487,66.5675541 81.7465996,65.277252 C81.7801125,63.949714 80.9606664,62.8418134 79.6217692,62.5363717 C79.0163737,62.3982214 78.3726003,62.3852698 77.7466646,62.3847302 C60.1793825,62.3771751 42.6126409,62.378794 25.0453588,62.378794 L23.2124157,62.378794 C23.6734892,60.1392482 24.0415914,58.1085468 24.5502318,56.1140019 C24.6350952,55.7799588 25.3102194,55.4173143 25.7415637,55.3773802 C29.1469138,55.0606059 32.5587503,54.8150654 35.9689651,54.553875 C51.4962803,53.3677252 67.0241361,52.1842736 82.5519919,50.9975842 C84.2973689,50.8632114 85.2281646,50.001391 85.5157275,48.2410541 C87.3038065,37.2926432 89.0875613,26.3442323 90.8702351,15.3952818 C91.387524,12.2172854 90.3994319,11.0667524 87.1621872,11.0667524" id="Fill-1"></path>
                    <path d="M68.9364732,84.5254428 C67.0113093,84.4873184 65.5261374,82.9766404 65.5160774,81.0471239 C65.5060174,79.0524783 67.026664,77.5158546 69.0121878,77.5142661 C70.9966528,77.5132071 72.4966499,79.0440062 72.4828836,81.0571845 C72.4701762,83.0576547 70.9294097,84.5640966 68.9364732,84.5254428 M69.0275426,72.0000002 C64.110856,71.9989412 60.0127347,76.0846024 60.0000274,80.9994685 C59.9878495,85.9339263 64.0436129,89.9952302 68.9904795,89.9999958 C73.9617018,90.0047613 77.9936389,85.9948194 77.9999926,81.0391814 C78.0063463,76.1052531 73.9325807,72.0010592 69.0275426,72.0000002" id="Fill-4"></path>
                    <path d="M25.9846089,84.5254769 C24.0055697,84.5180639 22.4667291,82.9608005 22.4884476,80.9847015 C22.5096365,79.009132 24.0760227,77.4841682 26.0545321,77.5143498 C27.9625885,77.5434723 29.4701756,79.0679067 29.486597,80.9857605 C29.5051372,82.959212 27.9482861,84.5323604 25.9846089,84.5254769 M26.0047383,72.0001229 C21.0910426,71.9741773 17.0047718,76.0603391 17.0000043,81.004293 C16.9952368,85.9853121 20.9909253,89.9931077 25.9687172,89.9999912 C30.9279689,90.0068747 34.9808673,85.9847826 34.9999373,81.0376516 C35.0184775,76.1397643 30.9237311,72.0260684 26.0047383,72.0001229" id="Fill-7"></path>
                </g>
            </g>
        </g>
    </g>
</svg>