<?xml version="1.0" encoding="UTF-8"?>
<svg width="276px" height="281px" viewBox="0 0 276 281" version="1.1" xmlns="http://www.w3.org/2000/svg" xmlns:xlink="http://www.w3.org/1999/xlink">
    <!-- Generator: Sketch 47.1 (45422) - http://www.bohemiancoding.com/sketch -->
    <title>Combined Shape Copy 2</title>
    <desc>Created with Sketch.</desc>
    <defs></defs>
    <g id="Page-1" stroke="none" stroke-width="1" fill="none" fill-rule="evenodd">
        <path d="M125,105.411691 L125,134 L28,81.5883091 L28,53 L125,105.411691 Z M133,133 L133,105 L147,105 L147,133 L133,133 Z M154,132 L154,103.608354 L251.101991,48 L252,76.3293482 L154,132 Z M149.559034,147 L176,161.245638 L173.01446,175 L147,160.754362 L149.559034,147 Z M154,142.050653 L254.99608,84 L276,95.6108811 L181.707698,155 L154,142.050653 Z M143,262.223338 L143,167 L171,179.070264 L171,281 L143,262.223338 Z M126.440966,147 L129,160.754362 L102.98554,175 L100,161.245638 L126.440966,147 Z M0,95.6108811 L21.0041353,84 L122,142.050653 L94.2932696,155 L0,95.6108811 Z M105,179.070264 L133,167 L133,262.223338 L105,281 L105,179.070264 Z M129.70171,0 L149.04307,0 L245,46.7236753 L149.04307,100 L129.70171,100 L33,47.6189282 L129.70171,0 Z M148.409277,19.029706 L151.797097,47.8581743 L125.527611,19.0891181 L113.376144,19.1200619 L109,66.8440433 L123.813506,66.8824136 L124.593563,32.7650335 L153.237299,66.9591542 L169,67 L160.026822,19 L148.409277,19.029706 Z M95.9468497,162.933803 L99.5495098,177.355181 L100,281 L7.05641854,213.14984 C2.62218128,209.911846 0,204.749993 0,199.257397 L0,103 L95.9468497,162.933803 Z M63.498275,231.314598 L77,241 L76.7980136,174.075582 L61.5712493,164.889441 L45.5503398,194.804176 L29.9120753,145.789947 L17,138 L17.5871406,198.377046 L28.9861997,206.555995 L28.6662833,168.617168 L41.2245687,209.641994 L50.1834814,215.976281 L63.3151072,191.042999 L63.498275,231.314598 Z M176.450485,177.355181 L180.053099,162.935066 L276,103 L276,203.79185 L276,209.1115 C276,213.754518 273.641581,218.079416 269.739905,220.592806 L268.85534,221.1634 L176,281 L176.450485,177.355181 Z M204.08165,168.665728 L204,180.9711 L224.269027,168.54775 L225.39852,231 L239.396569,221.329475 L237.305831,160.557185 L256,149.101011 L255.351747,138 L204.08165,168.665728 Z" id="Combined-Shape-Copy-2" fill="#FFFFFF"></path>
    </g>
</svg>