<?xml version="1.0" encoding="UTF-8"?>
<svg width="713px" height="582px" viewBox="0 0 713 582" version="1.1" xmlns="http://www.w3.org/2000/svg" xmlns:xlink="http://www.w3.org/1999/xlink">
    <!-- Generator: Sketch 47.1 (45422) - http://www.bohemiancoding.com/sketch -->
    <title>Group 23</title>
    <desc>Created with Sketch.</desc>
    <defs></defs>
    <g id="Page-1" stroke="none" stroke-width="1" fill="none" fill-rule="evenodd">
        <g id="mountaintoken" transform="translate(-370.000000, -11282.000000)">
            <g id="Group-23" transform="translate(369.000000, 11282.000000)">
                <path d="M343.7,291.225156 L343.7,304.251534 L299.6,280.369936 L299.6,267.343558 L343.7,291.225156 Z M347.6375,303.466258 L347.6375,290.90184 L353.9375,290.90184 L353.9375,303.466258 L347.6375,303.466258 Z M357.0875,303.466258 L357.0875,290.460677 L401.56368,264.98773 L401.975,277.964773 L357.0875,303.466258 Z M355.118847,309.748466 L367.325,316.1409 L365.946761,322.312883 L353.9375,315.92045 L355.118847,309.748466 Z M357.0875,307.802715 L403.373921,281.478528 L413,286.743706 L369.785915,313.674847 L357.0875,307.802715 Z M352.3625,362.4635 L352.3625,319.171779 L364.9625,324.659326 L364.9625,371 L352.3625,362.4635 Z M344.881153,309.748466 L346.0625,315.92045 L334.053239,322.312883 L332.675,316.1409 L344.881153,309.748466 Z M287,286.743706 L296.626178,281.478528 L342.9125,307.802715 L330.214528,313.674847 L287,286.743706 Z M335.0375,324.659326 L347.6375,319.171779 L347.6375,362.4635 L335.0375,371 L335.0375,324.659326 Z M346.145374,243 L354.982415,243 L398.825,264.280771 L354.982415,288.546012 L346.145374,288.546012 L301.9625,264.688523 L346.145374,243 Z M354.716137,251.651644 L356.272416,264.857323 L344.204871,251.67886 L338.622791,251.693034 L336.6125,273.554327 L343.417454,273.571903 L343.775793,257.943492 L356.934009,273.607056 L364.175,273.625767 L360.052947,251.638037 L354.716137,251.651644 Z M330.823724,317.350564 L332.469239,323.903657 L332.675,371 L290.223019,340.168797 C288.197681,338.697449 287,336.351896 287,333.856053 L287,290.116564 L330.823724,317.350564 Z M316.235145,348.508137 L322.4375,352.93865 L322.344712,322.324586 L315.349918,318.122456 L307.990312,331.806723 L300.806485,309.385538 L294.875,305.822086 L295.144718,333.441105 L300.38116,337.182503 L300.234199,319.827676 L306.003161,338.59417 L310.118662,341.491741 L316.151002,330.086201 L316.235145,348.508137 Z M367.530759,323.903657 L369.176253,317.351138 L413,290.116564 L413,335.916514 L413,338.333771 C413,340.443564 411.922792,342.408803 410.140702,343.550891 L409.736677,343.81017 L367.325,371 L367.530759,323.903657 Z M379.962096,319.804638 L379.925,325.415479 L389.133765,319.750844 L389.646924,348.226994 L396.006614,343.817556 L395.056736,316.107412 L403.55,310.883778 L403.255481,305.822086 L379.962096,319.804638 Z" id="Combined-Shape-Copy-2" fill="#1A5692"></path>
                <path d="M66.124,580 L69.004,580 L62.416,566.284 L68.788,554.8 L65.944,554.8 L59.248,566.968 L59.248,554.8 L56.44,554.8 L56.44,580 L59.248,580 L59.248,571.54 L60.724,569.056 L66.124,580 Z M80.38,574.924 L74.008,574.924 L73.036,580 L70.444,580 L75.268,554.8 L79.336,554.8 L84.16,580 L81.352,580 L80.38,574.924 Z M77.14,557.968 L74.368,572.512 L79.984,572.512 L77.14,557.968 Z M86.356,554.8 L91.864,554.8 C95.824,554.8 97.516,557.14 97.516,560.956 L97.516,563.98 C97.516,567.976 95.644,570.064 91.648,570.064 L89.164,570.064 L89.164,580 L86.356,580 L86.356,554.8 Z M89.164,567.544 L91.648,567.544 C93.736,567.544 94.744,566.572 94.744,564.16 L94.744,560.812 C94.744,558.508 93.916,557.356 91.864,557.356 L89.164,557.356 L89.164,567.544 Z M102.52,564.736 L105.004,564.736 C109,564.736 110.872,566.824 110.872,570.82 L110.872,573.844 C110.872,577.66 109.144,580 105.22,580 L99.712,580 L99.712,554.8 L102.52,554.8 L102.52,564.736 Z M102.52,577.444 L105.22,577.444 C107.272,577.444 108.1,576.292 108.1,573.988 L108.1,570.64 C108.1,568.192 107.092,567.256 105.004,567.256 L102.52,567.256 L102.52,577.444 Z M116.236,565.96 L116.236,557.356 L123.796,557.356 L123.796,554.8 L113.428,554.8 L113.428,580 L123.796,580 L123.796,577.444 L116.236,577.444 L116.236,568.48 L122.392,568.48 L122.392,565.96 L116.236,565.96 Z M126.388,554.8 L131.896,554.8 C135.856,554.8 137.548,557.14 137.548,560.956 L137.548,563.98 C137.548,567.976 135.676,570.064 131.68,570.064 L129.196,570.064 L129.196,580 L126.388,580 L126.388,554.8 Z M129.196,567.544 L131.68,567.544 C133.768,567.544 134.776,566.572 134.776,564.16 L134.776,560.812 C134.776,558.508 133.948,557.356 131.896,557.356 L129.196,557.356 L129.196,567.544 Z" id="КАРЬЕР" fill="#1A5692"></path>
                <path d="M163.606784,520.157105 C163.729971,520.371257 163.824146,520.602845 164,520.967217 L162.451685,520.967217 C136.976568,520.967217 111.501004,521.032938 86.0263334,520.902837 C81.7536264,520.881377 77.8924347,521.815777 74.1231868,523.621986 C70.5070297,525.354426 66.9292569,527.191484 63.2193707,528.698148 C58.5530016,530.592879 53.6862308,531.645756 48.6203972,530.566501 C43.3778175,529.449245 39.6915867,526.521756 38.1794242,521.197911 C38.1392546,521.055292 38.0790002,520.918038 37.9982147,520.695391 L26,520.695391 L26,491.382946 L36.6900245,491.382946 L36.6900245,474.993389 C35.9763446,474.993389 35.2814104,474.993837 34.5864762,474.993389 C32.8386521,474.993389 31.0903816,475.008143 29.3425575,474.987577 C27.7692479,474.969247 27.4108458,474.546755 27.420665,472.819233 C27.4295916,471.308545 27.8460165,470.861463 29.3220263,470.859675 C35.3470208,470.852522 41.3715688,470.852074 47.3965633,470.860569 C48.8359741,470.862357 49.2385628,471.320616 49.2457041,472.866623 C49.253738,474.534237 48.9020308,474.969694 47.3974559,474.985342 C44.9453247,475.010826 42.4931935,474.992048 39.9584914,474.992048 L39.9584914,491.301578 L50.8538273,491.301578 L50.8538273,520.62967 L41.1635796,520.62967 C41.8893104,523.377879 43.4679759,525.237738 45.7969203,526.473471 C48.679759,528.003384 51.7826378,528.056139 54.9310422,527.739159 C59.5469761,527.273747 63.6027672,525.264116 67.628208,523.155233 C69.0270029,522.422467 70.4632894,521.760339 71.8585137,520.854552 L54.0089266,520.854552 L54.0089266,488.455904 L45.8152198,488.455904 C52.8627538,476.19425 59.7750502,464.166866 66.7257309,452.073315 C68.6699397,453.262104 70.5637135,454.359689 72.3874135,455.563232 C73.181879,456.087211 73.7420219,456.13639 74.5355947,455.532383 C76.1289891,454.319004 77.8214684,453.235726 79.4934166,452.084939 C81.4336086,453.328272 83.3532694,454.533603 85.2421335,455.786326 C85.7540728,456.126107 86.1187235,456.130578 86.6284312,455.77336 C88.0897121,454.749991 89.6232984,453.828556 91.0685115,452.783727 C91.724615,452.309821 92.204865,452.371518 92.8408837,452.775232 C94.4414193,453.790107 96.1035483,454.707518 97.6956037,455.734911 C98.3267128,456.142202 98.7783977,456.100177 99.3996876,455.720158 C101.423789,454.481742 103.491631,453.313965 105.594733,452.088962 C110.505244,460.592451 115.376032,469.027535 120.316001,477.582438 C120.665476,476.99855 120.968087,476.510784 121.253738,476.013629 C123.033698,472.918038 124.795805,469.813057 126.59094,466.726407 C128.229413,463.908453 131.323365,463.89817 132.95559,466.738479 C143.184557,484.53813 153.393439,502.348512 163.606784,520.157105 Z M110.56532,412.976359 C110.272528,412.912874 109.863245,412.621824 109.804329,412.366987 C109.249543,409.980467 108.759473,407.578746 108.224771,405.058101 C108.707699,404.924423 109.120107,404.800582 109.537871,404.695965 C119.589199,402.183814 129.641419,399.673899 139.693193,397.162643 C142.824637,396.379804 145.068779,398.515959 144.202901,401.573548 C141.283017,411.88101 138.304218,422.171482 135.344611,432.467767 C135.315153,432.570149 135.238384,432.658671 135.123678,432.858069 C132.68449,432.239308 130.306003,431.665256 127.951172,431.00447 C127.631154,430.915053 127.296407,430.42997 127.2,430.066046 C126.68449,428.126607 126.214952,426.173755 125.79094,424.212409 C125.643651,423.531951 125.316492,423.219441 124.650569,423.085317 C122.940683,422.741958 121.249989,422.297559 119.535193,421.986391 C118.810801,421.854949 118.559518,421.507567 118.436778,420.838733 C118.094443,418.971721 117.678018,417.118121 117.325865,415.252004 C117.194198,414.55411 116.939344,414.175432 116.142647,414.056955 C114.271189,413.777976 112.4158,413.378286 110.56532,412.976359 Z M55.6644945,439.059893 C55.5332738,438.940969 55.4449007,438.774208 55.1623745,438.396424 C59.2739567,438.224745 63.1900469,438.062007 67.3373354,437.888987 C64.3777282,432.143544 61.515867,426.588557 58.6540058,421.033571 C58.738362,420.956673 58.8222718,420.879328 58.9061817,420.80243 C63.4917652,424.005321 68.0777951,427.208659 72.6633787,430.41155 C72.770944,430.376678 72.8780629,430.341358 72.9856282,430.306039 C72.4161125,423.685658 71.8465967,417.065723 71.2766347,410.445342 C71.3792903,410.405999 71.481946,410.366656 71.5846017,410.327313 C74.5504575,415.145956 77.515867,419.964152 80.4817228,424.782348 C80.5919661,424.751947 80.7022093,424.721098 80.8124526,424.69025 C82.5290337,416.662903 84.2460611,408.63511 85.9630886,400.607763 C86.055925,400.621623 86.1487614,400.635482 86.2411515,400.648895 C87.95684,408.713796 89.6725285,416.777803 91.4578442,425.170862 C94.6084802,420.052227 97.5953135,415.2005 100.582147,410.348325 C100.687927,410.369785 100.794153,410.390798 100.899933,410.411811 C100.331756,417.023698 99.7635796,423.635585 99.1949565,430.247471 C99.2819906,430.313639 99.3685784,430.378913 99.4551663,430.444634 C104.065298,427.230566 108.67543,424.016051 113.286008,420.801536 L113.543539,420.995122 C110.684356,426.543849 107.825173,432.092576 104.840571,437.884963 C108.956617,438.055301 112.888775,438.218039 117.098549,438.3924 C116.683017,438.835011 116.463423,439.10326 116.209462,439.333954 C113.043651,442.210475 109.865789,445.074926 106.707565,447.960389 C106.03584,448.574232 105.348047,448.759324 104.624548,448.159788 C103.932738,447.587076 103.953716,446.639711 104.730774,445.897109 C105.967106,444.71592 107.275296,443.610734 108.549119,442.468888 C108.86869,442.182309 109.171747,441.877847 109.482392,441.581879 L109.398482,441.285911 C106.345593,441.149104 103.292256,441.012297 99.9572863,440.862525 C101.754653,437.350254 103.480607,433.977919 105.207007,430.605584 C105.129346,430.525556 105.052131,430.445976 104.97447,430.365948 C101.932292,432.462313 98.8896675,434.558677 95.6091497,436.819121 C96.0157554,432.052786 96.396474,427.594043 96.7767463,423.135748 C96.6785539,423.093275 96.5799152,423.050802 96.4817228,423.008329 C94.429056,426.291248 92.3763892,429.57372 90.3237224,432.856638 C90.2112475,432.832943 90.0987726,432.809248 89.9862977,432.785552 C88.738362,426.899726 87.4908726,421.013899 86.2429368,415.128073 C86.1492078,415.118684 86.0554787,415.109295 85.9617496,415.099459 C84.6972997,421.027759 83.4324035,426.955611 82.1675073,432.883463 C82.0706539,432.891958 81.9738005,432.900452 81.8769471,432.908947 L75.7725061,423.107134 C75.6631555,423.130383 75.553805,423.153184 75.444008,423.176432 C75.7970542,427.587337 76.1505468,431.998242 76.5343896,436.789613 C73.2507476,434.52604 70.2277617,432.442194 67.2043294,430.358348 L66.9454586,430.55864 C68.6763222,433.92561 70.4071859,437.292133 72.3277393,441.028839 L62.9802723,441.028839 C62.9374247,441.170117 62.8945771,441.310948 62.8517295,441.452225 C63.1735327,441.769653 63.4828387,442.10094 63.8193707,442.401826 C65.0119616,443.467668 66.224191,444.511603 67.4083017,445.586387 C68.2371346,446.338825 68.3545191,447.291108 67.7466191,447.948765 C67.2074537,448.532206 66.194287,448.53623 65.4484713,447.870526 C62.1755412,444.946614 58.9213568,442.001688 55.6644945,439.059893 Z" id="Combined-Shape" fill="#1A5692"></path>
                <path d="M563.732,555.548 C559.952,555.548 558.152,557.96 558.152,561.848 C558.152,568.94 566.576,569.48 566.576,575.096 C566.576,577.364 565.64,578.696 563.624,578.696 C561.608,578.696 560.672,577.364 560.672,575.096 L560.672,573.512 L558.044,573.512 L558.044,574.952 C558.044,578.768 559.844,581.252 563.696,581.252 C567.548,581.252 569.384,578.768 569.384,574.952 C569.384,567.86 560.924,567.32 560.924,561.668 C560.924,559.436 561.788,558.104 563.804,558.104 C565.82,558.104 566.684,559.436 566.684,561.704 L566.684,562.532 L569.348,562.532 L569.348,561.848 C569.348,558.032 567.548,555.548 563.732,555.548 Z M578.24,581 L578.24,558.356 L582.884,558.356 L582.884,555.8 L570.824,555.8 L570.824,558.356 L575.468,558.356 L575.468,581 L578.24,581 Z M584.576,574.916 L584.576,561.884 C584.576,558.032 586.484,555.548 590.336,555.548 C594.224,555.548 596.132,558.032 596.132,561.884 L596.132,574.916 C596.132,578.732 594.224,581.252 590.336,581.252 C586.484,581.252 584.576,578.732 584.576,574.916 Z M587.348,561.74 L587.348,575.06 C587.348,577.364 588.32,578.696 590.336,578.696 C592.388,578.696 593.324,577.364 593.324,575.06 L593.324,561.74 C593.324,559.472 592.388,558.104 590.336,558.104 C588.32,558.104 587.348,559.472 587.348,561.74 Z M601.28,560.624 L607.724,581 L610.64,581 L610.64,555.8 L608.156,555.8 L608.156,574.016 L602.324,555.8 L598.76,555.8 L598.76,581 L601.28,581 L601.28,560.624 Z M616.328,566.96 L616.328,558.356 L623.888,558.356 L623.888,555.8 L613.52,555.8 L613.52,581 L623.888,581 L623.888,578.444 L616.328,578.444 L616.328,569.48 L622.484,569.48 L622.484,566.96 L616.328,566.96 Z M639.764,560.732 L639.764,581 L642.428,581 L642.428,555.8 L638.504,555.8 L634.508,575.924 L630.368,555.8 L626.444,555.8 L626.444,581 L628.892,581 L628.892,560.912 L633.068,580.964 L635.768,580.964 L639.764,560.732 Z M654.524,575.924 L648.152,575.924 L647.18,581 L644.588,581 L649.412,555.8 L653.48,555.8 L658.304,581 L655.496,581 L654.524,575.924 Z M651.284,558.968 L648.512,573.512 L654.128,573.512 L651.284,558.968 Z M660.5,555.8 L666.116,555.8 C670.076,555.8 671.732,557.816 671.732,561.56 L671.732,563.612 C671.732,566.384 670.76,568.112 668.6,568.796 C670.904,569.48 671.768,571.352 671.768,574.052 L671.768,577.976 C671.768,579.092 671.804,580.136 672.272,581 L669.428,581 C669.104,580.28 668.96,579.632 668.96,577.94 L668.96,573.98 C668.96,571.136 667.628,570.236 665.288,570.236 L663.308,570.236 L663.308,581 L660.5,581 L660.5,555.8 Z M663.308,567.68 L665.396,567.68 C667.628,567.68 668.96,566.96 668.96,564.224 L668.96,561.812 C668.96,559.544 668.132,558.356 666.044,558.356 L663.308,558.356 L663.308,567.68 Z M684.368,581 L687.248,581 L680.66,567.284 L687.032,555.8 L684.188,555.8 L677.492,567.968 L677.492,555.8 L674.684,555.8 L674.684,581 L677.492,581 L677.492,572.54 L678.968,570.056 L684.368,581 Z M692.216,566.96 L692.216,558.356 L699.776,558.356 L699.776,555.8 L689.408,555.8 L689.408,581 L699.776,581 L699.776,578.444 L692.216,578.444 L692.216,569.48 L698.372,569.48 L698.372,566.96 L692.216,566.96 Z M708.776,581 L708.776,558.356 L713.42,558.356 L713.42,555.8 L701.36,555.8 L701.36,558.356 L706.004,558.356 L706.004,581 L708.776,581 Z" id="StoneMarket" fill="#1A5692"></path>
                <path d="M6.732,9.548 C2.952,9.548 1.152,11.96 1.152,15.848 C1.152,22.94 9.576,23.48 9.576,29.096 C9.576,31.364 8.64,32.696 6.624,32.696 C4.608,32.696 3.672,31.364 3.672,29.096 L3.672,27.512 L1.044,27.512 L1.044,28.952 C1.044,32.768 2.844,35.252 6.696,35.252 C10.548,35.252 12.384,32.768 12.384,28.952 C12.384,21.86 3.924,21.32 3.924,15.668 C3.924,13.436 4.788,12.104 6.804,12.104 C8.82,12.104 9.684,13.436 9.684,15.704 L9.684,16.532 L12.348,16.532 L12.348,15.848 C12.348,12.032 10.548,9.548 6.732,9.548 Z M28.116,14.732 L28.116,35 L30.78,35 L30.78,9.8 L26.856,9.8 L22.86,29.924 L18.72,9.8 L14.796,9.8 L14.796,35 L17.244,35 L17.244,14.912 L21.42,34.964 L24.12,34.964 L28.116,14.732 Z M42.876,29.924 L36.504,29.924 L35.532,35 L32.94,35 L37.764,9.8 L41.832,9.8 L46.656,35 L43.848,35 L42.876,29.924 Z M39.636,12.968 L36.864,27.512 L42.48,27.512 L39.636,12.968 Z M48.852,9.8 L54.468,9.8 C58.428,9.8 60.084,11.816 60.084,15.56 L60.084,17.612 C60.084,20.384 59.112,22.112 56.952,22.796 C59.256,23.48 60.12,25.352 60.12,28.052 L60.12,31.976 C60.12,33.092 60.156,34.136 60.624,35 L57.78,35 C57.456,34.28 57.312,33.632 57.312,31.94 L57.312,27.98 C57.312,25.136 55.98,24.236 53.64,24.236 L51.66,24.236 L51.66,35 L48.852,35 L48.852,9.8 Z M51.66,21.68 L53.748,21.68 C55.98,21.68 57.312,20.96 57.312,18.224 L57.312,15.812 C57.312,13.544 56.484,12.356 54.396,12.356 L51.66,12.356 L51.66,21.68 Z M69.516,35 L69.516,12.356 L74.16,12.356 L74.16,9.8 L62.064,9.8 L62.064,12.356 L66.708,12.356 L66.708,35 L69.516,35 Z M81.54,9.548 C77.688,9.548 75.888,12.068 75.888,15.884 L75.888,28.916 C75.888,32.732 77.688,35.252 81.54,35.252 C85.428,35.252 87.228,32.732 87.228,28.916 L87.228,25.784 L84.564,25.784 L84.564,29.06 C84.564,31.328 83.664,32.696 81.612,32.696 C79.596,32.696 78.66,31.328 78.66,29.06 L78.66,15.74 C78.66,13.472 79.596,12.104 81.612,12.104 C83.664,12.104 84.564,13.472 84.564,15.74 L84.564,18.152 L87.228,18.152 L87.228,15.884 C87.228,12.068 85.428,9.548 81.54,9.548 Z M89.568,28.916 L89.568,15.884 C89.568,12.032 91.476,9.548 95.328,9.548 C99.216,9.548 101.124,12.032 101.124,15.884 L101.124,28.916 C101.124,32.732 99.216,35.252 95.328,35.252 C91.476,35.252 89.568,32.732 89.568,28.916 Z M92.34,15.74 L92.34,29.06 C92.34,31.364 93.312,32.696 95.328,32.696 C97.38,32.696 98.316,31.364 98.316,29.06 L98.316,15.74 C98.316,13.472 97.38,12.104 95.328,12.104 C93.312,12.104 92.34,13.472 92.34,15.74 Z M106.272,14.624 L112.716,35 L115.632,35 L115.632,9.8 L113.148,9.8 L113.148,28.016 L107.316,9.8 L103.752,9.8 L103.752,35 L106.272,35 L106.272,14.624 Z M124.992,35 L124.992,12.356 L129.636,12.356 L129.636,9.8 L117.54,9.8 L117.54,12.356 L122.184,12.356 L122.184,35 L124.992,35 Z M131.58,9.8 L137.196,9.8 C141.156,9.8 142.812,11.816 142.812,15.56 L142.812,17.612 C142.812,20.384 141.84,22.112 139.68,22.796 C141.984,23.48 142.848,25.352 142.848,28.052 L142.848,31.976 C142.848,33.092 142.884,34.136 143.352,35 L140.508,35 C140.184,34.28 140.04,33.632 140.04,31.94 L140.04,27.98 C140.04,25.136 138.708,24.236 136.368,24.236 L134.388,24.236 L134.388,35 L131.58,35 L131.58,9.8 Z M134.388,21.68 L136.476,21.68 C138.708,21.68 140.04,20.96 140.04,18.224 L140.04,15.812 C140.04,13.544 139.212,12.356 137.124,12.356 L134.388,12.356 L134.388,21.68 Z M154.98,29.924 L148.608,29.924 L147.636,35 L145.044,35 L149.868,9.8 L153.936,9.8 L158.76,35 L155.952,35 L154.98,29.924 Z M151.74,12.968 L148.968,27.512 L154.584,27.512 L151.74,12.968 Z M166.392,9.548 C162.54,9.548 160.74,12.068 160.74,15.884 L160.74,28.916 C160.74,32.732 162.54,35.252 166.392,35.252 C170.28,35.252 172.08,32.732 172.08,28.916 L172.08,25.784 L169.416,25.784 L169.416,29.06 C169.416,31.328 168.516,32.696 166.464,32.696 C164.448,32.696 163.512,31.328 163.512,29.06 L163.512,15.74 C163.512,13.472 164.448,12.104 166.464,12.104 C168.516,12.104 169.416,13.472 169.416,15.74 L169.416,18.152 L172.08,18.152 L172.08,15.884 C172.08,12.068 170.28,9.548 166.392,9.548 Z M181.116,35 L181.116,12.356 L185.76,12.356 L185.76,9.8 L173.664,9.8 L173.664,12.356 L178.308,12.356 L178.308,35 L181.116,35 Z" id="SMARTCONTRACT" fill="#1A5692"></path>
                <path d="M536.761125,36.5484963 C535.187825,35.1984816 533.835833,34.0387547 532.135703,32.5802245 C531.749567,36.0002617 531.427615,38.8520071 531.088719,41.8559827 C533.009132,40.0590488 534.733909,38.4452027 536.761125,36.5484963 M507.545691,36.4070662 C509.411161,38.4441741 511.003974,40.1835073 513.111293,42.4844467 C512.65481,38.7974922 512.298455,35.9179751 511.878943,32.5272525 C510.096143,34.1230984 508.81039,35.2740824 507.545691,36.4070662 M521.589864,58.3997059 C521.35161,59.2884013 521.052251,60.165268 520.885371,61.0668207 C519.466114,68.7230756 518.072531,76.3834448 516.667138,84.0417569 C516.578306,84.5262193 516.61579,85.1634262 516.32208,85.4555437 C515.449678,86.3241817 514.441205,87.055504 513.48562,87.8397983 C512.767262,86.8323016 511.415784,85.8134905 511.433756,84.8198796 C511.545695,78.6118691 511.948263,72.4090015 512.285618,66.2061339 C512.542872,61.4803109 512.958276,56.7591166 513.049676,52.0312365 C513.071755,50.8663667 512.397557,49.373379 511.541587,48.5638844 C508.539273,45.7239677 505.29357,43.1437682 502.18548,40.4133956 C499.084578,37.6897087 498.774436,35.2190532 501.599086,32.3354218 C505.7747,28.0734896 510.186515,24.0429886 514.547495,19.9672298 C515.084594,19.4657958 515.927728,19.2929939 516.989603,18.8013314 C517.85841,21.1809574 518.674842,23.4176103 519.491274,25.653749 C519.81682,25.6558061 520.143393,25.657349 520.468939,25.6594062 C520.468939,24.2065332 520.420672,22.7521173 520.488451,21.3028444 C520.525422,20.5128929 520.5208,19.5023105 520.982418,19.0224767 C521.326449,18.6650442 522.747247,18.7164733 523.042497,19.0934489 C523.454821,19.6211118 523.307966,20.6193512 523.325425,21.4180457 C523.357774,22.8560042 523.335181,24.2955056 523.335181,25.7339784 C523.668429,25.7576358 524.00219,25.7807789 524.335952,25.8044363 C525.108738,23.6171553 525.882038,21.4298744 526.89616,18.5591002 C529.164198,19.9770014 531.511312,21.0030126 533.284357,22.6497734 C536.525952,25.6599205 539.471783,28.9971568 542.458692,32.2731926 C545.201699,35.2823111 545.046115,37.7154233 542.008884,40.384081 C538.975248,43.0501672 535.938018,45.717282 532.797578,48.2532525 C531.407076,49.3759504 531.04456,50.5742492 531.153417,52.3259254 C531.808103,62.8560402 532.370877,73.3923265 532.846872,83.9316985 C532.899247,85.0785682 532.537244,86.5936704 531.781403,87.3512215 C530.397062,88.7398081 528.355982,87.5811097 527.890256,85.1629119 C526.491538,77.9057471 525.183193,70.6310964 523.831202,63.36416 C523.518493,61.6860275 523.171894,60.0140664 522.841214,58.3395338 C522.424268,58.3595912 522.00681,58.3796486 521.589864,58.3997059 Z M548.044783,58.3453968 C547.06147,63.5397391 546.078157,68.7330528 545.095357,73.9268809 C544.399593,77.606121 543.868142,81.3280473 542.909989,84.9373438 C542.61936,86.0343271 541.238614,87.4645713 540.20498,87.6029157 C538.357995,87.8508041 537.911268,86.1721572 537.995992,84.5320822 C538.606519,72.7152105 539.190345,60.896796 539.892784,49.0855815 C539.947727,48.1629429 540.680975,47.1364174 541.373659,46.4266954 C542.675329,45.0910808 544.237333,44.0146691 545.58419,42.7196836 C549.388045,39.0610151 549.604219,34.0039886 546.10229,30.0290309 C543.645292,27.2405434 541.082516,24.5461712 538.316916,21.5380812 C540.269165,20.4673267 541.870707,19.5884029 543.76904,18.5469629 C544.661467,21.1688201 545.440929,23.4594736 546.221417,25.7501272 C546.532073,25.7501272 546.842728,25.7496129 547.153896,25.7490986 C547.153896,24.2134247 547.102548,22.6751794 547.175462,21.1425912 C547.212433,20.3639542 547.23862,19.3466859 547.708454,18.9023382 C548.085348,18.5449058 549.330021,18.6246209 549.804476,19.0000536 C550.21526,19.3245714 550.157237,20.3341253 550.17983,21.0453902 C550.228097,22.5604924 550.194721,24.0786804 550.194721,25.5963541 L551.046583,25.6971552 C551.839909,23.4419877 552.633234,21.1868203 553.565713,18.5361628 C555.613982,19.6897182 557.689465,20.3701257 559.09075,21.7417406 C562.885363,25.4559525 566.513608,29.3609665 569.965216,33.3986677 C571.749043,35.4851476 571.131841,38.1805484 568.840696,40.1965703 C565.808601,42.8647137 562.779073,45.5426286 559.624769,48.0600846 C558.140814,49.2444975 557.691519,50.51994 557.803971,52.3744745 C558.435551,62.806874 558.964435,73.2454449 559.486643,83.6840158 C559.53491,84.6369976 559.573935,85.8003246 559.093318,86.509018 C558.649672,87.1637109 557.185742,87.8785758 556.728232,87.6116586 C555.78343,87.0587955 554.76366,85.9612978 554.553647,84.9286008 C553.060449,77.5906922 551.778805,70.2100975 550.393437,62.8500744 C550.102294,61.3020576 549.659162,59.782841 549.285862,58.2507671 C548.872511,58.2821389 548.458134,58.314025 548.044783,58.3453968 Z M558.598324,32.4467144 C558.232726,35.8929806 557.933882,38.7066684 557.547745,42.3447652 C559.817837,40.0736547 561.430676,38.4608371 563.242745,36.6484745 C561.773167,35.3185172 560.43658,34.1099326 558.598324,32.4467144 Z M490.471783,18.8756465 C491.319538,21.3061873 492.086162,23.5022112 492.852274,25.6982352 C493.146497,25.7141782 493.441234,25.7301212 493.735458,25.7465786 C493.815047,24.3801065 493.874611,23.0120916 493.979874,21.6476767 C494.04714,20.7769815 493.967037,19.7797707 494.381415,19.1029633 C494.572943,18.7897599 496.135461,18.8190745 496.452791,19.2063358 C496.862547,19.7051984 496.681289,20.7183523 496.694126,21.5113895 C496.718773,23.0532349 496.701315,24.5955946 496.701315,26.1384685 C497.044832,26.153383 497.38835,26.1682974 497.732381,26.1837262 C498.508249,23.8113003 499.284116,21.4393887 500.161139,18.7594167 C502.081038,19.7977708 503.676932,20.6602374 505.666151,21.7361348 C503.10697,24.513308 500.773206,27.0040208 498.486169,29.5369056 C494.136485,34.3542724 494.231479,39.6854162 499.326735,43.6212877 C503.011976,46.4684044 504.468717,49.627696 504.520065,54.307747 C504.625328,63.8586511 505.434058,73.4023552 505.950618,82.9486307 C505.987589,83.637781 506.260246,84.4627043 505.980914,84.98831 C505.402736,86.0765505 504.52674,87.0058749 503.772952,88 C502.858959,87.1617051 501.366275,86.4602118 501.129561,85.4609438 C500.018391,80.7700926 499.253821,75.9969549 498.363447,71.253646 C497.709275,67.768808 497.072047,64.2808843 496.379877,60.804275 C496.222752,60.0158664 495.869478,59.2670582 495.606577,58.4997356 L494.776281,58.4930498 C494.41017,59.8240357 493.950092,61.1375358 493.69438,62.4896076 C492.303878,69.8455164 490.946238,77.2081109 489.619921,84.5758484 C489.306185,86.3177531 488.952911,88.1404015 486.740842,87.9480566 C484.382432,87.7428543 484.277682,85.8564338 484.388593,83.93967 C484.986797,73.608586 485.501817,63.2728733 486.164205,52.9464179 C486.295656,50.8938812 485.86382,49.4384368 484.200146,48.1028222 C481.055599,45.5781662 478.075365,42.8447078 475.064835,40.1549642 C473.051483,38.3570017 472.19808,35.8215455 473.941856,33.8312381 C478.44507,28.6908964 482.278707,22.7729461 488.699253,19.6090259 C489.133656,19.3950807 489.594247,19.236679 490.471783,18.8756465 Z M481.229668,36.2792648 C482.975498,38.2999154 484.45894,40.0171341 485.941868,41.7338385 C486.110803,41.6402375 486.279224,41.5466365 486.448159,41.4530355 C486.135964,38.655805 485.823768,35.8590888 485.436605,32.388651 C483.55727,34.1264413 482.288976,35.2995398 481.229668,36.2792648 Z M502.656392,8.47765317 C501.623785,10.731792 501.008636,13.3711351 499.412229,15.1058397 C498.339571,16.2712238 495.816333,16.7058 494.052532,16.5031692 C490.080769,16.0469928 488.138276,11.1648253 489.247392,5.33327604 C489.977559,1.49614849 492.89977,-0.522444938 496.799646,0.116819173 C500.298494,0.689739704 502.086943,3.45251268 502.656392,8.47765317 Z M542.0514,8.75465047 C542.0514,3.1360178 544.004676,0.429816871 547.764885,0.0651843248 C551.589793,-0.3066483 554.3595,1.69703068 554.8052,5.51718661 C555.040887,7.53218 554.947434,9.66288894 554.560784,11.6557678 C553.919449,14.9631753 551.655005,16.721023 548.610072,16.7426233 C545.534844,16.7642235 543.424958,15.0860909 542.543314,11.7694262 C542.217768,10.5448986 542.129963,9.25814168 542.0514,8.75465047 Z M528.662067,7.99499076 C528.620988,8.63528346 528.62561,9.42934926 528.511617,10.2059291 C527.90109,14.3603744 525.623809,16.6901141 522.164499,16.7441147 C518.729322,16.7970867 516.529577,14.8288938 515.815327,10.6533626 C515.524184,8.94900116 515.581694,7.10115245 515.892349,5.39319097 C516.573736,1.64503583 518.886447,-0.109726153 522.48491,0.0419897863 C525.893386,0.184962773 528.139858,2.41030132 528.557317,6.07668414 C528.624069,6.66297624 528.623556,7.25646843 528.662067,7.99499076 Z" id="Combined-Shape" fill="#1A5692"></path>
                <path d="M669.712028,508.472891 C669.712028,509.527757 669.543318,510.580993 669.433008,511.877157 L595.275317,511.877157 L595.275317,507.238682 C595.275317,476.82039 595.333717,446.403729 595.197451,415.985437 C595.181229,412.321938 596.066956,411.149684 599.877526,411.182292 C621.764378,411.366527 643.652853,411.315984 665.541327,411.221421 C668.498615,411.208378 669.819094,411.721953 669.804494,415.183283 C669.668228,446.279819 669.726628,477.376355 669.712028,508.472891 M639.890949,525.438788 C637.451145,525.975189 634.810188,525.593676 632.253586,525.593676 C632.253586,525.588785 632.251963,525.583894 632.251963,525.579002 C629.830005,525.579002 627.312335,525.978449 625.023397,525.420854 C623.753207,525.112709 622.025554,523.193734 622.043398,522.02474 C622.061243,520.837812 623.907317,518.760688 625.070441,518.672646 C630.023047,518.300916 635.037297,518.305807 639.988281,518.690581 C641.131939,518.780253 642.955303,520.916071 642.945569,522.096477 C642.934214,523.271993 641.16925,525.15673 639.890949,525.438788 M632.423918,400.188534 C633.478354,400.027125 634.795588,401.587414 636.964482,403.036835 C634.892921,404.557994 633.68113,406.137848 632.616961,406.043285 C631.486281,405.94057 629.664539,404.246589 629.669406,403.256939 C629.675895,402.159682 631.302971,400.361356 632.423918,400.188534 M675.957535,413.805599 C676.038646,430.375309 675.978624,446.94502 675.978624,463.514731 C675.980246,479.812166 676.002957,496.109601 675.972135,512.408666 C675.947802,525.262706 669.238343,531.978305 656.458575,531.986457 C640.242968,531.9995 624.025739,532.010913 607.810131,531.981566 C596.101022,531.962001 589.063877,525.040972 589.042788,513.308645 C588.986011,480.169223 588.986011,447.029801 589.041166,413.892009 C589.062254,402.185769 596.199977,395.049527 607.725776,395.025071 C624.212293,394.990833 640.698809,394.992463 657.183703,395.025071 C668.741947,395.046266 675.899136,402.14827 675.957535,413.805599 Z M638.252355,462.790836 C632.019825,464.090261 626.514046,461.590864 623.710868,455.939913 C623.292338,455.095368 623.079828,454.061697 622.461766,453.420952 C620.245828,451.125355 620.195539,451.174267 622.194102,449.111816 C621.468974,447.778153 617.965001,446.578181 622.174635,445.011371 C623.160939,444.644532 623.670312,442.90653 624.337041,441.763623 C627.841013,435.757245 634.639694,433.764902 641.274531,436.976781 C641.0166,438.078929 640.747313,439.228358 640.445582,440.519631 C636.58959,440.88647 631.770005,438.809346 629.76171,445.070065 C631.633739,445.153216 633.199172,445.04887 634.691605,445.33419 C636.321925,445.647225 637.882491,446.320579 639.475501,446.835784 C637.824091,447.282512 636.197015,447.911845 634.516406,448.123796 C632.743331,448.347161 630.918345,448.174339 629.117692,448.174339 C629.103092,448.824867 629.090115,449.475394 629.075515,450.125922 C631.534785,450.125922 634.003788,450.003643 636.45008,450.184617 C637.475316,450.259615 638.455131,450.976989 639.456034,451.402522 C638.438909,451.945444 637.463961,452.832379 636.396547,452.95955 C634.318496,453.20737 632.188535,453.032918 629.954752,453.032918 C631.147077,457.806716 633.007751,458.566481 640.301205,457.560526 C642.210546,460.54089 641.620062,462.088135 638.252355,462.790836 Z M663.010518,450.07538 C660.046741,447.56294 657.691293,445.567336 655.210934,443.464126 C656.7715,440.508218 658.242844,437.725133 659.848831,434.684445 C658.606219,434.413799 657.971935,434.214891 657.323051,434.141523 C649.443979,433.267631 649.45209,433.270892 648.580963,425.585207 C648.509586,424.957505 648.241922,424.352628 647.825014,422.903206 C641.498396,428.585135 636.889699,426.70855 633.470081,420.11523 C633.380859,419.945669 633.023973,419.916321 632.608687,419.748391 C630.712324,422.267352 628.790006,424.823812 626.866065,427.378642 C623.691401,425.862374 620.857401,424.507516 617.518893,422.911358 C617.226896,426.827569 616.990053,429.997058 616.741855,433.316543 C613.132439,433.626318 609.941552,433.900225 606.50409,434.195326 C606.779866,435.219215 606.92262,435.995283 607.193529,436.7257 C609.894508,444.008678 609.900997,444.008678 603.541935,448.492266 C603.220738,448.718891 602.84763,448.870518 602.137102,449.25203 C604.958124,451.594909 608.677851,453.197588 609.294291,455.604052 C609.956152,458.180077 607.696414,461.514236 606.656578,464.683725 C607.72237,464.832091 608.635674,464.988609 609.557089,465.086433 C616.629923,465.844567 616.621812,465.841306 617.066297,473.134066 C617.121452,474.021001 617.358295,474.896523 617.590271,476.2416 C619.869475,475.227494 621.903726,474.534576 623.718979,473.463406 C626.007916,472.110177 627.579838,472.322129 629.043071,474.67805 C630.222417,476.579092 631.778116,478.245356 633.366259,480.271938 C634.316874,479.021424 634.991713,478.209487 635.585442,477.342117 C639.134837,472.159089 639.123481,472.167241 644.807704,474.751418 C645.719386,475.165539 646.708933,475.401946 648.014812,475.837262 C648.400898,472.258543 648.741562,469.092315 649.082226,465.934238 C652.60891,465.723917 655.754374,465.536422 660.087296,465.275559 C653.316193,458.209424 657.404161,453.857898 663.010518,450.07538 Z M604.962991,490.083985 C607.152974,488.311745 656.479502,488.008491 660.02403,489.744863 C657.879469,491.393193 608.598363,491.696446 604.962991,490.083985 Z M610.930614,497.55136 L654.083012,497.55136 C654.084634,497.210607 654.084634,496.869855 654.086256,496.527472 L610.933858,496.527472 C610.932236,496.869855 610.930614,497.210607 610.930614,497.55136 Z" id="Combined-Shape" fill="#1A5692"></path>
                <path d="M506.639497,116.376137 L421.390909,201.624726" id="Line-2" stroke="#979797" stroke-width="6" stroke-linecap="square"></path>
                <path id="Line-2-decoration-1" d="M421.390909,201.624726 L431.148983,196.109293 L426.906342,191.866652 L421.390909,201.624726 Z" stroke="#979797" stroke-width="6" stroke-linecap="square"></path>
                <path d="M257.616846,371.383154 L188.737937,440.262063" id="Line-3" stroke="#979797" stroke-width="6" stroke-linecap="square"></path>
                <path id="Line-3-decoration-1" d="M188.737937,440.262063 L198.49601,434.746631 L194.253369,430.50399 L188.737937,440.262063 Z" stroke="#979797" stroke-width="6" stroke-linecap="square"></path>
                <path d="M86.0085648,364.218011 L86.0085648,239.770874" id="Line-3-Copy-4" stroke="#979797" stroke-width="6" stroke-linecap="square"></path>
                <path id="Line-3-Copy-4-decoration-1" d="M86.0085648,239.770874 L83.0085648,250.570874 L89.0085648,250.570874 L86.0085648,239.770874 Z" stroke="#979797" stroke-width="6" stroke-linecap="square"></path>
                <path d="M181.394439,160.374169 L251.628586,230.608316" id="Line-3-Copy-5" stroke="#979797" stroke-width="6" stroke-linecap="square"></path>
                <path id="Line-3-Copy-5-decoration-1" d="M251.628586,230.608316 L246.113153,220.850242 L241.870512,225.092883 L251.628586,230.608316 Z" stroke="#979797" stroke-width="6" stroke-linecap="square"></path>
                <path d="M522,444 L444,367" id="Line-3-Copy-3" stroke="#979797" stroke-width="6" stroke-linecap="square"></path>
                <path id="Line-3-Copy-3-decoration-1" d="M444,367 L449.578272,376.722288 L453.793453,372.452364 L444,367 Z" stroke="#979797" stroke-width="6" stroke-linecap="square"></path>
                <path d="M550.666667,340.225944 L550.666667,197" id="Line-3-Copy" stroke="#979797" stroke-width="6" stroke-linecap="square"></path>
                <path id="Line-3-Copy-decoration-1" d="M550.666667,197 L547.666667,207.8 L553.666667,207.8 L550.666667,197 Z" stroke="#979797" stroke-width="6" stroke-linecap="square"></path>
                <path d="M269.781024,493 L429.607317,493" id="Line-3-Copy-2" stroke="#979797" stroke-width="6" stroke-linecap="square"></path>
                <path id="Line-3-Copy-2-decoration-1" d="M429.607317,493 L418.807317,490 L418.807317,496 L429.607317,493 Z" stroke="#979797" stroke-width="6" stroke-linecap="square"></path>
                <rect id="Rectangle-4-Copy-2" fill="#FFFFFF" transform="translate(551.500000, 272.000000) rotate(56.000000) translate(-551.500000, -272.000000) " x="533" y="250" width="37" height="44"></rect>
                <rect id="Rectangle-4-Copy" fill="#FFFFFF" transform="translate(225.500000, 403.000000) rotate(-42.000000) translate(-225.500000, -403.000000) " x="207" y="381" width="37" height="44"></rect>
                <g id="Group-5" transform="translate(448.000000, 131.000000)">
                    <rect id="Rectangle-4" fill="#FFFFFF" x="0" y="4.86666667" width="37" height="54.1333333"></rect>
                    <path d="M21.5226064,42.6505208 C22.7569876,42.4942701 23.6554161,42.2130229 24.2179189,41.8067708 C25.2022988,41.0880172 25.6944814,39.8458422 25.6944814,38.0802083 C25.6944814,36.7364516 25.2335485,35.6739622 24.3116689,34.8927083 C23.7647911,34.4395811 22.8351129,33.9708358 21.5226064,33.4864583 L21.5226064,42.6505208 Z M19.2960439,18.1583333 C17.9366621,18.1895835 16.9288597,18.5528611 16.2726064,19.2481771 C15.6163531,19.9434931 15.2882314,20.8927023 15.2882314,22.0958333 C15.2882314,23.4083399 15.780414,24.447392 16.7647939,25.2130208 C17.3116716,25.6348979 18.1554132,26.025519 19.2960439,26.3848958 L19.2960439,18.1583333 Z M21.5694814,52.5880208 L19.2960439,52.5880208 L19.2960439,47.9239583 C16.2179035,47.5802066 13.9210515,46.9083383 12.4054189,45.9083333 C9.73353052,44.1114493 8.42104365,41.04898 8.46791888,36.7208333 L14.7960439,36.7208333 C15.014795,38.6895932 15.3194794,40.0098925 15.7101064,40.6817708 C16.3194844,41.7286511 17.514785,42.4083318 19.2960439,42.7208333 L19.2960439,32.7130208 L17.3976064,32.1505208 C14.4132165,31.2755165 12.3077688,30.0567786 11.0812001,28.4942708 C9.8546315,26.931763 9.24135638,25.0489693 9.24135638,22.8458333 C9.24135638,21.3927011 9.47963525,20.0724018 9.95620013,18.8848958 C10.432765,17.6973899 11.1007271,16.6739626 11.9601064,15.8145833 C13.0694869,14.7052028 14.3038496,13.9395854 15.6632314,13.5177083 C16.4913605,13.252082 17.7022859,13.0567715 19.2960439,12.9317708 L19.2960439,9.81458333 L21.5226064,9.81458333 L21.5226064,12.9786458 C24.0694941,13.1817718 26.0694741,13.8067656 27.5226064,14.8536458 C30.1632446,16.5255292 31.5304184,19.2364396 31.6241689,22.9864583 L25.4601064,22.9864583 C25.3351058,21.5958264 25.1007331,20.5802115 24.7569814,19.9395833 C24.1632284,18.8302028 23.0851142,18.2208339 21.5226064,18.1114583 L21.5226064,27.0411458 C25.241375,28.3224022 27.74135,29.4552034 29.0226064,30.4395833 C31.1319919,32.0802165 32.1866689,34.3926934 32.1866689,37.3770833 C32.1866689,41.314603 30.7413708,44.1739494 27.8507314,45.9552083 C26.0850976,47.0489638 23.9913685,47.6895824 21.5694814,47.8770833 L21.5694814,52.5880208 Z" id="$" fill="#1A5692"></path>
                </g>
                <g id="Group-5-Copy" transform="translate(68.000000, 279.000000)">
                    <rect id="Rectangle-4" fill="#FFFFFF" x="0" y="4.86666667" width="37" height="54.1333333"></rect>
                    <path d="M21.5226064,42.6505208 C22.7569876,42.4942701 23.6554161,42.2130229 24.2179189,41.8067708 C25.2022988,41.0880172 25.6944814,39.8458422 25.6944814,38.0802083 C25.6944814,36.7364516 25.2335485,35.6739622 24.3116689,34.8927083 C23.7647911,34.4395811 22.8351129,33.9708358 21.5226064,33.4864583 L21.5226064,42.6505208 Z M19.2960439,18.1583333 C17.9366621,18.1895835 16.9288597,18.5528611 16.2726064,19.2481771 C15.6163531,19.9434931 15.2882314,20.8927023 15.2882314,22.0958333 C15.2882314,23.4083399 15.780414,24.447392 16.7647939,25.2130208 C17.3116716,25.6348979 18.1554132,26.025519 19.2960439,26.3848958 L19.2960439,18.1583333 Z M21.5694814,52.5880208 L19.2960439,52.5880208 L19.2960439,47.9239583 C16.2179035,47.5802066 13.9210515,46.9083383 12.4054189,45.9083333 C9.73353052,44.1114493 8.42104365,41.04898 8.46791888,36.7208333 L14.7960439,36.7208333 C15.014795,38.6895932 15.3194794,40.0098925 15.7101064,40.6817708 C16.3194844,41.7286511 17.514785,42.4083318 19.2960439,42.7208333 L19.2960439,32.7130208 L17.3976064,32.1505208 C14.4132165,31.2755165 12.3077688,30.0567786 11.0812001,28.4942708 C9.8546315,26.931763 9.24135638,25.0489693 9.24135638,22.8458333 C9.24135638,21.3927011 9.47963525,20.0724018 9.95620013,18.8848958 C10.432765,17.6973899 11.1007271,16.6739626 11.9601064,15.8145833 C13.0694869,14.7052028 14.3038496,13.9395854 15.6632314,13.5177083 C16.4913605,13.252082 17.7022859,13.0567715 19.2960439,12.9317708 L19.2960439,9.81458333 L21.5226064,9.81458333 L21.5226064,12.9786458 C24.0694941,13.1817718 26.0694741,13.8067656 27.5226064,14.8536458 C30.1632446,16.5255292 31.5304184,19.2364396 31.6241689,22.9864583 L25.4601064,22.9864583 C25.3351058,21.5958264 25.1007331,20.5802115 24.7569814,19.9395833 C24.1632284,18.8302028 23.0851142,18.2208339 21.5226064,18.1114583 L21.5226064,27.0411458 C25.241375,28.3224022 27.74135,29.4552034 29.0226064,30.4395833 C31.1319919,32.0802165 32.1866689,34.3926934 32.1866689,37.3770833 C32.1866689,41.314603 30.7413708,44.1739494 27.8507314,45.9552083 C26.0850976,47.0489638 23.9913685,47.6895824 21.5694814,47.8770833 L21.5694814,52.5880208 Z" id="$" fill="#1A5692"></path>
                </g>
                <path d="M554.4375,285.617188 C555.671881,285.460937 556.57031,285.17969 557.132812,284.773438 C558.117192,284.054684 558.609375,282.812509 558.609375,281.046875 C558.609375,279.703118 558.148442,278.640629 557.226562,277.859375 C556.679685,277.406248 555.750007,276.937502 554.4375,276.453125 L554.4375,285.617188 Z M552.210938,261.125 C550.851556,261.15625 549.843753,261.519528 549.1875,262.214844 C548.531247,262.91016 548.203125,263.859369 548.203125,265.0625 C548.203125,266.375007 548.695308,267.414059 549.679688,268.179688 C550.226565,268.601565 551.070307,268.992186 552.210938,269.351562 L552.210938,261.125 Z M554.484375,295.554688 L552.210938,295.554688 L552.210938,290.890625 C549.132797,290.546873 546.835945,289.875005 545.320312,288.875 C542.648424,287.078116 541.335937,284.015647 541.382812,279.6875 L547.710938,279.6875 C547.929689,281.65626 548.234373,282.976559 548.625,283.648438 C549.234378,284.695318 550.429679,285.374998 552.210938,285.6875 L552.210938,275.679688 L550.3125,275.117188 C547.32811,274.242183 545.222662,273.023445 543.996094,271.460938 C542.769525,269.89843 542.15625,268.015636 542.15625,265.8125 C542.15625,264.359368 542.394529,263.039068 542.871094,261.851562 C543.347659,260.664057 544.015621,259.640629 544.875,258.78125 C545.984381,257.671869 547.218743,256.906252 548.578125,256.484375 C549.406254,256.218749 550.61718,256.023438 552.210938,255.898438 L552.210938,252.78125 L554.4375,252.78125 L554.4375,255.945312 C556.984388,256.148439 558.984368,256.773432 560.4375,257.820312 C563.078138,259.492196 564.445312,262.203106 564.539062,265.953125 L558.375,265.953125 C558.249999,264.562493 558.015627,263.546878 557.671875,262.90625 C557.078122,261.796869 556.000008,261.187501 554.4375,261.078125 L554.4375,270.007812 C558.156269,271.289069 560.656244,272.42187 561.9375,273.40625 C564.046886,275.046883 565.101562,277.35936 565.101562,280.34375 C565.101562,284.28127 563.656264,287.140616 560.765625,288.921875 C558.999991,290.01563 556.906262,290.656249 554.484375,290.84375 L554.484375,295.554688 Z" id="$-copy-2" fill="#1A5692"></path>
                <g id="Group-2" transform="translate(322.000000, 423.000000)" fill="#1A5692">
                    <path d="M49.6154502,24.3587714 C45.1017054,24.3566811 40.5879606,24.3565204 36.0740501,24.3587714 C34.6040426,24.3595753 33.7861936,25.152421 33.7860279,26.5663906 C33.7855308,30.9333927 33.7858622,35.300234 33.7858622,39.6670752 C33.7858622,44.0472619 33.7853651,48.4274486 33.7861936,52.8077961 C33.7863592,54.1654899 34.6250853,54.9954776 36.018378,54.9966031 C40.5597932,55.0009444 45.1012083,55.0014267 49.6424577,54.9962815 C51.0155362,54.9949952 51.8564162,54.1648468 51.8565819,52.832879 C51.8572447,44.0725056 51.8574104,35.3121323 51.8565819,26.5515981 C51.8564162,25.1244438 51.0765103,24.3594145 49.6154502,24.3587714" id="Fill-1"></path>
                    <path d="M18.9339211,24.3591544 C14.4207092,24.3567426 9.90733157,24.3560994 5.39395394,24.359476 C3.96256373,24.3604407 3.14339563,25.1671252 3.14322994,26.5603723 C3.14273288,35.3067165 3.14273288,44.0530606 3.14322994,52.7992439 C3.14339563,54.1830044 3.97631595,54.9969245 5.40472375,54.9978892 C9.91793568,55.0007834 14.4313133,55.0006226 18.9445252,54.9978892 C20.3711105,54.9970852 21.2136408,54.1786631 21.2138064,52.8043892 C21.2146349,48.4244639 21.2141378,44.0446995 21.2141378,39.6647742 C21.2141378,35.2983554 21.2144692,30.9319365 21.2139721,26.5655176 C21.2138064,25.1394693 20.4125328,24.3599584 18.9339211,24.3591544" id="Fill-3"></path>
                    <path d="M31.4223856,15.3649434 C31.3664087,14.1419293 30.5960301,13.3630718 29.4307204,13.3594991 C28.1811361,13.3556016 26.9315517,13.3573879 25.6819674,13.3588495 C24.3420777,13.3604735 23.5718538,14.1685625 23.5716992,15.5726496 C23.5715445,21.7690811 23.5715445,27.9655126 23.5715445,34.1619441 C23.5715445,40.3853335 23.5710806,46.608723 23.5720084,52.8321124 C23.5723177,54.126419 24.3601697,54.9804664 25.5854768,54.992971 C26.8607301,55.0058004 28.1361381,54.9976805 29.411546,54.9949197 C29.9611095,54.9936206 30.4471191,54.8169323 30.8480809,54.4060671 C31.2946592,53.9482691 31.4288802,53.3837761 31.4285709,52.7460419 C31.4239319,40.3804616 31.425169,28.0147189 31.4250144,15.6489763 C31.4250144,15.5542987 31.4267153,15.4594586 31.4223856,15.3649434" id="Fill-5"></path>
                    <path d="M18.9636099,21.9954298 C20.3576137,21.9878748 21.2094415,21.1147784 21.2117196,19.7074113 C21.2141603,18.3391332 21.2174147,16.9710193 21.2078143,15.6029054 C21.2058617,15.3324032 21.1874746,15.0499115 21.1083937,14.7945193 C20.8179424,13.8580265 20.0626062,13.3631733 18.9387141,13.3612024 C16.1733245,13.356111 13.4079348,13.35956 10.6427079,13.35956 C7.86381271,13.35956 5.08508021,13.3524977 2.306185,13.3625163 C0.797302496,13.3679362 0.00421575993,14.1874906 0.00161227455,15.7078544 C-0.000828493004,16.9940128 -0.000177621657,18.2801712 0.00144955671,19.5661654 C0.00340217075,21.163229 0.830171499,21.9970722 2.41243974,21.9974007 C6.31636608,21.9982219 10.2204551,21.9977291 14.1243815,21.9977291 C15.7374034,21.9977291 17.350588,22.0041345 18.9636099,21.9954298" id="Fill-7"></path>
                    <path d="M54.9926698,15.6739098 C54.9907172,15.3898855 54.9746077,15.0938695 54.894874,14.8246296 C54.6112497,13.8643024 53.8524775,13.3621265 52.7095189,13.3604838 C49.9440602,13.356377 47.1784389,13.3591696 44.4128175,13.3593339 C41.6336902,13.3594982 38.8545629,13.3527631 36.0755983,13.3621265 C34.5884829,13.3672189 33.790332,14.1866018 33.7877284,15.6778523 C33.7851249,17.0053248 33.7849622,18.3329616 33.7877284,19.6604341 C33.7906574,21.1280296 34.6361604,21.9963652 36.0806427,21.9973508 C41.6253914,22.0009647 47.17014,22.0008005 52.714726,21.9973508 C54.1374035,21.9965294 54.9899036,21.133122 54.9959243,19.6975593 C55.0012941,18.356288 55.0024332,17.015181 54.9926698,15.6739098" id="Fill-10"></path>
                    <path d="M32.6524017,9.53788349 C32.6499713,9.58875311 32.6475409,9.63946175 32.6451104,9.69033137 C31.6277382,9.5848896 30.6037227,9.52178551 29.5947759,9.36370334 C28.1567796,9.13833161 27.8808463,8.51920327 28.6511262,7.28368324 C29.6866456,5.62237162 31.1353358,4.36045091 32.7572337,3.2954085 C33.337293,2.91469125 33.9727659,2.60239042 34.6145578,2.3330712 C36.5371792,1.52624041 39.0975418,3.01981107 39.4156023,5.27562112 C39.7333387,7.53014333 38.0955621,9.46640846 35.8056239,9.53273214 C34.7553599,9.56315732 33.7034758,9.53788349 32.6524017,9.53788349 M25.4327689,9.10983818 C24.8172255,9.2954479 24.1817526,9.45739359 23.5440114,9.51969277 C22.5520774,9.61644164 21.5509079,9.62046613 20.5537891,9.6637697 C20.553141,9.64718878 20.5524929,9.63076884 20.5520068,9.6143489 C19.8094336,9.6143489 19.0657262,9.63994469 18.3246112,9.60919755 C16.5555922,9.53579075 14.9816546,8.04157618 14.8011557,6.29430134 C14.6138516,4.48295654 15.7820717,2.79685403 17.5374804,2.33355414 C18.335143,2.12315353 19.1123902,2.14343699 19.8664674,2.49710963 C22.2024215,3.59209428 24.096526,5.20350216 25.5445681,7.32618191 C25.7155074,7.57666649 25.8323294,7.87335228 25.9253333,8.16408181 C26.0936801,8.69016382 25.9836633,8.943868 25.4327689,9.10983818 M41.6237165,5.38766306 C41.3727355,2.36059875 38.4753552,-0.194311782 35.4277751,0.0120643319 C34.2495093,0.0919103167 33.2126937,0.561810376 32.2178433,1.13860103 C30.2253879,2.29379213 28.5159951,3.77190873 27.1099182,5.66808989 C26.9893696,5.5212763 26.8960416,5.41036121 26.8054681,5.29703143 C25.1863247,3.26997369 23.2262749,1.66468304 20.8608317,0.564064094 C18.9540891,-0.323095628 17.1060005,-0.138934728 15.346217,0.941883703 C13.1082897,2.31649028 12.1035555,4.90150404 12.7787252,7.42872605 C13.4161424,9.8152517 15.7104554,11.6335186 18.2452176,11.7215746 C19.6472438,11.7703515 21.0525106,11.8075378 22.4543747,11.7709954 C24.0074107,11.7304285 25.5546138,11.5881223 26.9405992,10.7664814 C27.0075167,10.7267194 27.1486429,10.7492565 27.2238237,10.7944919 C28.1946941,11.3788486 29.2681279,11.6566997 30.3796384,11.6914714 C32.2118482,11.7487802 34.0489189,11.7777565 35.8808047,11.7178721 C39.3459303,11.6050252 41.8900902,8.60178591 41.6237165,5.38766306" id="Fill-13"></path>
                </g>
                <path d="M228.4375,413.617188 C229.671881,413.460937 230.57031,413.17969 231.132812,412.773438 C232.117192,412.054684 232.609375,410.812509 232.609375,409.046875 C232.609375,407.703118 232.148442,406.640629 231.226562,405.859375 C230.679685,405.406248 229.750007,404.937502 228.4375,404.453125 L228.4375,413.617188 Z M226.210938,389.125 C224.851556,389.15625 223.843753,389.519528 223.1875,390.214844 C222.531247,390.91016 222.203125,391.859369 222.203125,393.0625 C222.203125,394.375007 222.695308,395.414059 223.679688,396.179688 C224.226565,396.601565 225.070307,396.992186 226.210938,397.351562 L226.210938,389.125 Z M228.484375,423.554688 L226.210938,423.554688 L226.210938,418.890625 C223.132797,418.546873 220.835945,417.875005 219.320312,416.875 C216.648424,415.078116 215.335937,412.015647 215.382812,407.6875 L221.710938,407.6875 C221.929689,409.65626 222.234373,410.976559 222.625,411.648438 C223.234378,412.695318 224.429679,413.374998 226.210938,413.6875 L226.210938,403.679688 L224.3125,403.117188 C221.32811,402.242183 219.222662,401.023445 217.996094,399.460938 C216.769525,397.89843 216.15625,396.015636 216.15625,393.8125 C216.15625,392.359368 216.394529,391.039068 216.871094,389.851562 C217.347659,388.664057 218.015621,387.640629 218.875,386.78125 C219.984381,385.671869 221.218743,384.906252 222.578125,384.484375 C223.406254,384.218749 224.61718,384.023438 226.210938,383.898438 L226.210938,380.78125 L228.4375,380.78125 L228.4375,383.945312 C230.984388,384.148439 232.984368,384.773432 234.4375,385.820312 C237.078138,387.492196 238.445312,390.203106 238.539062,393.953125 L232.375,393.953125 C232.249999,392.562493 232.015627,391.546878 231.671875,390.90625 C231.078122,389.796869 230.000008,389.187501 228.4375,389.078125 L228.4375,398.007812 C232.156269,399.289069 234.656244,400.42187 235.9375,401.40625 C238.046886,403.046883 239.101562,405.35936 239.101562,408.34375 C239.101562,412.28127 237.656264,415.140616 234.765625,416.921875 C232.999991,418.01563 230.906262,418.656249 228.484375,418.84375 L228.484375,423.554688 Z" id="$-copy" fill="#1A5692"></path>
                <g id="Group-6" transform="translate(456.000000, 371.000000)">
                    <rect id="Rectangle-4-Copy-3" fill="#FFFFFF" transform="translate(28.500000, 32.000000) rotate(-42.000000) translate(-28.500000, -32.000000) " x="10.1506849" y="10.0540541" width="36.6986301" height="43.8918919"></rect>
                    <path d="M30.8347603,43.2658361 C32.0691414,43.1095854 32.96757,42.8283382 33.5300728,42.4220861 C34.5144527,41.7033326 35.0066353,40.4611575 35.0066353,38.6955236 C35.0066353,37.3517669 34.5457024,36.2892776 33.6238228,35.5080236 C33.076945,35.0548964 32.1472668,34.5861511 30.8347603,34.1017736 L30.8347603,43.2658361 Z M28.6081978,18.7736486 C27.248816,18.8048988 26.2410136,19.1681764 25.5847603,19.8634924 C24.928507,20.5588084 24.6003853,21.5080176 24.6003853,22.7111486 C24.6003853,24.0236552 25.0925679,25.0627073 26.0769478,25.8283361 C26.6238255,26.2502133 27.4675671,26.6408344 28.6081978,27.0002111 L28.6081978,18.7736486 Z M30.8816353,53.2033361 L28.6081978,53.2033361 L28.6081978,48.5392736 C25.5300574,48.1955219 23.2332054,47.5236536 21.7175728,46.5236486 C19.0456844,44.7267647 17.7331975,41.6642953 17.7800728,37.3361486 L24.1081978,37.3361486 C24.3269489,39.3049085 24.6316333,40.6252078 25.0222603,41.2970861 C25.6316383,42.3439664 26.8269389,43.0236471 28.6081978,43.3361486 L28.6081978,33.3283361 L26.7097603,32.7658361 C23.7253704,31.8908318 21.6199227,30.672094 20.393354,29.1095861 C19.1667854,27.5470783 18.5535103,25.6642847 18.5535103,23.4611486 C18.5535103,22.0080164 18.7917891,20.6877171 19.268354,19.5002111 C19.7449189,18.3127052 20.412881,17.2892779 21.2722603,16.4298986 C22.3816408,15.3205181 23.6160035,14.5549008 24.9753853,14.1330236 C25.8035144,13.8673973 27.0144398,13.6720868 28.6081978,13.5470861 L28.6081978,10.4298986 L30.8347603,10.4298986 L30.8347603,13.5939611 C33.381648,13.7970872 35.381628,14.4220809 36.8347603,15.4689611 C39.4753985,17.1408445 40.8425723,19.8517549 40.9363228,23.6017736 L34.7722603,23.6017736 C34.6472596,22.2111417 34.412887,21.1955269 34.0691353,20.5548986 C33.4753823,19.4455181 32.3972681,18.8361492 30.8347603,18.7267736 L30.8347603,27.6564611 C34.5535289,28.9377176 37.0535039,30.0705187 38.3347603,31.0548986 C40.4441458,32.6955319 41.4988228,35.0080087 41.4988228,37.9923986 C41.4988228,41.9299183 40.0535247,44.7892647 37.1628853,46.5705236 C35.3972514,47.6642791 33.3035224,48.3048977 30.8816353,48.4923986 L30.8816353,53.2033361 Z" id="$-copy-3" fill="#1A5692"></path>
                </g>
                <g id="Group-6-Copy" transform="translate(187.000000, 161.000000)">
                    <rect id="Rectangle-4-Copy-3" fill="#FFFFFF" transform="translate(28.500000, 32.000000) rotate(-42.000000) translate(-28.500000, -32.000000) " x="10.1506849" y="10.0540541" width="36.6986301" height="43.8918919"></rect>
                    <path d="M30.8347603,43.2658361 C32.0691414,43.1095854 32.96757,42.8283382 33.5300728,42.4220861 C34.5144527,41.7033326 35.0066353,40.4611575 35.0066353,38.6955236 C35.0066353,37.3517669 34.5457024,36.2892776 33.6238228,35.5080236 C33.076945,35.0548964 32.1472668,34.5861511 30.8347603,34.1017736 L30.8347603,43.2658361 Z M28.6081978,18.7736486 C27.248816,18.8048988 26.2410136,19.1681764 25.5847603,19.8634924 C24.928507,20.5588084 24.6003853,21.5080176 24.6003853,22.7111486 C24.6003853,24.0236552 25.0925679,25.0627073 26.0769478,25.8283361 C26.6238255,26.2502133 27.4675671,26.6408344 28.6081978,27.0002111 L28.6081978,18.7736486 Z M30.8816353,53.2033361 L28.6081978,53.2033361 L28.6081978,48.5392736 C25.5300574,48.1955219 23.2332054,47.5236536 21.7175728,46.5236486 C19.0456844,44.7267647 17.7331975,41.6642953 17.7800728,37.3361486 L24.1081978,37.3361486 C24.3269489,39.3049085 24.6316333,40.6252078 25.0222603,41.2970861 C25.6316383,42.3439664 26.8269389,43.0236471 28.6081978,43.3361486 L28.6081978,33.3283361 L26.7097603,32.7658361 C23.7253704,31.8908318 21.6199227,30.672094 20.393354,29.1095861 C19.1667854,27.5470783 18.5535103,25.6642847 18.5535103,23.4611486 C18.5535103,22.0080164 18.7917891,20.6877171 19.268354,19.5002111 C19.7449189,18.3127052 20.412881,17.2892779 21.2722603,16.4298986 C22.3816408,15.3205181 23.6160035,14.5549008 24.9753853,14.1330236 C25.8035144,13.8673973 27.0144398,13.6720868 28.6081978,13.5470861 L28.6081978,10.4298986 L30.8347603,10.4298986 L30.8347603,13.5939611 C33.381648,13.7970872 35.381628,14.4220809 36.8347603,15.4689611 C39.4753985,17.1408445 40.8425723,19.8517549 40.9363228,23.6017736 L34.7722603,23.6017736 C34.6472596,22.2111417 34.412887,21.1955269 34.0691353,20.5548986 C33.4753823,19.4455181 32.3972681,18.8361492 30.8347603,18.7267736 L30.8347603,27.6564611 C34.5535289,28.9377176 37.0535039,30.0705187 38.3347603,31.0548986 C40.4441458,32.6955319 41.4988228,35.0080087 41.4988228,37.9923986 C41.4988228,41.9299183 40.0535247,44.7892647 37.1628853,46.5705236 C35.3972514,47.6642791 33.3035224,48.3048977 30.8816353,48.4923986 L30.8816353,53.2033361 Z" id="$-copy-3" fill="#1A5692"></path>
                </g>
                <path d="M126.326255,98.187772 C127.463025,99.3217288 128.001469,100.627138 127.999997,102.260134 C127.978891,126.672567 127.987235,151.085 127.982327,175.497433 C127.981836,178.674488 126.231034,180.505124 123.102953,180.544158 C120.118196,180.581216 117.131475,180.590109 114.147699,180.514018 C112.060185,180.46115 110.407059,179.097437 110.00703,177.301388 C109.495581,175.008275 110.193055,172.970118 112.182894,172.07234 C113.315246,171.560948 114.710685,171.534761 115.994705,171.489304 C118.941177,171.384555 118.778221,171.872725 118.778221,168.695175 C118.777239,147.575911 118.769877,126.456646 118.797363,105.337876 C118.799327,104.143145 118.485684,103.272049 117.61151,102.41874 C114.183039,99.0731971 110.82034,95.6579862 107.467458,92.2348698 C106.782746,91.53572 106.059257,91.2422253 105.086916,91.2437076 C90.3236322,91.2649539 75.5603479,91.2684126 60.7970636,91.2387667 C59.6524403,91.2362962 59.2268879,91.5470843 59.2283604,92.7640496 C59.2573195,118.453234 59.2494662,144.141924 59.2524112,169.830614 C59.2524112,171.374673 59.3407612,171.453235 60.8328944,171.465093 C61.9367786,171.474481 63.0431168,171.435941 64.1450376,171.49128 C66.84413,171.628146 68.6371441,173.466193 68.6292907,176.034025 C68.6214374,178.577151 66.7744317,180.475973 64.1042985,180.530323 C60.9565844,180.594062 57.8059254,180.59505 54.6582114,180.532794 C51.8270849,180.476467 50.0566491,178.59395 50.0546858,175.723236 C50.0458508,160.902743 50.0507591,146.082744 50.0502683,131.262251 C50.0497775,116.647303 50.1135858,102.032355 50.0002033,87.4188889 C49.9751708,84.1736481 52.2644174,81.9823199 55.3723739,82.0001075 C72.7935205,82.0999154 90.2156488,82.0613757 107.636795,82.0282711 C109.39496,82.0253065 110.783037,82.5861087 112.010611,83.828273 C116.762859,88.6343719 121.541612,93.4142836 126.326255,98.187772 Z M83.667638,143.240243 C91.4964293,140.224264 99.918638,144.080211 102.745347,151.95911 C104.852494,157.830486 102.960332,164.072436 98.6046773,167.859209 C97.9155473,168.458551 97.6475523,169.069257 97.6509881,169.971976 C97.6799473,177.337012 97.669149,184.702049 97.663259,192.067086 C97.6627681,192.583419 97.6019048,193.099752 97.5444773,194 C95.8049641,192.812187 94.3574966,191.833377 92.9208275,190.83925 C91.9799001,190.188522 91.0311193,189.545699 90.1284768,188.843585 C89.3632677,188.249184 88.6981886,188.263513 87.9118736,188.832221 C85.8587179,190.316988 83.767768,191.748392 81.6861439,193.194125 C81.3906623,193.399176 81.0672031,193.564205 80.549374,193.869558 C80.4742765,193.204007 80.369729,192.708426 80.3692382,192.212845 C80.3584398,184.847808 80.3476415,177.482772 80.378564,170.117735 C80.3829815,169.134973 80.1041882,168.471398 79.3473232,167.794483 C71.2039078,160.510972 73.5010077,147.157458 83.667638,143.240243 Z M89.0255744,162.325797 C91.9749918,162.315421 94.5018016,159.776741 94.4929666,156.832901 C94.4846225,153.901413 91.9038209,151.334075 88.9877802,151.355322 C86.0398354,151.376568 83.5179338,153.924635 83.5257872,156.873417 C83.5336405,159.815281 86.0766479,162.336173 89.0255744,162.325797 Z" id="Combined-Shape" fill="#1A5692"></path>
            </g>
        </g>
    </g>
</svg>