<?xml version="1.0" encoding="UTF-8"?>
<svg width="158px" height="133px" viewBox="0 0 158 133" version="1.1" xmlns="http://www.w3.org/2000/svg" xmlns:xlink="http://www.w3.org/1999/xlink">
    <!-- Generator: Sketch 47.1 (45422) - http://www.bohemiancoding.com/sketch -->
    <title>Group 25</title>
    <desc>Created with Sketch.</desc>
    <defs></defs>
    <g id="Page-1" stroke="none" stroke-width="1" fill="none" fill-rule="evenodd">
        <g id="Group-25" fill="#1A5692">
            <path d="M117.98511,131.465695 L84.1697351,131.465695 C83.4372428,128.091986 82.7023646,124.722057 81.9746442,121.351183 C81.7083702,120.120599 81.5384892,118.86355 81.1739132,117.663211 C80.8646917,116.645286 81.1548255,115.889166 81.6678087,115.026245 C82.3864624,113.816455 83.0655089,112.542394 83.4906885,111.211151 C84.208865,108.958861 83.2845408,107.469306 80.9992604,106.819516 C80.6571125,106.722166 80.3049436,106.62009 79.953729,106.603077 C78.1284633,106.513288 76.2645448,106.563381 75.062494,108.153122 C73.8752361,109.722069 74.5557143,111.386476 75.269596,112.954951 C75.5788175,113.634513 75.8827899,114.350464 76.3547344,114.914718 C77.1750303,115.896255 77.2146374,116.883463 76.9383423,118.080022 C75.9123759,122.517024 74.981371,126.976237 74.0083731,131.454353 L40.0002121,131.454353 C40.0002121,129.228527 39.9997349,127.07217 40.0002121,124.916757 C40.0002121,123.577481 39.9997349,122.238678 40.0021209,120.899874 C40.0059384,118.210452 41.0538557,116.035192 43.1878658,114.34432 C49.9115245,109.015097 57.0746787,104.364492 64.8090336,100.603271 C65.68707,100.176064 65.9977231,99.6935651 65.9857932,98.7262051 C65.9318703,94.2376923 65.9480949,89.7482344 65.9762493,85.2592491 C65.9810213,84.5674 65.7839403,84.1368846 65.2160798,83.6888839 C63.4934107,82.3307048 62.6912481,80.4541114 62.6769323,78.3114585 C62.639234,72.7199568 62.5619287,67.1260923 62.7046096,61.537426 C62.8897607,54.2616687 69.1472013,48.2235841 76.5222294,48.0714151 C79.3739387,48.0123433 82.245213,47.791651 85.051589,48.6139307 C90.8160885,50.3014943 95.0907893,55.50643 95.2630563,61.4948943 C95.4272109,67.1998139 95.3451336,72.9132398 95.2964598,78.6224125 C95.2788036,80.6965421 94.2437706,82.3600044 92.7425193,83.7800908 C92.3946451,84.1094753 92.073971,84.6656955 92.069199,85.1212573 C92.0205253,89.7279137 92.054406,94.3355153 92.0252972,98.9426442 C92.0205253,99.7223922 92.3421538,100.121718 92.9949548,100.512064 C98.7709069,103.964221 104.546859,107.418268 110.268411,110.957851 C111.91282,111.974832 113.394984,113.253618 114.928684,114.442143 C116.971073,116.024323 117.977475,118.124916 117.983201,120.688161 C117.991313,124.260824 117.98511,127.833015 117.98511,131.465695" id="Fill-1"></path>
            <path d="M92.6644886,11.022671 C92.6933946,11.2862278 92.6843911,11.3978239 92.7185096,11.4942239 C94.1330073,15.4618212 95.532815,19.4346422 96.9989643,23.3822947 C97.1259611,23.7232564 97.681335,24.0936605 98.0585344,24.1178792 C99.4322794,24.2062063 100.815502,24.1530201 102.194933,24.153495 L107.240686,24.153495 C103.599953,18.1904645 98.8110377,13.9564612 92.6644886,11.022671 L92.6644886,11.022671 Z M50.8901317,24.1530201 C54.1110163,24.1530201 57.0219909,24.1231028 59.9324916,24.1724901 C60.7480194,24.1867364 61.0579294,23.9056092 61.3318254,23.142007 C62.6885111,19.3624609 64.1314409,15.6142568 65.5416737,11.8537058 C65.6421339,11.5858752 65.7212699,11.3094968 65.8809636,10.8208483 C59.5145395,13.7945281 54.5787246,17.9986142 50.8901317,24.1530201 L50.8901317,24.1530201 Z M88.8313658,24.0846378 C87.5012167,19.470258 85.7365302,15.2253325 83.5079264,11.1746317 C81.7110168,7.90890255 81.6953791,7.94451833 77.9769325,8.07558438 C77.2054745,8.10312725 76.7462959,8.3415155 76.4046366,9.02391375 C74.5721869,12.6842657 72.6696046,16.3104264 70.8888066,19.995472 C70.2846242,21.2448733 69.9671322,22.6329388 69.4747828,24.0846378 L88.8313658,24.0846378 Z M59.0198207,49.6396687 L59.0198207,32.3897617 L47.4095671,32.3897617 C47.3403823,32.5099055 47.2560337,32.6044061 47.2252323,32.7145775 C45.7325463,38.1419468 45.9149857,43.5802382 47.1930092,49.0085572 C47.2560337,49.2759129 47.7806062,49.5945554 48.1047323,49.6111761 C49.4429371,49.6786086 50.7863545,49.6396687 52.1283503,49.6396687 L59.0198207,49.6396687 Z M98.9716791,32.4666917 C99.0764041,35.4650651 99.2773244,38.2635153 99.2446274,41.0591162 C99.2109828,43.8822599 98.9465641,46.7030293 98.7764453,49.6368194 C102.677805,49.6368194 106.49529,49.653915 110.312302,49.6007288 C110.571508,49.5974046 110.973822,49.1144547 111.056275,48.7896389 C112.245685,44.1234975 112.310131,39.4155669 111.428736,34.6943397 C111.011732,32.4605183 110.977613,32.4666917 108.675086,32.4666917 L106.900448,32.4666917 L98.9716791,32.4666917 Z M67.2272242,32.4059075 C67.1405063,36.087154 67.0173004,39.6748497 66.9955025,43.2634952 C66.9893422,44.2355684 66.8798786,44.8562327 65.9288244,45.4545777 C61.7028645,48.113414 58.7914161,51.8744399 57.2845141,56.6531271 C56.9878723,57.5938584 56.5718158,57.8616891 55.640664,57.8137265 C54.1091208,57.7348969 52.5704696,57.792357 50.8707031,57.792357 C51.0526686,58.1651355 51.1384388,58.4571848 51.3118747,58.6794273 C52.7197382,60.483485 54.1726192,62.2533516 55.543521,64.0844773 C55.9131385,64.5778745 56.2443726,65.2431772 56.2585886,65.8372483 C56.3296689,68.8736118 56.2912856,71.9128246 56.2912856,75 C46.7172452,69.413547 36.5399701,55.5252942 38.1738689,37.3536509 C39.9395031,17.713688 55.2639385,2.66198658 73.7410215,0.348385837 C95.3996579,-2.36268696 112.593505,11.0953272 118.086115,28.662927 C123.904273,47.2690827 115.877414,65.6672423 101.847587,74.9624847 C101.817734,74.5222737 101.772716,74.1580431 101.771768,73.7942873 C101.766082,71.1041091 101.798779,68.4129811 101.751392,65.7232778 C101.737176,64.900316 102.043295,64.3580064 102.569289,63.7539629 C104.187077,61.8976687 105.71009,59.9587459 107.269592,58.0516399 C107.185243,57.9125009 107.099947,57.7738368 107.015124,57.6351727 C105.423873,57.6351727 103.830253,57.5914841 102.240898,57.6527432 C101.400256,57.6855097 101.012631,57.4366742 100.74916,56.5842699 C99.1906064,51.5439255 96.1080914,47.6551577 91.6371415,44.8875745 C91.0457536,44.5214444 90.9069101,44.1386935 90.9021714,43.4686421 C90.8780041,39.7987926 90.7822827,36.1284683 90.7097808,32.4059075 L67.2272242,32.4059075 Z" id="Fill-4"></path>
            <path d="M0.0253890634,133 C0.0253890634,129.748932 -0.0503089567,126.571001 0.0597117682,123.399764 C0.11002039,121.970938 0.936116175,120.794989 2.01046385,119.840845 C6.81517234,115.574445 12.1507073,112.092011 17.8275887,109.198986 C19.7369654,108.226199 20.5249771,107.209433 20.3557145,105.003334 C20.1290906,102.035258 20.3265637,99.0346767 20.2720235,96.0493918 C20.2630902,95.5704078 20.0007331,94.9857795 19.6650288,94.6444675 C18.5949127,93.5579099 17.7899747,92.3054766 17.7810414,90.7820013 C17.7500099,85.7689217 17.5647614,80.7352869 17.9432515,75.7484988 C18.3396082,70.527477 22.8739666,66.4092658 28.0167302,66.0961575 C29.9594894,65.9776066 31.9708939,65.9044683 33.8633444,66.275418 C39.4217419,67.3648438 42.8906859,71.9061098 42.9715559,77.9507738 C43.0256259,81.9714673 42.9875418,85.9935949 42.9790786,90.0152444 C42.9753173,91.8991528 42.3584489,93.5015026 40.9253584,94.7735351 C40.629619,95.0359725 40.4218021,95.5656275 40.4171003,95.9752975 C40.378546,99.5982717 40.3696127,103.221724 40.4232126,106.84422 C40.4307354,107.3581 40.8233307,107.865766 41.0650001,108.440834 C39.6384921,109.78696 37.909192,111.225825 36.4112175,112.88028 C34.3292869,115.179116 33.2577602,118.00474 33.1735991,121.128653 C33.0795643,124.630208 33.1303431,128.135587 33.1190589,131.639532 C33.1176484,132.067845 33.1190589,132.496158 33.1190589,133 L0.0253890634,133 Z" id="Fill-6"></path>
            <path d="M124.04467,131.497456 C124.04467,128.160134 124.00498,124.922491 124.053756,121.686746 C124.133138,116.387662 122.225118,112.063526 117.876842,108.875722 C117.141369,108.33651 116.459456,107.727049 115.754588,107.147966 C115.725896,107.124708 115.712507,107.082938 115.633604,106.954306 C116.773155,106.625367 116.649779,105.713549 116.644997,104.817394 C116.62826,101.536557 116.623,98.2552451 116.650258,94.9744078 C116.655996,94.3018171 116.515883,93.8238363 115.964996,93.3463302 C114.643729,92.2005054 114.001984,90.7015348 114.005331,88.9381797 C114.013461,84.6292327 113.981421,80.3202858 114.017764,76.0113388 C114.063672,70.6206459 118.531976,65.620122 123.950465,65.1345466 C126.262086,64.927121 128.691344,64.9209505 130.945581,65.39371 C135.974336,66.4488751 139.437942,70.7402597 139.584271,75.8480564 C139.712907,80.3511386 139.636395,84.8599166 139.625396,89.3658467 C139.621092,90.9986708 138.888011,92.3030315 137.720724,93.4393632 C137.352988,93.7972555 137.052678,94.4119378 137.044548,94.9150755 C136.98573,98.3530247 137.03881,101.792872 136.995772,105.231771 C136.985252,106.090902 137.244436,106.562238 138.048769,106.962375 C144.261071,110.047178 150.103245,113.710115 155.466263,118.109722 C156.783705,119.190044 157.762103,120.505322 157.818052,122.207921 C157.918474,125.276111 157.846744,128.349523 157.846744,131.497456 L124.04467,131.497456 Z" id="Fill-8"></path>
        </g>
    </g>
</svg>